M48
;Layer_Color=9474304
;FILE_FORMAT=4:4
METRIC,LZ
;TYPE=PLATED
T1F00S00C0.2000
T3F00S00C0.6300
T4F00S00C0.9000
T5F00S00C1.0200
T6F00S00C1.1000
T8F00S00C3.0000
T9F00S00C4.0000
;TYPE=NON_PLATED
T10F00S00C0.5500
T11F00S00C3.2500
%
T01
X01298Y0008725
X0133225Y00089
X013795Y001175
X013915Y0010575
X0142625Y0012625
X0159225Y0037525
X0159425Y004305
X0164925Y0043575
X016525Y0047975
X016945Y0044675
X0168425Y00416
X01731Y004045
X0175775Y004575
X01796Y0045675
X018135Y00457
X0180425Y00517
X0176375Y0051675
X018035Y00377
X01666Y0037425
X0166875Y00343
X014555Y00372
X015075Y0043275
X0144925Y00497
X0120375Y004185
X01259Y002365
X0127975Y002095
X01264Y001755
X0130375Y001645
X0131725Y0015075
X0103525Y00267
X009985Y0025525
X010335Y0036625
X01064Y00466
X010815Y005055
X01018Y0050725
X009315Y0043925
X0092975Y00336
X00726Y005205
X0047225Y0047325
X0045575Y00402
X0037825Y0032575
X003575Y0035875
X0034075Y0036675
X003475Y0042025
X0035Y00475
X0032425Y0047225
X0028975Y0047475
X00286Y0041325
X001975Y0040925
X0019725Y0039025
X0003Y0039775
X0049225Y00702
X005575Y00708
X005815Y00735
X0047775Y0076525
X010215Y007635
X01154Y00724
X01166Y007125
X0105625Y0059
X0105Y0054325
X0116875Y00702
X0152Y0069075
X017435Y0056375
X0174825Y0055375
X01949071Y00589648
X019535Y0059575
T03
X0178885Y006865
X0183765
T04
X013115Y000475
X013369
X013623
X01526Y0004835
X015514
Y0007375
X01526
X01708912Y00534634
X01877Y00476251
Y00405251
X014212Y004696
X013958
X013704
X01345
X013196
X012942
X012688
X012434
X01218
X011926
X0133135Y00191
X0135675
X011296Y0041625
Y0044165
Y0046705
Y0049245
Y0051785
X0096881Y0038141
Y0035601
Y0033061
Y0030521
X00497Y0019624
X004716
X004462
X004208
X003954
X0037
X0027Y0019624
X002446
X002192
X0004881Y0020881
Y0023381
Y0025881
Y0028381
Y0030881
Y0033381
Y0035881
Y0038381
Y0040881
Y0043381
Y0045881
Y0048381
Y0050881
Y00533809
X001646Y0059624
X0019
X00236Y0059624
X00261399
X002868
X00312199
X00337599
X00362999
X003884
X004138
X00439199
X00464599
X0049
X0108335Y0059105
Y0061645
Y0064185
Y0066725
Y0069265
Y0071805
Y0074345
Y0076885
X011296Y0077185
Y0074645
Y0072105
Y0069565
Y0067025
Y0064485
Y0061945
Y0059405
Y0056865
Y0054325
X0108335Y0054025
Y0056565
X0145485Y005685
Y005431
Y005939
Y006193
Y006447
Y006701
Y006955
Y007209
Y007463
Y007717
X01708912Y00636234
Y00610834
Y00585434
Y00560034
X01871472Y00579592
Y00604992
T05
X0037469Y0025328
X0040009
X0042549
X0045089
X0047629
X0050169
X0052709
Y0053328
X0050169
X0047629
X0045089
X0042549
X0040009
X0037469
X0034929
X0032389
X0029849
X0027309
X0024769
X0022229
X0019689
X0017149
Y0025328
X0019689
X0022229
X0024769
X0027309
X0029849
X0032389
X0034929
T06
X0140385Y0025125
X0145465
T08
X0003775Y0003875
X0195875Y0004225
X0003775Y0076375
X0195875Y007635
T09
X0005881Y0012121
X0096881
X0005881Y0061621
X0096881
T10
X01933168Y00561339
Y0062934
T11
X0060929Y0026828
Y0051828
X0008929
Y0026828
M30
