G04*
G04 #@! TF.GenerationSoftware,Altium Limited,Altium Designer,23.1.1 (15)*
G04*
G04 Layer_Color=32896*
%FSLAX44Y44*%
%MOMM*%
G71*
G04*
G04 #@! TF.SameCoordinates,BB96B4BC-2DDC-42E6-90C6-D32D3C2E4667*
G04*
G04*
G04 #@! TF.FilePolarity,Positive*
G04*
G01*
G75*
%ADD10C,0.1270*%
%ADD11C,0.2000*%
%ADD12C,0.2540*%
%ADD86C,0.1500*%
%ADD87C,0.2500*%
%ADD88C,0.2032*%
D10*
X684790Y112160D02*
X715790D01*
X684790Y133460D02*
X715790D01*
X684790Y262160D02*
X715790D01*
X684790Y283460D02*
X715790D01*
X684790Y352160D02*
X715790D01*
X684790Y373460D02*
X715790D01*
X684790Y212160D02*
X715790D01*
X684790Y233460D02*
X715790D01*
X758500Y356500D02*
X773500Y371500D01*
X841500D01*
X773500Y288500D02*
X841500D01*
X758500Y303500D02*
X773500Y288500D01*
X758500Y303500D02*
Y316800D01*
Y343200D02*
Y356500D01*
X841500Y288500D02*
Y316800D01*
Y343200D02*
Y371500D01*
X835000Y201700D02*
Y238300D01*
X785000Y201700D02*
Y238300D01*
X841864Y634734D02*
Y671334D01*
X791864Y634734D02*
Y671334D01*
X781290Y762140D02*
X812290D01*
X781290Y783440D02*
X812290D01*
X781290Y712140D02*
X812290D01*
X781290Y733440D02*
X812290D01*
X731289Y683440D02*
X762290D01*
X731289Y662140D02*
X762290D01*
X731290Y582140D02*
X762290D01*
X731290Y603440D02*
X762290D01*
X615290Y606289D02*
X630290Y591290D01*
X615290Y606289D02*
Y674290D01*
X698290Y606289D02*
Y674290D01*
X683290Y591290D02*
X698290Y606289D01*
X669990Y591290D02*
X683290D01*
X630290D02*
X643590D01*
X669990Y674290D02*
X698290D01*
X615290D02*
X643590D01*
X1113290Y372290D02*
X1128290Y357290D01*
Y289290D02*
Y357290D01*
X1045290Y289290D02*
Y357290D01*
X1060290Y372290D01*
X1073590D01*
X1099990D02*
X1113290D01*
X1045290Y289290D02*
X1073590D01*
X1099990D02*
X1128290D01*
X1371290Y581441D02*
X1402290D01*
X1371290Y560140D02*
X1402290D01*
X59290Y238280D02*
X639290D01*
Y548280D01*
X59290D02*
X639290D01*
X59290Y238280D02*
Y548280D01*
X1223289Y372290D02*
X1238290Y357290D01*
Y289290D02*
Y357290D01*
X1155290Y289290D02*
Y357290D01*
X1170290Y372290D01*
X1183590D01*
X1209989D02*
X1223289D01*
X1155290Y289290D02*
X1183590D01*
X1209989D02*
X1238290D01*
X1339289Y463290D02*
Y498290D01*
X1274289D02*
X1339289D01*
X1274289Y463290D02*
Y498290D01*
Y463290D02*
X1339289D01*
X1437440Y285290D02*
Y316290D01*
X1416139Y285290D02*
Y316290D01*
X1287440Y355290D02*
Y386290D01*
X1266140Y355290D02*
Y386290D01*
X1417440Y495290D02*
Y526290D01*
X1396139Y495290D02*
Y526290D01*
X1446139Y495290D02*
Y526290D01*
X1467440Y495290D02*
Y526290D01*
X1431290Y560140D02*
X1462290D01*
X1431290Y581440D02*
X1462290D01*
X1035290Y532290D02*
X1063590D01*
X1089990D02*
X1118290D01*
X1050290Y449290D02*
X1063590D01*
X1089990D02*
X1103290D01*
X1118290Y464290D01*
Y532290D01*
X1035290Y464290D02*
Y532290D01*
Y464290D02*
X1050290Y449290D01*
X1155290Y532290D02*
X1183590D01*
X1209989D02*
X1238290D01*
X1170290Y449290D02*
X1183590D01*
X1209989D02*
X1223289D01*
X1238290Y464290D01*
Y532290D01*
X1155290Y464290D02*
Y532290D01*
Y464290D02*
X1170290Y449290D01*
D11*
X753000Y310000D02*
G03*
X753000Y310000I-1000J0D01*
G01*
X835000Y178000D02*
G03*
X835000Y178000I-1000J0D01*
G01*
X793864Y695034D02*
G03*
X793864Y695034I-1000J0D01*
G01*
X677790Y584790D02*
G03*
X677790Y584790I-1000J0D01*
G01*
X1067790Y378790D02*
G03*
X1067790Y378790I-1000J0D01*
G01*
X528090Y230780D02*
G03*
X528090Y230780I-1000J0D01*
G01*
X1177790Y378790D02*
G03*
X1177790Y378790I-1000J0D01*
G01*
X1330290Y433290D02*
G03*
X1330290Y433290I-1000J0D01*
G01*
X1097790Y442790D02*
G03*
X1097790Y442790I-1000J0D01*
G01*
X1217790D02*
G03*
X1217790Y442790I-1000J0D01*
G01*
X887300Y167300D02*
Y319700D01*
X912700Y167300D02*
Y319700D01*
X887300Y167300D02*
X912700D01*
X887300Y319700D02*
X912700D01*
X909490Y523090D02*
Y675490D01*
X884090Y523090D02*
Y675490D01*
X909490D01*
X884090Y523090D02*
X909490D01*
X151900Y608940D02*
X202700D01*
Y583540D02*
Y608940D01*
X151900Y583540D02*
X202700D01*
X151900D02*
Y608940D01*
X282700Y183540D02*
Y208940D01*
X206500D02*
X282700D01*
X206500Y183540D02*
Y208940D01*
Y183540D02*
X282700D01*
X357300Y208940D02*
X509700D01*
X357300Y183540D02*
X509700D01*
X357300D02*
Y208940D01*
X509700Y183540D02*
Y208940D01*
X1379490Y298090D02*
Y323490D01*
X1277890D02*
X1379490D01*
X1277890Y298090D02*
X1379490D01*
X1277890D02*
Y323490D01*
X223300Y583540D02*
Y608940D01*
Y583540D02*
X502700D01*
Y608940D01*
X483649D02*
X502700D01*
X223300D02*
X483649D01*
X1332540Y385290D02*
X1341040D01*
Y356290D02*
Y385290D01*
X1332540Y356290D02*
X1341040D01*
X1332540D02*
Y385290D01*
X1592800Y367300D02*
Y392700D01*
X1507200Y367300D02*
X1592800D01*
X1507200D02*
Y392700D01*
X1592800D01*
X1374090Y448090D02*
X1424890D01*
X1374090D02*
Y473490D01*
X1424890D01*
Y448090D02*
Y473490D01*
X1527300Y427300D02*
Y478100D01*
X1578100D01*
X1527300Y427300D02*
X1578100D01*
Y478100D01*
D12*
X780000Y91000D02*
X819000D01*
X780000Y129000D02*
X819000D01*
X780000Y91000D02*
Y129000D01*
X819000Y91000D02*
Y129000D01*
X730000Y91000D02*
X769000D01*
X730000Y129000D02*
X769000D01*
X730000Y91000D02*
Y129000D01*
X769000Y91000D02*
Y129000D01*
X830000Y91000D02*
X869000D01*
X830000Y129000D02*
X869000D01*
X830000Y91000D02*
Y129000D01*
X869000Y91000D02*
Y129000D01*
X880000Y91000D02*
X919000D01*
X880000Y129000D02*
X919000D01*
X880000Y91000D02*
Y129000D01*
X919000Y91000D02*
Y129000D01*
X707789Y733790D02*
X745790D01*
X707789Y772789D02*
X745790D01*
Y733790D02*
Y772789D01*
X707789Y733790D02*
Y772789D01*
X847789Y733790D02*
X885789D01*
X847789Y772790D02*
X885789D01*
Y733790D02*
Y772790D01*
X847789Y733790D02*
Y772790D01*
X897789Y733790D02*
X935790D01*
X897789Y772790D02*
X935790D01*
Y733790D02*
Y772790D01*
X897789Y733790D02*
Y772790D01*
X657789Y733790D02*
X695790D01*
X657789Y772790D02*
X695790D01*
Y733790D02*
Y772790D01*
X657789Y733790D02*
Y772790D01*
X720474Y141986D02*
Y157221D01*
X712857D01*
X710317Y154682D01*
Y149604D01*
X712857Y147064D01*
X720474D01*
X715396D02*
X710317Y141986D01*
X705239Y157221D02*
X695082D01*
Y154682D01*
X705239Y144525D01*
Y141986D01*
X720474Y292100D02*
Y307335D01*
X712857D01*
X710317Y304796D01*
Y299718D01*
X712857Y297178D01*
X720474D01*
X715396D02*
X710317Y292100D01*
X695082Y307335D02*
X700161Y304796D01*
X705239Y299718D01*
Y294639D01*
X702700Y292100D01*
X697621D01*
X695082Y294639D01*
Y297178D01*
X697621Y299718D01*
X705239D01*
X720474Y382016D02*
Y397251D01*
X712857D01*
X710317Y394712D01*
Y389633D01*
X712857Y387094D01*
X720474D01*
X715396D02*
X710317Y382016D01*
X695082Y397251D02*
X705239D01*
Y389633D01*
X700161Y392173D01*
X697621D01*
X695082Y389633D01*
Y384555D01*
X697621Y382016D01*
X702700D01*
X705239Y384555D01*
X720474Y242062D02*
Y257297D01*
X712857D01*
X710317Y254758D01*
Y249680D01*
X712857Y247140D01*
X720474D01*
X715396D02*
X710317Y242062D01*
X697621D02*
Y257297D01*
X705239Y249680D01*
X695082D01*
X911228Y328422D02*
Y343657D01*
X903611D01*
X901071Y341118D01*
Y336040D01*
X903611Y333500D01*
X911228D01*
X895993Y328422D02*
X890915D01*
X893454D01*
Y343657D01*
X895993Y341118D01*
X883297D02*
X880758Y343657D01*
X875679D01*
X873140Y341118D01*
Y330961D01*
X875679Y328422D01*
X880758D01*
X883297Y330961D01*
Y341118D01*
X817756Y137924D02*
X815217D01*
X812678Y140463D01*
Y153159D01*
X794903Y143002D02*
Y158237D01*
X802521Y150619D01*
X792364D01*
X767718Y137924D02*
X765179D01*
X762640Y140463D01*
Y153159D01*
X752483Y155698D02*
X749944Y158237D01*
X744865D01*
X742326Y155698D01*
Y153159D01*
X744865Y150619D01*
X747405D01*
X744865D01*
X742326Y148080D01*
Y145541D01*
X744865Y143002D01*
X749944D01*
X752483Y145541D01*
X705237Y203450D02*
X707776Y205989D01*
X712855D01*
X715394Y203450D01*
Y193293D01*
X712855Y190754D01*
X707776D01*
X705237Y193293D01*
X700159Y190754D02*
X695081D01*
X697620D01*
Y205989D01*
X700159Y203450D01*
X687463Y190754D02*
X682385D01*
X684924D01*
Y205989D01*
X687463Y203450D01*
X845445Y394458D02*
X847984Y396997D01*
X853063D01*
X855602Y394458D01*
Y384301D01*
X853063Y381762D01*
X847984D01*
X845445Y384301D01*
X840367Y381762D02*
X835289D01*
X837828D01*
Y396997D01*
X840367Y394458D01*
X827671D02*
X825132Y396997D01*
X820053D01*
X817514Y394458D01*
Y384301D01*
X820053Y381762D01*
X825132D01*
X827671Y384301D01*
Y394458D01*
X695331Y493264D02*
X697870Y495803D01*
X702949D01*
X705488Y493264D01*
Y483107D01*
X702949Y480568D01*
X697870D01*
X695331Y483107D01*
X690253D02*
X687714Y480568D01*
X682635D01*
X680096Y483107D01*
Y493264D01*
X682635Y495803D01*
X687714D01*
X690253Y493264D01*
Y490725D01*
X687714Y488186D01*
X680096D01*
X705237Y343404D02*
X707776Y345943D01*
X712855D01*
X715394Y343404D01*
Y333247D01*
X712855Y330708D01*
X707776D01*
X705237Y333247D01*
X700159Y343404D02*
X697620Y345943D01*
X692541D01*
X690002Y343404D01*
Y340865D01*
X692541Y338326D01*
X690002Y335786D01*
Y333247D01*
X692541Y330708D01*
X697620D01*
X700159Y333247D01*
Y335786D01*
X697620Y338326D01*
X700159Y340865D01*
Y343404D01*
X697620Y338326D02*
X692541D01*
X695331Y443480D02*
X697870Y446019D01*
X702949D01*
X705488Y443480D01*
Y433323D01*
X702949Y430784D01*
X697870D01*
X695331Y433323D01*
X690253Y446019D02*
X680096D01*
Y443480D01*
X690253Y433323D01*
Y430784D01*
X867794Y137924D02*
X865255D01*
X862716Y140463D01*
Y153159D01*
X842402Y143002D02*
X852559D01*
X842402Y153159D01*
Y155698D01*
X844941Y158237D01*
X850020D01*
X852559Y155698D01*
X917832Y137924D02*
X915293D01*
X912754Y140463D01*
Y153159D01*
X902597Y143002D02*
X897519D01*
X900058D01*
Y158237D01*
X902597Y155698D01*
X702406Y194808D02*
Y182112D01*
X699867Y179573D01*
X694788D01*
X692249Y182112D01*
Y194808D01*
X677014D02*
X687171D01*
Y187190D01*
X682092Y189729D01*
X679553D01*
X677014Y187190D01*
Y182112D01*
X679553Y179573D01*
X684632D01*
X687171Y182112D01*
X907926Y684022D02*
Y699257D01*
X900309D01*
X897769Y696718D01*
Y691639D01*
X900309Y689100D01*
X907926D01*
X892691Y684022D02*
X887613D01*
X890152D01*
Y699257D01*
X892691Y696718D01*
X879995Y684022D02*
X874917D01*
X877456D01*
Y699257D01*
X879995Y696718D01*
X842140Y719831D02*
Y707135D01*
X839601Y704596D01*
X834522D01*
X831983Y707135D01*
Y719831D01*
X826905D02*
X816748D01*
Y717292D01*
X826905Y707135D01*
Y704596D01*
X1424311Y418842D02*
X1426850Y421381D01*
X1431929D01*
X1434468Y418842D01*
Y408685D01*
X1431929Y406146D01*
X1426850D01*
X1424311Y408685D01*
X1409076Y406146D02*
X1419233D01*
X1409076Y416303D01*
Y418842D01*
X1411615Y421381D01*
X1416694D01*
X1419233Y418842D01*
X1393841Y406146D02*
X1403998D01*
X1393841Y416303D01*
Y418842D01*
X1396380Y421381D01*
X1401459D01*
X1403998Y418842D01*
X1474349D02*
X1476888Y421381D01*
X1481967D01*
X1484506Y418842D01*
Y408685D01*
X1481967Y406146D01*
X1476888D01*
X1474349Y408685D01*
X1459114Y406146D02*
X1469271D01*
X1459114Y416303D01*
Y418842D01*
X1461653Y421381D01*
X1466732D01*
X1469271Y418842D01*
X1454036Y406146D02*
X1448958D01*
X1451497D01*
Y421381D01*
X1454036Y418842D01*
X1339472Y547873D02*
Y537716D01*
X1334394Y532638D01*
X1329315Y537716D01*
Y547873D01*
X1324237Y532638D02*
Y547873D01*
X1316619D01*
X1314080Y545334D01*
Y540256D01*
X1316619Y537716D01*
X1324237D01*
X1319159D02*
X1314080Y532638D01*
X1309002D02*
X1303923D01*
X1306463D01*
Y547873D01*
X1309002Y545334D01*
X1355474Y412237D02*
Y399541D01*
X1352935Y397002D01*
X1347856D01*
X1345317Y399541D01*
Y412237D01*
X1340239Y409698D02*
X1337700Y412237D01*
X1332621D01*
X1330082Y409698D01*
Y407159D01*
X1332621Y404619D01*
X1330082Y402080D01*
Y399541D01*
X1332621Y397002D01*
X1337700D01*
X1340239Y399541D01*
Y402080D01*
X1337700Y404619D01*
X1340239Y407159D01*
Y409698D01*
X1337700Y404619D02*
X1332621D01*
X1550000Y345078D02*
X1552539Y347617D01*
X1557617D01*
X1560157Y345078D01*
Y342539D01*
X1557617Y340000D01*
X1552539D01*
X1550000Y337461D01*
Y334922D01*
X1552539Y332382D01*
X1557617D01*
X1560157Y334922D01*
X1544922Y332382D02*
X1539843D01*
X1542382D01*
Y347617D01*
X1544922Y345078D01*
X1435992Y331216D02*
Y346451D01*
X1428374D01*
X1425835Y343912D01*
Y338834D01*
X1428374Y336294D01*
X1435992D01*
X1430914D02*
X1425835Y331216D01*
X1420757D02*
X1415679D01*
X1418218D01*
Y346451D01*
X1420757Y343912D01*
X1408061Y346451D02*
X1397904D01*
Y343912D01*
X1408061Y333755D01*
Y331216D01*
X1285878Y401320D02*
Y416555D01*
X1278260D01*
X1275721Y414016D01*
Y408937D01*
X1278260Y406398D01*
X1285878D01*
X1280800D02*
X1275721Y401320D01*
X1270643D02*
X1265565D01*
X1268104D01*
Y416555D01*
X1270643Y414016D01*
X1247790Y416555D02*
X1252869Y414016D01*
X1257947Y408937D01*
Y403859D01*
X1255408Y401320D01*
X1250330D01*
X1247790Y403859D01*
Y406398D01*
X1250330Y408937D01*
X1257947D01*
X1415926Y541274D02*
Y556509D01*
X1408309D01*
X1405769Y553970D01*
Y548891D01*
X1408309Y546352D01*
X1415926D01*
X1410848D02*
X1405769Y541274D01*
X1400691D02*
X1395613D01*
X1398152D01*
Y556509D01*
X1400691Y553970D01*
X1377838Y556509D02*
X1387995D01*
Y548891D01*
X1382917Y551431D01*
X1380378D01*
X1377838Y548891D01*
Y543813D01*
X1380378Y541274D01*
X1385456D01*
X1387995Y543813D01*
X1465964Y541274D02*
Y556509D01*
X1458347D01*
X1455807Y553970D01*
Y548891D01*
X1458347Y546352D01*
X1465964D01*
X1460886D02*
X1455807Y541274D01*
X1450729D02*
X1445651D01*
X1448190D01*
Y556509D01*
X1450729Y553970D01*
X1430415Y541274D02*
Y556509D01*
X1438033Y548891D01*
X1427876D01*
X1466980Y590042D02*
Y605277D01*
X1459362D01*
X1456823Y602738D01*
Y597659D01*
X1459362Y595120D01*
X1466980D01*
X1461902D02*
X1456823Y590042D01*
X1451745D02*
X1446667D01*
X1449206D01*
Y605277D01*
X1451745Y602738D01*
X1439049D02*
X1436510Y605277D01*
X1431431D01*
X1428892Y602738D01*
Y600199D01*
X1431431Y597659D01*
X1433971D01*
X1431431D01*
X1428892Y595120D01*
Y592581D01*
X1431431Y590042D01*
X1436510D01*
X1439049Y592581D01*
X1407036Y590042D02*
Y605277D01*
X1399418D01*
X1396879Y602738D01*
Y597659D01*
X1399418Y595120D01*
X1407036D01*
X1401958D02*
X1396879Y590042D01*
X1391801D02*
X1386723D01*
X1389262D01*
Y605277D01*
X1391801Y602738D01*
X1368948Y590042D02*
X1379105D01*
X1368948Y600199D01*
Y602738D01*
X1371487Y605277D01*
X1376566D01*
X1379105Y602738D01*
X816994Y791972D02*
Y807207D01*
X809377D01*
X806837Y804668D01*
Y799589D01*
X809377Y797050D01*
X816994D01*
X811916D02*
X806837Y791972D01*
X801759D02*
X796681D01*
X799220D01*
Y807207D01*
X801759Y804668D01*
X789063Y791972D02*
X783985D01*
X786524D01*
Y807207D01*
X789063Y804668D01*
X816994Y741934D02*
Y757169D01*
X809377D01*
X806837Y754630D01*
Y749551D01*
X809377Y747012D01*
X816994D01*
X811916D02*
X806837Y741934D01*
X801759D02*
X796681D01*
X799220D01*
Y757169D01*
X801759Y754630D01*
X789063D02*
X786524Y757169D01*
X781445D01*
X778906Y754630D01*
Y744473D01*
X781445Y741934D01*
X786524D01*
X789063Y744473D01*
Y754630D01*
X767210Y692150D02*
Y707385D01*
X759593D01*
X757053Y704846D01*
Y699768D01*
X759593Y697228D01*
X767210D01*
X762132D02*
X757053Y692150D01*
X751975Y694689D02*
X749436Y692150D01*
X744357D01*
X741818Y694689D01*
Y704846D01*
X744357Y707385D01*
X749436D01*
X751975Y704846D01*
Y702307D01*
X749436Y699768D01*
X741818D01*
X767210Y612140D02*
Y627375D01*
X759593D01*
X757053Y624836D01*
Y619757D01*
X759593Y617218D01*
X767210D01*
X762132D02*
X757053Y612140D01*
X751975Y624836D02*
X749436Y627375D01*
X744357D01*
X741818Y624836D01*
Y622297D01*
X744357Y619757D01*
X741818Y617218D01*
Y614679D01*
X744357Y612140D01*
X749436D01*
X751975Y614679D01*
Y617218D01*
X749436Y619757D01*
X751975Y622297D01*
Y624836D01*
X749436Y619757D02*
X744357D01*
X1475833Y453172D02*
Y468408D01*
X1468216D01*
X1465677Y465868D01*
Y460790D01*
X1468216Y458251D01*
X1475833D01*
X1460598Y453172D02*
X1455520D01*
X1458059D01*
Y468408D01*
X1460598Y465868D01*
X1447903D02*
X1445363Y468408D01*
X1440285D01*
X1437746Y465868D01*
Y463329D01*
X1440285Y460790D01*
X1442824D01*
X1440285D01*
X1437746Y458251D01*
Y455712D01*
X1440285Y453172D01*
X1445363D01*
X1447903Y455712D01*
X1269254Y337714D02*
X1254019D01*
Y330096D01*
X1256558Y327557D01*
X1261636D01*
X1264175Y330096D01*
Y337714D01*
X1269254Y322479D02*
Y317400D01*
Y319940D01*
X1254019D01*
X1256558Y322479D01*
X1269254Y299626D02*
Y309783D01*
X1259097Y299626D01*
X1256558D01*
X1254019Y302165D01*
Y307244D01*
X1256558Y309783D01*
X884558Y781560D02*
X882019D01*
X879480Y784099D01*
Y796795D01*
X869323Y799334D02*
X866784Y801873D01*
X861705D01*
X859166Y799334D01*
Y796795D01*
X861705Y794256D01*
X859166Y791716D01*
Y789177D01*
X861705Y786638D01*
X866784D01*
X869323Y789177D01*
Y791716D01*
X866784Y794256D01*
X869323Y796795D01*
Y799334D01*
X866784Y794256D02*
X861705D01*
X934596Y781560D02*
X932057D01*
X929518Y784099D01*
Y796795D01*
X919361Y801873D02*
X909204D01*
Y799334D01*
X919361Y789177D01*
Y786638D01*
X744604Y781560D02*
X742065D01*
X739526Y784099D01*
Y796795D01*
X719212Y801873D02*
X724291Y799334D01*
X729369Y794256D01*
Y789177D01*
X726830Y786638D01*
X721751D01*
X719212Y789177D01*
Y791716D01*
X721751Y794256D01*
X729369D01*
X694566Y781560D02*
X692027D01*
X689488Y784099D01*
Y796795D01*
X669174Y801873D02*
X679331D01*
Y794256D01*
X674253Y796795D01*
X671713D01*
X669174Y794256D01*
Y789177D01*
X671713Y786638D01*
X676792D01*
X679331Y789177D01*
X1150157Y435078D02*
X1152696Y437617D01*
X1157774D01*
X1160313Y435078D01*
Y424922D01*
X1157774Y422383D01*
X1152696D01*
X1150157Y424922D01*
X1134922Y422383D02*
X1145078D01*
X1134922Y432539D01*
Y435078D01*
X1137461Y437617D01*
X1142539D01*
X1145078Y435078D01*
X1129843D02*
X1127304Y437617D01*
X1122226D01*
X1119687Y435078D01*
Y424922D01*
X1122226Y422383D01*
X1127304D01*
X1129843Y424922D01*
Y435078D01*
X1228223Y409444D02*
X1230762Y411983D01*
X1235841D01*
X1238380Y409444D01*
Y399287D01*
X1235841Y396748D01*
X1230762D01*
X1228223Y399287D01*
X1223145Y396748D02*
X1218067D01*
X1220606D01*
Y411983D01*
X1223145Y409444D01*
X1210449Y399287D02*
X1207910Y396748D01*
X1202831D01*
X1200292Y399287D01*
Y409444D01*
X1202831Y411983D01*
X1207910D01*
X1210449Y409444D01*
Y406905D01*
X1207910Y404366D01*
X1200292D01*
X1108335Y569464D02*
X1110874Y572003D01*
X1115953D01*
X1118492Y569464D01*
Y559307D01*
X1115953Y556768D01*
X1110874D01*
X1108335Y559307D01*
X1103257Y556768D02*
X1098179D01*
X1100718D01*
Y572003D01*
X1103257Y569464D01*
X1090561D02*
X1088022Y572003D01*
X1082943D01*
X1080404Y569464D01*
Y566925D01*
X1082943Y564385D01*
X1080404Y561846D01*
Y559307D01*
X1082943Y556768D01*
X1088022D01*
X1090561Y559307D01*
Y561846D01*
X1088022Y564385D01*
X1090561Y566925D01*
Y569464D01*
X1088022Y564385D02*
X1082943D01*
X1228223Y569464D02*
X1230762Y572003D01*
X1235841D01*
X1238380Y569464D01*
Y559307D01*
X1235841Y556768D01*
X1230762D01*
X1228223Y559307D01*
X1223145Y556768D02*
X1218067D01*
X1220606D01*
Y572003D01*
X1223145Y569464D01*
X1210449Y572003D02*
X1200292D01*
Y569464D01*
X1210449Y559307D01*
Y556768D01*
X688219Y711450D02*
X690759Y713989D01*
X695837D01*
X698376Y711450D01*
Y701293D01*
X695837Y698754D01*
X690759D01*
X688219Y701293D01*
X683141Y698754D02*
X678063D01*
X680602D01*
Y713989D01*
X683141Y711450D01*
X660288Y713989D02*
X665367Y711450D01*
X670445Y706372D01*
Y701293D01*
X667906Y698754D01*
X662828D01*
X660288Y701293D01*
Y703832D01*
X662828Y706372D01*
X670445D01*
X801757Y583434D02*
X804296Y585973D01*
X809375D01*
X811914Y583434D01*
Y573277D01*
X809375Y570738D01*
X804296D01*
X801757Y573277D01*
X796679Y570738D02*
X791601D01*
X794140D01*
Y585973D01*
X796679Y583434D01*
X773826Y585973D02*
X783983D01*
Y578355D01*
X778905Y580895D01*
X776366D01*
X773826Y578355D01*
Y573277D01*
X776366Y570738D01*
X781444D01*
X783983Y573277D01*
X851795Y533396D02*
X854334Y535935D01*
X859413D01*
X861952Y533396D01*
Y523239D01*
X859413Y520700D01*
X854334D01*
X851795Y523239D01*
X846717Y520700D02*
X841639D01*
X844178D01*
Y535935D01*
X846717Y533396D01*
X826404Y520700D02*
Y535935D01*
X834021Y528317D01*
X823864D01*
X801757Y533396D02*
X804296Y535935D01*
X809375D01*
X811914Y533396D01*
Y523239D01*
X809375Y520700D01*
X804296D01*
X801757Y523239D01*
X796679Y520700D02*
X791601D01*
X794140D01*
Y535935D01*
X796679Y533396D01*
X783983D02*
X781444Y535935D01*
X776366D01*
X773826Y533396D01*
Y530857D01*
X776366Y528317D01*
X778905D01*
X776366D01*
X773826Y525778D01*
Y523239D01*
X776366Y520700D01*
X781444D01*
X783983Y523239D01*
X851795Y583434D02*
X854334Y585973D01*
X859413D01*
X861952Y583434D01*
Y573277D01*
X859413Y570738D01*
X854334D01*
X851795Y573277D01*
X846717Y570738D02*
X841639D01*
X844178D01*
Y585973D01*
X846717Y583434D01*
X823864Y570738D02*
X834021D01*
X823864Y580895D01*
Y583434D01*
X826404Y585973D01*
X831482D01*
X834021Y583434D01*
X501272Y617474D02*
Y632709D01*
X493655D01*
X491115Y630170D01*
Y625092D01*
X493655Y622552D01*
X501272D01*
X486037Y620013D02*
X483498Y617474D01*
X478419D01*
X475880Y620013D01*
Y630170D01*
X478419Y632709D01*
X483498D01*
X486037Y630170D01*
Y627631D01*
X483498Y625092D01*
X475880D01*
X142696Y588622D02*
Y603857D01*
X135078D01*
X132539Y601318D01*
Y596240D01*
X135078Y593701D01*
X142696D01*
X127461Y601318D02*
X124921Y603857D01*
X119843D01*
X117304Y601318D01*
Y598779D01*
X119843Y596240D01*
X117304Y593701D01*
Y591162D01*
X119843Y588622D01*
X124921D01*
X127461Y591162D01*
Y593701D01*
X124921Y596240D01*
X127461Y598779D01*
Y601318D01*
X124921Y596240D02*
X119843D01*
X542696Y188622D02*
Y203857D01*
X535078D01*
X532539Y201318D01*
Y196240D01*
X535078Y193701D01*
X542696D01*
X527461Y203857D02*
X517304D01*
Y201318D01*
X527461Y191162D01*
Y188622D01*
X322696Y188622D02*
Y203857D01*
X315078D01*
X312539Y201318D01*
Y196240D01*
X315078Y193701D01*
X322696D01*
X297304Y203857D02*
X302382Y201318D01*
X307461Y196240D01*
Y191162D01*
X304921Y188622D01*
X299843D01*
X297304Y191162D01*
Y193701D01*
X299843Y196240D01*
X307461D01*
X639448Y573781D02*
Y561085D01*
X636909Y558546D01*
X631830D01*
X629291Y561085D01*
Y573781D01*
X616595Y558546D02*
Y573781D01*
X624213Y566163D01*
X614056D01*
X1576454Y498856D02*
Y514091D01*
X1568837D01*
X1566297Y511552D01*
Y506474D01*
X1568837Y503934D01*
X1576454D01*
X1551062Y514091D02*
X1561219D01*
Y506474D01*
X1556141Y509013D01*
X1553601D01*
X1551062Y506474D01*
Y501395D01*
X1553601Y498856D01*
X1558680D01*
X1561219Y501395D01*
D86*
X1354590Y387520D02*
G03*
X1354590Y387520I-1000J0D01*
G01*
D87*
X1598860Y379990D02*
G03*
X1598860Y379990I-1250J0D01*
G01*
D88*
X1545500Y480640D02*
X1547616Y482756D01*
Y486988D01*
X1545500Y489104D01*
X1543384D01*
X1541268Y486988D01*
Y484872D01*
Y486988D01*
X1539152Y489104D01*
X1537036D01*
X1534920Y486988D01*
Y482756D01*
X1537036Y480640D01*
X1560320Y486988D02*
X1573016D01*
X1566668Y480640D01*
Y489104D01*
X1560320Y423064D02*
Y414600D01*
X1568784Y423064D01*
X1570900D01*
X1573016Y420948D01*
Y416716D01*
X1570900Y414600D01*
X1534920Y419680D02*
Y423912D01*
Y421796D01*
X1547616D01*
X1545500Y419680D01*
M02*
