G04*
G04 #@! TF.GenerationSoftware,Altium Limited,Altium Designer,23.1.1 (15)*
G04*
G04 Layer_Color=128*
%FSLAX44Y44*%
%MOMM*%
G71*
G04*
G04 #@! TF.SameCoordinates,BB96B4BC-2DDC-42E6-90C6-D32D3C2E4667*
G04*
G04*
G04 #@! TF.FilePolarity,Positive*
G04*
G01*
G75*
%ADD18R,1.1500X1.4500*%
G04:AMPARAMS|DCode=21|XSize=0.94mm|YSize=1.77mm|CornerRadius=0.0658mm|HoleSize=0mm|Usage=FLASHONLY|Rotation=90.000|XOffset=0mm|YOffset=0mm|HoleType=Round|Shape=RoundedRectangle|*
%AMROUNDEDRECTD21*
21,1,0.9400,1.6384,0,0,90.0*
21,1,0.8084,1.7700,0,0,90.0*
1,1,0.1316,0.8192,0.4042*
1,1,0.1316,0.8192,-0.4042*
1,1,0.1316,-0.8192,-0.4042*
1,1,0.1316,-0.8192,0.4042*
%
%ADD21ROUNDEDRECTD21*%
G04:AMPARAMS|DCode=22|XSize=1.09mm|YSize=1.77mm|CornerRadius=0.0763mm|HoleSize=0mm|Usage=FLASHONLY|Rotation=90.000|XOffset=0mm|YOffset=0mm|HoleType=Round|Shape=RoundedRectangle|*
%AMROUNDEDRECTD22*
21,1,1.0900,1.6174,0,0,90.0*
21,1,0.9374,1.7700,0,0,90.0*
1,1,0.1526,0.8087,0.4687*
1,1,0.1526,0.8087,-0.4687*
1,1,0.1526,-0.8087,-0.4687*
1,1,0.1526,-0.8087,0.4687*
%
%ADD22ROUNDEDRECTD22*%
G04:AMPARAMS|DCode=24|XSize=1.09mm|YSize=1.77mm|CornerRadius=0.0763mm|HoleSize=0mm|Usage=FLASHONLY|Rotation=180.000|XOffset=0mm|YOffset=0mm|HoleType=Round|Shape=RoundedRectangle|*
%AMROUNDEDRECTD24*
21,1,1.0900,1.6174,0,0,180.0*
21,1,0.9374,1.7700,0,0,180.0*
1,1,0.1526,-0.4687,0.8087*
1,1,0.1526,0.4687,0.8087*
1,1,0.1526,0.4687,-0.8087*
1,1,0.1526,-0.4687,-0.8087*
%
%ADD24ROUNDEDRECTD24*%
G04:AMPARAMS|DCode=25|XSize=0.94mm|YSize=1.77mm|CornerRadius=0.0658mm|HoleSize=0mm|Usage=FLASHONLY|Rotation=180.000|XOffset=0mm|YOffset=0mm|HoleType=Round|Shape=RoundedRectangle|*
%AMROUNDEDRECTD25*
21,1,0.9400,1.6384,0,0,180.0*
21,1,0.8084,1.7700,0,0,180.0*
1,1,0.1316,-0.4042,0.8192*
1,1,0.1316,0.4042,0.8192*
1,1,0.1316,0.4042,-0.8192*
1,1,0.1316,-0.4042,-0.8192*
%
%ADD25ROUNDEDRECTD25*%
%ADD71R,4.0000X2.0000*%
G04:AMPARAMS|DCode=72|XSize=1.5mm|YSize=0.45mm|CornerRadius=0.0563mm|HoleSize=0mm|Usage=FLASHONLY|Rotation=90.000|XOffset=0mm|YOffset=0mm|HoleType=Round|Shape=RoundedRectangle|*
%AMROUNDEDRECTD72*
21,1,1.5000,0.3375,0,0,90.0*
21,1,1.3875,0.4500,0,0,90.0*
1,1,0.1125,0.1688,0.6938*
1,1,0.1125,0.1688,-0.6938*
1,1,0.1125,-0.1688,-0.6938*
1,1,0.1125,-0.1688,0.6938*
%
%ADD72ROUNDEDRECTD72*%
%ADD74R,2.0000X4.0000*%
%ADD75R,1.4500X1.1500*%
%ADD76R,3.8000X2.0000*%
%ADD77R,1.5000X2.0000*%
%ADD78R,1.1000X0.6000*%
D18*
X691290Y172810D02*
D03*
X709290D02*
D03*
X681290Y462810D02*
D03*
X699290D02*
D03*
X691290Y312810D02*
D03*
X709290D02*
D03*
X681290Y412810D02*
D03*
X699290D02*
D03*
X787790Y552790D02*
D03*
X805789D02*
D03*
X837790Y502790D02*
D03*
X855789D02*
D03*
X787790D02*
D03*
X805789D02*
D03*
X837790Y552789D02*
D03*
X855789D02*
D03*
D21*
X1426790Y285390D02*
D03*
X1276790Y355390D02*
D03*
X1406790Y495390D02*
D03*
X1456790Y526190D02*
D03*
D22*
X1426790Y315441D02*
D03*
X1276790Y385440D02*
D03*
X1406790Y525440D02*
D03*
X1456790Y496140D02*
D03*
D24*
X685640Y122810D02*
D03*
Y272810D02*
D03*
Y362810D02*
D03*
Y222810D02*
D03*
X782140Y772790D02*
D03*
Y722790D02*
D03*
X761440Y672790D02*
D03*
X732140Y592790D02*
D03*
X1401440Y570790D02*
D03*
X1461440Y570790D02*
D03*
D25*
X715690Y122810D02*
D03*
Y272810D02*
D03*
Y362810D02*
D03*
Y222810D02*
D03*
X812190Y772790D02*
D03*
Y722790D02*
D03*
X731389Y672790D02*
D03*
X762190Y592790D02*
D03*
X1371390Y570790D02*
D03*
X1431390Y570790D02*
D03*
D71*
X764500Y330000D02*
D03*
X835500D02*
D03*
D72*
X832750Y191000D02*
D03*
X826250D02*
D03*
X819750D02*
D03*
X813250D02*
D03*
X806750D02*
D03*
X800250D02*
D03*
X793750D02*
D03*
X787250D02*
D03*
Y249000D02*
D03*
X793750D02*
D03*
X800250D02*
D03*
X806750D02*
D03*
X813250D02*
D03*
X819750D02*
D03*
X826250D02*
D03*
X832750D02*
D03*
X794114Y624034D02*
D03*
X800614D02*
D03*
X807114D02*
D03*
X813614D02*
D03*
X820114D02*
D03*
X826614D02*
D03*
X833114D02*
D03*
X839614D02*
D03*
Y682034D02*
D03*
X833114D02*
D03*
X826614D02*
D03*
X820114D02*
D03*
X813614D02*
D03*
X807114D02*
D03*
X800614D02*
D03*
X794114D02*
D03*
D74*
X656790Y597290D02*
D03*
Y668290D02*
D03*
X1086790Y366290D02*
D03*
Y295290D02*
D03*
X1196789Y366290D02*
D03*
Y295290D02*
D03*
X1076790Y526290D02*
D03*
Y455290D02*
D03*
X1196789Y526290D02*
D03*
Y455290D02*
D03*
D75*
X1426790Y371790D02*
D03*
Y389790D02*
D03*
X1476790Y371790D02*
D03*
Y389790D02*
D03*
D76*
X1306789Y512290D02*
D03*
D77*
X1283789Y449290D02*
D03*
X1306789D02*
D03*
X1329789D02*
D03*
D78*
X1323790Y380290D02*
D03*
Y361290D02*
D03*
X1349790D02*
D03*
Y370790D02*
D03*
Y380290D02*
D03*
M02*
