G04*
G04 #@! TF.GenerationSoftware,Altium Limited,Altium Designer,23.1.1 (15)*
G04*
G04 Layer_Color=8421504*
%FSLAX44Y44*%
%MOMM*%
G71*
G04*
G04 #@! TF.SameCoordinates,BB96B4BC-2DDC-42E6-90C6-D32D3C2E4667*
G04*
G04*
G04 #@! TF.FilePolarity,Positive*
G04*
G01*
G75*
%ADD14R,1.5000X0.9000*%
%ADD15R,0.9000X1.5000*%
%ADD16R,0.9000X0.9000*%
%ADD17R,0.3000X0.9500*%
%ADD18R,1.1500X1.4500*%
G04:AMPARAMS|DCode=19|XSize=1.31mm|YSize=0.62mm|CornerRadius=0.0775mm|HoleSize=0mm|Usage=FLASHONLY|Rotation=180.000|XOffset=0mm|YOffset=0mm|HoleType=Round|Shape=RoundedRectangle|*
%AMROUNDEDRECTD19*
21,1,1.3100,0.4650,0,0,180.0*
21,1,1.1550,0.6200,0,0,180.0*
1,1,0.1550,-0.5775,0.2325*
1,1,0.1550,0.5775,0.2325*
1,1,0.1550,0.5775,-0.2325*
1,1,0.1550,-0.5775,-0.2325*
%
%ADD19ROUNDEDRECTD19*%
G04:AMPARAMS|DCode=20|XSize=2.1mm|YSize=1.38mm|CornerRadius=0.1035mm|HoleSize=0mm|Usage=FLASHONLY|Rotation=180.000|XOffset=0mm|YOffset=0mm|HoleType=Round|Shape=RoundedRectangle|*
%AMROUNDEDRECTD20*
21,1,2.1000,1.1730,0,0,180.0*
21,1,1.8930,1.3800,0,0,180.0*
1,1,0.2070,-0.9465,0.5865*
1,1,0.2070,0.9465,0.5865*
1,1,0.2070,0.9465,-0.5865*
1,1,0.2070,-0.9465,-0.5865*
%
%ADD20ROUNDEDRECTD20*%
G04:AMPARAMS|DCode=21|XSize=0.94mm|YSize=1.77mm|CornerRadius=0.0658mm|HoleSize=0mm|Usage=FLASHONLY|Rotation=90.000|XOffset=0mm|YOffset=0mm|HoleType=Round|Shape=RoundedRectangle|*
%AMROUNDEDRECTD21*
21,1,0.9400,1.6384,0,0,90.0*
21,1,0.8084,1.7700,0,0,90.0*
1,1,0.1316,0.8192,0.4042*
1,1,0.1316,0.8192,-0.4042*
1,1,0.1316,-0.8192,-0.4042*
1,1,0.1316,-0.8192,0.4042*
%
%ADD21ROUNDEDRECTD21*%
G04:AMPARAMS|DCode=22|XSize=1.09mm|YSize=1.77mm|CornerRadius=0.0763mm|HoleSize=0mm|Usage=FLASHONLY|Rotation=90.000|XOffset=0mm|YOffset=0mm|HoleType=Round|Shape=RoundedRectangle|*
%AMROUNDEDRECTD22*
21,1,1.0900,1.6174,0,0,90.0*
21,1,0.9374,1.7700,0,0,90.0*
1,1,0.1526,0.8087,0.4687*
1,1,0.1526,0.8087,-0.4687*
1,1,0.1526,-0.8087,-0.4687*
1,1,0.1526,-0.8087,0.4687*
%
%ADD22ROUNDEDRECTD22*%
%ADD23R,0.7000X0.9000*%
G04:AMPARAMS|DCode=24|XSize=1.09mm|YSize=1.77mm|CornerRadius=0.0763mm|HoleSize=0mm|Usage=FLASHONLY|Rotation=180.000|XOffset=0mm|YOffset=0mm|HoleType=Round|Shape=RoundedRectangle|*
%AMROUNDEDRECTD24*
21,1,1.0900,1.6174,0,0,180.0*
21,1,0.9374,1.7700,0,0,180.0*
1,1,0.1526,-0.4687,0.8087*
1,1,0.1526,0.4687,0.8087*
1,1,0.1526,0.4687,-0.8087*
1,1,0.1526,-0.4687,-0.8087*
%
%ADD24ROUNDEDRECTD24*%
G04:AMPARAMS|DCode=25|XSize=0.94mm|YSize=1.77mm|CornerRadius=0.0658mm|HoleSize=0mm|Usage=FLASHONLY|Rotation=180.000|XOffset=0mm|YOffset=0mm|HoleType=Round|Shape=RoundedRectangle|*
%AMROUNDEDRECTD25*
21,1,0.9400,1.6384,0,0,180.0*
21,1,0.8084,1.7700,0,0,180.0*
1,1,0.1316,-0.4042,0.8192*
1,1,0.1316,0.4042,0.8192*
1,1,0.1316,0.4042,-0.8192*
1,1,0.1316,-0.4042,-0.8192*
%
%ADD25ROUNDEDRECTD25*%
G36*
X1351360Y83829D02*
X1348361D01*
Y93329D01*
X1351360D01*
Y83829D01*
D02*
G37*
G36*
X1346359D02*
X1343359D01*
Y93329D01*
X1346359D01*
Y83829D01*
D02*
G37*
G36*
X1341361D02*
X1338361D01*
Y93329D01*
X1341361D01*
Y83829D01*
D02*
G37*
G36*
X1336359D02*
X1333359D01*
Y93329D01*
X1336359D01*
Y83829D01*
D02*
G37*
G36*
X1331361D02*
X1328361D01*
Y93329D01*
X1331361D01*
Y83829D01*
D02*
G37*
G36*
X1326359D02*
X1323359D01*
Y93329D01*
X1326359D01*
Y83829D01*
D02*
G37*
G36*
X1321361D02*
X1318361D01*
Y93329D01*
X1321361D01*
Y83829D01*
D02*
G37*
G36*
X1316359D02*
X1313360D01*
Y93329D01*
X1316359D01*
Y83829D01*
D02*
G37*
G36*
X1311361D02*
X1308361D01*
Y93329D01*
X1311361D01*
Y83829D01*
D02*
G37*
G36*
X1306362D02*
X1303362D01*
Y93329D01*
X1306362D01*
Y83829D01*
D02*
G37*
G36*
X1301361D02*
X1298361D01*
Y93329D01*
X1301361D01*
Y83829D01*
D02*
G37*
G36*
X1296362D02*
X1293362D01*
Y93329D01*
X1296362D01*
Y83829D01*
D02*
G37*
G36*
X1362310Y93799D02*
X1362707Y93759D01*
X1363101Y93700D01*
X1363492Y93621D01*
X1363878Y93522D01*
X1364260Y93405D01*
X1364635Y93268D01*
X1365002Y93113D01*
X1365362Y92940D01*
X1365712Y92750D01*
X1366052Y92541D01*
X1366382Y92317D01*
X1366700Y92076D01*
X1367005Y91820D01*
X1367298Y91548D01*
X1367576Y91263D01*
X1367840Y90964D01*
X1368089Y90652D01*
X1368322Y90328D01*
X1368538Y89993D01*
X1368737Y89647D01*
X1368920Y89292D01*
X1369084Y88929D01*
X1369229Y88558D01*
X1369357Y88180D01*
X1369465Y87795D01*
X1369553Y87407D01*
X1369622Y87014D01*
X1369672Y86618D01*
X1369702Y86220D01*
X1369712Y85821D01*
Y78821D01*
X1369702Y78423D01*
X1369672Y78025D01*
X1369622Y77629D01*
X1369553Y77236D01*
X1369465Y76847D01*
X1369357Y76463D01*
X1369229Y76085D01*
X1369084Y75714D01*
X1368920Y75350D01*
X1368737Y74995D01*
X1368538Y74650D01*
X1368322Y74315D01*
X1368089Y73991D01*
X1367840Y73679D01*
X1367576Y73380D01*
X1367298Y73094D01*
X1367005Y72823D01*
X1366700Y72567D01*
X1366382Y72326D01*
X1366052Y72101D01*
X1365712Y71893D01*
X1365362Y71702D01*
X1365002Y71529D01*
X1364635Y71374D01*
X1364260Y71238D01*
X1363878Y71120D01*
X1363492Y71022D01*
X1363101Y70943D01*
X1362707Y70883D01*
X1362310Y70844D01*
X1361911Y70824D01*
X1361512D01*
X1361114Y70844D01*
X1360717Y70883D01*
X1360323Y70943D01*
X1359932Y71022D01*
X1359545Y71120D01*
X1359164Y71238D01*
X1358789Y71374D01*
X1358422Y71529D01*
X1358062Y71702D01*
X1357712Y71893D01*
X1357372Y72101D01*
X1357042Y72326D01*
X1356724Y72567D01*
X1356418Y72823D01*
X1356126Y73094D01*
X1355848Y73380D01*
X1355584Y73679D01*
X1355335Y73991D01*
X1355102Y74315D01*
X1354886Y74650D01*
X1354686Y74995D01*
X1354504Y75350D01*
X1354340Y75714D01*
X1354194Y76085D01*
X1354067Y76463D01*
X1353959Y76847D01*
X1353870Y77236D01*
X1353801Y77629D01*
X1353752Y78025D01*
X1353722Y78423D01*
X1353712Y78821D01*
Y85821D01*
X1353722Y86220D01*
X1353752Y86618D01*
X1353801Y87014D01*
X1353870Y87407D01*
X1353959Y87795D01*
X1354067Y88180D01*
X1354194Y88558D01*
X1354340Y88929D01*
X1354504Y89292D01*
X1354686Y89647D01*
X1354886Y89993D01*
X1355102Y90328D01*
X1355335Y90652D01*
X1355584Y90964D01*
X1355848Y91263D01*
X1356126Y91548D01*
X1356418Y91820D01*
X1356724Y92076D01*
X1357042Y92317D01*
X1357372Y92541D01*
X1357712Y92750D01*
X1358062Y92940D01*
X1358422Y93113D01*
X1358789Y93268D01*
X1359164Y93405D01*
X1359545Y93522D01*
X1359932Y93621D01*
X1360323Y93700D01*
X1360717Y93759D01*
X1361114Y93799D01*
X1361512Y93819D01*
X1361911D01*
X1362310Y93799D01*
D02*
G37*
G36*
X1281109D02*
X1281505Y93759D01*
X1281900Y93700D01*
X1282291Y93621D01*
X1282677Y93522D01*
X1283058Y93405D01*
X1283433Y93268D01*
X1283801Y93113D01*
X1284160Y92940D01*
X1284511Y92750D01*
X1284851Y92541D01*
X1285181Y92317D01*
X1285498Y92076D01*
X1285804Y91820D01*
X1286097Y91548D01*
X1286375Y91263D01*
X1286639Y90964D01*
X1286888Y90652D01*
X1287121Y90328D01*
X1287337Y89993D01*
X1287536Y89647D01*
X1287718Y89292D01*
X1287883Y88929D01*
X1288028Y88558D01*
X1288155Y88180D01*
X1288263Y87795D01*
X1288352Y87407D01*
X1288421Y87014D01*
X1288471Y86618D01*
X1288501Y86220D01*
X1288511Y85821D01*
Y78821D01*
X1288501Y78423D01*
X1288471Y78025D01*
X1288421Y77629D01*
X1288352Y77236D01*
X1288263Y76847D01*
X1288155Y76463D01*
X1288028Y76085D01*
X1287883Y75714D01*
X1287718Y75350D01*
X1287536Y74995D01*
X1287337Y74650D01*
X1287121Y74315D01*
X1286888Y73991D01*
X1286639Y73679D01*
X1286375Y73380D01*
X1286097Y73094D01*
X1285804Y72823D01*
X1285498Y72567D01*
X1285181Y72326D01*
X1284851Y72101D01*
X1284511Y71893D01*
X1284160Y71702D01*
X1283801Y71529D01*
X1283433Y71374D01*
X1283058Y71238D01*
X1282677Y71120D01*
X1282291Y71022D01*
X1281900Y70943D01*
X1281505Y70883D01*
X1281109Y70844D01*
X1280710Y70824D01*
X1280311D01*
X1279913Y70844D01*
X1279516Y70883D01*
X1279121Y70943D01*
X1278730Y71022D01*
X1278344Y71120D01*
X1277963Y71238D01*
X1277588Y71374D01*
X1277220Y71529D01*
X1276861Y71702D01*
X1276511Y71893D01*
X1276170Y72101D01*
X1275841Y72326D01*
X1275523Y72567D01*
X1275217Y72823D01*
X1274925Y73094D01*
X1274646Y73380D01*
X1274382Y73679D01*
X1274134Y73991D01*
X1273901Y74315D01*
X1273684Y74650D01*
X1273485Y74995D01*
X1273303Y75350D01*
X1273139Y75714D01*
X1272993Y76085D01*
X1272866Y76463D01*
X1272758Y76847D01*
X1272669Y77236D01*
X1272600Y77629D01*
X1272551Y78025D01*
X1272521Y78423D01*
X1272511Y78821D01*
Y85821D01*
X1272521Y86220D01*
X1272551Y86618D01*
X1272600Y87014D01*
X1272669Y87407D01*
X1272758Y87795D01*
X1272866Y88180D01*
X1272993Y88558D01*
X1273139Y88929D01*
X1273303Y89292D01*
X1273485Y89647D01*
X1273684Y89993D01*
X1273901Y90328D01*
X1274134Y90652D01*
X1274382Y90964D01*
X1274646Y91263D01*
X1274925Y91548D01*
X1275217Y91820D01*
X1275523Y92076D01*
X1275841Y92317D01*
X1276170Y92541D01*
X1276511Y92750D01*
X1276861Y92940D01*
X1277220Y93113D01*
X1277588Y93268D01*
X1277963Y93405D01*
X1278344Y93522D01*
X1278730Y93621D01*
X1279121Y93700D01*
X1279516Y93759D01*
X1279913Y93799D01*
X1280311Y93819D01*
X1280710D01*
X1281109Y93799D01*
D02*
G37*
G36*
X1348861Y69832D02*
X1345861D01*
Y79331D01*
X1348861D01*
Y69832D01*
D02*
G37*
G36*
X1343860D02*
X1340860D01*
Y79331D01*
X1343860D01*
Y69832D01*
D02*
G37*
G36*
X1338861D02*
X1335861D01*
Y79331D01*
X1338861D01*
Y69832D01*
D02*
G37*
G36*
X1333860D02*
X1330860D01*
Y79331D01*
X1333860D01*
Y69832D01*
D02*
G37*
G36*
X1328861D02*
X1325861D01*
Y79331D01*
X1328861D01*
Y69832D01*
D02*
G37*
G36*
X1323860D02*
X1320860D01*
Y79331D01*
X1323860D01*
Y69832D01*
D02*
G37*
G36*
X1318859D02*
X1315859D01*
Y79331D01*
X1318859D01*
Y69832D01*
D02*
G37*
G36*
X1313860D02*
X1310860D01*
Y79331D01*
X1313860D01*
Y69832D01*
D02*
G37*
G36*
X1308861D02*
X1305861D01*
Y79331D01*
X1308861D01*
Y69832D01*
D02*
G37*
G36*
X1303860D02*
X1300860D01*
Y79331D01*
X1303860D01*
Y69832D01*
D02*
G37*
G36*
X1298861D02*
X1295861D01*
Y79331D01*
X1298861D01*
Y69832D01*
D02*
G37*
G36*
X1293860D02*
X1290860D01*
Y79331D01*
X1293860D01*
Y69832D01*
D02*
G37*
G36*
X1364684Y48307D02*
X1364932Y48282D01*
X1365178Y48245D01*
X1365423Y48195D01*
X1365664Y48134D01*
X1365902Y48060D01*
X1366137Y47975D01*
X1366366Y47878D01*
X1366591Y47770D01*
X1366810Y47651D01*
X1367023Y47521D01*
X1367229Y47380D01*
X1367427Y47230D01*
X1367618Y47070D01*
X1367801Y46900D01*
X1367975Y46722D01*
X1368140Y46535D01*
X1368296Y46340D01*
X1368441Y46137D01*
X1368577Y45928D01*
X1368701Y45712D01*
X1368815Y45490D01*
X1368917Y45263D01*
X1369009Y45031D01*
X1369088Y44795D01*
X1369155Y44555D01*
X1369211Y44312D01*
X1369254Y44066D01*
X1369285Y43819D01*
X1369304Y43570D01*
X1369310Y43321D01*
Y30321D01*
X1369304Y30072D01*
X1369285Y29823D01*
X1369254Y29576D01*
X1369211Y29330D01*
X1369155Y29087D01*
X1369088Y28847D01*
X1369009Y28611D01*
X1368917Y28379D01*
X1368815Y28151D01*
X1368701Y27930D01*
X1368577Y27714D01*
X1368441Y27504D01*
X1368296Y27302D01*
X1368140Y27107D01*
X1367975Y26920D01*
X1367801Y26741D01*
X1367618Y26572D01*
X1367427Y26412D01*
X1367229Y26261D01*
X1367023Y26121D01*
X1366810Y25991D01*
X1366591Y25872D01*
X1366366Y25763D01*
X1366137Y25666D01*
X1365902Y25581D01*
X1365664Y25508D01*
X1365423Y25446D01*
X1365178Y25397D01*
X1364932Y25360D01*
X1364684Y25335D01*
X1364435Y25322D01*
X1364185D01*
X1363936Y25335D01*
X1363688Y25360D01*
X1363442Y25397D01*
X1363198Y25446D01*
X1362956Y25508D01*
X1362718Y25581D01*
X1362483Y25666D01*
X1362254Y25763D01*
X1362029Y25872D01*
X1361810Y25991D01*
X1361597Y26121D01*
X1361391Y26261D01*
X1361193Y26412D01*
X1361002Y26572D01*
X1360819Y26741D01*
X1360645Y26920D01*
X1360480Y27107D01*
X1360324Y27302D01*
X1360179Y27504D01*
X1360044Y27714D01*
X1359919Y27930D01*
X1359805Y28151D01*
X1359703Y28379D01*
X1359612Y28611D01*
X1359532Y28847D01*
X1359465Y29087D01*
X1359409Y29330D01*
X1359366Y29576D01*
X1359335Y29823D01*
X1359316Y30072D01*
X1359310Y30321D01*
Y43321D01*
X1359316Y43570D01*
X1359335Y43819D01*
X1359366Y44066D01*
X1359409Y44312D01*
X1359465Y44555D01*
X1359532Y44795D01*
X1359612Y45031D01*
X1359703Y45263D01*
X1359805Y45490D01*
X1359919Y45712D01*
X1360044Y45928D01*
X1360179Y46137D01*
X1360324Y46340D01*
X1360480Y46535D01*
X1360645Y46722D01*
X1360819Y46900D01*
X1361002Y47070D01*
X1361193Y47230D01*
X1361391Y47380D01*
X1361597Y47521D01*
X1361810Y47651D01*
X1362029Y47770D01*
X1362254Y47878D01*
X1362483Y47975D01*
X1362718Y48060D01*
X1362956Y48134D01*
X1363198Y48195D01*
X1363442Y48245D01*
X1363688Y48282D01*
X1363936Y48307D01*
X1364185Y48319D01*
X1364435D01*
X1364684Y48307D01*
D02*
G37*
G36*
X1278284D02*
X1278532Y48282D01*
X1278779Y48245D01*
X1279023Y48195D01*
X1279265Y48134D01*
X1279503Y48060D01*
X1279737Y47975D01*
X1279967Y47878D01*
X1280192Y47770D01*
X1280411Y47651D01*
X1280623Y47521D01*
X1280829Y47380D01*
X1281028Y47230D01*
X1281219Y47070D01*
X1281402Y46900D01*
X1281576Y46722D01*
X1281741Y46535D01*
X1281896Y46340D01*
X1282042Y46137D01*
X1282177Y45928D01*
X1282302Y45712D01*
X1282415Y45490D01*
X1282518Y45263D01*
X1282609Y45031D01*
X1282688Y44795D01*
X1282756Y44555D01*
X1282811Y44312D01*
X1282855Y44066D01*
X1282885Y43819D01*
X1282904Y43570D01*
X1282910Y43321D01*
Y30321D01*
X1282904Y30072D01*
X1282885Y29823D01*
X1282855Y29576D01*
X1282811Y29330D01*
X1282756Y29087D01*
X1282688Y28847D01*
X1282609Y28611D01*
X1282518Y28379D01*
X1282415Y28151D01*
X1282302Y27930D01*
X1282177Y27714D01*
X1282042Y27504D01*
X1281896Y27302D01*
X1281741Y27107D01*
X1281576Y26920D01*
X1281402Y26741D01*
X1281219Y26572D01*
X1281028Y26412D01*
X1280829Y26261D01*
X1280623Y26121D01*
X1280411Y25991D01*
X1280192Y25872D01*
X1279967Y25763D01*
X1279737Y25666D01*
X1279503Y25581D01*
X1279265Y25508D01*
X1279023Y25446D01*
X1278779Y25397D01*
X1278532Y25360D01*
X1278284Y25335D01*
X1278035Y25322D01*
X1277786D01*
X1277537Y25335D01*
X1277289Y25360D01*
X1277042Y25397D01*
X1276798Y25446D01*
X1276556Y25508D01*
X1276318Y25581D01*
X1276084Y25666D01*
X1275854Y25763D01*
X1275629Y25872D01*
X1275411Y25991D01*
X1275198Y26121D01*
X1274992Y26261D01*
X1274793Y26412D01*
X1274602Y26572D01*
X1274419Y26741D01*
X1274245Y26920D01*
X1274080Y27107D01*
X1273925Y27302D01*
X1273779Y27504D01*
X1273644Y27714D01*
X1273519Y27930D01*
X1273406Y28151D01*
X1273303Y28379D01*
X1273212Y28611D01*
X1273133Y28847D01*
X1273065Y29087D01*
X1273009Y29330D01*
X1272966Y29576D01*
X1272935Y29823D01*
X1272917Y30072D01*
X1272911Y30321D01*
Y43321D01*
X1272917Y43570D01*
X1272935Y43819D01*
X1272966Y44066D01*
X1273009Y44312D01*
X1273065Y44555D01*
X1273133Y44795D01*
X1273212Y45031D01*
X1273303Y45263D01*
X1273406Y45490D01*
X1273519Y45712D01*
X1273644Y45928D01*
X1273779Y46137D01*
X1273925Y46340D01*
X1274080Y46535D01*
X1274245Y46722D01*
X1274419Y46900D01*
X1274602Y47070D01*
X1274793Y47230D01*
X1274992Y47380D01*
X1275198Y47521D01*
X1275411Y47651D01*
X1275629Y47770D01*
X1275854Y47878D01*
X1276084Y47975D01*
X1276318Y48060D01*
X1276556Y48134D01*
X1276798Y48195D01*
X1277042Y48245D01*
X1277289Y48282D01*
X1277537Y48307D01*
X1277786Y48319D01*
X1278035D01*
X1278284Y48307D01*
D02*
G37*
G36*
X1511360Y83829D02*
X1508361D01*
Y93329D01*
X1511360D01*
Y83829D01*
D02*
G37*
G36*
X1506359D02*
X1503359D01*
Y93329D01*
X1506359D01*
Y83829D01*
D02*
G37*
G36*
X1501361D02*
X1498361D01*
Y93329D01*
X1501361D01*
Y83829D01*
D02*
G37*
G36*
X1496359D02*
X1493359D01*
Y93329D01*
X1496359D01*
Y83829D01*
D02*
G37*
G36*
X1491361D02*
X1488361D01*
Y93329D01*
X1491361D01*
Y83829D01*
D02*
G37*
G36*
X1486359D02*
X1483359D01*
Y93329D01*
X1486359D01*
Y83829D01*
D02*
G37*
G36*
X1481361D02*
X1478361D01*
Y93329D01*
X1481361D01*
Y83829D01*
D02*
G37*
G36*
X1476359D02*
X1473359D01*
Y93329D01*
X1476359D01*
Y83829D01*
D02*
G37*
G36*
X1471361D02*
X1468361D01*
Y93329D01*
X1471361D01*
Y83829D01*
D02*
G37*
G36*
X1466362D02*
X1463362D01*
Y93329D01*
X1466362D01*
Y83829D01*
D02*
G37*
G36*
X1461361D02*
X1458361D01*
Y93329D01*
X1461361D01*
Y83829D01*
D02*
G37*
G36*
X1456362D02*
X1453362D01*
Y93329D01*
X1456362D01*
Y83829D01*
D02*
G37*
G36*
X1522310Y93799D02*
X1522707Y93759D01*
X1523101Y93700D01*
X1523492Y93621D01*
X1523878Y93522D01*
X1524260Y93405D01*
X1524635Y93268D01*
X1525002Y93113D01*
X1525362Y92940D01*
X1525712Y92750D01*
X1526052Y92541D01*
X1526382Y92317D01*
X1526700Y92076D01*
X1527005Y91820D01*
X1527298Y91548D01*
X1527576Y91263D01*
X1527840Y90964D01*
X1528089Y90652D01*
X1528322Y90328D01*
X1528538Y89993D01*
X1528737Y89647D01*
X1528920Y89292D01*
X1529084Y88929D01*
X1529229Y88558D01*
X1529357Y88180D01*
X1529465Y87795D01*
X1529553Y87407D01*
X1529622Y87014D01*
X1529672Y86618D01*
X1529702Y86220D01*
X1529712Y85821D01*
Y78821D01*
X1529702Y78423D01*
X1529672Y78025D01*
X1529622Y77629D01*
X1529553Y77236D01*
X1529465Y76847D01*
X1529357Y76463D01*
X1529229Y76085D01*
X1529084Y75714D01*
X1528920Y75350D01*
X1528737Y74995D01*
X1528538Y74650D01*
X1528322Y74315D01*
X1528089Y73991D01*
X1527840Y73679D01*
X1527576Y73380D01*
X1527298Y73094D01*
X1527005Y72823D01*
X1526700Y72567D01*
X1526382Y72326D01*
X1526052Y72101D01*
X1525712Y71893D01*
X1525362Y71702D01*
X1525002Y71529D01*
X1524635Y71374D01*
X1524260Y71238D01*
X1523878Y71120D01*
X1523492Y71022D01*
X1523101Y70943D01*
X1522707Y70883D01*
X1522310Y70844D01*
X1521911Y70824D01*
X1521512D01*
X1521114Y70844D01*
X1520717Y70883D01*
X1520323Y70943D01*
X1519932Y71022D01*
X1519545Y71120D01*
X1519164Y71238D01*
X1518789Y71374D01*
X1518422Y71529D01*
X1518062Y71702D01*
X1517712Y71893D01*
X1517372Y72101D01*
X1517042Y72326D01*
X1516724Y72567D01*
X1516418Y72823D01*
X1516126Y73094D01*
X1515847Y73380D01*
X1515584Y73679D01*
X1515335Y73991D01*
X1515102Y74315D01*
X1514886Y74650D01*
X1514686Y74995D01*
X1514504Y75350D01*
X1514340Y75714D01*
X1514194Y76085D01*
X1514067Y76463D01*
X1513959Y76847D01*
X1513870Y77236D01*
X1513801Y77629D01*
X1513752Y78025D01*
X1513722Y78423D01*
X1513712Y78821D01*
Y85821D01*
X1513722Y86220D01*
X1513752Y86618D01*
X1513801Y87014D01*
X1513870Y87407D01*
X1513959Y87795D01*
X1514067Y88180D01*
X1514194Y88558D01*
X1514340Y88929D01*
X1514504Y89292D01*
X1514686Y89647D01*
X1514886Y89993D01*
X1515102Y90328D01*
X1515335Y90652D01*
X1515584Y90964D01*
X1515847Y91263D01*
X1516126Y91548D01*
X1516418Y91820D01*
X1516724Y92076D01*
X1517042Y92317D01*
X1517372Y92541D01*
X1517712Y92750D01*
X1518062Y92940D01*
X1518422Y93113D01*
X1518789Y93268D01*
X1519164Y93405D01*
X1519545Y93522D01*
X1519932Y93621D01*
X1520323Y93700D01*
X1520717Y93759D01*
X1521114Y93799D01*
X1521512Y93819D01*
X1521911D01*
X1522310Y93799D01*
D02*
G37*
G36*
X1441109D02*
X1441505Y93759D01*
X1441900Y93700D01*
X1442291Y93621D01*
X1442677Y93522D01*
X1443058Y93405D01*
X1443433Y93268D01*
X1443801Y93113D01*
X1444160Y92940D01*
X1444511Y92750D01*
X1444851Y92541D01*
X1445181Y92317D01*
X1445498Y92076D01*
X1445804Y91820D01*
X1446097Y91548D01*
X1446375Y91263D01*
X1446639Y90964D01*
X1446888Y90652D01*
X1447121Y90328D01*
X1447337Y89993D01*
X1447536Y89647D01*
X1447718Y89292D01*
X1447883Y88929D01*
X1448028Y88558D01*
X1448155Y88180D01*
X1448263Y87795D01*
X1448352Y87407D01*
X1448421Y87014D01*
X1448471Y86618D01*
X1448501Y86220D01*
X1448511Y85821D01*
Y78821D01*
X1448501Y78423D01*
X1448471Y78025D01*
X1448421Y77629D01*
X1448352Y77236D01*
X1448263Y76847D01*
X1448155Y76463D01*
X1448028Y76085D01*
X1447883Y75714D01*
X1447718Y75350D01*
X1447536Y74995D01*
X1447337Y74650D01*
X1447121Y74315D01*
X1446888Y73991D01*
X1446639Y73679D01*
X1446375Y73380D01*
X1446097Y73094D01*
X1445804Y72823D01*
X1445498Y72567D01*
X1445181Y72326D01*
X1444851Y72101D01*
X1444511Y71893D01*
X1444160Y71702D01*
X1443801Y71529D01*
X1443433Y71374D01*
X1443058Y71238D01*
X1442677Y71120D01*
X1442291Y71022D01*
X1441900Y70943D01*
X1441505Y70883D01*
X1441109Y70844D01*
X1440710Y70824D01*
X1440311D01*
X1439913Y70844D01*
X1439516Y70883D01*
X1439122Y70943D01*
X1438730Y71022D01*
X1438344Y71120D01*
X1437963Y71238D01*
X1437588Y71374D01*
X1437220Y71529D01*
X1436861Y71702D01*
X1436511Y71893D01*
X1436170Y72101D01*
X1435841Y72326D01*
X1435523Y72567D01*
X1435217Y72823D01*
X1434925Y73094D01*
X1434646Y73380D01*
X1434382Y73679D01*
X1434134Y73991D01*
X1433901Y74315D01*
X1433684Y74650D01*
X1433485Y74995D01*
X1433303Y75350D01*
X1433139Y75714D01*
X1432993Y76085D01*
X1432866Y76463D01*
X1432758Y76847D01*
X1432669Y77236D01*
X1432600Y77629D01*
X1432551Y78025D01*
X1432521Y78423D01*
X1432511Y78821D01*
Y85821D01*
X1432521Y86220D01*
X1432551Y86618D01*
X1432600Y87014D01*
X1432669Y87407D01*
X1432758Y87795D01*
X1432866Y88180D01*
X1432993Y88558D01*
X1433139Y88929D01*
X1433303Y89292D01*
X1433485Y89647D01*
X1433684Y89993D01*
X1433901Y90328D01*
X1434134Y90652D01*
X1434382Y90964D01*
X1434646Y91263D01*
X1434925Y91548D01*
X1435217Y91820D01*
X1435523Y92076D01*
X1435841Y92317D01*
X1436170Y92541D01*
X1436511Y92750D01*
X1436861Y92940D01*
X1437220Y93113D01*
X1437588Y93268D01*
X1437963Y93405D01*
X1438344Y93522D01*
X1438730Y93621D01*
X1439122Y93700D01*
X1439516Y93759D01*
X1439913Y93799D01*
X1440311Y93819D01*
X1440710D01*
X1441109Y93799D01*
D02*
G37*
G36*
X1508861Y69832D02*
X1505861D01*
Y79331D01*
X1508861D01*
Y69832D01*
D02*
G37*
G36*
X1503860D02*
X1500860D01*
Y79331D01*
X1503860D01*
Y69832D01*
D02*
G37*
G36*
X1498861D02*
X1495861D01*
Y79331D01*
X1498861D01*
Y69832D01*
D02*
G37*
G36*
X1493860D02*
X1490860D01*
Y79331D01*
X1493860D01*
Y69832D01*
D02*
G37*
G36*
X1488861D02*
X1485861D01*
Y79331D01*
X1488861D01*
Y69832D01*
D02*
G37*
G36*
X1483860D02*
X1480860D01*
Y79331D01*
X1483860D01*
Y69832D01*
D02*
G37*
G36*
X1478859D02*
X1475859D01*
Y79331D01*
X1478859D01*
Y69832D01*
D02*
G37*
G36*
X1473860D02*
X1470860D01*
Y79331D01*
X1473860D01*
Y69832D01*
D02*
G37*
G36*
X1468861D02*
X1465861D01*
Y79331D01*
X1468861D01*
Y69832D01*
D02*
G37*
G36*
X1463860D02*
X1460860D01*
Y79331D01*
X1463860D01*
Y69832D01*
D02*
G37*
G36*
X1458861D02*
X1455861D01*
Y79331D01*
X1458861D01*
Y69832D01*
D02*
G37*
G36*
X1453860D02*
X1450860D01*
Y79331D01*
X1453860D01*
Y69832D01*
D02*
G37*
G36*
X1524684Y48307D02*
X1524932Y48282D01*
X1525178Y48245D01*
X1525423Y48195D01*
X1525664Y48134D01*
X1525902Y48060D01*
X1526137Y47975D01*
X1526366Y47878D01*
X1526591Y47770D01*
X1526810Y47651D01*
X1527023Y47521D01*
X1527229Y47380D01*
X1527427Y47230D01*
X1527618Y47070D01*
X1527801Y46900D01*
X1527975Y46722D01*
X1528140Y46535D01*
X1528296Y46340D01*
X1528441Y46137D01*
X1528577Y45928D01*
X1528701Y45712D01*
X1528815Y45490D01*
X1528917Y45263D01*
X1529008Y45031D01*
X1529088Y44795D01*
X1529155Y44555D01*
X1529211Y44312D01*
X1529254Y44066D01*
X1529285Y43819D01*
X1529304Y43570D01*
X1529310Y43321D01*
Y30321D01*
X1529304Y30072D01*
X1529285Y29823D01*
X1529254Y29576D01*
X1529211Y29330D01*
X1529155Y29087D01*
X1529088Y28847D01*
X1529008Y28611D01*
X1528917Y28379D01*
X1528815Y28151D01*
X1528701Y27930D01*
X1528577Y27714D01*
X1528441Y27504D01*
X1528296Y27302D01*
X1528140Y27107D01*
X1527975Y26920D01*
X1527801Y26741D01*
X1527618Y26572D01*
X1527427Y26412D01*
X1527229Y26261D01*
X1527023Y26121D01*
X1526810Y25991D01*
X1526591Y25872D01*
X1526366Y25763D01*
X1526137Y25666D01*
X1525902Y25581D01*
X1525664Y25508D01*
X1525423Y25446D01*
X1525178Y25397D01*
X1524932Y25360D01*
X1524684Y25335D01*
X1524435Y25322D01*
X1524185D01*
X1523936Y25335D01*
X1523688Y25360D01*
X1523442Y25397D01*
X1523197Y25446D01*
X1522956Y25508D01*
X1522718Y25581D01*
X1522483Y25666D01*
X1522254Y25763D01*
X1522029Y25872D01*
X1521810Y25991D01*
X1521597Y26121D01*
X1521391Y26261D01*
X1521193Y26412D01*
X1521002Y26572D01*
X1520819Y26741D01*
X1520645Y26920D01*
X1520480Y27107D01*
X1520324Y27302D01*
X1520179Y27504D01*
X1520044Y27714D01*
X1519919Y27930D01*
X1519805Y28151D01*
X1519703Y28379D01*
X1519612Y28611D01*
X1519532Y28847D01*
X1519465Y29087D01*
X1519409Y29330D01*
X1519366Y29576D01*
X1519335Y29823D01*
X1519316Y30072D01*
X1519310Y30321D01*
Y43321D01*
X1519316Y43570D01*
X1519335Y43819D01*
X1519366Y44066D01*
X1519409Y44312D01*
X1519465Y44555D01*
X1519532Y44795D01*
X1519612Y45031D01*
X1519703Y45263D01*
X1519805Y45490D01*
X1519919Y45712D01*
X1520044Y45928D01*
X1520179Y46137D01*
X1520324Y46340D01*
X1520480Y46535D01*
X1520645Y46722D01*
X1520819Y46900D01*
X1521002Y47070D01*
X1521193Y47230D01*
X1521391Y47380D01*
X1521597Y47521D01*
X1521810Y47651D01*
X1522029Y47770D01*
X1522254Y47878D01*
X1522483Y47975D01*
X1522718Y48060D01*
X1522956Y48134D01*
X1523197Y48195D01*
X1523442Y48245D01*
X1523688Y48282D01*
X1523936Y48307D01*
X1524185Y48319D01*
X1524435D01*
X1524684Y48307D01*
D02*
G37*
G36*
X1438284D02*
X1438532Y48282D01*
X1438779Y48245D01*
X1439023Y48195D01*
X1439265Y48134D01*
X1439503Y48060D01*
X1439737Y47975D01*
X1439967Y47878D01*
X1440192Y47770D01*
X1440411Y47651D01*
X1440623Y47521D01*
X1440829Y47380D01*
X1441028Y47230D01*
X1441219Y47070D01*
X1441402Y46900D01*
X1441576Y46722D01*
X1441741Y46535D01*
X1441896Y46340D01*
X1442042Y46137D01*
X1442177Y45928D01*
X1442302Y45712D01*
X1442415Y45490D01*
X1442518Y45263D01*
X1442609Y45031D01*
X1442688Y44795D01*
X1442756Y44555D01*
X1442811Y44312D01*
X1442854Y44066D01*
X1442885Y43819D01*
X1442904Y43570D01*
X1442910Y43321D01*
Y30321D01*
X1442904Y30072D01*
X1442885Y29823D01*
X1442854Y29576D01*
X1442811Y29330D01*
X1442756Y29087D01*
X1442688Y28847D01*
X1442609Y28611D01*
X1442518Y28379D01*
X1442415Y28151D01*
X1442302Y27930D01*
X1442177Y27714D01*
X1442042Y27504D01*
X1441896Y27302D01*
X1441741Y27107D01*
X1441576Y26920D01*
X1441402Y26741D01*
X1441219Y26572D01*
X1441028Y26412D01*
X1440829Y26261D01*
X1440623Y26121D01*
X1440411Y25991D01*
X1440192Y25872D01*
X1439967Y25763D01*
X1439737Y25666D01*
X1439503Y25581D01*
X1439265Y25508D01*
X1439023Y25446D01*
X1438779Y25397D01*
X1438532Y25360D01*
X1438284Y25335D01*
X1438035Y25322D01*
X1437786D01*
X1437537Y25335D01*
X1437289Y25360D01*
X1437042Y25397D01*
X1436798Y25446D01*
X1436556Y25508D01*
X1436318Y25581D01*
X1436084Y25666D01*
X1435854Y25763D01*
X1435629Y25872D01*
X1435411Y25991D01*
X1435198Y26121D01*
X1434992Y26261D01*
X1434793Y26412D01*
X1434602Y26572D01*
X1434419Y26741D01*
X1434245Y26920D01*
X1434080Y27107D01*
X1433925Y27302D01*
X1433779Y27504D01*
X1433644Y27714D01*
X1433519Y27930D01*
X1433405Y28151D01*
X1433303Y28379D01*
X1433212Y28611D01*
X1433133Y28847D01*
X1433065Y29087D01*
X1433009Y29330D01*
X1432966Y29576D01*
X1432935Y29823D01*
X1432917Y30072D01*
X1432910Y30321D01*
Y43321D01*
X1432917Y43570D01*
X1432935Y43819D01*
X1432966Y44066D01*
X1433009Y44312D01*
X1433065Y44555D01*
X1433133Y44795D01*
X1433212Y45031D01*
X1433303Y45263D01*
X1433405Y45490D01*
X1433519Y45712D01*
X1433644Y45928D01*
X1433779Y46137D01*
X1433925Y46340D01*
X1434080Y46535D01*
X1434245Y46722D01*
X1434419Y46900D01*
X1434602Y47070D01*
X1434793Y47230D01*
X1434992Y47380D01*
X1435198Y47521D01*
X1435411Y47651D01*
X1435629Y47770D01*
X1435854Y47878D01*
X1436084Y47975D01*
X1436318Y48060D01*
X1436556Y48134D01*
X1436798Y48195D01*
X1437042Y48245D01*
X1437289Y48282D01*
X1437537Y48307D01*
X1437786Y48319D01*
X1438035D01*
X1438284Y48307D01*
D02*
G37*
D14*
X1732500Y774100D02*
D03*
Y761400D02*
D03*
Y748699D02*
D03*
Y736000D02*
D03*
Y723299D02*
D03*
Y710600D02*
D03*
Y697899D02*
D03*
Y685200D02*
D03*
Y672499D02*
D03*
Y659799D02*
D03*
Y647100D02*
D03*
Y634399D02*
D03*
Y621699D02*
D03*
Y608999D02*
D03*
X1907500D02*
D03*
Y621699D02*
D03*
Y634399D02*
D03*
Y647100D02*
D03*
Y659799D02*
D03*
Y672499D02*
D03*
Y685200D02*
D03*
Y697899D02*
D03*
Y710600D02*
D03*
Y723299D02*
D03*
Y736000D02*
D03*
Y748699D02*
D03*
Y761400D02*
D03*
Y774100D02*
D03*
D15*
X1750150Y596500D02*
D03*
X1762850D02*
D03*
X1775550D02*
D03*
X1788250D02*
D03*
X1800950D02*
D03*
X1813650D02*
D03*
X1826350D02*
D03*
X1839050D02*
D03*
X1851750D02*
D03*
X1864450D02*
D03*
X1877150D02*
D03*
X1889850D02*
D03*
D16*
X1805000Y696900D02*
D03*
X1819000D02*
D03*
X1791000D02*
D03*
X1819000Y710900D02*
D03*
X1805000D02*
D03*
X1791000D02*
D03*
Y682900D02*
D03*
X1805000D02*
D03*
X1819000D02*
D03*
D17*
X1454861Y88581D02*
D03*
X1459861D02*
D03*
X1464862D02*
D03*
X1469861D02*
D03*
X1474860D02*
D03*
X1479860D02*
D03*
X1484860D02*
D03*
X1489859D02*
D03*
X1494860D02*
D03*
X1499860D02*
D03*
X1504860D02*
D03*
X1509860D02*
D03*
X1507360Y74581D02*
D03*
X1502360D02*
D03*
X1497360D02*
D03*
X1492360D02*
D03*
X1487360D02*
D03*
X1482360D02*
D03*
X1477359D02*
D03*
X1472360D02*
D03*
X1467360D02*
D03*
X1462360D02*
D03*
X1457361D02*
D03*
X1452360D02*
D03*
X1292360D02*
D03*
X1297360D02*
D03*
X1302359D02*
D03*
X1307360D02*
D03*
X1312360D02*
D03*
X1317359D02*
D03*
X1322359D02*
D03*
X1327360D02*
D03*
X1332360D02*
D03*
X1337360D02*
D03*
X1342360D02*
D03*
X1347360D02*
D03*
X1349860Y88581D02*
D03*
X1344860D02*
D03*
X1339860D02*
D03*
X1334860D02*
D03*
X1329859D02*
D03*
X1324859D02*
D03*
X1319860D02*
D03*
X1314860D02*
D03*
X1309861D02*
D03*
X1304861D02*
D03*
X1299861D02*
D03*
X1294861D02*
D03*
D18*
X1875240Y242480D02*
D03*
X1857240D02*
D03*
X1875240Y182480D02*
D03*
X1857240D02*
D03*
Y82480D02*
D03*
X1875240D02*
D03*
X1857240Y132480D02*
D03*
X1875240D02*
D03*
X1657240Y342480D02*
D03*
X1675240D02*
D03*
X1667240Y492480D02*
D03*
X1685241D02*
D03*
D19*
X1698740Y188030D02*
D03*
Y200730D02*
D03*
X1753740Y276930D02*
D03*
X1698740Y264230D02*
D03*
X1753740D02*
D03*
Y238830D02*
D03*
X1698740Y276930D02*
D03*
X1753740Y251530D02*
D03*
X1698740D02*
D03*
Y238830D02*
D03*
Y213430D02*
D03*
X1753740Y226130D02*
D03*
Y213430D02*
D03*
Y188030D02*
D03*
X1698740Y226130D02*
D03*
X1753740Y200730D02*
D03*
D20*
X1861740Y384880D02*
D03*
Y340080D02*
D03*
X1770740Y384880D02*
D03*
Y340080D02*
D03*
X1861740Y514880D02*
D03*
Y470080D02*
D03*
X1770740Y514880D02*
D03*
Y470080D02*
D03*
D21*
X1626240Y397880D02*
D03*
X1716240Y427880D02*
D03*
D22*
X1626240Y367830D02*
D03*
X1716240Y397830D02*
D03*
D23*
X1666240Y421980D02*
D03*
X1672740Y402980D02*
D03*
X1659740D02*
D03*
X1716240Y351980D02*
D03*
X1722740Y332980D02*
D03*
X1709740D02*
D03*
D24*
X993460Y703810D02*
D03*
D25*
X963410D02*
D03*
M02*
