G04*
G04 #@! TF.GenerationSoftware,Altium Limited,Altium Designer,23.1.1 (15)*
G04*
G04 Layer_Physical_Order=1*
G04 Layer_Color=255*
%FSLAX44Y44*%
%MOMM*%
G71*
G04*
G04 #@! TF.SameCoordinates,1587853A-9B19-4160-AC70-F3A7ED46FF3E*
G04*
G04*
G04 #@! TF.FilePolarity,Positive*
G04*
G01*
G75*
%ADD14C,0.2540*%
%ADD17R,0.9500X0.3000*%
G04:AMPARAMS|DCode=18|XSize=1.31mm|YSize=0.62mm|CornerRadius=0.0775mm|HoleSize=0mm|Usage=FLASHONLY|Rotation=180.000|XOffset=0mm|YOffset=0mm|HoleType=Round|Shape=RoundedRectangle|*
%AMROUNDEDRECTD18*
21,1,1.3100,0.4650,0,0,180.0*
21,1,1.1550,0.6200,0,0,180.0*
1,1,0.1550,-0.5775,0.2325*
1,1,0.1550,0.5775,0.2325*
1,1,0.1550,0.5775,-0.2325*
1,1,0.1550,-0.5775,-0.2325*
%
%ADD18ROUNDEDRECTD18*%
G04:AMPARAMS|DCode=19|XSize=2.1mm|YSize=1.38mm|CornerRadius=0.1035mm|HoleSize=0mm|Usage=FLASHONLY|Rotation=180.000|XOffset=0mm|YOffset=0mm|HoleType=Round|Shape=RoundedRectangle|*
%AMROUNDEDRECTD19*
21,1,2.1000,1.1730,0,0,180.0*
21,1,1.8930,1.3800,0,0,180.0*
1,1,0.2070,-0.9465,0.5865*
1,1,0.2070,0.9465,0.5865*
1,1,0.2070,0.9465,-0.5865*
1,1,0.2070,-0.9465,-0.5865*
%
%ADD19ROUNDEDRECTD19*%
%ADD20R,1.4500X1.1500*%
%ADD21R,1.1500X1.4500*%
G04:AMPARAMS|DCode=22|XSize=1.09mm|YSize=1.77mm|CornerRadius=0.0763mm|HoleSize=0mm|Usage=FLASHONLY|Rotation=90.000|XOffset=0mm|YOffset=0mm|HoleType=Round|Shape=RoundedRectangle|*
%AMROUNDEDRECTD22*
21,1,1.0900,1.6174,0,0,90.0*
21,1,0.9374,1.7700,0,0,90.0*
1,1,0.1526,0.8087,0.4687*
1,1,0.1526,0.8087,-0.4687*
1,1,0.1526,-0.8087,-0.4687*
1,1,0.1526,-0.8087,0.4687*
%
%ADD22ROUNDEDRECTD22*%
G04:AMPARAMS|DCode=23|XSize=0.94mm|YSize=1.77mm|CornerRadius=0.0658mm|HoleSize=0mm|Usage=FLASHONLY|Rotation=90.000|XOffset=0mm|YOffset=0mm|HoleType=Round|Shape=RoundedRectangle|*
%AMROUNDEDRECTD23*
21,1,0.9400,1.6384,0,0,90.0*
21,1,0.8084,1.7700,0,0,90.0*
1,1,0.1316,0.8192,0.4042*
1,1,0.1316,0.8192,-0.4042*
1,1,0.1316,-0.8192,-0.4042*
1,1,0.1316,-0.8192,0.4042*
%
%ADD23ROUNDEDRECTD23*%
%ADD24R,0.9000X0.7000*%
G04:AMPARAMS|DCode=25|XSize=0.94mm|YSize=1.77mm|CornerRadius=0.0658mm|HoleSize=0mm|Usage=FLASHONLY|Rotation=180.000|XOffset=0mm|YOffset=0mm|HoleType=Round|Shape=RoundedRectangle|*
%AMROUNDEDRECTD25*
21,1,0.9400,1.6384,0,0,180.0*
21,1,0.8084,1.7700,0,0,180.0*
1,1,0.1316,-0.4042,0.8192*
1,1,0.1316,0.4042,0.8192*
1,1,0.1316,0.4042,-0.8192*
1,1,0.1316,-0.4042,-0.8192*
%
%ADD25ROUNDEDRECTD25*%
G04:AMPARAMS|DCode=26|XSize=1.09mm|YSize=1.77mm|CornerRadius=0.0763mm|HoleSize=0mm|Usage=FLASHONLY|Rotation=180.000|XOffset=0mm|YOffset=0mm|HoleType=Round|Shape=RoundedRectangle|*
%AMROUNDEDRECTD26*
21,1,1.0900,1.6174,0,0,180.0*
21,1,0.9374,1.7700,0,0,180.0*
1,1,0.1526,-0.4687,0.8087*
1,1,0.1526,0.4687,0.8087*
1,1,0.1526,0.4687,-0.8087*
1,1,0.1526,-0.4687,-0.8087*
%
%ADD26ROUNDEDRECTD26*%
%ADD27R,0.9000X0.9000*%
%ADD28R,1.5000X0.9000*%
%ADD29R,0.9000X1.5000*%
%ADD30R,2.0000X4.0000*%
%ADD31R,1.1000X0.6000*%
%ADD32R,3.8000X2.0000*%
%ADD33R,1.5000X2.0000*%
%ADD66C,1.5000*%
%ADD67R,1.5000X1.5000*%
%ADD68C,5.0000*%
%ADD69R,1.5000X1.5000*%
%ADD70C,1.0300*%
%ADD71O,2.3000X1.6000*%
%ADD72O,2.3000X1.0000*%
%ADD73C,0.5500*%
%ADD74C,1.8500*%
%ADD75R,1.8500X1.8500*%
%ADD76C,1.5240*%
%ADD77C,3.2500*%
%ADD78C,1.5300*%
%ADD79R,1.5300X1.5300*%
%ADD80C,0.5000*%
G36*
X1394986Y793730D02*
X1387753Y786497D01*
X1386911Y785237D01*
X1386615Y783750D01*
Y777609D01*
X1377410Y768404D01*
X1376140Y768930D01*
Y770990D01*
X1356060D01*
Y767834D01*
X1339949D01*
X1338463Y767539D01*
X1337203Y766696D01*
X1334753Y764247D01*
X1333911Y762987D01*
X1333829Y762572D01*
X1333253Y761997D01*
X1332411Y760737D01*
X1332115Y759250D01*
Y726609D01*
X1285910Y680404D01*
X1284640Y680929D01*
Y693710D01*
Y707790D01*
X1253484D01*
Y720650D01*
X1253189Y722137D01*
X1252347Y723397D01*
X1209047Y766696D01*
X1207787Y767539D01*
X1206300Y767834D01*
X1201140D01*
Y770990D01*
X1181060D01*
Y767834D01*
X1171659D01*
X1164897Y774597D01*
X1163636Y775439D01*
X1162150Y775735D01*
X1139640D01*
Y781890D01*
X1119560D01*
Y775735D01*
X1113009D01*
X1095014Y793730D01*
X1095540Y795000D01*
X1394460D01*
X1394986Y793730D01*
D02*
G37*
G36*
X1181060Y742434D02*
X1151049D01*
X1149563Y742139D01*
X1148303Y741296D01*
X1144891Y737885D01*
X1137029D01*
X1136503Y739155D01*
X1137634Y740285D01*
X1138956Y742575D01*
X1139640Y745128D01*
Y747365D01*
X1181060D01*
Y742434D01*
D02*
G37*
G36*
Y729135D02*
X1165500D01*
X1164013Y728839D01*
X1162753Y727997D01*
X1162641Y727885D01*
X1157243D01*
X1156855Y728273D01*
X1155003Y729040D01*
X1152998D01*
X1151145Y728273D01*
X1149727Y726855D01*
X1148960Y725003D01*
Y722998D01*
X1149727Y721145D01*
X1151145Y719727D01*
X1152998Y718960D01*
X1155003D01*
X1156855Y719727D01*
X1157243Y720115D01*
X1164250D01*
X1165737Y720411D01*
X1166997Y721253D01*
X1167109Y721365D01*
X1181060D01*
Y717034D01*
X1168224D01*
X1167002Y717540D01*
X1164997D01*
X1163145Y716773D01*
X1161727Y715355D01*
X1160960Y713503D01*
Y711497D01*
X1161727Y709645D01*
X1163145Y708227D01*
X1164997Y707460D01*
X1165443D01*
X1165776Y706585D01*
X1165812Y706190D01*
X1164477Y704855D01*
X1163710Y703002D01*
Y700997D01*
X1164477Y699145D01*
X1165895Y697727D01*
X1167747Y696960D01*
X1168665D01*
X1168814Y696861D01*
X1170301Y696565D01*
X1181060D01*
Y691634D01*
X1169109D01*
X1139640Y721104D01*
Y722372D01*
X1138956Y724925D01*
X1137634Y727215D01*
X1136003Y728845D01*
X1136341Y730115D01*
X1146500D01*
X1147987Y730411D01*
X1149247Y731253D01*
X1152659Y734665D01*
X1181060D01*
Y729135D01*
D02*
G37*
G36*
X1123196Y728845D02*
X1121566Y727215D01*
X1120244Y724925D01*
X1119560Y722372D01*
Y719728D01*
X1120244Y717175D01*
X1121566Y714885D01*
X1123435Y713016D01*
X1125724Y711694D01*
X1128278Y711010D01*
X1130921D01*
X1133475Y711694D01*
X1135764Y713016D01*
X1136252Y713504D01*
X1164754Y685003D01*
X1166014Y684161D01*
X1167501Y683865D01*
X1181060D01*
Y678934D01*
X1166809D01*
X1147347Y698397D01*
X1146087Y699239D01*
X1144600Y699535D01*
X1138950D01*
X1137634Y701815D01*
X1135764Y703684D01*
X1133475Y705006D01*
X1130921Y705690D01*
X1128278D01*
X1125724Y705006D01*
X1123435Y703684D01*
X1121566Y701815D01*
X1120244Y699525D01*
X1119560Y696972D01*
Y694328D01*
X1120244Y691775D01*
X1121566Y689485D01*
X1123435Y687616D01*
X1125724Y686294D01*
X1128278Y685610D01*
X1130921D01*
X1133475Y686294D01*
X1135764Y687616D01*
X1137634Y689485D01*
X1138950Y691765D01*
X1142991D01*
X1162454Y672303D01*
X1163714Y671461D01*
X1165200Y671165D01*
X1181060D01*
Y666234D01*
X1152759D01*
X1146997Y671997D01*
X1145737Y672839D01*
X1144250Y673135D01*
X1139221D01*
X1138956Y674125D01*
X1137634Y676415D01*
X1135764Y678284D01*
X1133475Y679606D01*
X1130921Y680290D01*
X1128278D01*
X1125724Y679606D01*
X1123435Y678284D01*
X1121566Y676415D01*
X1120244Y674125D01*
X1119560Y671572D01*
Y668928D01*
X1120244Y666375D01*
X1121566Y664085D01*
X1123435Y662216D01*
X1125724Y660894D01*
X1128278Y660210D01*
X1130921D01*
X1133475Y660894D01*
X1135764Y662216D01*
X1137634Y664085D01*
X1138373Y665365D01*
X1142641D01*
X1148404Y659603D01*
X1149664Y658761D01*
X1151151Y658465D01*
X1181060D01*
Y653135D01*
X1172250D01*
X1170763Y652839D01*
X1169503Y651997D01*
X1166241Y648735D01*
X1138950D01*
X1137634Y651015D01*
X1135764Y652884D01*
X1133475Y654206D01*
X1130921Y654890D01*
X1128278D01*
X1125724Y654206D01*
X1123435Y652884D01*
X1121566Y651015D01*
X1120244Y648725D01*
X1119560Y646172D01*
Y643528D01*
X1120244Y640975D01*
X1121566Y638685D01*
X1123435Y636816D01*
X1125724Y635494D01*
X1128278Y634810D01*
X1130921D01*
X1133475Y635494D01*
X1135764Y636816D01*
X1137634Y638685D01*
X1138950Y640965D01*
X1166316D01*
X1166702Y639700D01*
X1166702Y639695D01*
X1150341Y623335D01*
X1138950D01*
X1137634Y625615D01*
X1135764Y627484D01*
X1133475Y628806D01*
X1130921Y629490D01*
X1128278D01*
X1125724Y628806D01*
X1123435Y627484D01*
X1121566Y625615D01*
X1120244Y623325D01*
X1119560Y620772D01*
Y618128D01*
X1120244Y615575D01*
X1121566Y613285D01*
X1123435Y611416D01*
X1125724Y610094D01*
X1128278Y609410D01*
X1130921D01*
X1133475Y610094D01*
X1135764Y611416D01*
X1137634Y613285D01*
X1138950Y615565D01*
X1151950D01*
X1153437Y615861D01*
X1154697Y616703D01*
X1171059Y633065D01*
X1181060D01*
Y628134D01*
X1172749D01*
X1171263Y627839D01*
X1170003Y626996D01*
X1152891Y609885D01*
X1141550D01*
X1140063Y609589D01*
X1138803Y608747D01*
X1133465Y603409D01*
X1130921Y604090D01*
X1128278D01*
X1125724Y603406D01*
X1123435Y602084D01*
X1121566Y600215D01*
X1120244Y597925D01*
X1119560Y595372D01*
Y592728D01*
X1120244Y590175D01*
X1121566Y587885D01*
X1123435Y586016D01*
X1125724Y584694D01*
X1128278Y584010D01*
X1130921D01*
X1133475Y584694D01*
X1135764Y586016D01*
X1137634Y587885D01*
X1138956Y590175D01*
X1139640Y592728D01*
Y595372D01*
X1138958Y597915D01*
X1143159Y602115D01*
X1154500D01*
X1155987Y602411D01*
X1157247Y603253D01*
X1174359Y620365D01*
X1181060D01*
Y615434D01*
X1177049D01*
X1175563Y615139D01*
X1174303Y614296D01*
X1157253Y597247D01*
X1156411Y595987D01*
X1156115Y594500D01*
Y587359D01*
X1141291Y572535D01*
X1138950D01*
X1137634Y574815D01*
X1135764Y576684D01*
X1133475Y578006D01*
X1130921Y578690D01*
X1128278D01*
X1125724Y578006D01*
X1123435Y576684D01*
X1121566Y574815D01*
X1120244Y572525D01*
X1119560Y569972D01*
Y567328D01*
X1120244Y564775D01*
X1121566Y562485D01*
X1123435Y560616D01*
X1125724Y559294D01*
X1128278Y558610D01*
X1130921D01*
X1133475Y559294D01*
X1135764Y560616D01*
X1137634Y562485D01*
X1138950Y564765D01*
X1142900D01*
X1144055Y564995D01*
X1144746Y563890D01*
X1133465Y552609D01*
X1130921Y553290D01*
X1128278D01*
X1125724Y552606D01*
X1123435Y551284D01*
X1121566Y549415D01*
X1120244Y547125D01*
X1119560Y544572D01*
Y541928D01*
X1120244Y539375D01*
X1121566Y537085D01*
X1123435Y535216D01*
X1125724Y533894D01*
X1128278Y533210D01*
X1130921D01*
X1133475Y533894D01*
X1135764Y535216D01*
X1137634Y537085D01*
X1138956Y539375D01*
X1139640Y541928D01*
Y544572D01*
X1138958Y547115D01*
X1172997Y581153D01*
X1173839Y582414D01*
X1174135Y583900D01*
Y593891D01*
X1175209Y594965D01*
X1181060D01*
Y591810D01*
X1201140D01*
X1201710Y590776D01*
Y576310D01*
X1204865D01*
Y573359D01*
X1153241Y521735D01*
X1138950D01*
X1137634Y524015D01*
X1135764Y525884D01*
X1133475Y527206D01*
X1130921Y527890D01*
X1128278D01*
X1125724Y527206D01*
X1123435Y525884D01*
X1121566Y524015D01*
X1120244Y521725D01*
X1119560Y519172D01*
Y516528D01*
X1120244Y513975D01*
X1121566Y511685D01*
X1123435Y509816D01*
X1125724Y508494D01*
X1128278Y507810D01*
X1130921D01*
X1133475Y508494D01*
X1135764Y509816D01*
X1137634Y511685D01*
X1138950Y513965D01*
X1154850D01*
X1156337Y514261D01*
X1157597Y515103D01*
X1211497Y569003D01*
X1212339Y570263D01*
X1212635Y571750D01*
Y576310D01*
X1218115D01*
Y573359D01*
X1141091Y496335D01*
X1138950D01*
X1137634Y498615D01*
X1135764Y500484D01*
X1133475Y501806D01*
X1130921Y502490D01*
X1128278D01*
X1125724Y501806D01*
X1123435Y500484D01*
X1121566Y498615D01*
X1120244Y496325D01*
X1119560Y493772D01*
Y491128D01*
X1120244Y488575D01*
X1121566Y486285D01*
X1123435Y484416D01*
X1125724Y483094D01*
X1128278Y482410D01*
X1130921D01*
X1133475Y483094D01*
X1135764Y484416D01*
X1137634Y486285D01*
X1138950Y488565D01*
X1142700D01*
X1144187Y488861D01*
X1145447Y489703D01*
X1224747Y569003D01*
X1225589Y570263D01*
X1225885Y571750D01*
Y576310D01*
X1230265D01*
Y569759D01*
X1142003Y481497D01*
X1141161Y480237D01*
X1140865Y478750D01*
Y472439D01*
X1139926Y471561D01*
X1138496Y471721D01*
X1137634Y473215D01*
X1135764Y475084D01*
X1133475Y476406D01*
X1130921Y477090D01*
X1128278D01*
X1125724Y476406D01*
X1123435Y475084D01*
X1121566Y473215D01*
X1120244Y470925D01*
X1119560Y468372D01*
Y465728D01*
X1120244Y463175D01*
X1121566Y460885D01*
X1123435Y459016D01*
X1125724Y457694D01*
X1128278Y457010D01*
X1130921D01*
X1133475Y457694D01*
X1135764Y459016D01*
X1137634Y460885D01*
X1138950Y463165D01*
X1141050D01*
X1142537Y463461D01*
X1143797Y464303D01*
X1147497Y468003D01*
X1148339Y469263D01*
X1148635Y470750D01*
Y477141D01*
X1157845Y486352D01*
X1159115Y485826D01*
Y476659D01*
X1133465Y451009D01*
X1130921Y451690D01*
X1128278D01*
X1125724Y451006D01*
X1123435Y449684D01*
X1121566Y447815D01*
X1120244Y445525D01*
X1119560Y442972D01*
Y440328D01*
X1120244Y437775D01*
X1121566Y435485D01*
X1123435Y433616D01*
X1125724Y432294D01*
X1128278Y431610D01*
X1130921D01*
X1133475Y432294D01*
X1135764Y433616D01*
X1137634Y435485D01*
X1138956Y437775D01*
X1139640Y440328D01*
Y442972D01*
X1138958Y445515D01*
X1156942Y463499D01*
X1158115Y463013D01*
Y432859D01*
X1145391Y420135D01*
X1138950D01*
X1137634Y422415D01*
X1135764Y424284D01*
X1133475Y425606D01*
X1130921Y426290D01*
X1128278D01*
X1125724Y425606D01*
X1123435Y424284D01*
X1121566Y422415D01*
X1120244Y420125D01*
X1119560Y417572D01*
Y414928D01*
X1120244Y412375D01*
X1121566Y410085D01*
X1123435Y408216D01*
X1125724Y406894D01*
X1128278Y406210D01*
X1130921D01*
X1133475Y406894D01*
X1135764Y408216D01*
X1137634Y410085D01*
X1138950Y412365D01*
X1147000D01*
X1148487Y412661D01*
X1149747Y413503D01*
X1164747Y428503D01*
X1165589Y429763D01*
X1165885Y431250D01*
Y467053D01*
X1169557Y470725D01*
X1170399Y471986D01*
X1170627Y473134D01*
X1252847Y555353D01*
X1253689Y556613D01*
X1253985Y558100D01*
Y565991D01*
X1261775Y573781D01*
X1262617Y575041D01*
X1262869Y576310D01*
X1268365D01*
Y558109D01*
X1197741Y487485D01*
X1194100D01*
X1192613Y487189D01*
X1191353Y486347D01*
X1189853Y484847D01*
X1189011Y483587D01*
X1188715Y482100D01*
Y479640D01*
X1182560D01*
Y459560D01*
X1202640D01*
Y479640D01*
X1202567D01*
X1202169Y480666D01*
X1202154Y480910D01*
X1213696Y492452D01*
X1214682Y491642D01*
X1214411Y491236D01*
X1214115Y489750D01*
Y478950D01*
X1211835Y477634D01*
X1209966Y475765D01*
X1208644Y473475D01*
X1207960Y470922D01*
Y468278D01*
X1208644Y465725D01*
X1209966Y463435D01*
X1211835Y461566D01*
X1214125Y460244D01*
X1216678Y459560D01*
X1219322D01*
X1221875Y460244D01*
X1224165Y461566D01*
X1226034Y463435D01*
X1227356Y465725D01*
X1228040Y468278D01*
Y470922D01*
X1227356Y473475D01*
X1226034Y475765D01*
X1224165Y477634D01*
X1221885Y478950D01*
Y488141D01*
X1238342Y504598D01*
X1239515Y504112D01*
Y478950D01*
X1237235Y477634D01*
X1235366Y475765D01*
X1234044Y473475D01*
X1233360Y470922D01*
Y468278D01*
X1234044Y465725D01*
X1235366Y463435D01*
X1237235Y461566D01*
X1239525Y460244D01*
X1242078Y459560D01*
X1244722D01*
X1247275Y460244D01*
X1249565Y461566D01*
X1251434Y463435D01*
X1252756Y465725D01*
X1253440Y468278D01*
Y470922D01*
X1252756Y473475D01*
X1251434Y475765D01*
X1249565Y477634D01*
X1247285Y478950D01*
Y505541D01*
X1263645Y521902D01*
X1264915Y521376D01*
Y478950D01*
X1262635Y477634D01*
X1260766Y475765D01*
X1259444Y473475D01*
X1258760Y470922D01*
Y468278D01*
X1259444Y465725D01*
X1260766Y463435D01*
X1262635Y461566D01*
X1264925Y460244D01*
X1267478Y459560D01*
X1270122D01*
X1272675Y460244D01*
X1274965Y461566D01*
X1276834Y463435D01*
X1278156Y465725D01*
X1278840Y468278D01*
Y470922D01*
X1278156Y473475D01*
X1276834Y475765D01*
X1274965Y477634D01*
X1272685Y478950D01*
Y521191D01*
X1313097Y561603D01*
X1313939Y562863D01*
X1314235Y564350D01*
Y576310D01*
X1319165D01*
Y564159D01*
X1291453Y536447D01*
X1290611Y535187D01*
X1290315Y533700D01*
Y478950D01*
X1288035Y477634D01*
X1286166Y475765D01*
X1284844Y473475D01*
X1284160Y470922D01*
Y468278D01*
X1284844Y465725D01*
X1286166Y463435D01*
X1288035Y461566D01*
X1290325Y460244D01*
X1292878Y459560D01*
X1295522D01*
X1298075Y460244D01*
X1300365Y461566D01*
X1302234Y463435D01*
X1303556Y465725D01*
X1304240Y468278D01*
Y470922D01*
X1303556Y473475D01*
X1302234Y475765D01*
X1300365Y477634D01*
X1298085Y478950D01*
Y532091D01*
X1325797Y559803D01*
X1326639Y561063D01*
X1326935Y562550D01*
Y576310D01*
X1331865D01*
Y508609D01*
X1318103Y494847D01*
X1317261Y493587D01*
X1316965Y492100D01*
Y479288D01*
X1315725Y478956D01*
X1313435Y477634D01*
X1311566Y475765D01*
X1310244Y473475D01*
X1309560Y470922D01*
Y468278D01*
X1310244Y465725D01*
X1311566Y463435D01*
X1313435Y461566D01*
X1315715Y460250D01*
Y451959D01*
X1312141Y448385D01*
X1185250D01*
X1183763Y448089D01*
X1182503Y447247D01*
X1174003Y438747D01*
X1173161Y437487D01*
X1172865Y436000D01*
Y414359D01*
X1150141Y391635D01*
X1101659D01*
X1101589Y391987D01*
X1100747Y393247D01*
X1091885Y402109D01*
Y487141D01*
X1093445Y488701D01*
X1094287Y489961D01*
X1094583Y491448D01*
Y493552D01*
X1094287Y495039D01*
X1093445Y496299D01*
X1086161Y503583D01*
X1086540Y504497D01*
Y506502D01*
X1085773Y508355D01*
X1084355Y509773D01*
X1082503Y510540D01*
X1080498D01*
X1078645Y509773D01*
X1077227Y508355D01*
X1076460Y506502D01*
Y504497D01*
X1077227Y502645D01*
X1077415Y502458D01*
X1077588Y501586D01*
X1078430Y500326D01*
X1085402Y493354D01*
X1085331Y493022D01*
X1084959Y492752D01*
X1083933Y492561D01*
X1061885Y514609D01*
Y560560D01*
X1061589Y562047D01*
X1060747Y563307D01*
X1060135Y563919D01*
Y586757D01*
X1060523Y587145D01*
X1061290Y588997D01*
Y591003D01*
X1060523Y592855D01*
X1059105Y594273D01*
X1057253Y595040D01*
X1055247D01*
X1053395Y594273D01*
X1051977Y592855D01*
X1051210Y591003D01*
Y588997D01*
X1051977Y587145D01*
X1052365Y586757D01*
Y562310D01*
X1052661Y560823D01*
X1053503Y559563D01*
X1054115Y558951D01*
Y547922D01*
X1052942Y547436D01*
X1052855Y547523D01*
X1051003Y548290D01*
X1048997D01*
X1047145Y547523D01*
X1046155Y546532D01*
X1044885Y547058D01*
Y597391D01*
X1060059Y612565D01*
X1073999D01*
X1075316Y610285D01*
X1077185Y608416D01*
X1079474Y607094D01*
X1082028Y606410D01*
X1084671D01*
X1087225Y607094D01*
X1089514Y608416D01*
X1091384Y610285D01*
X1092700Y612565D01*
X1103762D01*
X1105249Y612861D01*
X1106509Y613703D01*
X1107997Y615191D01*
X1108839Y616451D01*
X1109135Y617938D01*
Y721891D01*
X1117359Y730115D01*
X1122859D01*
X1123196Y728845D01*
D02*
G37*
G36*
X1356060Y744210D02*
Y731510D01*
Y718810D01*
Y706110D01*
Y693410D01*
Y680710D01*
Y668010D01*
Y655310D01*
Y642610D01*
Y629910D01*
Y617210D01*
Y604510D01*
Y597424D01*
X1355490Y596390D01*
X1201710D01*
X1201140Y597424D01*
Y604510D01*
Y617210D01*
Y629910D01*
Y642610D01*
Y655310D01*
Y668010D01*
Y680710D01*
Y693410D01*
Y706110D01*
Y718810D01*
Y731510D01*
Y744210D01*
Y749980D01*
X1191100D01*
Y752520D01*
X1201140D01*
Y760065D01*
X1204691D01*
X1245715Y719041D01*
Y707790D01*
X1242560D01*
Y693710D01*
Y679710D01*
Y665710D01*
X1284640D01*
Y669581D01*
X1285909Y669833D01*
X1287169Y670675D01*
X1338747Y722253D01*
X1339589Y723513D01*
X1339885Y725000D01*
Y757641D01*
X1340247Y758003D01*
X1341089Y759263D01*
X1341171Y759678D01*
X1341559Y760065D01*
X1356060D01*
Y744210D01*
D02*
G37*
G36*
X1990000Y10000D02*
X40396D01*
X40296Y11270D01*
X44199Y11888D01*
X48322Y13228D01*
X52184Y15196D01*
X55691Y17744D01*
X58756Y20809D01*
X61304Y24316D01*
X63272Y28178D01*
X64612Y32301D01*
X65290Y36583D01*
Y40918D01*
X64612Y45199D01*
X63272Y49322D01*
X61304Y53184D01*
X58756Y56691D01*
X55691Y59756D01*
X52184Y62304D01*
X48322Y64272D01*
X44199Y65612D01*
X39917Y66290D01*
X35582D01*
X31301Y65612D01*
X27178Y64272D01*
X23316Y62304D01*
X19809Y59756D01*
X16744Y56691D01*
X14196Y53184D01*
X12228Y49322D01*
X11270Y46374D01*
X10000Y46575D01*
Y212347D01*
X11173Y212833D01*
X17943Y206063D01*
X19204Y205221D01*
X20690Y204925D01*
X39333D01*
X39343Y204888D01*
X40680Y202572D01*
X42572Y200680D01*
X44889Y199342D01*
X47473Y198650D01*
X50148D01*
X52732Y199342D01*
X55048Y200680D01*
X56940Y202572D01*
X58278Y204888D01*
X58970Y207472D01*
Y210147D01*
X58278Y212731D01*
X56940Y215048D01*
X55048Y216940D01*
X52732Y218277D01*
X50148Y218970D01*
X47473D01*
X44889Y218277D01*
X42572Y216940D01*
X40680Y215048D01*
X39343Y212731D01*
X39333Y212694D01*
X22299D01*
X13635Y221359D01*
Y267712D01*
X14808Y268198D01*
X26943Y256063D01*
X28204Y255221D01*
X29690Y254925D01*
X39333D01*
X39343Y254888D01*
X40680Y252571D01*
X42572Y250680D01*
X44889Y249342D01*
X47473Y248650D01*
X50148D01*
X52732Y249342D01*
X55048Y250680D01*
X56940Y252571D01*
X58278Y254888D01*
X58970Y257472D01*
Y260147D01*
X58278Y262731D01*
X56940Y265048D01*
X55048Y266940D01*
X52732Y268277D01*
X50148Y268970D01*
X47473D01*
X44889Y268277D01*
X42572Y266940D01*
X40680Y265048D01*
X39343Y262731D01*
X39333Y262694D01*
X31299D01*
X19885Y274109D01*
Y369326D01*
X21155Y369852D01*
X34633Y356373D01*
X35893Y355531D01*
X37380Y355235D01*
X39249D01*
X39343Y354888D01*
X40680Y352571D01*
X42572Y350680D01*
X44889Y349342D01*
X47473Y348649D01*
X50148D01*
X52732Y349342D01*
X55048Y350680D01*
X56940Y352571D01*
X58278Y354888D01*
X58970Y357472D01*
Y360147D01*
X58278Y362731D01*
X56940Y365048D01*
X55048Y366940D01*
X52732Y368277D01*
X50148Y368969D01*
X47473D01*
X44889Y368277D01*
X42572Y366940D01*
X40680Y365048D01*
X39942Y363770D01*
X38395Y363599D01*
X27135Y374859D01*
Y390141D01*
X29704Y392710D01*
X31003D01*
X32855Y393477D01*
X34273Y394895D01*
X35040Y396748D01*
Y398753D01*
X34273Y400605D01*
X32855Y402023D01*
X31003Y402790D01*
X28997D01*
X27145Y402023D01*
X25727Y400605D01*
X25102Y399096D01*
X21155Y395148D01*
X19885Y395674D01*
Y397141D01*
X27859Y405115D01*
X39282D01*
X39343Y404888D01*
X40680Y402572D01*
X42572Y400680D01*
X44889Y399342D01*
X47473Y398650D01*
X50148D01*
X52732Y399342D01*
X55048Y400680D01*
X56940Y402572D01*
X58278Y404888D01*
X58970Y407472D01*
Y410148D01*
X58278Y412732D01*
X58259Y412765D01*
X59859Y414365D01*
X193692D01*
X194218Y413095D01*
X193227Y412105D01*
X192460Y410252D01*
Y408247D01*
X193227Y406395D01*
X193365Y406257D01*
Y393493D01*
X192977Y393105D01*
X192210Y391253D01*
Y389248D01*
X192416Y388750D01*
X191710Y387694D01*
X58288D01*
X58278Y387731D01*
X56940Y390048D01*
X55048Y391940D01*
X52732Y393277D01*
X50148Y393970D01*
X47473D01*
X44889Y393277D01*
X42572Y391940D01*
X40680Y390048D01*
X39343Y387731D01*
X38650Y385147D01*
Y382472D01*
X39343Y379888D01*
X40680Y377571D01*
X42572Y375680D01*
X44889Y374342D01*
X47473Y373650D01*
X50148D01*
X52732Y374342D01*
X55048Y375680D01*
X56940Y377571D01*
X58278Y379888D01*
X58288Y379925D01*
X311060D01*
X312546Y380221D01*
X313807Y381063D01*
X317544Y384800D01*
X318529Y384148D01*
X318591Y384052D01*
X318305Y382614D01*
Y379799D01*
X276201Y337695D01*
X58288D01*
X58278Y337732D01*
X56940Y340048D01*
X55048Y341940D01*
X52732Y343278D01*
X50148Y343970D01*
X47473D01*
X44889Y343278D01*
X42572Y341940D01*
X40680Y340048D01*
X39343Y337732D01*
X38650Y335147D01*
Y332472D01*
X39343Y329888D01*
X40680Y327571D01*
X42572Y325680D01*
X44889Y324342D01*
X47473Y323650D01*
X50148D01*
X52732Y324342D01*
X55048Y325680D01*
X56940Y327571D01*
X58278Y329888D01*
X58288Y329925D01*
X276135D01*
X276661Y328655D01*
X269891Y321885D01*
X135250D01*
X133763Y321589D01*
X132503Y320747D01*
X116891Y305135D01*
X66250D01*
X64764Y304839D01*
X63503Y303997D01*
X52765Y293258D01*
X52732Y293278D01*
X50148Y293970D01*
X47473D01*
X44889Y293278D01*
X42572Y291940D01*
X40680Y290048D01*
X39343Y287732D01*
X38650Y285147D01*
Y282472D01*
X39343Y279888D01*
X40680Y277572D01*
X42572Y275680D01*
X44889Y274342D01*
X47473Y273650D01*
X50148D01*
X52732Y274342D01*
X55048Y275680D01*
X56940Y277572D01*
X58278Y279888D01*
X58970Y282472D01*
Y285147D01*
X58278Y287732D01*
X58259Y287765D01*
X67859Y297365D01*
X118500D01*
X119987Y297661D01*
X121247Y298503D01*
X136859Y314115D01*
X271500D01*
X272987Y314411D01*
X274247Y315253D01*
X332859Y373865D01*
X385250D01*
X386737Y374161D01*
X387997Y375003D01*
X403859Y390865D01*
X448500D01*
X449987Y391161D01*
X451247Y392003D01*
X456204Y396960D01*
X456753D01*
X458605Y397727D01*
X460023Y399145D01*
X460790Y400998D01*
Y403003D01*
X460023Y404855D01*
X458605Y406273D01*
X456753Y407040D01*
X454748D01*
X452895Y406273D01*
X451477Y404855D01*
X450710Y403003D01*
Y402454D01*
X446891Y398635D01*
X402250D01*
X400763Y398339D01*
X399503Y397497D01*
X383641Y381635D01*
X331250D01*
X329763Y381339D01*
X328503Y380497D01*
X327345Y379338D01*
X326231Y379799D01*
X326108Y381038D01*
X334435Y389365D01*
X347000D01*
X348487Y389661D01*
X349747Y390503D01*
X371359Y412115D01*
X541500D01*
X542987Y412411D01*
X544247Y413253D01*
X565859Y434865D01*
X624500D01*
X625987Y435161D01*
X627247Y436003D01*
X891169Y699926D01*
X956108D01*
Y695618D01*
X956356Y694370D01*
X957063Y693313D01*
X958120Y692606D01*
X959368Y692357D01*
X967452D01*
X968700Y692606D01*
X969758Y693313D01*
X970465Y694370D01*
X970713Y695618D01*
Y712002D01*
X970465Y713250D01*
X969758Y714308D01*
X968700Y715015D01*
X967452Y715263D01*
X959368D01*
X958120Y715015D01*
X957063Y714308D01*
X956356Y713250D01*
X956108Y712002D01*
Y707695D01*
X889560D01*
X888074Y707399D01*
X886813Y706557D01*
X622891Y442635D01*
X564250D01*
X562763Y442339D01*
X561503Y441497D01*
X539891Y419885D01*
X369750D01*
X368263Y419589D01*
X367003Y418747D01*
X345391Y397135D01*
X332826D01*
X331388Y396849D01*
X331292Y396911D01*
X330640Y397896D01*
X347954Y415210D01*
X348503D01*
X350355Y415977D01*
X351773Y417395D01*
X352540Y419248D01*
Y421253D01*
X351773Y423105D01*
X350355Y424523D01*
X348503Y425290D01*
X346497D01*
X344645Y424523D01*
X343227Y423105D01*
X342460Y421253D01*
Y420704D01*
X309451Y387694D01*
X202790D01*
X202084Y388750D01*
X202290Y389248D01*
Y391253D01*
X201523Y393105D01*
X201135Y393493D01*
Y405757D01*
X201773Y406395D01*
X202540Y408247D01*
Y410252D01*
X201773Y412105D01*
X200782Y413095D01*
X201308Y414365D01*
X279391D01*
X280960Y412796D01*
Y412248D01*
X281727Y410395D01*
X283145Y408977D01*
X284998Y408210D01*
X287003D01*
X288855Y408977D01*
X290273Y410395D01*
X291040Y412248D01*
Y414253D01*
X290273Y416105D01*
X288855Y417523D01*
X287003Y418290D01*
X286454D01*
X283747Y420997D01*
X282487Y421839D01*
X281000Y422135D01*
X58250D01*
X56764Y421839D01*
X55503Y420997D01*
X52765Y418258D01*
X52732Y418278D01*
X50148Y418970D01*
X47473D01*
X44889Y418278D01*
X42572Y416940D01*
X40680Y415048D01*
X39431Y412885D01*
X26250D01*
X24763Y412589D01*
X23503Y411747D01*
X14808Y403052D01*
X13635Y403538D01*
Y665391D01*
X83109Y734865D01*
X366500D01*
X367987Y735161D01*
X369247Y736003D01*
X394609Y761365D01*
X474507D01*
X474895Y760977D01*
X476748Y760210D01*
X478753D01*
X480605Y760977D01*
X482023Y762395D01*
X482790Y764248D01*
Y766253D01*
X482023Y768105D01*
X480605Y769523D01*
X478753Y770290D01*
X476748D01*
X474895Y769523D01*
X474507Y769135D01*
X393000D01*
X391513Y768839D01*
X390253Y767997D01*
X364891Y742635D01*
X81500D01*
X80013Y742339D01*
X78753Y741497D01*
X11173Y673917D01*
X10000Y674403D01*
Y755925D01*
X11270Y756126D01*
X12228Y753178D01*
X14196Y749316D01*
X16744Y745809D01*
X19809Y742744D01*
X23316Y740196D01*
X27178Y738228D01*
X31301Y736888D01*
X35582Y736210D01*
X39917D01*
X44199Y736888D01*
X48322Y738228D01*
X52184Y740196D01*
X55691Y742744D01*
X58756Y745809D01*
X61304Y749316D01*
X63272Y753178D01*
X64612Y757301D01*
X65290Y761583D01*
Y765918D01*
X64612Y770199D01*
X63272Y774322D01*
X61304Y778184D01*
X58756Y781691D01*
X55691Y784756D01*
X52184Y787304D01*
X48322Y789272D01*
X44199Y790612D01*
X39917Y791290D01*
X35582D01*
X31301Y790612D01*
X27178Y789272D01*
X23316Y787304D01*
X19809Y784756D01*
X16744Y781691D01*
X14196Y778184D01*
X12228Y774322D01*
X11270Y771374D01*
X10000Y771575D01*
Y795000D01*
X1043710D01*
X1044236Y793730D01*
X1035003Y784497D01*
X1034161Y783237D01*
X1033865Y781750D01*
Y724750D01*
X1034161Y723263D01*
X1035003Y722003D01*
X1055503Y701503D01*
X1056763Y700661D01*
X1058250Y700365D01*
X1070141D01*
X1072798Y697708D01*
X1072312Y696535D01*
X1057042D01*
X1057039Y696537D01*
X1055552Y696833D01*
X1054065Y696537D01*
X1052805Y695695D01*
X1049253Y692143D01*
X1048411Y690882D01*
X1048115Y689396D01*
Y672899D01*
X1048411Y671413D01*
X1049253Y670153D01*
X1051081Y668325D01*
X1049253Y666497D01*
X1048411Y665237D01*
X1048115Y663750D01*
Y649750D01*
X1048411Y648263D01*
X1049253Y647003D01*
X1057153Y639103D01*
X1058414Y638261D01*
X1059900Y637965D01*
X1073999D01*
X1075316Y635685D01*
X1077185Y633816D01*
X1079474Y632494D01*
X1082028Y631810D01*
X1084671D01*
X1087225Y632494D01*
X1089514Y633816D01*
X1091384Y635685D01*
X1092706Y637975D01*
X1093390Y640528D01*
Y643172D01*
X1092706Y645725D01*
X1091384Y648015D01*
X1089514Y649884D01*
X1087225Y651206D01*
X1084671Y651890D01*
X1082028D01*
X1079474Y651206D01*
X1077185Y649884D01*
X1075316Y648015D01*
X1073999Y645734D01*
X1061509D01*
X1055885Y651359D01*
Y662141D01*
X1057109Y663365D01*
X1073999D01*
X1075316Y661085D01*
X1077185Y659216D01*
X1079474Y657894D01*
X1082028Y657210D01*
X1084671D01*
X1087225Y657894D01*
X1089514Y659216D01*
X1091384Y661085D01*
X1092706Y663374D01*
X1093390Y665928D01*
Y668572D01*
X1092706Y671125D01*
X1091384Y673415D01*
X1089514Y675284D01*
X1087225Y676606D01*
X1084671Y677290D01*
X1082028D01*
X1079474Y676606D01*
X1077185Y675284D01*
X1075316Y673415D01*
X1073999Y671134D01*
X1059109D01*
X1057298Y672946D01*
X1056997Y673396D01*
X1055885Y674509D01*
Y687787D01*
X1056863Y688765D01*
X1073999D01*
X1075316Y686485D01*
X1077185Y684616D01*
X1079474Y683294D01*
X1082028Y682610D01*
X1084671D01*
X1087225Y683294D01*
X1089514Y684616D01*
X1091384Y686485D01*
X1092706Y688774D01*
X1093390Y691328D01*
Y693972D01*
X1092706Y696525D01*
X1091384Y698814D01*
X1089514Y700684D01*
X1087225Y702006D01*
X1084671Y702690D01*
X1082028D01*
X1079485Y702008D01*
X1074496Y706997D01*
X1073236Y707839D01*
X1071749Y708135D01*
X1059859D01*
X1041635Y726359D01*
Y780141D01*
X1049609Y788115D01*
X1089641D01*
X1108653Y769103D01*
X1109913Y768261D01*
X1111400Y767965D01*
X1119560D01*
Y761810D01*
X1139640D01*
Y767965D01*
X1160541D01*
X1167304Y761203D01*
X1168564Y760361D01*
X1170050Y760065D01*
X1181060D01*
Y755134D01*
X1137771D01*
X1136284Y754838D01*
X1135759Y754487D01*
X1133475Y755806D01*
X1130921Y756490D01*
X1130870D01*
Y746450D01*
X1128330D01*
Y756490D01*
X1128278D01*
X1125724Y755806D01*
X1123435Y754484D01*
X1121566Y752615D01*
X1120244Y750325D01*
X1119845Y748835D01*
X1091834D01*
X1091384Y749614D01*
X1089514Y751484D01*
X1087225Y752806D01*
X1084671Y753490D01*
X1084620D01*
Y743450D01*
Y733410D01*
X1084671D01*
X1087225Y734094D01*
X1089514Y735416D01*
X1091384Y737285D01*
X1092706Y739575D01*
X1093105Y741065D01*
X1121115D01*
X1121566Y740285D01*
X1122697Y739155D01*
X1122170Y737885D01*
X1115750D01*
X1114263Y737589D01*
X1113003Y736747D01*
X1102503Y726247D01*
X1101661Y724987D01*
X1101365Y723500D01*
Y620335D01*
X1092700D01*
X1091384Y622615D01*
X1089514Y624484D01*
X1087225Y625806D01*
X1084671Y626490D01*
X1082028D01*
X1079474Y625806D01*
X1077185Y624484D01*
X1075316Y622615D01*
X1073999Y620335D01*
X1058450D01*
X1056963Y620039D01*
X1055703Y619197D01*
X1038253Y601747D01*
X1037411Y600487D01*
X1037115Y599000D01*
Y550609D01*
X1036465Y550253D01*
X1035845Y550148D01*
X1025385Y560609D01*
Y760257D01*
X1025773Y760645D01*
X1026540Y762497D01*
Y764502D01*
X1025773Y766355D01*
X1024355Y767773D01*
X1022503Y768540D01*
X1020498D01*
X1018645Y767773D01*
X1017227Y766355D01*
X1016460Y764502D01*
Y762497D01*
X1017227Y760645D01*
X1017615Y760257D01*
Y699735D01*
X1016345Y699350D01*
X1016247Y699497D01*
X1009187Y706557D01*
X1007926Y707399D01*
X1006440Y707695D01*
X1001515D01*
Y711897D01*
X1001259Y713186D01*
X1000529Y714278D01*
X999436Y715008D01*
X998148Y715265D01*
X988773D01*
X987485Y715008D01*
X986392Y714278D01*
X985662Y713186D01*
X985406Y711897D01*
Y695723D01*
X985662Y694434D01*
X986392Y693342D01*
X987485Y692612D01*
X988773Y692355D01*
X998148D01*
X999436Y692612D01*
X1000529Y693342D01*
X1001259Y694434D01*
X1001515Y695723D01*
Y699926D01*
X1004831D01*
X1009615Y695141D01*
Y555609D01*
X927003Y472997D01*
X926161Y471737D01*
X925865Y470250D01*
X926161Y468763D01*
X927003Y467503D01*
X927615Y466891D01*
Y442493D01*
X927227Y442105D01*
X926460Y440252D01*
Y438247D01*
X927227Y436395D01*
X928645Y434977D01*
X930498Y434210D01*
X932503D01*
X934355Y434977D01*
X935773Y436395D01*
X936540Y438247D01*
Y440252D01*
X935773Y442105D01*
X935385Y442493D01*
Y468500D01*
X935089Y469987D01*
X935045Y470052D01*
X1012845Y547852D01*
X1014115Y547326D01*
Y510493D01*
X1013727Y510105D01*
X1012960Y508252D01*
Y506247D01*
X1013727Y504395D01*
X1015145Y502977D01*
X1016998Y502210D01*
X1019003D01*
X1020855Y502977D01*
X1021595Y503718D01*
X1022865Y503192D01*
Y371750D01*
X1023161Y370263D01*
X1024003Y369003D01*
X1028753Y364253D01*
X1028917Y364143D01*
X1029227Y363395D01*
X1030645Y361977D01*
X1032028Y361405D01*
X1031775Y360135D01*
X995579D01*
X978259Y377455D01*
X978278Y377488D01*
X978970Y380072D01*
Y382747D01*
X978278Y385332D01*
X976940Y387648D01*
X975049Y389540D01*
X972732Y390878D01*
X970148Y391570D01*
X967473D01*
X964889Y390878D01*
X964856Y390858D01*
X946967Y408747D01*
X945707Y409589D01*
X944220Y409885D01*
X779859D01*
X729885Y459859D01*
Y517257D01*
X730273Y517645D01*
X731040Y519497D01*
Y521502D01*
X730273Y523355D01*
X728855Y524773D01*
X727002Y525540D01*
X724997D01*
X723145Y524773D01*
X721727Y523355D01*
X720960Y521502D01*
Y519497D01*
X721727Y517645D01*
X722115Y517257D01*
Y458250D01*
X722411Y456763D01*
X723253Y455503D01*
X775503Y403253D01*
X776763Y402411D01*
X778250Y402115D01*
X942611D01*
X959362Y385365D01*
X959343Y385332D01*
X958650Y382747D01*
Y380072D01*
X959343Y377488D01*
X960680Y375172D01*
X962572Y373280D01*
X964889Y371942D01*
X967473Y371250D01*
X970148D01*
X972732Y371942D01*
X972765Y371962D01*
X989169Y355558D01*
X988682Y354385D01*
X979191D01*
X978970Y354672D01*
Y357347D01*
X978278Y359932D01*
X976940Y362248D01*
X975049Y364140D01*
X972732Y365478D01*
X970148Y366170D01*
X967473D01*
X964889Y365478D01*
X962572Y364140D01*
X960680Y362248D01*
X959343Y359932D01*
X959333Y359895D01*
X362481D01*
X361773Y361605D01*
X360355Y363023D01*
X358503Y363790D01*
X356497D01*
X354645Y363023D01*
X353227Y361605D01*
X352460Y359753D01*
Y357747D01*
X353227Y355895D01*
X354645Y354477D01*
X356497Y353710D01*
X357046D01*
X357493Y353263D01*
X358754Y352421D01*
X360240Y352125D01*
X959333D01*
X959343Y352088D01*
X960680Y349772D01*
X962572Y347880D01*
X964889Y346542D01*
X967473Y345850D01*
X970148D01*
X972732Y346542D01*
X974331Y347466D01*
X975162Y346911D01*
X976648Y346615D01*
X1012712D01*
X1013198Y345442D01*
X978507Y310750D01*
X977248Y310916D01*
X976940Y311448D01*
X975049Y313340D01*
X972732Y314678D01*
X970148Y315370D01*
X967473D01*
X964889Y314678D01*
X962572Y313340D01*
X960680Y311448D01*
X959343Y309132D01*
X959333Y309095D01*
X397399D01*
X382838Y323656D01*
X383290Y324748D01*
Y326753D01*
X382523Y328605D01*
X381105Y330023D01*
X379253Y330790D01*
X377248D01*
X375395Y330023D01*
X373977Y328605D01*
X373210Y326753D01*
Y324748D01*
X373977Y322895D01*
X373978Y322895D01*
X374213Y321711D01*
X375055Y320451D01*
X393043Y302463D01*
X394304Y301621D01*
X395790Y301325D01*
X959333D01*
X959343Y301288D01*
X960680Y298972D01*
X962572Y297080D01*
X964889Y295742D01*
X967473Y295050D01*
X970148D01*
X972732Y295742D01*
X975049Y297080D01*
X976940Y298972D01*
X978278Y301288D01*
X978366Y301618D01*
X978752D01*
X980239Y301913D01*
X981499Y302756D01*
X1020109Y341365D01*
X1173250D01*
X1174737Y341661D01*
X1175997Y342503D01*
X1237109Y403615D01*
X1530750D01*
X1532237Y403911D01*
X1533497Y404753D01*
X1541747Y413003D01*
X1542589Y414263D01*
X1542885Y415750D01*
Y501500D01*
X1542589Y502987D01*
X1541747Y504247D01*
X1474747Y571247D01*
X1473487Y572089D01*
X1472000Y572384D01*
X1464200D01*
X1462884Y574664D01*
X1461015Y576534D01*
X1458725Y577856D01*
X1456172Y578540D01*
X1453528D01*
X1450975Y577856D01*
X1448685Y576534D01*
X1446816Y574664D01*
X1445500Y572384D01*
X1443059D01*
X1431235Y584209D01*
Y607600D01*
X1431092Y608318D01*
X1432262Y608944D01*
X1434465Y606741D01*
Y595850D01*
X1434761Y594363D01*
X1435603Y593103D01*
X1437553Y591153D01*
X1438813Y590311D01*
X1440300Y590015D01*
X1445500D01*
X1446816Y587735D01*
X1448685Y585866D01*
X1450975Y584544D01*
X1453528Y583860D01*
X1456172D01*
X1458725Y584544D01*
X1461015Y585866D01*
X1462884Y587735D01*
X1464206Y590024D01*
X1464890Y592578D01*
Y595222D01*
X1464206Y597775D01*
X1462884Y600065D01*
X1461015Y601934D01*
X1458725Y603256D01*
X1456172Y603940D01*
X1453528D01*
X1450975Y603256D01*
X1448685Y601934D01*
X1446816Y600065D01*
X1445500Y597785D01*
X1442235D01*
Y608350D01*
X1441939Y609837D01*
X1441097Y611097D01*
X1438048Y614145D01*
X1438574Y615415D01*
X1445500D01*
X1446816Y613135D01*
X1448685Y611266D01*
X1450975Y609944D01*
X1453528Y609260D01*
X1456172D01*
X1458725Y609944D01*
X1461015Y611266D01*
X1462884Y613135D01*
X1464206Y615424D01*
X1464890Y617978D01*
Y620622D01*
X1464206Y623175D01*
X1462884Y625465D01*
X1461015Y627334D01*
X1458725Y628656D01*
X1456172Y629340D01*
X1453528D01*
X1450975Y628656D01*
X1448685Y627334D01*
X1446816Y625465D01*
X1445500Y623185D01*
X1438759D01*
X1384147Y677796D01*
X1382887Y678639D01*
X1381400Y678934D01*
X1376140D01*
Y683865D01*
X1383091D01*
X1425003Y641953D01*
X1426263Y641111D01*
X1427750Y640815D01*
X1445500D01*
X1446816Y638535D01*
X1448685Y636666D01*
X1450975Y635344D01*
X1453528Y634660D01*
X1456172D01*
X1458725Y635344D01*
X1461015Y636666D01*
X1462884Y638535D01*
X1464206Y640825D01*
X1464890Y643378D01*
Y646022D01*
X1464206Y648575D01*
X1462884Y650864D01*
X1461015Y652734D01*
X1458725Y654056D01*
X1456172Y654740D01*
X1453528D01*
X1450975Y654056D01*
X1448685Y652734D01*
X1446816Y650864D01*
X1445500Y648585D01*
X1429359D01*
X1387447Y690496D01*
X1386187Y691339D01*
X1384700Y691634D01*
X1376140D01*
Y696565D01*
X1387391D01*
X1416603Y667353D01*
X1417863Y666511D01*
X1419350Y666215D01*
X1445500D01*
X1446816Y663935D01*
X1448685Y662066D01*
X1450975Y660744D01*
X1453528Y660060D01*
X1456172D01*
X1458725Y660744D01*
X1461015Y662066D01*
X1462884Y663935D01*
X1464206Y666225D01*
X1464890Y668778D01*
Y671422D01*
X1464206Y673975D01*
X1462884Y676264D01*
X1461015Y678134D01*
X1458725Y679456D01*
X1456172Y680140D01*
X1453528D01*
X1450975Y679456D01*
X1448685Y678134D01*
X1446816Y676264D01*
X1445500Y673985D01*
X1420959D01*
X1391747Y703196D01*
X1390487Y704038D01*
X1389000Y704334D01*
X1376140D01*
Y709265D01*
X1415441D01*
X1433353Y691353D01*
X1434613Y690511D01*
X1436100Y690215D01*
X1446308D01*
X1446816Y689335D01*
X1448685Y687466D01*
X1450975Y686144D01*
X1453528Y685460D01*
X1456172D01*
X1458725Y686144D01*
X1461015Y687466D01*
X1462884Y689335D01*
X1464206Y691625D01*
X1464890Y694178D01*
Y696822D01*
X1464206Y699375D01*
X1462884Y701665D01*
X1461015Y703534D01*
X1458725Y704856D01*
X1456172Y705540D01*
X1453528D01*
X1450975Y704856D01*
X1448685Y703534D01*
X1446816Y701665D01*
X1445494Y699375D01*
X1445122Y697985D01*
X1437709D01*
X1419948Y715745D01*
X1420053Y716364D01*
X1420409Y717015D01*
X1445500D01*
X1446816Y714735D01*
X1448685Y712866D01*
X1450975Y711544D01*
X1453528Y710860D01*
X1456172D01*
X1458725Y711544D01*
X1461015Y712866D01*
X1462884Y714735D01*
X1464200Y717015D01*
X1489865D01*
Y675000D01*
X1490161Y673513D01*
X1491003Y672253D01*
X1668253Y495003D01*
X1669513Y494161D01*
X1671000Y493865D01*
X1829250D01*
X1830737Y494161D01*
X1831997Y495003D01*
X1854247Y517253D01*
X1855089Y518513D01*
X1855385Y520000D01*
Y549026D01*
X1856655Y549705D01*
X1856865Y549564D01*
Y504609D01*
X1840796Y488540D01*
X1829710D01*
Y468960D01*
X1846290D01*
Y483047D01*
X1863497Y500253D01*
X1864339Y501513D01*
X1864635Y503000D01*
Y552250D01*
X1864339Y553737D01*
X1863497Y554997D01*
X1845747Y572747D01*
X1844993Y573250D01*
X1844497Y573747D01*
X1843237Y574589D01*
X1841750Y574885D01*
X1830531D01*
X1830175Y575417D01*
X1829079Y576149D01*
X1827785Y576407D01*
X1816236D01*
X1814942Y576149D01*
X1813846Y575417D01*
X1813113Y574320D01*
X1812856Y573027D01*
Y568377D01*
X1813113Y567083D01*
X1813846Y565987D01*
X1814942Y565254D01*
X1816236Y564997D01*
X1827785D01*
X1829079Y565254D01*
X1830175Y565987D01*
X1830908Y567083D01*
X1830914Y567115D01*
X1840209D01*
X1840757Y566750D01*
X1844350Y563156D01*
X1843824Y561886D01*
X1830730D01*
X1830175Y562717D01*
X1829079Y563449D01*
X1827785Y563707D01*
X1816236D01*
X1814942Y563449D01*
X1813846Y562717D01*
X1813113Y561620D01*
X1812856Y560327D01*
Y555677D01*
X1813113Y554383D01*
X1813846Y553287D01*
X1814942Y552554D01*
X1816236Y552297D01*
X1827785D01*
X1829079Y552554D01*
X1830175Y553287D01*
X1830730Y554117D01*
X1843139D01*
X1847615Y549641D01*
Y521609D01*
X1845304Y519298D01*
X1844318Y520107D01*
X1844589Y520513D01*
X1844885Y522000D01*
Y542500D01*
X1844589Y543987D01*
X1843747Y545247D01*
X1840945Y548049D01*
X1839685Y548891D01*
X1838198Y549186D01*
X1830730D01*
X1830175Y550017D01*
X1829079Y550749D01*
X1827785Y551007D01*
X1816236D01*
X1814942Y550749D01*
X1813846Y550017D01*
X1813113Y548920D01*
X1812856Y547627D01*
Y542977D01*
X1813113Y541683D01*
X1813846Y540587D01*
X1814942Y539854D01*
X1816236Y539597D01*
X1827785D01*
X1829079Y539854D01*
X1830175Y540587D01*
X1830730Y541417D01*
X1836589D01*
X1837115Y540891D01*
Y523609D01*
X1823891Y510385D01*
X1691609D01*
X1523885Y678109D01*
Y687507D01*
X1524273Y687895D01*
X1525040Y689747D01*
Y691752D01*
X1524273Y693605D01*
X1522855Y695023D01*
X1521003Y695790D01*
X1518997D01*
X1517145Y695023D01*
X1515727Y693605D01*
X1514960Y691752D01*
Y689747D01*
X1515727Y687895D01*
X1516115Y687507D01*
Y676500D01*
X1516411Y675013D01*
X1517253Y673753D01*
X1687253Y503753D01*
X1688513Y502911D01*
X1688546Y502905D01*
X1688421Y501635D01*
X1672609D01*
X1497635Y676609D01*
Y719412D01*
X1497339Y720899D01*
X1496497Y722159D01*
X1495009Y723647D01*
X1493749Y724489D01*
X1492262Y724784D01*
X1464200D01*
X1462884Y727065D01*
X1461015Y728934D01*
X1458725Y730256D01*
X1456172Y730940D01*
X1453528D01*
X1450975Y730256D01*
X1448685Y728934D01*
X1446816Y727065D01*
X1445500Y724784D01*
X1396159D01*
X1393597Y727347D01*
X1392336Y728189D01*
X1390850Y728484D01*
X1376140D01*
Y734665D01*
X1434800D01*
X1436286Y734961D01*
X1437546Y735803D01*
X1444159Y742415D01*
X1445500D01*
X1446816Y740135D01*
X1448685Y738266D01*
X1450975Y736944D01*
X1453528Y736260D01*
X1456172D01*
X1458725Y736944D01*
X1461015Y738266D01*
X1462884Y740135D01*
X1464206Y742424D01*
X1464890Y744978D01*
Y747622D01*
X1464206Y750175D01*
X1462884Y752465D01*
X1461015Y754334D01*
X1458725Y755656D01*
X1456172Y756340D01*
X1453528D01*
X1450975Y755656D01*
X1448685Y754334D01*
X1446816Y752465D01*
X1445500Y750184D01*
X1442550D01*
X1441063Y749889D01*
X1439803Y749047D01*
X1433190Y742434D01*
X1376140D01*
Y747365D01*
X1411000D01*
X1412486Y747661D01*
X1413746Y748503D01*
X1433059Y767815D01*
X1445500D01*
X1446816Y765535D01*
X1448685Y763666D01*
X1450975Y762344D01*
X1453528Y761660D01*
X1456172D01*
X1458725Y762344D01*
X1461015Y763666D01*
X1462884Y765535D01*
X1464206Y767824D01*
X1464890Y770378D01*
Y773022D01*
X1464206Y775575D01*
X1462884Y777865D01*
X1461015Y779734D01*
X1458725Y781056D01*
X1456172Y781740D01*
X1453528D01*
X1450975Y781056D01*
X1448685Y779734D01*
X1446816Y777865D01*
X1445500Y775584D01*
X1431450D01*
X1429963Y775289D01*
X1428703Y774447D01*
X1409391Y755134D01*
X1376140D01*
Y760065D01*
X1378450D01*
X1379936Y760361D01*
X1381196Y761203D01*
X1393247Y773253D01*
X1394089Y774513D01*
X1394385Y776000D01*
Y782141D01*
X1400609Y788365D01*
X1488891D01*
X1494253Y783003D01*
X1495513Y782161D01*
X1497000Y781865D01*
X1775641D01*
X1784615Y772891D01*
Y761541D01*
X1778960D01*
Y744960D01*
X1798540D01*
Y761541D01*
X1792385D01*
Y773391D01*
X1795859Y776865D01*
X1837641D01*
X1841115Y773391D01*
Y760041D01*
X1835210D01*
Y743460D01*
X1854790D01*
Y760041D01*
X1848885D01*
Y775000D01*
X1848766Y775595D01*
X1849559Y776759D01*
X1849747Y776865D01*
X1868391D01*
X1900865Y744391D01*
Y664250D01*
X1901161Y662763D01*
X1902003Y661503D01*
X1909586Y653920D01*
X1910847Y653078D01*
X1912333Y652782D01*
X1915782D01*
Y646521D01*
X1913415Y646209D01*
X1910851Y645147D01*
X1908650Y643458D01*
X1906960Y641256D01*
X1906496Y640135D01*
X1894988D01*
X1893501Y639839D01*
X1892241Y638997D01*
X1890753Y637509D01*
X1889911Y636249D01*
X1889615Y634762D01*
Y630000D01*
X1889911Y628513D01*
X1890753Y627253D01*
X1896664Y621343D01*
X1897924Y620500D01*
X1899411Y620205D01*
X1906119D01*
Y615050D01*
Y602974D01*
X1892029D01*
X1890543Y602678D01*
X1889283Y601836D01*
X1886163Y598716D01*
X1880909D01*
X1880175Y599986D01*
X1880828Y601116D01*
X1881512Y603670D01*
Y606313D01*
X1880828Y608867D01*
X1879506Y611156D01*
X1877637Y613026D01*
X1875347Y614347D01*
X1872794Y615032D01*
X1870150D01*
X1867597Y614347D01*
X1865307Y613026D01*
X1863438Y611156D01*
X1862116Y608867D01*
X1861432Y606313D01*
Y603670D01*
X1862116Y601116D01*
X1862769Y599986D01*
X1862035Y598716D01*
X1848447D01*
X1846960Y598421D01*
X1845700Y597579D01*
X1844298Y596176D01*
X1831165D01*
Y598427D01*
X1830908Y599720D01*
X1830175Y600817D01*
X1829079Y601549D01*
X1827785Y601807D01*
X1816236D01*
X1814942Y601549D01*
X1813846Y600817D01*
X1813113Y599720D01*
X1812856Y598427D01*
Y593777D01*
X1813113Y592483D01*
X1813846Y591387D01*
X1814942Y590654D01*
X1816236Y590397D01*
X1823221D01*
X1823592Y589752D01*
X1823221Y589107D01*
X1816236D01*
X1814942Y588849D01*
X1813846Y588117D01*
X1813113Y587020D01*
X1812856Y585727D01*
Y581077D01*
X1813113Y579783D01*
X1813846Y578687D01*
X1814942Y577954D01*
X1816236Y577697D01*
X1827785D01*
X1829079Y577954D01*
X1830175Y578687D01*
X1830908Y579783D01*
X1831165Y581077D01*
Y583327D01*
X1848011D01*
X1849498Y583623D01*
X1850758Y584465D01*
X1852160Y585867D01*
X1861432D01*
Y569552D01*
X1881512D01*
Y585867D01*
X1889876D01*
X1891363Y586163D01*
X1892623Y587005D01*
X1895743Y590125D01*
X1906119D01*
Y587975D01*
X1898840D01*
X1897354Y587679D01*
X1896094Y586837D01*
X1893753Y584497D01*
X1892911Y583237D01*
X1892615Y581750D01*
Y497360D01*
X1880865Y485610D01*
X1878322Y486291D01*
X1875678D01*
X1873125Y485607D01*
X1870835Y484285D01*
X1868966Y482416D01*
X1867644Y480126D01*
X1866960Y477573D01*
Y474929D01*
X1867644Y472376D01*
X1868966Y470086D01*
X1870835Y468217D01*
X1873125Y466895D01*
X1875678Y466211D01*
X1878322D01*
X1880875Y466895D01*
X1883165Y468217D01*
X1885034Y470086D01*
X1886356Y472376D01*
X1887040Y474929D01*
Y477573D01*
X1886358Y480116D01*
X1899247Y493004D01*
X1899595Y493526D01*
X1900865Y493140D01*
Y463859D01*
X1887141Y450135D01*
X1825859D01*
X1818994Y457000D01*
X1822746Y460753D01*
X1823589Y462013D01*
X1823884Y463500D01*
Y468960D01*
X1828290D01*
Y488540D01*
X1811710D01*
Y482635D01*
X1743250D01*
X1741763Y482339D01*
X1740503Y481497D01*
X1727046Y468040D01*
X1724385D01*
Y478750D01*
X1724089Y480237D01*
X1723247Y481497D01*
X1721747Y482997D01*
X1720487Y483839D01*
X1719000Y484135D01*
X1675859D01*
X1671187Y488807D01*
X1669927Y489649D01*
X1668440Y489945D01*
X1641310D01*
X1639823Y489649D01*
X1638563Y488807D01*
X1630641Y480885D01*
X1574250D01*
X1572763Y480589D01*
X1571503Y479747D01*
X1558003Y466247D01*
X1557161Y464987D01*
X1556865Y463500D01*
Y421609D01*
X1464391Y329134D01*
X1443955D01*
Y333337D01*
X1443699Y334625D01*
X1442968Y335718D01*
X1441876Y336448D01*
X1440587Y336704D01*
X1431213D01*
X1429924Y336448D01*
X1428832Y335718D01*
X1428102Y334625D01*
X1427845Y333337D01*
Y317163D01*
X1428102Y315874D01*
X1428832Y314781D01*
X1429924Y314051D01*
X1431213Y313795D01*
X1432016D01*
Y282759D01*
X1427253Y277997D01*
X1426411Y276737D01*
X1426115Y275250D01*
Y233750D01*
X1426411Y232263D01*
X1427253Y231003D01*
X1442253Y216003D01*
X1443513Y215161D01*
X1445000Y214865D01*
X1490141D01*
X1513865Y191141D01*
Y151359D01*
X1503391Y140885D01*
X1486109D01*
X1483884Y143109D01*
Y152710D01*
X1489790D01*
Y169290D01*
X1470210D01*
Y152710D01*
X1476115D01*
Y141500D01*
X1475610Y140885D01*
X1424609D01*
X1419635Y145859D01*
Y153460D01*
X1425540D01*
Y170040D01*
X1405960D01*
Y153460D01*
X1411865D01*
Y144250D01*
X1412161Y142763D01*
X1413003Y141503D01*
X1420253Y134253D01*
X1420253Y134253D01*
X1422365Y132141D01*
Y129493D01*
X1421977Y129105D01*
X1421210Y127253D01*
Y125247D01*
X1421977Y123395D01*
X1423395Y121977D01*
X1425247Y121210D01*
X1427253D01*
X1429105Y121977D01*
X1430523Y123395D01*
X1431290Y125247D01*
Y127253D01*
X1430523Y129105D01*
X1430135Y129493D01*
Y133115D01*
X1480615D01*
Y82500D01*
X1480911Y81013D01*
X1481753Y79753D01*
X1490003Y71503D01*
X1491263Y70661D01*
X1492750Y70365D01*
X1498492D01*
X1515449Y53408D01*
X1514963Y52235D01*
X1458600D01*
X1457114Y51939D01*
X1455853Y51097D01*
X1437641Y32885D01*
X1429385D01*
Y41045D01*
X1433587D01*
X1434876Y41301D01*
X1435968Y42031D01*
X1436698Y43124D01*
X1436955Y44412D01*
Y53786D01*
X1436698Y55075D01*
X1435968Y56168D01*
X1434876Y56898D01*
X1433587Y57154D01*
X1417413D01*
X1416124Y56898D01*
X1415032Y56168D01*
X1414302Y55075D01*
X1414045Y53786D01*
Y44412D01*
X1414302Y43124D01*
X1415032Y42031D01*
X1416124Y41301D01*
X1417413Y41045D01*
X1421615D01*
Y30488D01*
X1421911Y29001D01*
X1422753Y27741D01*
X1424241Y26253D01*
X1425501Y25411D01*
X1426988Y25115D01*
X1439250D01*
X1440737Y25411D01*
X1441997Y26253D01*
X1460209Y44466D01*
X1516650D01*
X1517966Y42186D01*
X1519836Y40316D01*
X1522125Y38995D01*
X1524679Y38310D01*
X1527322D01*
X1529876Y38995D01*
X1532165Y40316D01*
X1534034Y42186D01*
X1535356Y44475D01*
X1536040Y47028D01*
Y49672D01*
X1535356Y52226D01*
X1534034Y54515D01*
X1532165Y56384D01*
X1529876Y57706D01*
X1527322Y58390D01*
X1524679D01*
X1522136Y57709D01*
X1517307Y62537D01*
X1517793Y63710D01*
X1536040D01*
Y83790D01*
X1515960D01*
Y65543D01*
X1514787Y65057D01*
X1502848Y76997D01*
X1501587Y77839D01*
X1500101Y78135D01*
X1494359D01*
X1488385Y84109D01*
Y133115D01*
X1505000D01*
X1506487Y133411D01*
X1507747Y134253D01*
X1520497Y147003D01*
X1521339Y148263D01*
X1521635Y149750D01*
Y192750D01*
X1521339Y194237D01*
X1520497Y195497D01*
X1495635Y220359D01*
Y273391D01*
X1508442Y286198D01*
X1509615Y285712D01*
Y274705D01*
X1505413D01*
X1504124Y274449D01*
X1503032Y273719D01*
X1502302Y272626D01*
X1502045Y271337D01*
Y261963D01*
X1502302Y260674D01*
X1503032Y259582D01*
X1504124Y258852D01*
X1505413Y258596D01*
X1521587D01*
X1522876Y258852D01*
X1523968Y259582D01*
X1524698Y260674D01*
X1524955Y261963D01*
Y271337D01*
X1524698Y272626D01*
X1523968Y273719D01*
X1522876Y274449D01*
X1521587Y274705D01*
X1517385D01*
Y301250D01*
Y303500D01*
X1517089Y304987D01*
X1516247Y306247D01*
X1510385Y312109D01*
Y322615D01*
X1514298D01*
Y319558D01*
X1514546Y318310D01*
X1515253Y317253D01*
X1516311Y316546D01*
X1517558Y316297D01*
X1525642D01*
X1526890Y316546D01*
X1527948Y317253D01*
X1528655Y318310D01*
X1528903Y319558D01*
Y335942D01*
X1528655Y337190D01*
X1527948Y338248D01*
X1526890Y338955D01*
X1525642Y339203D01*
X1517558D01*
X1516311Y338955D01*
X1515253Y338248D01*
X1514546Y337190D01*
X1514298Y335942D01*
Y330385D01*
X1507988D01*
X1506501Y330089D01*
X1505241Y329247D01*
X1503753Y327759D01*
X1502911Y326499D01*
X1502615Y325012D01*
Y310500D01*
X1502911Y309013D01*
X1503753Y307753D01*
X1509131Y302375D01*
X1504753Y297997D01*
X1503911Y296737D01*
X1503615Y295250D01*
Y292359D01*
X1489003Y277747D01*
X1488161Y276487D01*
X1487865Y275000D01*
Y222635D01*
X1446609D01*
X1433885Y235359D01*
Y273641D01*
X1438647Y278403D01*
X1439489Y279664D01*
X1439785Y281150D01*
Y313795D01*
X1440587D01*
X1441876Y314051D01*
X1442968Y314781D01*
X1443699Y315874D01*
X1443955Y317163D01*
Y321365D01*
X1466000D01*
X1467486Y321661D01*
X1468746Y322503D01*
X1563497Y417253D01*
X1564339Y418513D01*
X1564635Y420000D01*
Y461891D01*
X1575859Y473115D01*
X1632250D01*
X1633737Y473411D01*
X1634997Y474253D01*
X1642919Y482175D01*
X1646906D01*
X1647612Y481119D01*
X1647460Y480752D01*
Y479538D01*
X1646253Y478331D01*
X1645411Y477071D01*
X1645115Y475584D01*
Y470250D01*
X1645411Y468763D01*
X1646253Y467503D01*
X1646274Y467483D01*
X1646233Y467221D01*
X1644837Y466205D01*
X1635463D01*
X1634174Y465949D01*
X1633082Y465219D01*
X1632352Y464126D01*
X1632095Y462837D01*
Y446664D01*
X1632352Y445375D01*
X1633082Y444282D01*
X1634174Y443552D01*
X1635463Y443296D01*
X1644837D01*
X1646126Y443552D01*
X1647218Y444282D01*
X1647948Y445375D01*
X1648205Y446664D01*
Y448131D01*
X1649475Y448810D01*
X1649615Y448716D01*
Y446501D01*
X1649911Y445014D01*
X1650753Y443754D01*
X1651257Y443251D01*
X1648796Y440790D01*
X1648248D01*
X1646395Y440023D01*
X1644977Y438605D01*
X1644210Y436753D01*
Y434748D01*
X1644977Y432895D01*
X1646395Y431477D01*
X1648248Y430710D01*
X1650253D01*
X1652105Y431477D01*
X1653523Y432895D01*
X1654290Y434748D01*
Y435296D01*
X1658077Y439084D01*
X1658919Y440344D01*
X1659215Y441830D01*
Y444670D01*
X1658919Y446157D01*
X1658077Y447417D01*
X1657385Y448110D01*
Y451501D01*
X1657089Y452988D01*
X1656247Y454248D01*
X1655744Y454751D01*
X1656997Y456003D01*
X1657839Y457263D01*
X1658135Y458750D01*
Y465000D01*
X1657839Y466487D01*
X1656997Y467747D01*
X1652885Y471859D01*
Y473975D01*
X1653702Y474793D01*
X1655355Y475477D01*
X1656773Y476895D01*
X1657540Y478747D01*
Y480752D01*
X1657388Y481119D01*
X1658094Y482175D01*
X1666831D01*
X1668756Y480250D01*
X1665503Y476997D01*
X1664661Y475737D01*
X1664365Y474250D01*
Y468040D01*
X1660710D01*
Y451460D01*
X1680290D01*
Y468040D01*
X1672135D01*
Y472641D01*
X1675859Y476365D01*
X1716615D01*
Y468040D01*
X1712960D01*
Y451460D01*
X1732540D01*
Y462547D01*
X1744859Y474866D01*
X1811710D01*
Y468960D01*
X1816115D01*
Y465109D01*
X1813046Y462040D01*
X1812498D01*
X1810645Y461273D01*
X1809227Y459855D01*
X1808460Y458003D01*
Y455998D01*
X1809227Y454145D01*
X1810645Y452727D01*
X1812498Y451960D01*
X1813046D01*
X1821503Y443503D01*
X1822763Y442661D01*
X1824250Y442365D01*
X1888750D01*
X1890237Y442661D01*
X1891497Y443503D01*
X1907497Y459503D01*
X1908339Y460763D01*
X1908635Y462250D01*
Y545250D01*
X1908544Y545703D01*
X1909697Y546419D01*
X1910851Y545534D01*
X1913415Y544472D01*
X1915782Y544160D01*
Y534833D01*
X1916078Y533346D01*
X1916920Y532086D01*
X1920881Y528125D01*
X1919253Y526497D01*
X1918411Y525237D01*
X1918115Y523750D01*
Y489750D01*
X1918115Y489750D01*
X1918411Y488263D01*
X1919253Y487003D01*
X1952865Y453391D01*
Y390634D01*
X1937040D01*
Y395040D01*
X1917460D01*
Y378460D01*
X1930191D01*
X1930483Y378023D01*
X1974115Y334391D01*
Y269359D01*
X1971391Y266635D01*
X1931360D01*
Y269215D01*
X1931082Y270610D01*
X1930292Y271793D01*
X1929110Y272583D01*
X1927715Y272860D01*
X1908785D01*
X1907390Y272583D01*
X1906207Y271793D01*
X1905417Y270610D01*
X1905140Y269215D01*
Y257485D01*
X1905417Y256090D01*
X1906207Y254908D01*
X1907390Y254118D01*
X1908785Y253840D01*
X1914365D01*
Y245859D01*
X1891641Y223135D01*
X1784109D01*
X1767187Y240057D01*
Y245626D01*
X1767747Y246186D01*
X1768589Y247446D01*
X1768884Y248933D01*
Y253840D01*
X1774465D01*
X1775860Y254118D01*
X1777042Y254908D01*
X1777832Y256090D01*
X1778110Y257485D01*
Y269215D01*
X1777832Y270610D01*
X1777042Y271793D01*
X1775860Y272583D01*
X1774465Y272860D01*
X1755535D01*
X1754140Y272583D01*
X1752957Y271793D01*
X1752167Y270610D01*
X1751890Y269215D01*
Y257485D01*
X1752167Y256090D01*
X1752957Y254908D01*
X1754140Y254118D01*
X1755535Y253840D01*
X1761115D01*
Y250542D01*
X1760555Y249982D01*
X1759713Y248722D01*
X1759417Y247235D01*
Y238448D01*
X1759713Y236961D01*
X1760555Y235701D01*
X1779753Y216503D01*
X1781013Y215661D01*
X1782500Y215365D01*
X1893250D01*
X1894737Y215661D01*
X1895997Y216503D01*
X1920997Y241503D01*
X1921839Y242763D01*
X1922135Y244250D01*
Y253840D01*
X1927715D01*
X1929110Y254118D01*
X1930292Y254908D01*
X1931082Y256090D01*
X1931360Y257485D01*
Y258865D01*
X1973000D01*
X1974487Y259161D01*
X1975747Y260003D01*
X1980747Y265003D01*
X1981589Y266263D01*
X1981885Y267750D01*
Y336000D01*
X1981589Y337486D01*
X1980747Y338747D01*
X1937898Y381595D01*
X1938424Y382865D01*
X1955262D01*
X1956749Y383161D01*
X1958009Y384003D01*
X1959497Y385491D01*
X1960339Y386751D01*
X1960634Y388238D01*
Y455000D01*
X1960339Y456487D01*
X1959497Y457747D01*
X1925885Y491359D01*
Y522141D01*
X1929609Y525865D01*
X1954000D01*
X1955487Y526161D01*
X1956747Y527003D01*
X1967916Y538172D01*
X1968758Y539432D01*
X1969054Y540919D01*
Y544535D01*
X1971669D01*
X1973637Y544794D01*
X1975471Y545554D01*
X1977047Y546763D01*
X1978255Y548338D01*
X1979015Y550172D01*
X1979274Y552140D01*
X1979015Y554109D01*
X1978255Y555943D01*
X1977047Y557518D01*
X1975471Y558727D01*
X1973637Y559486D01*
X1971669Y559745D01*
X1958669D01*
X1956701Y559486D01*
X1955574Y559020D01*
X1954728Y559599D01*
X1954435Y559922D01*
Y565941D01*
X1972747Y584253D01*
X1973589Y585513D01*
X1973885Y587000D01*
Y602250D01*
X1973589Y603737D01*
X1972747Y604997D01*
X1953407Y624337D01*
X1952146Y625179D01*
X1950660Y625475D01*
X1938444D01*
X1937819Y626745D01*
X1938459Y628288D01*
Y630392D01*
X1937653Y632337D01*
X1936165Y633825D01*
X1934221Y634630D01*
X1933703Y635220D01*
X1933798Y635941D01*
X1933436Y638692D01*
X1932374Y641256D01*
X1930684Y643458D01*
X1928482Y645147D01*
X1925918Y646209D01*
X1923551Y646521D01*
Y655058D01*
X1926109Y657615D01*
X1948641D01*
X1958980Y647277D01*
X1958356Y646104D01*
X1956701Y645886D01*
X1954866Y645126D01*
X1953291Y643917D01*
X1952083Y642343D01*
X1951323Y640508D01*
X1951064Y638540D01*
X1951323Y636572D01*
X1952083Y634737D01*
X1953291Y633162D01*
X1954866Y631954D01*
X1956701Y631194D01*
X1958669Y630935D01*
X1971669D01*
X1973637Y631194D01*
X1975471Y631954D01*
X1977047Y633162D01*
X1978255Y634737D01*
X1979015Y636572D01*
X1979274Y638540D01*
X1979015Y640508D01*
X1978255Y642343D01*
X1977047Y643917D01*
X1975471Y645126D01*
X1973637Y645886D01*
X1971669Y646145D01*
X1969054D01*
Y646581D01*
X1968758Y648068D01*
X1967916Y649328D01*
X1952997Y664247D01*
X1951737Y665089D01*
X1950250Y665385D01*
X1924500D01*
X1923013Y665089D01*
X1921753Y664247D01*
X1918058Y660552D01*
X1913942D01*
X1908635Y665859D01*
Y746000D01*
X1908339Y747487D01*
X1907497Y748747D01*
X1872747Y783497D01*
X1871487Y784339D01*
X1870000Y784635D01*
X1794250D01*
X1792763Y784339D01*
X1791503Y783497D01*
X1788250Y780244D01*
X1779997Y788497D01*
X1778737Y789339D01*
X1777250Y789635D01*
X1498609D01*
X1494514Y793730D01*
X1495040Y795000D01*
X1990000D01*
Y10000D01*
D02*
G37*
G36*
X1417465Y603491D02*
Y598461D01*
X1416195Y598075D01*
X1415847Y598597D01*
X1387447Y626996D01*
X1386187Y627839D01*
X1384700Y628134D01*
X1376140D01*
Y633065D01*
X1387891D01*
X1417465Y603491D01*
D02*
G37*
G36*
X1951198Y553158D02*
X1951064Y552140D01*
X1951323Y550172D01*
X1952083Y548338D01*
X1953291Y546763D01*
X1954866Y545554D01*
X1956701Y544794D01*
X1958669Y544535D01*
X1961284D01*
Y542528D01*
X1952391Y533635D01*
X1926359D01*
X1923551Y536442D01*
Y544160D01*
X1925918Y544472D01*
X1928482Y545534D01*
X1929566Y546365D01*
X1941000D01*
X1942487Y546661D01*
X1943747Y547503D01*
X1949995Y553751D01*
X1951198Y553158D01*
D02*
G37*
G36*
X1030000Y545007D02*
X1030503Y544253D01*
X1032865Y541891D01*
Y520859D01*
X1027345Y515339D01*
X1026503Y514079D01*
X1026207Y512592D01*
Y510488D01*
X1026462Y509206D01*
X1024310Y507054D01*
X1023099Y507468D01*
X1023040Y507514D01*
Y508252D01*
X1022273Y510105D01*
X1021885Y510493D01*
Y549500D01*
X1021589Y550987D01*
X1020747Y552247D01*
X1018091Y554902D01*
X1018135Y555076D01*
X1019541Y555465D01*
X1030000Y545007D01*
D02*
G37*
G36*
X1243141Y556708D02*
X1243148Y556642D01*
X1168058Y481552D01*
X1166885Y482038D01*
Y485641D01*
X1239109Y557865D01*
X1242576D01*
X1243141Y556708D01*
D02*
G37*
G36*
X1055253Y510253D02*
X1078115Y487391D01*
Y480830D01*
X1076845Y480704D01*
X1076839Y480737D01*
X1075997Y481997D01*
X1053885Y504109D01*
Y510015D01*
X1055155Y510401D01*
X1055253Y510253D01*
D02*
G37*
G36*
X1046411Y501013D02*
X1047253Y499753D01*
X1069365Y477641D01*
Y469422D01*
X1068934Y469198D01*
X1068095Y469032D01*
X1066855Y470273D01*
X1065003Y471040D01*
X1062998D01*
X1061145Y470273D01*
X1059727Y468855D01*
X1058960Y467002D01*
Y466454D01*
X1052753Y460247D01*
X1051911Y458987D01*
X1051615Y457500D01*
Y385538D01*
X1050442Y385052D01*
X1044885Y390609D01*
Y502177D01*
X1046155Y502302D01*
X1046411Y501013D01*
D02*
G37*
G36*
X1395965Y590491D02*
Y499209D01*
X1393053Y496297D01*
X1392211Y495037D01*
X1391915Y493550D01*
Y478950D01*
X1389635Y477634D01*
X1387766Y475765D01*
X1386444Y473475D01*
X1385760Y470922D01*
Y468278D01*
X1386444Y465725D01*
X1387766Y463435D01*
X1389635Y461566D01*
X1391915Y460250D01*
Y441623D01*
X1318162D01*
X1317636Y442893D01*
X1322347Y447603D01*
X1323189Y448863D01*
X1323485Y450350D01*
Y460250D01*
X1325765Y461566D01*
X1327634Y463435D01*
X1328956Y465725D01*
X1329640Y468278D01*
Y470922D01*
X1328956Y473475D01*
X1327634Y475765D01*
X1325765Y477634D01*
X1324735Y478229D01*
Y490491D01*
X1338497Y504253D01*
X1339339Y505513D01*
X1339635Y507000D01*
Y576310D01*
X1344565D01*
Y492809D01*
X1342103Y490347D01*
X1341261Y489086D01*
X1340965Y487600D01*
Y478864D01*
X1338835Y477634D01*
X1336966Y475765D01*
X1335644Y473475D01*
X1334960Y470922D01*
Y468278D01*
X1335644Y465725D01*
X1336966Y463435D01*
X1338835Y461566D01*
X1341125Y460244D01*
X1343678Y459560D01*
X1346322D01*
X1348875Y460244D01*
X1351165Y461566D01*
X1353034Y463435D01*
X1354356Y465725D01*
X1355040Y468278D01*
Y470922D01*
X1354356Y473475D01*
X1353034Y475765D01*
X1351165Y477634D01*
X1348875Y478956D01*
X1348735Y478993D01*
Y485991D01*
X1351197Y488453D01*
X1352039Y489713D01*
X1352335Y491200D01*
Y576310D01*
X1355490D01*
Y590776D01*
X1356060Y591810D01*
X1376140D01*
Y594965D01*
X1379991D01*
X1381465Y593490D01*
Y516459D01*
X1367603Y502597D01*
X1366761Y501337D01*
X1366465Y499850D01*
Y478922D01*
X1364235Y477634D01*
X1362366Y475765D01*
X1361044Y473475D01*
X1360360Y470922D01*
Y468278D01*
X1361044Y465725D01*
X1362366Y463435D01*
X1364235Y461566D01*
X1366525Y460244D01*
X1369078Y459560D01*
X1371722D01*
X1374275Y460244D01*
X1376565Y461566D01*
X1378434Y463435D01*
X1379756Y465725D01*
X1380440Y468278D01*
Y470922D01*
X1379756Y473475D01*
X1378434Y475765D01*
X1376565Y477634D01*
X1374275Y478956D01*
X1374235Y478967D01*
Y498241D01*
X1388097Y512103D01*
X1388939Y513363D01*
X1389235Y514850D01*
Y595099D01*
X1389153Y595507D01*
X1390324Y596132D01*
X1395965Y590491D01*
D02*
G37*
G36*
X1418603Y555853D02*
X1434853Y539603D01*
X1436113Y538761D01*
X1437600Y538465D01*
X1444810D01*
Y533060D01*
X1450965D01*
Y518900D01*
X1451261Y517413D01*
X1452103Y516153D01*
X1459753Y508503D01*
X1461013Y507661D01*
X1462500Y507365D01*
X1490141D01*
X1518615Y478891D01*
Y451985D01*
X1517345Y451600D01*
X1517247Y451747D01*
X1495385Y473609D01*
Y481012D01*
X1495089Y482499D01*
X1494247Y483759D01*
X1492759Y485247D01*
X1491499Y486089D01*
X1490012Y486385D01*
X1465609D01*
X1454290Y497704D01*
Y498003D01*
X1453523Y499855D01*
X1452105Y501273D01*
X1450253Y502040D01*
X1448248D01*
X1446395Y501273D01*
X1444977Y499855D01*
X1444210Y498003D01*
Y495998D01*
X1444977Y494145D01*
X1446395Y492727D01*
X1448248Y491960D01*
X1449046D01*
X1461253Y479753D01*
X1462513Y478911D01*
X1464000Y478615D01*
X1487615D01*
Y472000D01*
X1487911Y470513D01*
X1488753Y469253D01*
X1510615Y447391D01*
Y438289D01*
X1509345Y437441D01*
X1508503Y437790D01*
X1506497D01*
X1504645Y437023D01*
X1503227Y435605D01*
X1502460Y433753D01*
Y433204D01*
X1497641Y428385D01*
X1408788D01*
X1408302Y429558D01*
X1423947Y445203D01*
X1424789Y446463D01*
X1425085Y447950D01*
Y460250D01*
X1427365Y461566D01*
X1429234Y463435D01*
X1430556Y465725D01*
X1431240Y468278D01*
Y470922D01*
X1430556Y473475D01*
X1429234Y475765D01*
X1427365Y477634D01*
X1425085Y478950D01*
Y525750D01*
X1424789Y527237D01*
X1423947Y528497D01*
X1416985Y535459D01*
Y555989D01*
X1418255Y556375D01*
X1418603Y555853D01*
D02*
G37*
G36*
X1409215Y594241D02*
Y533850D01*
X1409511Y532363D01*
X1410353Y531103D01*
X1417315Y524141D01*
Y478950D01*
X1415035Y477634D01*
X1413166Y475765D01*
X1411844Y473475D01*
X1411160Y470922D01*
Y468278D01*
X1411844Y465725D01*
X1413166Y463435D01*
X1415035Y461566D01*
X1417315Y460250D01*
Y449559D01*
X1402141Y434385D01*
X1398248D01*
X1397722Y435655D01*
X1398547Y436479D01*
X1399389Y437739D01*
X1399685Y439226D01*
Y460250D01*
X1401965Y461566D01*
X1403834Y463435D01*
X1405156Y465725D01*
X1405840Y468278D01*
Y470922D01*
X1405156Y473475D01*
X1403834Y475765D01*
X1401965Y477634D01*
X1399685Y478950D01*
Y491941D01*
X1402597Y494853D01*
X1403439Y496113D01*
X1403735Y497600D01*
Y592100D01*
X1403439Y593587D01*
X1402597Y594847D01*
X1383147Y614296D01*
X1381887Y615139D01*
X1380400Y615434D01*
X1376140D01*
Y620365D01*
X1383091D01*
X1409215Y594241D01*
D02*
G37*
G36*
X1220948Y425442D02*
X1208808Y413302D01*
X1207635Y413788D01*
Y415257D01*
X1208023Y415645D01*
X1208790Y417497D01*
Y419502D01*
X1208023Y421355D01*
X1206605Y422773D01*
X1204753Y423540D01*
X1202747D01*
X1200895Y422773D01*
X1199477Y421355D01*
X1198710Y419502D01*
Y417497D01*
X1199477Y415645D01*
X1199865Y415257D01*
Y413359D01*
X1197308Y410802D01*
X1196135Y411288D01*
Y426615D01*
X1220462D01*
X1220948Y425442D01*
D02*
G37*
G36*
X1438703Y565753D02*
X1439963Y564911D01*
X1441450Y564615D01*
X1445500D01*
X1446816Y562335D01*
X1448685Y560466D01*
X1450975Y559144D01*
X1453528Y558460D01*
X1456172D01*
X1458725Y559144D01*
X1461015Y560466D01*
X1462884Y562335D01*
X1464200Y564615D01*
X1470391D01*
X1535115Y499891D01*
Y417359D01*
X1529141Y411385D01*
X1526369D01*
X1525690Y412655D01*
X1526089Y413251D01*
X1526385Y414738D01*
Y480500D01*
X1526089Y481987D01*
X1525247Y483247D01*
X1494497Y513997D01*
X1493237Y514839D01*
X1491750Y515135D01*
X1464109D01*
X1458735Y520509D01*
Y533060D01*
X1464890D01*
Y553140D01*
X1444810D01*
Y546235D01*
X1439209D01*
X1425235Y560209D01*
Y577562D01*
X1426408Y578048D01*
X1438703Y565753D01*
D02*
G37*
G36*
X1068934Y462802D02*
X1069365Y462578D01*
Y380500D01*
X1069661Y379013D01*
X1070503Y377753D01*
X1075948Y372308D01*
X1075462Y371135D01*
X1073359D01*
X1059385Y385109D01*
Y455891D01*
X1064454Y460960D01*
X1065003D01*
X1066855Y461727D01*
X1068095Y462968D01*
X1068934Y462802D01*
D02*
G37*
G36*
X1037115Y512462D02*
Y389000D01*
X1037411Y387513D01*
X1038253Y386253D01*
X1063198Y361308D01*
X1062712Y360135D01*
X1035225D01*
X1034973Y361405D01*
X1036355Y361977D01*
X1037773Y363395D01*
X1038540Y365247D01*
Y367253D01*
X1037773Y369105D01*
X1036355Y370523D01*
X1034502Y371290D01*
X1032704D01*
X1030635Y373359D01*
Y502391D01*
X1033360Y505116D01*
X1034202Y506376D01*
X1034498Y507863D01*
Y509967D01*
X1034243Y511249D01*
X1035942Y512948D01*
X1037115Y512462D01*
D02*
G37*
G36*
X12228Y28178D02*
X14196Y24316D01*
X16744Y20809D01*
X19809Y17744D01*
X23316Y15196D01*
X27178Y13228D01*
X31301Y11888D01*
X35204Y11270D01*
X35104Y10000D01*
X10000D01*
Y30925D01*
X11270Y31126D01*
X12228Y28178D01*
D02*
G37*
%LPC*%
G36*
X1084671Y601090D02*
X1082028D01*
X1079474Y600406D01*
X1077185Y599084D01*
X1075316Y597215D01*
X1073994Y594925D01*
X1073310Y592372D01*
Y589728D01*
X1073994Y587174D01*
X1075316Y584885D01*
X1077185Y583016D01*
X1079474Y581694D01*
X1082028Y581010D01*
X1084671D01*
X1087225Y581694D01*
X1089514Y583016D01*
X1091384Y584885D01*
X1092706Y587174D01*
X1093390Y589728D01*
Y592372D01*
X1092706Y594925D01*
X1091384Y597215D01*
X1089514Y599084D01*
X1087225Y600406D01*
X1084671Y601090D01*
D02*
G37*
G36*
Y575690D02*
X1082028D01*
X1079474Y575006D01*
X1077185Y573684D01*
X1075316Y571814D01*
X1073994Y569525D01*
X1073310Y566972D01*
Y564328D01*
X1073994Y561774D01*
X1075316Y559485D01*
X1077185Y557616D01*
X1079474Y556294D01*
X1082028Y555610D01*
X1084671D01*
X1087225Y556294D01*
X1089514Y557616D01*
X1091384Y559485D01*
X1092706Y561774D01*
X1093390Y564328D01*
Y566972D01*
X1092706Y569525D01*
X1091384Y571814D01*
X1089514Y573684D01*
X1087225Y575006D01*
X1084671Y575690D01*
D02*
G37*
G36*
Y550290D02*
X1082028D01*
X1079474Y549606D01*
X1077185Y548284D01*
X1075316Y546414D01*
X1073994Y544125D01*
X1073310Y541572D01*
Y538928D01*
X1073994Y536375D01*
X1075316Y534085D01*
X1077185Y532216D01*
X1079474Y530894D01*
X1082028Y530210D01*
X1084671D01*
X1087225Y530894D01*
X1089514Y532216D01*
X1091384Y534085D01*
X1092706Y536375D01*
X1093390Y538928D01*
Y541572D01*
X1092706Y544125D01*
X1091384Y546414D01*
X1089514Y548284D01*
X1087225Y549606D01*
X1084671Y550290D01*
D02*
G37*
G36*
X1093390Y778890D02*
X1073310D01*
Y758810D01*
X1093390D01*
Y778890D01*
D02*
G37*
G36*
X1960918Y791040D02*
X1956582D01*
X1952301Y790362D01*
X1948178Y789022D01*
X1944316Y787054D01*
X1940809Y784506D01*
X1937744Y781441D01*
X1935196Y777934D01*
X1933228Y774072D01*
X1931888Y769949D01*
X1931210Y765667D01*
Y761332D01*
X1931888Y757051D01*
X1933228Y752928D01*
X1935196Y749066D01*
X1937744Y745559D01*
X1940809Y742494D01*
X1944316Y739946D01*
X1948178Y737978D01*
X1952301Y736638D01*
X1956582Y735960D01*
X1960918D01*
X1965199Y736638D01*
X1969322Y737978D01*
X1973184Y739946D01*
X1976691Y742494D01*
X1979756Y745559D01*
X1982304Y749066D01*
X1984272Y752928D01*
X1985612Y757051D01*
X1986290Y761332D01*
Y765667D01*
X1985612Y769949D01*
X1984272Y774072D01*
X1982304Y777934D01*
X1979756Y781441D01*
X1976691Y784506D01*
X1973184Y787054D01*
X1969322Y789022D01*
X1965199Y790362D01*
X1960918Y791040D01*
D02*
G37*
G36*
X1082080Y753490D02*
X1082028D01*
X1079474Y752806D01*
X1077185Y751484D01*
X1075316Y749614D01*
X1073999Y747335D01*
X1063950D01*
X1062463Y747039D01*
X1061203Y746197D01*
X1056003Y740997D01*
X1055161Y739737D01*
X1054865Y738250D01*
Y719538D01*
X1055161Y718051D01*
X1056003Y716791D01*
X1057491Y715303D01*
X1058751Y714461D01*
X1060238Y714165D01*
X1073999D01*
X1075316Y711885D01*
X1077185Y710016D01*
X1079474Y708694D01*
X1082028Y708010D01*
X1082080D01*
Y718050D01*
Y728090D01*
X1082028D01*
X1079474Y727406D01*
X1077185Y726084D01*
X1075316Y724214D01*
X1073999Y721935D01*
X1062635D01*
Y736641D01*
X1065559Y739565D01*
X1073999D01*
X1075316Y737285D01*
X1077185Y735416D01*
X1079474Y734094D01*
X1082028Y733410D01*
X1082080D01*
Y743450D01*
Y753490D01*
D02*
G37*
G36*
X582503Y740040D02*
X580498D01*
X578645Y739273D01*
X578257Y738885D01*
X421000D01*
X419513Y738589D01*
X418253Y737747D01*
X399003Y718497D01*
X398161Y717237D01*
X397865Y715750D01*
Y674359D01*
X385653Y662146D01*
X384810Y660886D01*
X384515Y659399D01*
Y605591D01*
X382235Y604274D01*
X380365Y602405D01*
X379044Y600115D01*
X378359Y597562D01*
Y594918D01*
X379044Y592365D01*
X380365Y590075D01*
X382235Y588206D01*
X384515Y586890D01*
Y584351D01*
X384810Y582864D01*
X385653Y581604D01*
X421115Y546141D01*
Y542521D01*
X419233Y541434D01*
X417336Y539537D01*
X415994Y537213D01*
X415300Y534622D01*
Y531939D01*
X415994Y529347D01*
X417336Y527023D01*
X419233Y525126D01*
X421556Y523785D01*
X421605Y523772D01*
Y510099D01*
X374201Y462695D01*
X58288D01*
X58278Y462732D01*
X56940Y465048D01*
X55048Y466940D01*
X52732Y468278D01*
X50148Y468970D01*
X47473D01*
X44889Y468278D01*
X42572Y466940D01*
X40680Y465048D01*
X39343Y462732D01*
X38650Y460147D01*
Y457472D01*
X39343Y454888D01*
X40680Y452571D01*
X42572Y450680D01*
X44889Y449342D01*
X47473Y448650D01*
X50148D01*
X52732Y449342D01*
X55048Y450680D01*
X56940Y452571D01*
X58278Y454888D01*
X58288Y454925D01*
X375810D01*
X377296Y455221D01*
X378557Y456063D01*
X428236Y505743D01*
X429078Y507003D01*
X429374Y508490D01*
Y523772D01*
X429423Y523785D01*
X431746Y525126D01*
X433644Y527023D01*
X434985Y529347D01*
X435680Y531939D01*
Y534622D01*
X434985Y537213D01*
X433644Y539537D01*
X431746Y541434D01*
X429423Y542776D01*
X428885Y542920D01*
Y547750D01*
X428589Y549237D01*
X427747Y550497D01*
X392508Y585736D01*
X392627Y587088D01*
X394564Y588206D01*
X396433Y590075D01*
X397755Y592365D01*
X398439Y594918D01*
Y597562D01*
X397755Y600115D01*
X396433Y602405D01*
X394564Y604274D01*
X392284Y605591D01*
Y657790D01*
X404497Y670003D01*
X405339Y671263D01*
X405635Y672750D01*
Y714141D01*
X422609Y731115D01*
X578257D01*
X578645Y730727D01*
X580498Y729960D01*
X582503D01*
X584355Y730727D01*
X585773Y732145D01*
X586540Y733997D01*
Y736003D01*
X585773Y737855D01*
X584355Y739273D01*
X582503Y740040D01*
D02*
G37*
G36*
X1084671Y728090D02*
X1084620D01*
Y719320D01*
X1093390D01*
Y719372D01*
X1092706Y721925D01*
X1091384Y724214D01*
X1089514Y726084D01*
X1087225Y727406D01*
X1084671Y728090D01*
D02*
G37*
G36*
X1093390Y716780D02*
X1084620D01*
Y708010D01*
X1084671D01*
X1087225Y708694D01*
X1089514Y710016D01*
X1091384Y711885D01*
X1092706Y714174D01*
X1093390Y716728D01*
Y716780D01*
D02*
G37*
G36*
X517250Y722885D02*
X476250D01*
X474763Y722589D01*
X473503Y721747D01*
X411053Y659296D01*
X410210Y658036D01*
X409915Y656550D01*
Y605591D01*
X407635Y604274D01*
X405765Y602405D01*
X404444Y600115D01*
X403759Y597562D01*
Y594918D01*
X404444Y592365D01*
X405765Y590075D01*
X407635Y588206D01*
X409915Y586890D01*
Y583200D01*
X410210Y581714D01*
X411053Y580454D01*
X447005Y544501D01*
Y542789D01*
X446956Y542776D01*
X444633Y541434D01*
X442735Y539537D01*
X441394Y537213D01*
X440700Y534622D01*
Y531939D01*
X441394Y529347D01*
X442735Y527023D01*
X444633Y525126D01*
X446956Y523785D01*
X447005Y523772D01*
Y510821D01*
X447063Y510528D01*
Y495807D01*
X388951Y437694D01*
X58288D01*
X58278Y437731D01*
X56940Y440048D01*
X55048Y441940D01*
X52732Y443277D01*
X50148Y443970D01*
X47473D01*
X44889Y443277D01*
X42572Y441940D01*
X40680Y440048D01*
X39343Y437731D01*
X38650Y435147D01*
Y432472D01*
X39343Y429888D01*
X40680Y427571D01*
X42572Y425680D01*
X44889Y424342D01*
X47473Y423650D01*
X50148D01*
X52732Y424342D01*
X55048Y425680D01*
X56940Y427571D01*
X58278Y429888D01*
X58288Y429925D01*
X390560D01*
X392046Y430221D01*
X393307Y431063D01*
X453695Y491451D01*
X454537Y492711D01*
X454833Y494198D01*
Y510763D01*
X454774Y511056D01*
Y523772D01*
X454823Y523785D01*
X457146Y525126D01*
X459044Y527023D01*
X460385Y529347D01*
X461080Y531939D01*
Y534622D01*
X460385Y537213D01*
X459044Y539537D01*
X457146Y541434D01*
X454823Y542776D01*
X454774Y542789D01*
Y546110D01*
X454478Y547597D01*
X453636Y548857D01*
X417684Y584810D01*
Y586890D01*
X419964Y588206D01*
X421833Y590075D01*
X423155Y592365D01*
X423839Y594918D01*
Y597562D01*
X423155Y600115D01*
X421833Y602405D01*
X419964Y604274D01*
X417684Y605591D01*
Y654940D01*
X477859Y715115D01*
X515641D01*
X525503Y705253D01*
X526763Y704411D01*
X528250Y704115D01*
X554257D01*
X554645Y703727D01*
X556497Y702960D01*
X558503D01*
X560355Y703727D01*
X561773Y705145D01*
X562540Y706998D01*
Y709003D01*
X561773Y710855D01*
X560355Y712273D01*
X558503Y713040D01*
X556497D01*
X554645Y712273D01*
X554257Y711885D01*
X529859D01*
X519997Y721747D01*
X518737Y722589D01*
X517250Y722885D01*
D02*
G37*
G36*
X1798540Y743540D02*
X1778960D01*
Y726960D01*
X1784965D01*
Y693137D01*
X1784128Y692654D01*
X1782696Y691222D01*
X1781684Y689469D01*
X1781160Y687513D01*
Y685488D01*
X1781684Y683532D01*
X1782696Y681779D01*
X1784128Y680347D01*
X1785882Y679334D01*
X1787837Y678810D01*
X1789862D01*
X1790796Y679061D01*
X1821353Y648503D01*
X1822613Y647661D01*
X1824100Y647366D01*
X1830641D01*
X1831865Y646141D01*
Y625694D01*
X1830595Y625588D01*
X1830175Y626217D01*
X1829079Y626949D01*
X1827785Y627207D01*
X1816236D01*
X1814942Y626949D01*
X1813846Y626217D01*
X1813113Y625120D01*
X1812856Y623827D01*
Y619177D01*
X1813113Y617883D01*
X1813846Y616787D01*
X1814942Y616054D01*
X1816236Y615797D01*
X1827785D01*
X1829079Y616054D01*
X1830175Y616787D01*
X1830730Y617617D01*
X1833513D01*
X1835000Y617913D01*
X1836260Y618755D01*
X1838497Y620991D01*
X1839339Y622252D01*
X1839635Y623738D01*
Y647750D01*
X1839339Y649237D01*
X1838497Y650497D01*
X1834997Y653997D01*
X1833737Y654839D01*
X1832250Y655135D01*
X1825709D01*
X1796290Y684554D01*
X1796540Y685488D01*
Y687513D01*
X1796016Y689469D01*
X1795003Y691222D01*
X1793571Y692654D01*
X1792734Y693137D01*
Y726960D01*
X1798540D01*
Y743540D01*
D02*
G37*
G36*
X1710234Y646274D02*
X1707590D01*
X1705037Y645589D01*
X1702747Y644268D01*
X1700878Y642398D01*
X1699556Y640109D01*
X1698872Y637555D01*
Y634912D01*
X1699556Y632358D01*
X1700878Y630069D01*
X1702747Y628200D01*
X1705037Y626878D01*
X1707590Y626194D01*
X1710234D01*
X1712787Y626878D01*
X1715077Y628200D01*
X1716946Y630069D01*
X1718262Y632349D01*
X1727657D01*
X1741252Y618755D01*
X1742512Y617913D01*
X1743998Y617617D01*
X1758291D01*
X1758845Y616787D01*
X1759942Y616054D01*
X1761235Y615797D01*
X1772785D01*
X1774079Y616054D01*
X1775175Y616787D01*
X1775908Y617883D01*
X1776165Y619177D01*
Y623827D01*
X1775908Y625120D01*
X1775175Y626217D01*
X1774079Y626949D01*
X1772785Y627207D01*
X1761235D01*
X1759942Y626949D01*
X1758845Y626217D01*
X1758291Y625386D01*
X1745607D01*
X1732013Y638980D01*
X1730753Y639823D01*
X1729266Y640118D01*
X1718262D01*
X1716946Y642398D01*
X1715077Y644268D01*
X1712787Y645589D01*
X1710234Y646274D01*
D02*
G37*
G36*
X1854790Y742040D02*
X1835210D01*
Y725460D01*
X1842365D01*
Y714859D01*
X1834903Y707397D01*
X1834061Y706137D01*
X1833765Y704650D01*
Y693137D01*
X1832928Y692654D01*
X1831496Y691222D01*
X1830484Y689469D01*
X1829960Y687513D01*
Y685488D01*
X1830484Y683532D01*
X1831496Y681779D01*
X1832928Y680347D01*
X1834682Y679334D01*
X1836637Y678810D01*
X1838662D01*
X1839596Y679061D01*
X1845615Y673041D01*
Y621359D01*
X1836391Y612135D01*
X1830965D01*
X1830908Y612420D01*
X1830175Y613517D01*
X1829079Y614249D01*
X1827785Y614507D01*
X1816236D01*
X1814942Y614249D01*
X1813846Y613517D01*
X1813113Y612420D01*
X1812856Y611127D01*
Y606477D01*
X1813113Y605183D01*
X1813846Y604087D01*
X1814942Y603354D01*
X1816236Y603097D01*
X1827785D01*
X1829079Y603354D01*
X1830175Y604087D01*
X1830362Y604366D01*
X1838000D01*
X1839487Y604661D01*
X1840747Y605503D01*
X1852247Y617003D01*
X1853089Y618264D01*
X1853385Y619750D01*
Y674650D01*
X1853089Y676137D01*
X1852247Y677397D01*
X1845090Y684554D01*
X1845340Y685488D01*
Y687513D01*
X1844816Y689469D01*
X1843803Y691222D01*
X1842372Y692654D01*
X1841534Y693137D01*
Y703041D01*
X1848997Y710503D01*
X1849839Y711764D01*
X1850135Y713250D01*
Y725460D01*
X1854790D01*
Y742040D01*
D02*
G37*
G36*
X1710234Y620874D02*
X1707590D01*
X1705037Y620189D01*
X1702747Y618868D01*
X1700878Y616998D01*
X1699556Y614709D01*
X1698872Y612155D01*
Y609512D01*
X1699556Y606958D01*
X1700878Y604669D01*
X1702747Y602800D01*
X1705037Y601478D01*
X1707590Y600794D01*
X1710234D01*
X1712787Y601478D01*
X1715077Y602800D01*
X1716946Y604669D01*
X1718268Y606958D01*
X1718511Y607865D01*
X1732391D01*
X1734202Y606055D01*
X1735462Y605213D01*
X1736948Y604917D01*
X1758291D01*
X1758845Y604087D01*
X1759942Y603354D01*
X1761235Y603097D01*
X1772785D01*
X1774079Y603354D01*
X1775175Y604087D01*
X1775908Y605183D01*
X1776165Y606477D01*
Y611127D01*
X1775908Y612420D01*
X1775175Y613517D01*
X1774079Y614249D01*
X1772785Y614507D01*
X1761235D01*
X1759942Y614249D01*
X1758845Y613517D01*
X1758291Y612686D01*
X1738557D01*
X1736747Y614497D01*
X1735487Y615339D01*
X1734000Y615635D01*
X1717733D01*
X1716946Y616998D01*
X1715077Y618868D01*
X1712787Y620189D01*
X1710234Y620874D01*
D02*
G37*
G36*
X1772785Y601807D02*
X1761235D01*
X1759942Y601549D01*
X1758845Y600817D01*
X1758291Y599986D01*
X1739602D01*
X1738115Y599691D01*
X1736855Y598848D01*
X1727325Y589318D01*
X1718262D01*
X1716946Y591598D01*
X1715077Y593468D01*
X1712787Y594789D01*
X1710234Y595474D01*
X1707590D01*
X1705037Y594789D01*
X1702747Y593468D01*
X1700878Y591598D01*
X1699556Y589309D01*
X1698872Y586755D01*
Y584112D01*
X1699556Y581558D01*
X1700878Y579269D01*
X1702747Y577400D01*
X1705037Y576078D01*
X1707590Y575394D01*
X1710234D01*
X1712787Y576078D01*
X1715077Y577400D01*
X1716946Y579269D01*
X1718262Y581549D01*
X1728934D01*
X1730420Y581845D01*
X1731680Y582687D01*
X1741211Y592217D01*
X1758291D01*
X1758845Y591387D01*
X1759942Y590654D01*
X1761235Y590397D01*
X1772785D01*
X1774079Y590654D01*
X1775175Y591387D01*
X1775908Y592483D01*
X1776165Y593777D01*
Y598427D01*
X1775908Y599720D01*
X1775175Y600817D01*
X1774079Y601549D01*
X1772785Y601807D01*
D02*
G37*
G36*
X970978Y643750D02*
X966643D01*
X962361Y643072D01*
X958239Y641732D01*
X954376Y639764D01*
X950869Y637216D01*
X947804Y634151D01*
X945256Y630644D01*
X943288Y626781D01*
X941948Y622659D01*
X941270Y618377D01*
Y614042D01*
X941948Y609761D01*
X943288Y605638D01*
X945256Y601776D01*
X947804Y598269D01*
X950869Y595203D01*
X954376Y592655D01*
X958239Y590687D01*
X962361Y589348D01*
X966643Y588670D01*
X970978D01*
X975259Y589348D01*
X979382Y590687D01*
X983244Y592655D01*
X986751Y595203D01*
X989817Y598269D01*
X992365Y601776D01*
X994333Y605638D01*
X995672Y609761D01*
X996350Y614042D01*
Y618377D01*
X995672Y622659D01*
X994333Y626781D01*
X992365Y630644D01*
X989817Y634151D01*
X986751Y637216D01*
X983244Y639764D01*
X979382Y641732D01*
X975259Y643072D01*
X970978Y643750D01*
D02*
G37*
G36*
X60978D02*
X56643D01*
X52361Y643072D01*
X48238Y641732D01*
X44376Y639764D01*
X40869Y637216D01*
X37804Y634151D01*
X35256Y630644D01*
X33288Y626781D01*
X31948Y622659D01*
X31270Y618377D01*
Y614042D01*
X31948Y609761D01*
X33288Y605638D01*
X35256Y601776D01*
X37804Y598269D01*
X40869Y595203D01*
X44376Y592655D01*
X48238Y590687D01*
X52361Y589348D01*
X56643Y588670D01*
X60978D01*
X65259Y589348D01*
X69382Y590687D01*
X73244Y592655D01*
X76751Y595203D01*
X79816Y598269D01*
X82364Y601776D01*
X84332Y605638D01*
X85672Y609761D01*
X86350Y614042D01*
Y618377D01*
X85672Y622659D01*
X84332Y626781D01*
X82364Y630644D01*
X79816Y634151D01*
X76751Y637216D01*
X73244Y639764D01*
X69382Y641732D01*
X65259Y643072D01*
X60978Y643750D01*
D02*
G37*
G36*
X364321Y606280D02*
X361678D01*
X359124Y605596D01*
X356835Y604274D01*
X354966Y602405D01*
X353644Y600115D01*
X352960Y597562D01*
Y594918D01*
X353641Y592375D01*
X346543Y585277D01*
X345701Y584017D01*
X345405Y582530D01*
Y542789D01*
X345356Y542776D01*
X343033Y541434D01*
X341135Y539537D01*
X339794Y537213D01*
X339100Y534622D01*
Y531939D01*
X339794Y529347D01*
X341135Y527023D01*
X343033Y525126D01*
X345356Y523785D01*
X345760Y523676D01*
Y477888D01*
X345727Y477855D01*
X344960Y476003D01*
Y473997D01*
X345727Y472145D01*
X347145Y470727D01*
X348997Y469960D01*
X351003D01*
X352855Y470727D01*
X354273Y472145D01*
X355040Y473997D01*
Y476003D01*
X354273Y477855D01*
X353529Y478598D01*
Y523962D01*
X355546Y525126D01*
X357444Y527023D01*
X358785Y529347D01*
X359480Y531939D01*
Y534622D01*
X358785Y537213D01*
X357444Y539537D01*
X355546Y541434D01*
X353223Y542776D01*
X353174Y542789D01*
Y580921D01*
X359135Y586881D01*
X361678Y586200D01*
X364321D01*
X366875Y586884D01*
X369164Y588206D01*
X371034Y590075D01*
X372355Y592365D01*
X373040Y594918D01*
Y597562D01*
X372355Y600115D01*
X371034Y602405D01*
X369164Y604274D01*
X366875Y605596D01*
X364321Y606280D01*
D02*
G37*
G36*
X1772785Y589107D02*
X1761235D01*
X1759942Y588849D01*
X1758845Y588117D01*
X1758291Y587286D01*
X1748402D01*
X1746915Y586991D01*
X1745655Y586148D01*
X1723425Y563918D01*
X1718262D01*
X1716946Y566198D01*
X1715077Y568068D01*
X1712787Y569389D01*
X1710234Y570074D01*
X1707590D01*
X1705037Y569389D01*
X1702747Y568068D01*
X1700878Y566198D01*
X1699556Y563909D01*
X1698872Y561355D01*
Y558712D01*
X1699556Y556158D01*
X1700878Y553869D01*
X1702747Y552000D01*
X1705037Y550678D01*
X1707590Y549994D01*
X1710234D01*
X1712787Y550678D01*
X1715077Y552000D01*
X1716946Y553869D01*
X1718262Y556149D01*
X1725034D01*
X1726520Y556445D01*
X1727780Y557287D01*
X1750011Y579517D01*
X1758291D01*
X1758845Y578687D01*
X1759942Y577954D01*
X1761235Y577697D01*
X1772785D01*
X1774079Y577954D01*
X1775175Y578687D01*
X1775908Y579783D01*
X1776165Y581077D01*
Y585727D01*
X1775908Y587020D01*
X1775175Y588117D01*
X1774079Y588849D01*
X1772785Y589107D01*
D02*
G37*
G36*
Y576407D02*
X1761235D01*
X1759942Y576149D01*
X1758845Y575417D01*
X1758291Y574586D01*
X1750452D01*
X1748965Y574291D01*
X1747705Y573448D01*
X1743046Y568790D01*
X1742498D01*
X1740645Y568023D01*
X1739227Y566605D01*
X1738460Y564753D01*
Y562747D01*
X1739227Y560895D01*
X1740645Y559477D01*
X1742498Y558710D01*
X1744286D01*
X1744709Y558114D01*
X1744909Y557537D01*
X1743977Y556605D01*
X1743210Y554753D01*
Y552747D01*
X1743977Y550895D01*
X1745395Y549477D01*
X1747247Y548710D01*
X1748170D01*
X1748696Y547440D01*
X1737891Y536635D01*
X1718952D01*
Y544674D01*
X1698872D01*
Y524594D01*
X1718952D01*
Y528865D01*
X1739500D01*
X1740987Y529161D01*
X1742247Y530003D01*
X1753661Y541417D01*
X1758291D01*
X1758845Y540587D01*
X1759942Y539854D01*
X1761235Y539597D01*
X1772785D01*
X1774079Y539854D01*
X1775175Y540587D01*
X1775908Y541683D01*
X1776165Y542977D01*
Y547627D01*
X1775908Y548920D01*
X1775175Y550017D01*
X1774079Y550749D01*
X1772785Y551007D01*
X1761235D01*
X1759942Y550749D01*
X1758845Y550017D01*
X1758291Y549186D01*
X1752610D01*
X1752084Y550456D01*
X1752523Y550895D01*
X1753290Y552747D01*
Y553296D01*
X1754111Y554117D01*
X1758291D01*
X1758845Y553287D01*
X1759942Y552554D01*
X1761235Y552297D01*
X1772785D01*
X1774079Y552554D01*
X1775175Y553287D01*
X1775908Y554383D01*
X1776165Y555677D01*
Y560327D01*
X1775908Y561620D01*
X1775175Y562717D01*
X1774079Y563449D01*
X1772785Y563707D01*
X1761235D01*
X1759942Y563449D01*
X1758845Y562717D01*
X1758291Y561886D01*
X1752502D01*
X1751015Y561591D01*
X1749755Y560748D01*
X1748506Y559499D01*
X1748145Y559471D01*
X1747658Y560529D01*
X1747665Y560788D01*
X1747773Y560895D01*
X1748540Y562747D01*
Y563296D01*
X1752061Y566817D01*
X1758291D01*
X1758845Y565987D01*
X1759942Y565254D01*
X1761235Y564997D01*
X1772785D01*
X1774079Y565254D01*
X1775175Y565987D01*
X1775908Y567083D01*
X1776165Y568377D01*
Y573027D01*
X1775908Y574320D01*
X1775175Y575417D01*
X1774079Y576149D01*
X1772785Y576407D01*
D02*
G37*
G36*
X237321Y606280D02*
X234678D01*
X232124Y605596D01*
X229835Y604274D01*
X227966Y602405D01*
X226644Y600115D01*
X225959Y597562D01*
Y594918D01*
X226641Y592375D01*
X219543Y585277D01*
X218701Y584017D01*
X218405Y582530D01*
Y554498D01*
X217232Y554012D01*
X199747Y571497D01*
X198487Y572339D01*
X197000Y572635D01*
X168859D01*
X168484Y573009D01*
Y586889D01*
X170764Y588206D01*
X172634Y590075D01*
X173955Y592364D01*
X174640Y594918D01*
Y597561D01*
X173955Y600115D01*
X172634Y602404D01*
X170764Y604274D01*
X168475Y605595D01*
X165921Y606280D01*
X163278D01*
X160724Y605595D01*
X158435Y604274D01*
X156566Y602404D01*
X155244Y600115D01*
X154560Y597561D01*
Y594918D01*
X155244Y592364D01*
X156566Y590075D01*
X158435Y588206D01*
X160715Y586889D01*
Y571400D01*
X161011Y569914D01*
X161853Y568654D01*
X164503Y566003D01*
X165763Y565161D01*
X167250Y564865D01*
X195391D01*
X217022Y543235D01*
X216920Y541946D01*
X216033Y541434D01*
X214135Y539537D01*
X212794Y537213D01*
X212100Y534622D01*
Y531939D01*
X212794Y529347D01*
X214135Y527023D01*
X216033Y525126D01*
X218356Y523785D01*
X220948Y523090D01*
X223631D01*
X226223Y523785D01*
X228546Y525126D01*
X230444Y527023D01*
X231785Y529347D01*
X232480Y531939D01*
Y534622D01*
X231785Y537213D01*
X230444Y539537D01*
X228546Y541434D01*
X226223Y542776D01*
X226174Y542789D01*
Y580921D01*
X232135Y586881D01*
X234678Y586200D01*
X237321D01*
X239875Y586884D01*
X242164Y588206D01*
X244034Y590075D01*
X245355Y592365D01*
X246040Y594918D01*
Y597562D01*
X245355Y600115D01*
X244034Y602405D01*
X242164Y604274D01*
X239875Y605596D01*
X237321Y606280D01*
D02*
G37*
G36*
X258762Y633135D02*
X205250D01*
X203763Y632839D01*
X202503Y631997D01*
X187253Y616746D01*
X186411Y615486D01*
X186115Y614000D01*
Y606280D01*
X179960D01*
Y586200D01*
X200040D01*
Y606280D01*
X193884D01*
Y612391D01*
X206859Y625365D01*
X257153D01*
X257515Y625004D01*
Y605591D01*
X255235Y604274D01*
X253365Y602405D01*
X252044Y600115D01*
X251360Y597562D01*
Y594918D01*
X252044Y592365D01*
X253365Y590075D01*
X255235Y588206D01*
X257515Y586890D01*
Y548599D01*
X251666Y542751D01*
X251623Y542776D01*
X249031Y543470D01*
X246348D01*
X243756Y542776D01*
X241433Y541434D01*
X239536Y539537D01*
X238194Y537213D01*
X237500Y534622D01*
Y531939D01*
X238194Y529347D01*
X239536Y527023D01*
X241433Y525126D01*
X243756Y523785D01*
X246348Y523090D01*
X249031D01*
X251623Y523785D01*
X253946Y525126D01*
X255844Y527023D01*
X257185Y529347D01*
X257880Y531939D01*
Y534622D01*
X257185Y537213D01*
X257160Y537257D01*
X264146Y544243D01*
X264988Y545503D01*
X265284Y546990D01*
Y586890D01*
X267564Y588206D01*
X269433Y590075D01*
X270755Y592365D01*
X271439Y594918D01*
Y597562D01*
X270755Y600115D01*
X269433Y602405D01*
X267564Y604274D01*
X265284Y605591D01*
Y626613D01*
X264988Y628099D01*
X264146Y629360D01*
X261509Y631997D01*
X260249Y632839D01*
X258762Y633135D01*
D02*
G37*
G36*
X401431Y543470D02*
X401360D01*
Y534550D01*
X410280D01*
Y534622D01*
X409585Y537213D01*
X408244Y539537D01*
X406346Y541434D01*
X404023Y542776D01*
X401431Y543470D01*
D02*
G37*
G36*
X172831D02*
X172760D01*
Y534550D01*
X181680D01*
Y534622D01*
X180985Y537213D01*
X179644Y539537D01*
X177746Y541434D01*
X175423Y542776D01*
X172831Y543470D01*
D02*
G37*
G36*
X398820D02*
X398748D01*
X396156Y542776D01*
X393833Y541434D01*
X391936Y539537D01*
X390594Y537213D01*
X389900Y534622D01*
Y534550D01*
X398820D01*
Y543470D01*
D02*
G37*
G36*
X170220D02*
X170148D01*
X167556Y542776D01*
X165233Y541434D01*
X163335Y539537D01*
X161994Y537213D01*
X161300Y534622D01*
Y534550D01*
X170220D01*
Y543470D01*
D02*
G37*
G36*
X50148Y543969D02*
X47473D01*
X44889Y543277D01*
X42572Y541940D01*
X40680Y540048D01*
X39343Y537731D01*
X38650Y535147D01*
Y532472D01*
X39343Y529888D01*
X40680Y527571D01*
X42572Y525679D01*
X44889Y524342D01*
X47473Y523649D01*
X50148D01*
X52732Y524342D01*
X55048Y525679D01*
X56940Y527571D01*
X58278Y529888D01*
X58970Y532472D01*
Y535147D01*
X58278Y537731D01*
X56940Y540048D01*
X55048Y541940D01*
X52732Y543277D01*
X50148Y543969D01*
D02*
G37*
G36*
X500039Y606280D02*
X479959D01*
Y586200D01*
X486115D01*
Y585500D01*
X486410Y584014D01*
X487253Y582754D01*
X523205Y546801D01*
Y542789D01*
X523156Y542776D01*
X520833Y541434D01*
X518936Y539537D01*
X517594Y537213D01*
X516900Y534622D01*
Y531939D01*
X517594Y529347D01*
X518936Y527023D01*
X520833Y525126D01*
X523156Y523785D01*
X525748Y523090D01*
X528431D01*
X531023Y523785D01*
X533346Y525126D01*
X535244Y527023D01*
X536585Y529347D01*
X537280Y531939D01*
Y534622D01*
X536585Y537213D01*
X535244Y539537D01*
X533346Y541434D01*
X531023Y542776D01*
X530974Y542789D01*
Y548410D01*
X530678Y549897D01*
X529836Y551157D01*
X495967Y585027D01*
X496453Y586200D01*
X500039D01*
Y606280D01*
D02*
G37*
G36*
X493252Y707040D02*
X491247D01*
X489395Y706273D01*
X487977Y704855D01*
X487210Y703002D01*
Y700997D01*
X487977Y699145D01*
X488365Y698757D01*
Y652609D01*
X461853Y626096D01*
X461011Y624836D01*
X460715Y623349D01*
Y605591D01*
X458435Y604274D01*
X456566Y602405D01*
X455244Y600115D01*
X454560Y597562D01*
Y594918D01*
X455244Y592365D01*
X456566Y590075D01*
X458435Y588206D01*
X460724Y586884D01*
X463099Y586248D01*
Y585266D01*
X463395Y583780D01*
X464237Y582520D01*
X497805Y548951D01*
Y542789D01*
X497756Y542776D01*
X495433Y541434D01*
X493535Y539537D01*
X492194Y537213D01*
X491500Y534622D01*
Y531939D01*
X492194Y529347D01*
X493535Y527023D01*
X495433Y525126D01*
X497756Y523785D01*
X500348Y523090D01*
X503031D01*
X505623Y523785D01*
X507946Y525126D01*
X509844Y527023D01*
X511185Y529347D01*
X511880Y531939D01*
Y534622D01*
X511185Y537213D01*
X509844Y539537D01*
X507946Y541434D01*
X505623Y542776D01*
X505574Y542789D01*
Y550560D01*
X505279Y552047D01*
X504436Y553307D01*
X470868Y586875D01*
Y588310D01*
X472634Y590075D01*
X473955Y592365D01*
X474640Y594918D01*
Y597562D01*
X473955Y600115D01*
X472634Y602405D01*
X470764Y604274D01*
X468484Y605591D01*
Y621740D01*
X494997Y648253D01*
X495839Y649513D01*
X496135Y651000D01*
Y698757D01*
X496523Y699145D01*
X497290Y700997D01*
Y703002D01*
X496523Y704855D01*
X495105Y706273D01*
X493252Y707040D01*
D02*
G37*
G36*
X410280Y532010D02*
X401360D01*
Y523090D01*
X401431D01*
X404023Y523785D01*
X406346Y525126D01*
X408244Y527023D01*
X409585Y529347D01*
X410280Y531939D01*
Y532010D01*
D02*
G37*
G36*
X398820D02*
X389900D01*
Y531939D01*
X390594Y529347D01*
X391936Y527023D01*
X393833Y525126D01*
X396156Y523785D01*
X398748Y523090D01*
X398820D01*
Y532010D01*
D02*
G37*
G36*
X376031Y543470D02*
X373348D01*
X370756Y542776D01*
X368433Y541434D01*
X366535Y539537D01*
X365194Y537213D01*
X364500Y534622D01*
Y531939D01*
X365194Y529347D01*
X366535Y527023D01*
X368433Y525126D01*
X370756Y523785D01*
X373348Y523090D01*
X376031D01*
X378623Y523785D01*
X380946Y525126D01*
X382844Y527023D01*
X384185Y529347D01*
X384880Y531939D01*
Y534622D01*
X384185Y537213D01*
X382844Y539537D01*
X380946Y541434D01*
X378623Y542776D01*
X376031Y543470D01*
D02*
G37*
G36*
X288121Y606280D02*
X285478D01*
X282924Y605596D01*
X280635Y604274D01*
X278766Y602405D01*
X277444Y600115D01*
X276759Y597562D01*
Y594918D01*
X277444Y592365D01*
X278766Y590075D01*
X280635Y588206D01*
X282915Y586890D01*
Y578409D01*
X270343Y565836D01*
X269501Y564576D01*
X269205Y563090D01*
Y542789D01*
X269156Y542776D01*
X266833Y541434D01*
X264935Y539537D01*
X263594Y537213D01*
X262900Y534622D01*
Y531939D01*
X263594Y529347D01*
X263619Y529303D01*
X222010Y487694D01*
X58288D01*
X58278Y487731D01*
X56940Y490048D01*
X55048Y491940D01*
X52732Y493277D01*
X50148Y493969D01*
X47473D01*
X44889Y493277D01*
X42572Y491940D01*
X40680Y490048D01*
X39343Y487731D01*
X38650Y485147D01*
Y482472D01*
X39343Y479888D01*
X40680Y477571D01*
X42572Y475680D01*
X44889Y474342D01*
X47473Y473649D01*
X50148D01*
X52732Y474342D01*
X55048Y475680D01*
X56940Y477571D01*
X58278Y479888D01*
X58288Y479925D01*
X223619D01*
X225106Y480221D01*
X226366Y481063D01*
X269113Y523810D01*
X269156Y523785D01*
X271748Y523090D01*
X274431D01*
X277023Y523785D01*
X279346Y525126D01*
X281244Y527023D01*
X282585Y529347D01*
X283280Y531939D01*
Y534622D01*
X282585Y537213D01*
X281244Y539537D01*
X279346Y541434D01*
X277023Y542776D01*
X276974Y542789D01*
Y561480D01*
X289546Y574053D01*
X290388Y575313D01*
X290684Y576800D01*
Y586890D01*
X292964Y588206D01*
X294834Y590075D01*
X296155Y592365D01*
X296840Y594918D01*
Y597562D01*
X296155Y600115D01*
X294834Y602405D01*
X292964Y604274D01*
X290675Y605596D01*
X288121Y606280D01*
D02*
G37*
G36*
X198231Y543470D02*
X195548D01*
X192956Y542776D01*
X190633Y541434D01*
X188736Y539537D01*
X187394Y537213D01*
X186700Y534622D01*
Y531939D01*
X187394Y529347D01*
X188736Y527023D01*
X190633Y525126D01*
X192956Y523785D01*
X195548Y523090D01*
X198231D01*
X200823Y523785D01*
X203146Y525126D01*
X205044Y527023D01*
X206385Y529347D01*
X207080Y531939D01*
Y534622D01*
X206385Y537213D01*
X205044Y539537D01*
X203146Y541434D01*
X200823Y542776D01*
X198231Y543470D01*
D02*
G37*
G36*
X181680Y532010D02*
X172760D01*
Y523090D01*
X172831D01*
X175423Y523785D01*
X177746Y525126D01*
X179644Y527023D01*
X180985Y529347D01*
X181680Y531939D01*
Y532010D01*
D02*
G37*
G36*
X170220D02*
X161300D01*
Y531939D01*
X161994Y529347D01*
X163335Y527023D01*
X165233Y525126D01*
X167556Y523785D01*
X170148Y523090D01*
X170220D01*
Y532010D01*
D02*
G37*
G36*
X1827785Y538307D02*
X1816236D01*
X1814942Y538049D01*
X1813846Y537317D01*
X1813113Y536220D01*
X1812856Y534927D01*
Y530277D01*
X1813113Y528983D01*
X1813846Y527887D01*
X1814942Y527154D01*
X1816236Y526897D01*
X1816857D01*
X1817383Y525627D01*
X1812641Y520885D01*
X1807493D01*
X1807105Y521273D01*
X1805253Y522040D01*
X1803248D01*
X1801395Y521273D01*
X1799977Y519855D01*
X1799210Y518003D01*
Y515998D01*
X1799977Y514145D01*
X1801395Y512727D01*
X1803248Y511960D01*
X1805253D01*
X1807105Y512727D01*
X1807493Y513115D01*
X1814250D01*
X1815737Y513411D01*
X1816997Y514253D01*
X1824757Y522014D01*
X1825599Y523274D01*
X1825895Y524761D01*
Y526897D01*
X1827785D01*
X1829079Y527154D01*
X1830175Y527887D01*
X1830908Y528983D01*
X1831165Y530277D01*
Y534927D01*
X1830908Y536220D01*
X1830175Y537317D01*
X1829079Y538049D01*
X1827785Y538307D01*
D02*
G37*
G36*
X1772785D02*
X1761235D01*
X1759942Y538049D01*
X1758845Y537317D01*
X1758113Y536220D01*
X1757855Y534927D01*
Y534656D01*
X1757272D01*
X1755785Y534361D01*
X1754525Y533518D01*
X1751753Y530747D01*
X1750911Y529487D01*
X1750615Y528000D01*
Y521250D01*
X1750911Y519763D01*
X1751753Y518503D01*
X1756253Y514003D01*
X1757513Y513161D01*
X1759000Y512865D01*
X1760507D01*
X1760895Y512477D01*
X1762747Y511710D01*
X1764753D01*
X1766605Y512477D01*
X1768023Y513895D01*
X1768790Y515747D01*
Y517752D01*
X1768023Y519605D01*
X1766605Y521023D01*
X1764753Y521790D01*
X1762747D01*
X1760895Y521023D01*
X1760558Y520686D01*
X1758385Y522859D01*
Y526391D01*
X1758881Y526887D01*
X1765180D01*
X1765229Y526897D01*
X1772785D01*
X1774079Y527154D01*
X1775175Y527887D01*
X1775908Y528983D01*
X1776165Y530277D01*
Y534927D01*
X1775908Y536220D01*
X1775175Y537317D01*
X1774079Y538049D01*
X1772785Y538307D01*
D02*
G37*
G36*
X611140Y537070D02*
X607439D01*
X603809Y536348D01*
X600389Y534931D01*
X597312Y532875D01*
X594694Y530258D01*
X592638Y527180D01*
X591222Y523761D01*
X590500Y520131D01*
Y516429D01*
X591222Y512799D01*
X592638Y509380D01*
X594694Y506302D01*
X597312Y503685D01*
X600389Y501628D01*
X603809Y500212D01*
X607439Y499490D01*
X611140D01*
X614770Y500212D01*
X618190Y501628D01*
X621268Y503685D01*
X623885Y506302D01*
X625941Y509380D01*
X627357Y512799D01*
X628080Y516429D01*
Y520131D01*
X627357Y523761D01*
X625941Y527180D01*
X623885Y530258D01*
X621268Y532875D01*
X618190Y534931D01*
X614770Y536348D01*
X611140Y537070D01*
D02*
G37*
G36*
X91140D02*
X87439D01*
X83809Y536348D01*
X80389Y534931D01*
X77312Y532875D01*
X74694Y530258D01*
X72638Y527180D01*
X71222Y523761D01*
X70500Y520131D01*
Y516429D01*
X71222Y512799D01*
X72638Y509380D01*
X74694Y506302D01*
X77312Y503685D01*
X80389Y501628D01*
X83809Y500212D01*
X87439Y499490D01*
X91140D01*
X94770Y500212D01*
X98190Y501628D01*
X101267Y503685D01*
X103885Y506302D01*
X105941Y509380D01*
X107358Y512799D01*
X108080Y516429D01*
Y520131D01*
X107358Y523761D01*
X105941Y527180D01*
X103885Y530258D01*
X101267Y532875D01*
X98190Y534931D01*
X94770Y536348D01*
X91140Y537070D01*
D02*
G37*
G36*
X50148Y518970D02*
X47473D01*
X44889Y518277D01*
X42572Y516940D01*
X40680Y515048D01*
X39343Y512731D01*
X38650Y510147D01*
Y507472D01*
X39343Y504888D01*
X40680Y502571D01*
X42572Y500680D01*
X44889Y499342D01*
X47473Y498650D01*
X50148D01*
X52732Y499342D01*
X55048Y500680D01*
X56940Y502571D01*
X58278Y504888D01*
X58970Y507472D01*
Y510147D01*
X58278Y512731D01*
X56940Y515048D01*
X55048Y516940D01*
X52732Y518277D01*
X50148Y518970D01*
D02*
G37*
G36*
X313521Y606280D02*
X310878D01*
X308324Y605596D01*
X306035Y604274D01*
X304165Y602405D01*
X302844Y600115D01*
X302160Y597562D01*
Y594918D01*
X302844Y592365D01*
X304165Y590075D01*
X306035Y588206D01*
X308315Y586890D01*
Y564809D01*
X295003Y551497D01*
X294161Y550237D01*
X293865Y548750D01*
Y542377D01*
X292233Y541434D01*
X290336Y539537D01*
X288994Y537213D01*
X288300Y534622D01*
Y531939D01*
X288994Y529347D01*
X290336Y527023D01*
X292233Y525126D01*
X294556Y523785D01*
X294605Y523772D01*
Y520349D01*
X287003Y512747D01*
X286161Y511487D01*
X285865Y510000D01*
Y477993D01*
X285477Y477605D01*
X284710Y475752D01*
Y473747D01*
X285477Y471895D01*
X286895Y470477D01*
X288748Y469710D01*
X290753D01*
X292605Y470477D01*
X294023Y471895D01*
X294790Y473747D01*
Y475752D01*
X294023Y477605D01*
X293635Y477993D01*
Y508391D01*
X301236Y515993D01*
X302078Y517253D01*
X302374Y518740D01*
Y523772D01*
X302423Y523785D01*
X304746Y525126D01*
X306644Y527023D01*
X307985Y529347D01*
X308680Y531939D01*
Y534622D01*
X307985Y537213D01*
X306644Y539537D01*
X304746Y541434D01*
X302423Y542776D01*
X301635Y542987D01*
Y547141D01*
X314946Y560453D01*
X315788Y561713D01*
X316084Y563200D01*
Y586890D01*
X318364Y588206D01*
X320233Y590075D01*
X321555Y592365D01*
X322239Y594918D01*
Y597562D01*
X321555Y600115D01*
X320233Y602405D01*
X318364Y604274D01*
X316075Y605596D01*
X313521Y606280D01*
D02*
G37*
G36*
X440521D02*
X437878D01*
X435324Y605596D01*
X433035Y604274D01*
X431166Y602405D01*
X429844Y600115D01*
X429160Y597562D01*
Y594918D01*
X429844Y592365D01*
X431166Y590075D01*
X433035Y588206D01*
X435324Y586884D01*
X437878Y586200D01*
X440521D01*
X443064Y586881D01*
X458115Y571830D01*
Y547570D01*
X458411Y546083D01*
X459253Y544823D01*
X466819Y537257D01*
X466794Y537213D01*
X466100Y534622D01*
Y531939D01*
X466794Y529347D01*
X468135Y527023D01*
X470033Y525126D01*
X472356Y523785D01*
X473615Y523447D01*
Y514609D01*
X469503Y510497D01*
X468661Y509237D01*
X468365Y507750D01*
Y476493D01*
X467977Y476105D01*
X467210Y474253D01*
Y472248D01*
X467977Y470395D01*
X469395Y468977D01*
X471247Y468210D01*
X473252D01*
X475105Y468977D01*
X476523Y470395D01*
X477290Y472248D01*
Y474253D01*
X476523Y476105D01*
X476135Y476493D01*
Y506141D01*
X480247Y510253D01*
X481089Y511513D01*
X481385Y513000D01*
Y524455D01*
X482546Y525126D01*
X484444Y527023D01*
X485785Y529347D01*
X486480Y531939D01*
Y534622D01*
X485785Y537213D01*
X484444Y539537D01*
X482546Y541434D01*
X480223Y542776D01*
X477631Y543470D01*
X474948D01*
X472356Y542776D01*
X472313Y542751D01*
X465885Y549179D01*
Y573440D01*
X465589Y574926D01*
X464747Y576186D01*
X448558Y592375D01*
X449240Y594918D01*
Y597562D01*
X448555Y600115D01*
X447234Y602405D01*
X445364Y604274D01*
X443075Y605596D01*
X440521Y606280D01*
D02*
G37*
G36*
X338921D02*
X336278D01*
X333724Y605596D01*
X331435Y604274D01*
X329566Y602405D01*
X328244Y600115D01*
X327560Y597562D01*
Y594918D01*
X328244Y592365D01*
X329566Y590075D01*
X331435Y588206D01*
X333715Y586890D01*
Y566959D01*
X321143Y554386D01*
X320301Y553126D01*
X320005Y551640D01*
Y542789D01*
X319956Y542776D01*
X317633Y541434D01*
X315735Y539537D01*
X314394Y537213D01*
X313700Y534622D01*
Y531939D01*
X314394Y529347D01*
X315735Y527023D01*
X317633Y525126D01*
X319956Y523785D01*
X320005Y523772D01*
Y492110D01*
X320301Y490624D01*
X320365Y490527D01*
Y475493D01*
X319977Y475105D01*
X319210Y473252D01*
Y471247D01*
X319977Y469395D01*
X321395Y467977D01*
X323247Y467210D01*
X325252D01*
X327105Y467977D01*
X328523Y469395D01*
X329290Y471247D01*
Y473252D01*
X328523Y475105D01*
X328148Y475480D01*
X328135Y475547D01*
Y491750D01*
X327839Y493237D01*
X327774Y493333D01*
Y523772D01*
X327823Y523785D01*
X330146Y525126D01*
X332044Y527023D01*
X333385Y529347D01*
X334080Y531939D01*
Y534622D01*
X333385Y537213D01*
X332044Y539537D01*
X330146Y541434D01*
X327823Y542776D01*
X327774Y542789D01*
Y550031D01*
X340346Y562603D01*
X341188Y563863D01*
X341484Y565350D01*
Y586890D01*
X343764Y588206D01*
X345634Y590075D01*
X346955Y592365D01*
X347640Y594918D01*
Y597562D01*
X346955Y600115D01*
X345634Y602405D01*
X343764Y604274D01*
X341475Y605596D01*
X338921Y606280D01*
D02*
G37*
G36*
X1614142Y466203D02*
X1606058D01*
X1604810Y465955D01*
X1603752Y465248D01*
X1603046Y464190D01*
X1602797Y462943D01*
Y458635D01*
X1592251D01*
X1590764Y458339D01*
X1589504Y457497D01*
X1581253Y449247D01*
X1580411Y447987D01*
X1580115Y446500D01*
Y419500D01*
X1580411Y418013D01*
X1581253Y416753D01*
X1597004Y401003D01*
X1598264Y400160D01*
X1599751Y399865D01*
X1610210D01*
Y398060D01*
X1610210Y397709D01*
Y396790D01*
X1610210Y396439D01*
Y393385D01*
X1595750D01*
X1594263Y393089D01*
X1593003Y392247D01*
X1589503Y388747D01*
X1588661Y387487D01*
X1588365Y386000D01*
Y378493D01*
X1587977Y378105D01*
X1587210Y376253D01*
Y374248D01*
X1587977Y372395D01*
X1589395Y370977D01*
X1591248Y370210D01*
X1593253D01*
X1595105Y370977D01*
X1596523Y372395D01*
X1597290Y374248D01*
Y376253D01*
X1596523Y378105D01*
X1596135Y378493D01*
Y384391D01*
X1597359Y385615D01*
X1610210D01*
Y384710D01*
X1624290D01*
Y396439D01*
X1624290Y396790D01*
Y397709D01*
X1624290Y398060D01*
Y409789D01*
X1610210D01*
Y407634D01*
X1601360D01*
X1587885Y421109D01*
Y444891D01*
X1593860Y450866D01*
X1602797D01*
Y446558D01*
X1603046Y445311D01*
X1603752Y444253D01*
X1604810Y443546D01*
X1606058Y443298D01*
X1614142D01*
X1615390Y443546D01*
X1616447Y444253D01*
X1617154Y445311D01*
X1617403Y446558D01*
Y462943D01*
X1617154Y464190D01*
X1616447Y465248D01*
X1615390Y465955D01*
X1614142Y466203D01*
D02*
G37*
G36*
X1797003Y461790D02*
X1794998D01*
X1793145Y461023D01*
X1791727Y459605D01*
X1790960Y457752D01*
Y455747D01*
X1791727Y453895D01*
X1793145Y452477D01*
X1794998Y451710D01*
X1795546D01*
X1836947Y410309D01*
X1836461Y409136D01*
X1829501D01*
X1828014Y408840D01*
X1826754Y407998D01*
X1800680Y381924D01*
X1799838Y380664D01*
X1799789Y380417D01*
X1799227Y379855D01*
X1798460Y378003D01*
Y375998D01*
X1799227Y374145D01*
X1800645Y372727D01*
X1802498Y371960D01*
X1804503D01*
X1806355Y372727D01*
X1807773Y374145D01*
X1808540Y375998D01*
Y378003D01*
X1808307Y378564D01*
X1831110Y401366D01*
X1866960D01*
Y395211D01*
X1887040D01*
Y400866D01*
X1917460D01*
Y396460D01*
X1937040D01*
Y413040D01*
X1917460D01*
Y408635D01*
X1887040D01*
Y415291D01*
X1866960D01*
Y409136D01*
X1849108D01*
X1801040Y457204D01*
Y457752D01*
X1800273Y459605D01*
X1798855Y461023D01*
X1797003Y461790D01*
D02*
G37*
G36*
X1685253Y421040D02*
X1683248D01*
X1681395Y420273D01*
X1679977Y418855D01*
X1679210Y417002D01*
Y416454D01*
X1672003Y409247D01*
X1671161Y407987D01*
X1670865Y406500D01*
Y398750D01*
X1671161Y397263D01*
X1672003Y396003D01*
X1675460Y392546D01*
Y384960D01*
X1689540D01*
Y397040D01*
X1681953D01*
X1678635Y400359D01*
Y404891D01*
X1684704Y410960D01*
X1685253D01*
X1687105Y411727D01*
X1688523Y413145D01*
X1689290Y414997D01*
Y417002D01*
X1688523Y418855D01*
X1687105Y420273D01*
X1685253Y421040D01*
D02*
G37*
G36*
X1695502Y451790D02*
X1693497D01*
X1691645Y451023D01*
X1690227Y449605D01*
X1689460Y447752D01*
Y445747D01*
X1690227Y443895D01*
X1691645Y442477D01*
X1693497Y441710D01*
X1694046D01*
X1696753Y439003D01*
X1698014Y438161D01*
X1699500Y437865D01*
X1712960D01*
Y433460D01*
X1718865D01*
Y428609D01*
X1698753Y408497D01*
X1697911Y407237D01*
X1697615Y405750D01*
Y403540D01*
X1694460D01*
Y391810D01*
X1694460Y391460D01*
Y390540D01*
X1694460Y390190D01*
Y378460D01*
X1708540D01*
Y380615D01*
X1738250D01*
X1739737Y380911D01*
X1740997Y381753D01*
X1754291Y395047D01*
X1768442D01*
X1769690Y395295D01*
X1770748Y396002D01*
X1771454Y397060D01*
X1771703Y398308D01*
Y406392D01*
X1771454Y407640D01*
X1770748Y408697D01*
X1769690Y409404D01*
X1768442Y409652D01*
X1752058D01*
X1750810Y409404D01*
X1749752Y408697D01*
X1749045Y407640D01*
X1748797Y406392D01*
Y400541D01*
X1736641Y388385D01*
X1708540D01*
Y390190D01*
X1708540Y390540D01*
Y391460D01*
X1708540Y391810D01*
Y393615D01*
X1724000D01*
X1725486Y393911D01*
X1726747Y394753D01*
X1731454Y399460D01*
X1732003D01*
X1733855Y400227D01*
X1735273Y401645D01*
X1736040Y403498D01*
Y405503D01*
X1735273Y407355D01*
X1733855Y408773D01*
X1732003Y409540D01*
X1729998D01*
X1728145Y408773D01*
X1726727Y407355D01*
X1725960Y405503D01*
Y404954D01*
X1722391Y401384D01*
X1708540D01*
Y403540D01*
X1706579D01*
X1706053Y404810D01*
X1725497Y424253D01*
X1726339Y425513D01*
X1726634Y427000D01*
Y433460D01*
X1732540D01*
Y450040D01*
X1712960D01*
Y445634D01*
X1701109D01*
X1699540Y447204D01*
Y447752D01*
X1698773Y449605D01*
X1697355Y451023D01*
X1695502Y451790D01*
D02*
G37*
G36*
X1758752Y462540D02*
X1756747D01*
X1754895Y461773D01*
X1753477Y460355D01*
X1752710Y458503D01*
Y456497D01*
X1753477Y454645D01*
X1753865Y454257D01*
Y440455D01*
X1752163D01*
X1750874Y440198D01*
X1749782Y439468D01*
X1749052Y438376D01*
X1748795Y437087D01*
Y427713D01*
X1749052Y426424D01*
X1749782Y425332D01*
X1750874Y424602D01*
X1752163Y424345D01*
X1768337D01*
X1769626Y424602D01*
X1770718Y425332D01*
X1771448Y426424D01*
X1771705Y427713D01*
Y428515D01*
X1778741D01*
X1795115Y412141D01*
Y401109D01*
X1775141Y381135D01*
X1761250D01*
X1759763Y380839D01*
X1758503Y379997D01*
X1757391Y378885D01*
X1738750D01*
X1737263Y378589D01*
X1736003Y377747D01*
X1734641Y376385D01*
X1672917D01*
X1672237Y376839D01*
X1670750Y377135D01*
X1670243D01*
X1668855Y378523D01*
X1667003Y379290D01*
X1664998D01*
X1663145Y378523D01*
X1661727Y377105D01*
X1660960Y375252D01*
Y373247D01*
X1661727Y371395D01*
X1662718Y370405D01*
X1662192Y369135D01*
X1658109D01*
X1656384Y370859D01*
Y395640D01*
X1666247Y405503D01*
X1673247Y412503D01*
X1674089Y413763D01*
X1674385Y415250D01*
Y433459D01*
X1680290D01*
Y450039D01*
X1660710D01*
Y433459D01*
X1666615D01*
Y416859D01*
X1661891Y412135D01*
X1641609D01*
X1622997Y430747D01*
X1621737Y431589D01*
X1620250Y431885D01*
X1599132D01*
X1598523Y433355D01*
X1597105Y434773D01*
X1595253Y435540D01*
X1593248D01*
X1591395Y434773D01*
X1589977Y433355D01*
X1589210Y431502D01*
Y429497D01*
X1589977Y427645D01*
X1591395Y426227D01*
X1593248Y425460D01*
X1593796D01*
X1594003Y425253D01*
X1595263Y424411D01*
X1596750Y424115D01*
X1618641D01*
X1637253Y405503D01*
X1638513Y404661D01*
X1639024Y404560D01*
X1638899Y403289D01*
X1629210D01*
Y391209D01*
X1643290D01*
Y393365D01*
X1648615D01*
Y369250D01*
X1648911Y367764D01*
X1649753Y366504D01*
X1653753Y362503D01*
X1655013Y361661D01*
X1656500Y361365D01*
X1774141D01*
X1815170Y320336D01*
Y316537D01*
X1814417Y315410D01*
X1814140Y314015D01*
Y302285D01*
X1814417Y300890D01*
X1815208Y299708D01*
X1816390Y298918D01*
X1817785Y298640D01*
X1836715D01*
X1838110Y298918D01*
X1839292Y299708D01*
X1840083Y300890D01*
X1840360Y302285D01*
Y314015D01*
X1840083Y315410D01*
X1839292Y316593D01*
X1838110Y317383D01*
X1836715Y317660D01*
X1822939D01*
Y321945D01*
X1822644Y323432D01*
X1821802Y324692D01*
X1778497Y367997D01*
X1777237Y368839D01*
X1775750Y369135D01*
X1740486D01*
X1739966Y370318D01*
X1740597Y371115D01*
X1759000D01*
X1760487Y371411D01*
X1761747Y372253D01*
X1762859Y373365D01*
X1776750D01*
X1778237Y373661D01*
X1779497Y374503D01*
X1801747Y396753D01*
X1802589Y398013D01*
X1802885Y399500D01*
Y413750D01*
X1802589Y415237D01*
X1801747Y416497D01*
X1783097Y435147D01*
X1781837Y435989D01*
X1780350Y436285D01*
X1771705D01*
Y437087D01*
X1771448Y438376D01*
X1770718Y439468D01*
X1769626Y440198D01*
X1768337Y440455D01*
X1761635D01*
Y454257D01*
X1762023Y454645D01*
X1762790Y456497D01*
Y458503D01*
X1762023Y460355D01*
X1760605Y461773D01*
X1758752Y462540D01*
D02*
G37*
G36*
X1456503Y377040D02*
X1454498D01*
X1452645Y376273D01*
X1452257Y375885D01*
X1377250D01*
X1375763Y375589D01*
X1374503Y374747D01*
X1362641Y362885D01*
X1329000D01*
X1327513Y362589D01*
X1326253Y361747D01*
X1318754Y354247D01*
X1317911Y352987D01*
X1317616Y351500D01*
Y332790D01*
X1299960D01*
Y307710D01*
X1317616D01*
Y269790D01*
X1311460D01*
Y244710D01*
X1317616D01*
Y230609D01*
X1275891Y188885D01*
X1273500D01*
X1272013Y188589D01*
X1270753Y187747D01*
X1263546Y180540D01*
X1262998D01*
X1261145Y179773D01*
X1260757Y179385D01*
X1252500D01*
X1251013Y179089D01*
X1249753Y178247D01*
X1230641Y159135D01*
X1226330D01*
Y178580D01*
X1205435D01*
X1205060Y178655D01*
X1175839D01*
X1159247Y195247D01*
X1157987Y196089D01*
X1156500Y196385D01*
X1116609D01*
X1097675Y215319D01*
Y222500D01*
X1106330D01*
Y267580D01*
X1081250D01*
Y248925D01*
X1054569D01*
X1047135Y256359D01*
Y259000D01*
X1046839Y260487D01*
X1045997Y261747D01*
X1040290Y267454D01*
Y268002D01*
X1039523Y269855D01*
X1038105Y271273D01*
X1036253Y272040D01*
X1034248D01*
X1032395Y271273D01*
X1030977Y269855D01*
X1030210Y268002D01*
Y265998D01*
X1030977Y264145D01*
X1032395Y262727D01*
X1034248Y261960D01*
X1034796D01*
X1039365Y257391D01*
Y254750D01*
X1039661Y253263D01*
X1040503Y252003D01*
X1050213Y242293D01*
X1051473Y241451D01*
X1052960Y241155D01*
X1081250D01*
Y230195D01*
X1041060D01*
X1039573Y229899D01*
X1038313Y229057D01*
X1035141Y225885D01*
X958109D01*
X888997Y294997D01*
X887737Y295839D01*
X886250Y296135D01*
X641750D01*
X640263Y295839D01*
X639003Y294997D01*
X638641Y294635D01*
X440750D01*
X439263Y294339D01*
X438003Y293497D01*
X427141Y282635D01*
X363000D01*
X361513Y282339D01*
X360253Y281497D01*
X354641Y275885D01*
X300924D01*
X300398Y277155D01*
X359859Y336615D01*
X870141D01*
X892253Y314503D01*
X893513Y313661D01*
X895000Y313365D01*
X955450D01*
X956937Y313661D01*
X958197Y314503D01*
X964856Y321161D01*
X964889Y321142D01*
X967473Y320450D01*
X970148D01*
X972732Y321142D01*
X975049Y322480D01*
X976940Y324372D01*
X978278Y326688D01*
X978970Y329272D01*
Y331948D01*
X978278Y334532D01*
X976940Y336848D01*
X975049Y338740D01*
X972732Y340078D01*
X970148Y340770D01*
X967473D01*
X964889Y340078D01*
X962572Y338740D01*
X960680Y336848D01*
X959343Y334532D01*
X959333Y334495D01*
X936749D01*
X934790Y336454D01*
Y337002D01*
X934023Y338855D01*
X932605Y340273D01*
X930752Y341040D01*
X928747D01*
X926895Y340273D01*
X925477Y338855D01*
X924710Y337002D01*
Y334997D01*
X925477Y333145D01*
X926895Y331727D01*
X928747Y330960D01*
X929296D01*
X932393Y327863D01*
X933653Y327021D01*
X935140Y326725D01*
X957636D01*
X958162Y325455D01*
X953841Y321135D01*
X896609D01*
X874497Y343247D01*
X873237Y344089D01*
X871750Y344385D01*
X358250D01*
X356763Y344089D01*
X355503Y343247D01*
X295391Y283135D01*
X290924D01*
X290398Y284405D01*
X343497Y337503D01*
X344339Y338763D01*
X344635Y340250D01*
Y363507D01*
X345023Y363895D01*
X345790Y365747D01*
Y367752D01*
X345023Y369605D01*
X343605Y371023D01*
X341753Y371790D01*
X339748D01*
X337895Y371023D01*
X336477Y369605D01*
X335710Y367752D01*
Y365747D01*
X336477Y363895D01*
X336865Y363507D01*
Y341859D01*
X285391Y290385D01*
X178013D01*
X177795Y290531D01*
X176308Y290826D01*
X174204D01*
X172717Y290531D01*
X171457Y289689D01*
X119463Y237694D01*
X58288D01*
X58278Y237731D01*
X56940Y240048D01*
X55048Y241940D01*
X52732Y243277D01*
X50148Y243969D01*
X47473D01*
X44889Y243277D01*
X42572Y241940D01*
X40680Y240048D01*
X39343Y237731D01*
X38650Y235147D01*
Y232472D01*
X39343Y229888D01*
X40680Y227571D01*
X42572Y225679D01*
X44889Y224342D01*
X47473Y223650D01*
X50148D01*
X52732Y224342D01*
X52765Y224361D01*
X60123Y217003D01*
X61383Y216161D01*
X62870Y215865D01*
X114750D01*
X116237Y216161D01*
X117497Y217003D01*
X175859Y275365D01*
X186285D01*
X186811Y274095D01*
X175466Y262751D01*
X175423Y262776D01*
X172831Y263470D01*
X170148D01*
X167556Y262776D01*
X165233Y261434D01*
X163335Y259537D01*
X161994Y257213D01*
X161300Y254622D01*
Y251939D01*
X161994Y249347D01*
X163335Y247023D01*
X165233Y245126D01*
X167556Y243785D01*
X170148Y243090D01*
X172831D01*
X175423Y243785D01*
X177746Y245126D01*
X179644Y247023D01*
X180985Y249347D01*
X181680Y251939D01*
Y254622D01*
X180985Y257213D01*
X180960Y257257D01*
X191819Y268115D01*
X356250D01*
X357737Y268411D01*
X358997Y269253D01*
X364609Y274865D01*
X428750D01*
X430237Y275161D01*
X431497Y276003D01*
X442359Y286865D01*
X601740D01*
X601992Y285595D01*
X600389Y284931D01*
X597312Y282875D01*
X594694Y280258D01*
X592638Y277180D01*
X591222Y273761D01*
X590500Y270131D01*
Y266429D01*
X591222Y262799D01*
X592638Y259380D01*
X594694Y256302D01*
X597312Y253685D01*
X600389Y251628D01*
X603809Y250212D01*
X607439Y249490D01*
X611140D01*
X614770Y250212D01*
X618190Y251628D01*
X621268Y253685D01*
X623885Y256302D01*
X625941Y259380D01*
X627357Y262799D01*
X628080Y266429D01*
Y270131D01*
X627357Y273761D01*
X625941Y277180D01*
X623885Y280258D01*
X621268Y282875D01*
X618190Y284931D01*
X616587Y285595D01*
X616840Y286865D01*
X640250D01*
X641737Y287161D01*
X642997Y288003D01*
X643359Y288365D01*
X884641D01*
X953753Y219253D01*
X955013Y218411D01*
X956500Y218115D01*
X1036750D01*
X1038237Y218411D01*
X1039497Y219253D01*
X1042669Y222425D01*
X1085060D01*
X1085435Y222500D01*
X1089905D01*
Y213710D01*
X1090201Y212223D01*
X1091043Y210963D01*
X1112253Y189753D01*
X1113513Y188911D01*
X1115000Y188615D01*
X1154891D01*
X1171483Y172023D01*
X1172744Y171181D01*
X1174230Y170885D01*
X1201250D01*
Y133500D01*
X1226330D01*
Y151365D01*
X1232250D01*
X1233737Y151661D01*
X1234997Y152503D01*
X1254109Y171615D01*
X1260757D01*
X1261145Y171227D01*
X1262998Y170460D01*
X1265003D01*
X1266855Y171227D01*
X1268273Y172645D01*
X1269040Y174498D01*
Y175046D01*
X1275109Y181115D01*
X1277500D01*
X1278987Y181411D01*
X1280247Y182253D01*
X1324247Y226254D01*
X1325089Y227514D01*
X1325385Y229000D01*
Y244710D01*
X1331540D01*
Y269790D01*
X1325385D01*
Y307710D01*
X1343040D01*
Y332790D01*
X1325385D01*
Y349891D01*
X1330609Y355115D01*
X1362641D01*
X1395253Y322503D01*
X1396514Y321661D01*
X1398000Y321365D01*
X1398547D01*
Y317058D01*
X1398795Y315810D01*
X1399502Y314752D01*
X1400560Y314045D01*
X1401808Y313797D01*
X1409892D01*
X1411140Y314045D01*
X1412198Y314752D01*
X1412904Y315810D01*
X1413153Y317058D01*
Y333442D01*
X1412904Y334689D01*
X1412198Y335747D01*
X1411140Y336454D01*
X1409892Y336702D01*
X1401808D01*
X1400560Y336454D01*
X1399502Y335747D01*
X1398795Y334689D01*
X1398547Y333442D01*
Y331856D01*
X1397374Y331370D01*
X1369744Y359000D01*
X1378859Y368115D01*
X1452257D01*
X1452645Y367727D01*
X1454498Y366960D01*
X1456503D01*
X1458355Y367727D01*
X1459773Y369145D01*
X1460540Y370998D01*
Y373003D01*
X1459773Y374855D01*
X1458355Y376273D01*
X1456503Y377040D01*
D02*
G37*
G36*
X1226330Y338580D02*
X1201250D01*
Y319925D01*
X1106330D01*
Y338580D01*
X1081250D01*
Y319925D01*
X1059290D01*
X1057803Y319629D01*
X1056543Y318787D01*
X998046Y260290D01*
X997497D01*
X995645Y259523D01*
X994227Y258105D01*
X993460Y256252D01*
Y254247D01*
X994227Y252395D01*
X995645Y250977D01*
X997497Y250210D01*
X999502D01*
X1001355Y250977D01*
X1002773Y252395D01*
X1003540Y254247D01*
Y254796D01*
X1060899Y312155D01*
X1081250D01*
Y293500D01*
X1106330D01*
Y312155D01*
X1201250D01*
Y293500D01*
X1226330D01*
Y312155D01*
X1243351D01*
X1251115Y304391D01*
Y263264D01*
X1251411Y261777D01*
X1252253Y260517D01*
X1259215Y253555D01*
X1260475Y252713D01*
X1261962Y252418D01*
X1263302D01*
X1264789Y252713D01*
X1265765Y253365D01*
X1288460D01*
Y244710D01*
X1294615D01*
Y229859D01*
X1279296Y214540D01*
X1278747D01*
X1276895Y213773D01*
X1275477Y212355D01*
X1274710Y210502D01*
Y208498D01*
X1275477Y206645D01*
X1276895Y205227D01*
X1278747Y204460D01*
X1280753D01*
X1282605Y205227D01*
X1284023Y206645D01*
X1284790Y208498D01*
Y209046D01*
X1301247Y225503D01*
X1302089Y226764D01*
X1302385Y228250D01*
Y244710D01*
X1308540D01*
Y269790D01*
X1288460D01*
Y261135D01*
X1264250D01*
X1262893Y260865D01*
X1258885Y264873D01*
Y306000D01*
X1258589Y307487D01*
X1257747Y308747D01*
X1247707Y318787D01*
X1246447Y319629D01*
X1244960Y319925D01*
X1226330D01*
Y338580D01*
D02*
G37*
G36*
X50148Y318970D02*
X47473D01*
X44889Y318277D01*
X42572Y316940D01*
X40680Y315048D01*
X39343Y312731D01*
X38650Y310147D01*
Y307472D01*
X39343Y304888D01*
X40680Y302571D01*
X42572Y300680D01*
X44889Y299342D01*
X47473Y298650D01*
X50148D01*
X52732Y299342D01*
X55048Y300680D01*
X56940Y302571D01*
X58278Y304888D01*
X58970Y307472D01*
Y310147D01*
X58278Y312731D01*
X56940Y315048D01*
X55048Y316940D01*
X52732Y318277D01*
X50148Y318970D01*
D02*
G37*
G36*
X1774465Y317660D02*
X1755535D01*
X1754140Y317383D01*
X1752957Y316593D01*
X1752167Y315410D01*
X1751890Y314015D01*
Y302285D01*
X1752167Y300891D01*
X1752957Y299708D01*
X1754140Y298918D01*
X1755535Y298640D01*
X1774465D01*
X1775860Y298918D01*
X1777042Y299708D01*
X1777832Y300891D01*
X1778110Y302285D01*
Y314015D01*
X1777832Y315410D01*
X1777042Y316593D01*
X1775860Y317383D01*
X1774465Y317660D01*
D02*
G37*
G36*
X1669753Y348040D02*
X1667747D01*
X1665895Y347273D01*
X1664477Y345855D01*
X1663710Y344002D01*
Y343454D01*
X1650753Y330497D01*
X1649911Y329237D01*
X1649615Y327750D01*
Y311750D01*
X1649911Y310263D01*
X1650753Y309003D01*
X1654353Y305403D01*
X1655613Y304561D01*
X1657100Y304266D01*
X1660890D01*
Y302285D01*
X1661167Y300891D01*
X1661957Y299708D01*
X1663140Y298918D01*
X1664535Y298640D01*
X1683465D01*
X1684860Y298918D01*
X1686042Y299708D01*
X1686832Y300891D01*
X1687110Y302285D01*
Y314015D01*
X1686832Y315410D01*
X1686042Y316593D01*
X1684860Y317383D01*
X1683465Y317660D01*
X1664535D01*
X1663140Y317383D01*
X1661957Y316593D01*
X1661167Y315410D01*
X1660890Y314015D01*
Y312035D01*
X1658709D01*
X1657385Y313359D01*
Y326141D01*
X1669204Y337960D01*
X1669753D01*
X1671605Y338727D01*
X1673023Y340145D01*
X1673790Y341997D01*
Y344002D01*
X1673023Y345855D01*
X1671605Y347273D01*
X1669753Y348040D01*
D02*
G37*
G36*
X1927715Y317660D02*
X1908785D01*
X1907390Y317383D01*
X1906207Y316593D01*
X1905417Y315410D01*
X1905140Y314015D01*
Y302285D01*
X1905417Y300890D01*
X1906207Y299708D01*
X1907390Y298918D01*
X1908785Y298640D01*
X1927715D01*
X1929110Y298918D01*
X1930292Y299708D01*
X1931082Y300890D01*
X1931360Y302285D01*
Y314015D01*
X1931082Y315410D01*
X1930292Y316593D01*
X1929110Y317383D01*
X1927715Y317660D01*
D02*
G37*
G36*
X1556338Y339205D02*
X1546964D01*
X1545675Y338948D01*
X1544582Y338218D01*
X1543852Y337126D01*
X1543596Y335837D01*
Y319663D01*
X1543852Y318374D01*
X1544582Y317282D01*
X1545675Y316552D01*
X1546964Y316295D01*
X1556338D01*
X1557626Y316552D01*
X1558719Y317282D01*
X1559449Y318374D01*
X1559705Y319663D01*
Y323058D01*
X1560975Y323531D01*
X1567115Y317391D01*
Y274203D01*
X1562808D01*
X1561560Y273955D01*
X1560502Y273248D01*
X1559796Y272190D01*
X1559547Y270942D01*
Y262858D01*
X1559796Y261610D01*
X1560502Y260552D01*
X1561560Y259846D01*
X1562808Y259597D01*
X1579192D01*
X1580440Y259846D01*
X1581498Y260552D01*
X1582205Y261610D01*
X1582453Y262858D01*
Y270942D01*
X1582205Y272190D01*
X1581498Y273248D01*
X1580440Y273955D01*
X1579192Y274203D01*
X1574885D01*
Y319000D01*
X1574589Y320486D01*
X1573747Y321747D01*
X1564997Y330497D01*
X1563737Y331339D01*
X1562250Y331635D01*
X1559705D01*
Y335837D01*
X1559449Y337126D01*
X1558719Y338218D01*
X1557626Y338948D01*
X1556338Y339205D01*
D02*
G37*
G36*
X325231Y263470D02*
X325160D01*
Y254550D01*
X334080D01*
Y254622D01*
X333385Y257213D01*
X332044Y259537D01*
X330146Y261434D01*
X327823Y262776D01*
X325231Y263470D01*
D02*
G37*
G36*
X274431D02*
X274360D01*
Y254550D01*
X283280D01*
Y254622D01*
X282585Y257213D01*
X281244Y259537D01*
X279346Y261434D01*
X277023Y262776D01*
X274431Y263470D01*
D02*
G37*
G36*
X322620D02*
X322548D01*
X319956Y262776D01*
X317633Y261434D01*
X315735Y259537D01*
X314394Y257213D01*
X313700Y254622D01*
Y254550D01*
X322620D01*
Y263470D01*
D02*
G37*
G36*
X271820D02*
X271748D01*
X269156Y262776D01*
X266833Y261434D01*
X264935Y259537D01*
X263594Y257213D01*
X262900Y254622D01*
Y254550D01*
X271820D01*
Y263470D01*
D02*
G37*
G36*
X1683465Y272860D02*
X1664535D01*
X1663140Y272583D01*
X1661957Y271793D01*
X1661167Y270610D01*
X1660890Y269215D01*
Y257485D01*
X1661167Y256090D01*
X1661957Y254908D01*
X1663140Y254118D01*
X1664535Y253840D01*
X1683465D01*
X1684860Y254118D01*
X1686042Y254908D01*
X1686832Y256090D01*
X1687110Y257485D01*
Y269215D01*
X1686832Y270610D01*
X1686042Y271793D01*
X1684860Y272583D01*
X1683465Y272860D01*
D02*
G37*
G36*
X1836715Y272860D02*
X1817785D01*
X1816390Y272583D01*
X1815208Y271793D01*
X1814417Y270610D01*
X1814140Y269215D01*
Y257485D01*
X1814417Y256090D01*
X1815208Y254908D01*
X1816390Y254118D01*
X1817785Y253840D01*
X1836715D01*
X1838110Y254118D01*
X1839292Y254908D01*
X1840083Y256090D01*
X1840360Y257485D01*
Y269215D01*
X1840083Y270610D01*
X1839292Y271793D01*
X1838110Y272583D01*
X1836715Y272860D01*
D02*
G37*
G36*
X91140Y287070D02*
X87439D01*
X83809Y286348D01*
X80389Y284931D01*
X77312Y282875D01*
X74694Y280258D01*
X72638Y277180D01*
X71222Y273761D01*
X70500Y270131D01*
Y266429D01*
X71222Y262799D01*
X72638Y259380D01*
X74694Y256302D01*
X77312Y253685D01*
X80389Y251628D01*
X83809Y250212D01*
X87439Y249490D01*
X91140D01*
X94770Y250212D01*
X98190Y251628D01*
X101267Y253685D01*
X103885Y256302D01*
X105941Y259380D01*
X107358Y262799D01*
X108080Y266429D01*
Y270131D01*
X107358Y273761D01*
X105941Y277180D01*
X103885Y280258D01*
X101267Y282875D01*
X98190Y284931D01*
X94770Y286348D01*
X91140Y287070D01*
D02*
G37*
G36*
X350631Y263470D02*
X347948D01*
X345356Y262776D01*
X343033Y261434D01*
X341135Y259537D01*
X339794Y257213D01*
X339100Y254622D01*
Y251939D01*
X339794Y249347D01*
X341135Y247023D01*
X343033Y245126D01*
X345356Y243785D01*
X347948Y243090D01*
X350631D01*
X353223Y243785D01*
X355546Y245126D01*
X357444Y247023D01*
X358785Y249347D01*
X359480Y251939D01*
Y254622D01*
X358785Y257213D01*
X357444Y259537D01*
X355546Y261434D01*
X353223Y262776D01*
X350631Y263470D01*
D02*
G37*
G36*
X334080Y252010D02*
X325160D01*
Y243090D01*
X325231D01*
X327823Y243785D01*
X330146Y245126D01*
X332044Y247023D01*
X333385Y249347D01*
X334080Y251939D01*
Y252010D01*
D02*
G37*
G36*
X322620D02*
X313700D01*
Y251939D01*
X314394Y249347D01*
X315735Y247023D01*
X317633Y245126D01*
X319956Y243785D01*
X322548Y243090D01*
X322620D01*
Y252010D01*
D02*
G37*
G36*
X299831Y263470D02*
X297148D01*
X294556Y262776D01*
X292233Y261434D01*
X290336Y259537D01*
X288994Y257213D01*
X288300Y254622D01*
Y251939D01*
X288994Y249347D01*
X290336Y247023D01*
X292233Y245126D01*
X294556Y243785D01*
X297148Y243090D01*
X299831D01*
X302423Y243785D01*
X304746Y245126D01*
X306644Y247023D01*
X307985Y249347D01*
X308680Y251939D01*
Y254622D01*
X307985Y257213D01*
X306644Y259537D01*
X304746Y261434D01*
X302423Y262776D01*
X299831Y263470D01*
D02*
G37*
G36*
X283280Y252010D02*
X274360D01*
Y243090D01*
X274431D01*
X277023Y243785D01*
X279346Y245126D01*
X281244Y247023D01*
X282585Y249347D01*
X283280Y251939D01*
Y252010D01*
D02*
G37*
G36*
X271820D02*
X262900D01*
Y251939D01*
X263594Y249347D01*
X264935Y247023D01*
X266833Y245126D01*
X269156Y243785D01*
X271748Y243090D01*
X271820D01*
Y252010D01*
D02*
G37*
G36*
X198231Y263470D02*
X195548D01*
X192956Y262776D01*
X190633Y261434D01*
X188736Y259537D01*
X187394Y257213D01*
X186700Y254622D01*
Y251939D01*
X187394Y249347D01*
X188736Y247023D01*
X190633Y245126D01*
X192956Y243785D01*
X195548Y243090D01*
X198231D01*
X200823Y243785D01*
X203146Y245126D01*
X205044Y247023D01*
X206385Y249347D01*
X207080Y251939D01*
Y254622D01*
X206385Y257213D01*
X205044Y259537D01*
X203146Y261434D01*
X200823Y262776D01*
X198231Y263470D01*
D02*
G37*
G36*
X1466440Y263040D02*
X1442860D01*
Y239460D01*
X1466440D01*
Y263040D01*
D02*
G37*
G36*
X1354541Y269790D02*
X1334461D01*
Y244710D01*
X1340865D01*
Y235500D01*
X1341161Y234013D01*
X1342003Y232753D01*
X1346753Y228003D01*
X1348013Y227161D01*
X1349500Y226865D01*
X1392262D01*
X1393749Y227161D01*
X1395009Y228003D01*
X1399276Y232270D01*
X1400118Y233530D01*
X1400414Y235017D01*
Y238492D01*
X1401575Y239653D01*
X1402298Y239460D01*
X1405402D01*
X1408401Y240263D01*
X1411089Y241815D01*
X1413284Y244011D01*
X1414836Y246699D01*
X1415640Y249697D01*
Y252802D01*
X1414836Y255800D01*
X1413284Y258489D01*
X1411089Y260684D01*
X1408401Y262236D01*
X1405402Y263040D01*
X1402298D01*
X1399299Y262236D01*
X1396611Y260684D01*
X1394416Y258489D01*
X1392863Y255800D01*
X1392060Y252802D01*
Y249697D01*
X1392863Y246699D01*
X1394416Y244011D01*
X1394680Y243746D01*
X1393782Y242848D01*
X1392940Y241588D01*
X1392644Y240101D01*
Y236626D01*
X1390653Y234635D01*
X1351109D01*
X1348635Y237109D01*
Y244710D01*
X1354541D01*
Y269790D01*
D02*
G37*
G36*
X1226330Y267580D02*
X1201250D01*
Y222500D01*
X1226330D01*
Y232615D01*
X1255757D01*
X1256145Y232227D01*
X1257998Y231460D01*
X1260003D01*
X1261855Y232227D01*
X1263273Y233645D01*
X1264040Y235497D01*
Y237502D01*
X1263273Y239355D01*
X1261855Y240773D01*
X1260003Y241540D01*
X1257998D01*
X1256145Y240773D01*
X1255757Y240385D01*
X1226330D01*
Y267580D01*
D02*
G37*
G36*
X1579087Y244904D02*
X1562913D01*
X1561624Y244648D01*
X1560532Y243918D01*
X1559802Y242826D01*
X1559545Y241537D01*
Y232163D01*
X1559802Y230874D01*
X1560532Y229781D01*
X1561624Y229051D01*
X1562913Y228795D01*
X1567115D01*
Y216859D01*
X1564141Y213885D01*
X1523859D01*
X1517385Y220359D01*
Y229297D01*
X1521692D01*
X1522940Y229546D01*
X1523998Y230252D01*
X1524704Y231310D01*
X1524953Y232558D01*
Y240642D01*
X1524704Y241890D01*
X1523998Y242948D01*
X1522940Y243654D01*
X1521692Y243903D01*
X1505308D01*
X1504060Y243654D01*
X1503002Y242948D01*
X1502296Y241890D01*
X1502047Y240642D01*
Y232558D01*
X1502296Y231310D01*
X1503002Y230252D01*
X1504060Y229546D01*
X1505308Y229297D01*
X1509615D01*
Y218750D01*
X1509911Y217263D01*
X1510753Y216003D01*
X1519503Y207253D01*
X1520763Y206411D01*
X1522250Y206115D01*
X1565750D01*
X1567237Y206411D01*
X1568497Y207253D01*
X1573747Y212503D01*
X1574589Y213764D01*
X1574885Y215250D01*
Y228795D01*
X1579087D01*
X1580376Y229051D01*
X1581469Y229781D01*
X1582198Y230874D01*
X1582455Y232163D01*
Y241537D01*
X1582198Y242826D01*
X1581469Y243918D01*
X1580376Y244648D01*
X1579087Y244904D01*
D02*
G37*
G36*
X1355480Y201040D02*
X1346710D01*
Y192270D01*
X1355480D01*
Y201040D01*
D02*
G37*
G36*
X503031Y263470D02*
X500348D01*
X497756Y262776D01*
X495433Y261434D01*
X493535Y259537D01*
X492194Y257213D01*
X491500Y254622D01*
Y251939D01*
X492194Y249347D01*
X493535Y247023D01*
X493621Y246938D01*
X493411Y246624D01*
X493115Y245138D01*
Y205591D01*
X490835Y204274D01*
X488966Y202405D01*
X487644Y200116D01*
X486960Y197562D01*
Y194919D01*
X487644Y192365D01*
X488966Y190076D01*
X490835Y188206D01*
X493124Y186885D01*
X495678Y186200D01*
X498321D01*
X500875Y186885D01*
X503164Y188206D01*
X505034Y190076D01*
X506356Y192365D01*
X507040Y194919D01*
Y197562D01*
X506356Y200116D01*
X505034Y202405D01*
X503164Y204274D01*
X500884Y205591D01*
Y243090D01*
X503031D01*
X505623Y243785D01*
X507946Y245126D01*
X509844Y247023D01*
X511185Y249347D01*
X511880Y251939D01*
Y254622D01*
X511185Y257213D01*
X509844Y259537D01*
X507946Y261434D01*
X505623Y262776D01*
X503031Y263470D01*
D02*
G37*
G36*
X477631D02*
X474948D01*
X472356Y262776D01*
X470033Y261434D01*
X468135Y259537D01*
X466794Y257213D01*
X466100Y254622D01*
Y251939D01*
X466794Y249347D01*
X468135Y247023D01*
X468221Y246938D01*
X468011Y246624D01*
X467715Y245138D01*
Y205591D01*
X465435Y204274D01*
X463566Y202405D01*
X462244Y200116D01*
X461560Y197562D01*
Y194919D01*
X462244Y192365D01*
X463566Y190076D01*
X465435Y188206D01*
X467724Y186885D01*
X470278Y186200D01*
X472921D01*
X475475Y186885D01*
X477764Y188206D01*
X479634Y190076D01*
X480956Y192365D01*
X481640Y194919D01*
Y197562D01*
X480956Y200116D01*
X479634Y202405D01*
X477764Y204274D01*
X475484Y205591D01*
Y243090D01*
X477631D01*
X480223Y243785D01*
X482546Y245126D01*
X484444Y247023D01*
X485785Y249347D01*
X486480Y251939D01*
Y254622D01*
X485785Y257213D01*
X484444Y259537D01*
X482546Y261434D01*
X480223Y262776D01*
X477631Y263470D01*
D02*
G37*
G36*
X452231D02*
X449548D01*
X446956Y262776D01*
X444633Y261434D01*
X442735Y259537D01*
X441394Y257213D01*
X440700Y254622D01*
Y251939D01*
X441394Y249347D01*
X442735Y247023D01*
X442821Y246938D01*
X442611Y246624D01*
X442315Y245138D01*
Y205591D01*
X440035Y204274D01*
X438166Y202405D01*
X436844Y200116D01*
X436160Y197562D01*
Y194919D01*
X436844Y192365D01*
X438166Y190076D01*
X440035Y188206D01*
X442324Y186885D01*
X444878Y186200D01*
X447522D01*
X450075Y186885D01*
X452364Y188206D01*
X454234Y190076D01*
X455555Y192365D01*
X456240Y194919D01*
Y197562D01*
X455555Y200116D01*
X454234Y202405D01*
X452364Y204274D01*
X450084Y205591D01*
Y243090D01*
X452231D01*
X454823Y243785D01*
X457146Y245126D01*
X459044Y247023D01*
X460385Y249347D01*
X461080Y251939D01*
Y254622D01*
X460385Y257213D01*
X459044Y259537D01*
X457146Y261434D01*
X454823Y262776D01*
X452231Y263470D01*
D02*
G37*
G36*
X426831D02*
X424148D01*
X421556Y262776D01*
X419233Y261434D01*
X417336Y259537D01*
X415994Y257213D01*
X415300Y254622D01*
Y251939D01*
X415994Y249347D01*
X417336Y247023D01*
X417421Y246938D01*
X417211Y246624D01*
X416915Y245138D01*
Y205591D01*
X414635Y204274D01*
X412766Y202405D01*
X411444Y200116D01*
X410760Y197562D01*
Y194919D01*
X411444Y192365D01*
X412766Y190076D01*
X414635Y188206D01*
X416924Y186885D01*
X419478Y186200D01*
X422122D01*
X424675Y186885D01*
X426964Y188206D01*
X428834Y190076D01*
X430155Y192365D01*
X430840Y194919D01*
Y197562D01*
X430155Y200116D01*
X428834Y202405D01*
X426964Y204274D01*
X424684Y205591D01*
Y243090D01*
X426831D01*
X429423Y243785D01*
X431746Y245126D01*
X433644Y247023D01*
X434985Y249347D01*
X435680Y251939D01*
Y254622D01*
X434985Y257213D01*
X433644Y259537D01*
X431746Y261434D01*
X429423Y262776D01*
X426831Y263470D01*
D02*
G37*
G36*
X401431D02*
X398748D01*
X396156Y262776D01*
X393833Y261434D01*
X391936Y259537D01*
X390594Y257213D01*
X389900Y254622D01*
Y251939D01*
X390594Y249347D01*
X391936Y247023D01*
X392021Y246938D01*
X391811Y246624D01*
X391515Y245138D01*
Y205591D01*
X389235Y204274D01*
X387366Y202405D01*
X386044Y200116D01*
X385360Y197562D01*
Y194919D01*
X386044Y192365D01*
X387366Y190076D01*
X389235Y188206D01*
X391524Y186885D01*
X394078Y186200D01*
X396721D01*
X399275Y186885D01*
X401564Y188206D01*
X403434Y190076D01*
X404756Y192365D01*
X405440Y194919D01*
Y197562D01*
X404756Y200116D01*
X403434Y202405D01*
X401564Y204274D01*
X399284Y205591D01*
Y243090D01*
X401431D01*
X404023Y243785D01*
X406346Y245126D01*
X408244Y247023D01*
X409585Y249347D01*
X410280Y251939D01*
Y254622D01*
X409585Y257213D01*
X408244Y259537D01*
X406346Y261434D01*
X404023Y262776D01*
X401431Y263470D01*
D02*
G37*
G36*
X376031D02*
X373348D01*
X370756Y262776D01*
X368433Y261434D01*
X366535Y259537D01*
X365194Y257213D01*
X364500Y254622D01*
Y251939D01*
X365194Y249347D01*
X366535Y247023D01*
X368433Y245126D01*
X370756Y243785D01*
X370805Y243772D01*
Y206280D01*
X359960D01*
Y186200D01*
X380040D01*
Y206280D01*
X378574D01*
Y243772D01*
X378623Y243785D01*
X380946Y245126D01*
X382844Y247023D01*
X384185Y249347D01*
X384880Y251939D01*
Y254622D01*
X384185Y257213D01*
X382844Y259537D01*
X380946Y261434D01*
X378623Y262776D01*
X376031Y263470D01*
D02*
G37*
G36*
X249031D02*
X246348D01*
X243756Y262776D01*
X241433Y261434D01*
X239536Y259537D01*
X238194Y257213D01*
X237500Y254622D01*
Y251939D01*
X238194Y249347D01*
X239536Y247023D01*
X241433Y245126D01*
X242260Y244648D01*
Y206007D01*
X240725Y205596D01*
X238435Y204274D01*
X236566Y202405D01*
X235244Y200115D01*
X234560Y197562D01*
Y194918D01*
X235244Y192365D01*
X236566Y190075D01*
X238435Y188206D01*
X240725Y186884D01*
X243278Y186200D01*
X245922D01*
X248475Y186884D01*
X250765Y188206D01*
X252634Y190075D01*
X253956Y192365D01*
X254640Y194918D01*
Y197562D01*
X253956Y200115D01*
X252634Y202405D01*
X250765Y204274D01*
X250029Y204698D01*
Y243358D01*
X251623Y243785D01*
X253946Y245126D01*
X255844Y247023D01*
X257185Y249347D01*
X257880Y251939D01*
Y254622D01*
X257185Y257213D01*
X255844Y259537D01*
X253946Y261434D01*
X251623Y262776D01*
X249031Y263470D01*
D02*
G37*
G36*
X223631D02*
X220948D01*
X218356Y262776D01*
X216033Y261434D01*
X214135Y259537D01*
X212794Y257213D01*
X212100Y254622D01*
Y251939D01*
X212794Y249347D01*
X214135Y247023D01*
X216033Y245126D01*
X216860Y244648D01*
Y206007D01*
X215325Y205596D01*
X213035Y204274D01*
X211166Y202405D01*
X209844Y200115D01*
X209160Y197562D01*
Y194918D01*
X209844Y192365D01*
X211166Y190075D01*
X213035Y188206D01*
X215325Y186884D01*
X217878Y186200D01*
X220522D01*
X223075Y186884D01*
X225365Y188206D01*
X227234Y190075D01*
X228556Y192365D01*
X229240Y194918D01*
Y197562D01*
X228556Y200115D01*
X227234Y202405D01*
X225365Y204274D01*
X224629Y204698D01*
Y243358D01*
X226223Y243785D01*
X228546Y245126D01*
X230444Y247023D01*
X231785Y249347D01*
X232480Y251939D01*
Y254622D01*
X231785Y257213D01*
X230444Y259537D01*
X228546Y261434D01*
X226223Y262776D01*
X223631Y263470D01*
D02*
G37*
G36*
X1409000Y211885D02*
X1401500D01*
X1400013Y211589D01*
X1398753Y210747D01*
X1381891Y193885D01*
X1366790D01*
Y201040D01*
X1358020D01*
Y191000D01*
X1356750D01*
Y189730D01*
X1346710D01*
Y180960D01*
X1352865D01*
Y171000D01*
X1353161Y169513D01*
X1354003Y168253D01*
X1360253Y162003D01*
X1361513Y161161D01*
X1363000Y160865D01*
X1374641D01*
X1401115Y134391D01*
Y92859D01*
X1386391Y78135D01*
X1333359D01*
X1322842Y88652D01*
X1323111Y89453D01*
X1323424Y89865D01*
X1325891D01*
X1327210Y88546D01*
Y87998D01*
X1327977Y86145D01*
X1329395Y84727D01*
X1330980Y84071D01*
Y89000D01*
X1332250D01*
Y90270D01*
X1337179D01*
X1336523Y91855D01*
X1335105Y93273D01*
X1333253Y94040D01*
X1332704D01*
X1330247Y96497D01*
X1328987Y97339D01*
X1327500Y97635D01*
X1324853D01*
X1323612Y98464D01*
X1322271Y98731D01*
X1322017Y99151D01*
X1321773Y100030D01*
X1325940Y104196D01*
X1327210Y103670D01*
Y102960D01*
X1333980D01*
Y108500D01*
Y114040D01*
X1327210D01*
Y112385D01*
X1324750D01*
X1323264Y112089D01*
X1322003Y111247D01*
X1314655Y103898D01*
X1313385Y104424D01*
Y135983D01*
X1313537Y136211D01*
X1313833Y137698D01*
X1313537Y139185D01*
X1312695Y140445D01*
X1296893Y156247D01*
X1295632Y157089D01*
X1294146Y157385D01*
X1292885D01*
Y172891D01*
X1307109Y187115D01*
X1322000D01*
X1323316Y184835D01*
X1325185Y182966D01*
X1327475Y181644D01*
X1330028Y180960D01*
X1332672D01*
X1335225Y181644D01*
X1337515Y182966D01*
X1339384Y184835D01*
X1340706Y187125D01*
X1341390Y189678D01*
Y192322D01*
X1340706Y194875D01*
X1339384Y197165D01*
X1337515Y199034D01*
X1335225Y200356D01*
X1332672Y201040D01*
X1330028D01*
X1327475Y200356D01*
X1325185Y199034D01*
X1323316Y197165D01*
X1322000Y194885D01*
X1305500D01*
X1304014Y194589D01*
X1302753Y193747D01*
X1286253Y177247D01*
X1285411Y175987D01*
X1285115Y174500D01*
Y155109D01*
X1282503Y152497D01*
X1281661Y151237D01*
X1281365Y149750D01*
Y141955D01*
X1276413D01*
X1275124Y141698D01*
X1274031Y140968D01*
X1273301Y139876D01*
X1273045Y138587D01*
Y129213D01*
X1273301Y127924D01*
X1274031Y126832D01*
X1275124Y126102D01*
X1276413Y125845D01*
X1292587D01*
X1293875Y126102D01*
X1294968Y126832D01*
X1295698Y127924D01*
X1295954Y129213D01*
Y138587D01*
X1295698Y139876D01*
X1294968Y140968D01*
X1293875Y141698D01*
X1292587Y141955D01*
X1289135D01*
Y148141D01*
X1290609Y149615D01*
X1292537D01*
X1305615Y136537D01*
Y87750D01*
X1305911Y86264D01*
X1306753Y85003D01*
X1326503Y65253D01*
X1327764Y64411D01*
X1329250Y64115D01*
X1414350D01*
X1415837Y64411D01*
X1417097Y65253D01*
X1423691Y71847D01*
X1433692D01*
X1434940Y72095D01*
X1435998Y72802D01*
X1436704Y73860D01*
X1436953Y75108D01*
Y83192D01*
X1436704Y84439D01*
X1435998Y85497D01*
X1434940Y86204D01*
X1433692Y86452D01*
X1417308D01*
X1416060Y86204D01*
X1415002Y85497D01*
X1414296Y84439D01*
X1414047Y83192D01*
Y75108D01*
X1414296Y73860D01*
X1414464Y73607D01*
X1412741Y71885D01*
X1392788D01*
X1392302Y73058D01*
X1407747Y88503D01*
X1408589Y89763D01*
X1408885Y91250D01*
Y136000D01*
X1408589Y137487D01*
X1407747Y138747D01*
X1378997Y167497D01*
X1377737Y168339D01*
X1376250Y168635D01*
X1364609D01*
X1360635Y172609D01*
Y180960D01*
X1366790D01*
Y186115D01*
X1383500D01*
X1384987Y186411D01*
X1386247Y187253D01*
X1403109Y204115D01*
X1407391D01*
X1411865Y199641D01*
Y188040D01*
X1405960D01*
Y181020D01*
X1415750D01*
X1425540D01*
Y188040D01*
X1419635D01*
Y200141D01*
X1421109Y201615D01*
X1471641D01*
X1476115Y197141D01*
Y187290D01*
X1470210D01*
Y180271D01*
X1480000D01*
X1489790D01*
Y187290D01*
X1483884D01*
Y198750D01*
X1483589Y200237D01*
X1482746Y201497D01*
X1475997Y208247D01*
X1474737Y209089D01*
X1473250Y209385D01*
X1419500D01*
X1418013Y209089D01*
X1416753Y208247D01*
X1415500Y206994D01*
X1411747Y210747D01*
X1410487Y211589D01*
X1409000Y211885D01*
D02*
G37*
G36*
X1425540Y178480D02*
X1417020D01*
Y171460D01*
X1425540D01*
Y178480D01*
D02*
G37*
G36*
X1414480D02*
X1405960D01*
Y171460D01*
X1414480D01*
Y178480D01*
D02*
G37*
G36*
X1489790Y177731D02*
X1481270D01*
Y170711D01*
X1489790D01*
Y177731D01*
D02*
G37*
G36*
X1478730D02*
X1470210D01*
Y170711D01*
X1478730D01*
Y177731D01*
D02*
G37*
G36*
X537280Y263470D02*
X516900D01*
Y243090D01*
X523205D01*
Y152949D01*
X518391Y148135D01*
X278609D01*
X273885Y152859D01*
Y186200D01*
X280040D01*
Y206280D01*
X259960D01*
Y186200D01*
X266115D01*
Y151250D01*
X266411Y149763D01*
X267253Y148503D01*
X274253Y141503D01*
X275513Y140661D01*
X277000Y140365D01*
X520000D01*
X521487Y140661D01*
X522747Y141503D01*
X529836Y148593D01*
X530678Y149853D01*
X530974Y151340D01*
Y243090D01*
X537280D01*
Y263470D01*
D02*
G37*
G36*
X1318253Y155790D02*
X1316248D01*
X1314395Y155023D01*
X1312977Y153605D01*
X1312210Y151753D01*
Y149747D01*
X1312977Y147895D01*
X1314395Y146477D01*
X1316248Y145710D01*
X1316796D01*
X1319865Y142641D01*
Y142609D01*
X1317003Y139747D01*
X1316161Y138487D01*
X1315865Y137000D01*
Y129750D01*
X1316161Y128263D01*
X1316301Y128054D01*
X1316411Y127502D01*
X1317253Y126241D01*
X1318741Y124754D01*
X1320001Y123911D01*
X1321488Y123616D01*
X1327210D01*
Y121960D01*
X1343290D01*
Y133040D01*
X1327210D01*
Y131385D01*
X1323635D01*
Y135391D01*
X1326497Y138253D01*
X1327339Y139513D01*
X1327635Y141000D01*
Y144250D01*
X1327339Y145737D01*
X1326497Y146997D01*
X1322290Y151204D01*
Y151753D01*
X1321523Y153605D01*
X1320105Y155023D01*
X1318253Y155790D01*
D02*
G37*
G36*
X1343290Y114040D02*
X1336520D01*
Y109770D01*
X1343290D01*
Y114040D01*
D02*
G37*
G36*
Y107230D02*
X1336520D01*
Y102960D01*
X1343290D01*
Y107230D01*
D02*
G37*
G36*
X1304753Y169540D02*
X1302747D01*
X1300895Y168773D01*
X1299477Y167355D01*
X1298710Y165502D01*
Y163498D01*
X1299477Y161645D01*
X1300895Y160227D01*
X1302747Y159460D01*
X1304753D01*
X1306335Y160115D01*
X1330891D01*
X1343003Y148003D01*
X1344263Y147161D01*
X1344990Y147017D01*
X1357366Y134641D01*
Y133040D01*
X1353210D01*
Y121960D01*
Y112460D01*
Y102960D01*
X1369290D01*
Y104615D01*
X1374641D01*
X1376253Y103003D01*
X1377513Y102161D01*
X1379000Y101865D01*
X1388257D01*
X1388645Y101477D01*
X1390497Y100710D01*
X1392502D01*
X1394355Y101477D01*
X1395773Y102895D01*
X1396540Y104747D01*
Y106753D01*
X1395773Y108605D01*
X1395385Y108993D01*
Y119750D01*
X1395089Y121237D01*
X1394247Y122497D01*
X1386496Y130247D01*
X1385236Y131089D01*
X1383750Y131385D01*
X1369290D01*
Y133040D01*
X1365135D01*
Y136250D01*
X1364839Y137736D01*
X1363997Y138996D01*
X1349497Y153497D01*
X1348237Y154339D01*
X1347510Y154483D01*
X1335247Y166747D01*
X1333987Y167589D01*
X1332500Y167885D01*
X1307493D01*
X1306605Y168773D01*
X1304753Y169540D01*
D02*
G37*
G36*
X970978Y148750D02*
X966643D01*
X962361Y148072D01*
X958239Y146732D01*
X954376Y144764D01*
X950869Y142216D01*
X947804Y139151D01*
X945256Y135644D01*
X943288Y131782D01*
X941948Y127659D01*
X941270Y123377D01*
Y119042D01*
X941948Y114761D01*
X943288Y110638D01*
X945256Y106776D01*
X947804Y103269D01*
X950869Y100204D01*
X954376Y97655D01*
X958239Y95688D01*
X962361Y94348D01*
X966643Y93670D01*
X970978D01*
X975259Y94348D01*
X979382Y95688D01*
X983244Y97655D01*
X986751Y100204D01*
X989817Y103269D01*
X992365Y106776D01*
X994333Y110638D01*
X995672Y114761D01*
X996350Y119042D01*
Y123377D01*
X995672Y127659D01*
X994333Y131782D01*
X992365Y135644D01*
X989817Y139151D01*
X986751Y142216D01*
X983244Y144764D01*
X979382Y146732D01*
X975259Y148072D01*
X970978Y148750D01*
D02*
G37*
G36*
X60978D02*
X56643D01*
X52361Y148072D01*
X48238Y146732D01*
X44376Y144764D01*
X40869Y142216D01*
X37804Y139151D01*
X35256Y135644D01*
X33288Y131782D01*
X31948Y127659D01*
X31270Y123377D01*
Y119042D01*
X31948Y114761D01*
X33288Y110638D01*
X35256Y106776D01*
X37804Y103269D01*
X40869Y100204D01*
X44376Y97655D01*
X48238Y95688D01*
X52361Y94348D01*
X56643Y93670D01*
X60978D01*
X65259Y94348D01*
X69382Y95688D01*
X73244Y97655D01*
X76751Y100204D01*
X79816Y103269D01*
X82364Y106776D01*
X84332Y110638D01*
X85672Y114761D01*
X86350Y119042D01*
Y123377D01*
X85672Y127659D01*
X84332Y131782D01*
X82364Y135644D01*
X79816Y139151D01*
X76751Y142216D01*
X73244Y144764D01*
X69382Y146732D01*
X65259Y148072D01*
X60978Y148750D01*
D02*
G37*
G36*
X1337179Y87730D02*
X1333520D01*
Y84071D01*
X1335105Y84727D01*
X1336523Y86145D01*
X1337179Y87730D01*
D02*
G37*
G36*
X1116330Y178580D02*
X1091250D01*
Y133500D01*
X1112144D01*
X1112520Y133425D01*
X1155081D01*
X1170253Y118253D01*
X1171513Y117411D01*
X1173000Y117115D01*
X1232891D01*
X1268753Y81253D01*
X1270013Y80411D01*
X1271500Y80115D01*
X1285750D01*
X1287237Y80411D01*
X1288497Y81253D01*
X1290609Y83365D01*
X1294757D01*
X1295145Y82977D01*
X1296998Y82210D01*
X1299003D01*
X1300855Y82977D01*
X1302273Y84395D01*
X1303040Y86248D01*
Y88252D01*
X1302273Y90105D01*
X1300855Y91523D01*
X1299003Y92290D01*
X1296998D01*
X1295145Y91523D01*
X1294757Y91135D01*
X1291609D01*
X1288384Y94359D01*
Y96547D01*
X1292692D01*
X1293940Y96795D01*
X1294997Y97502D01*
X1295704Y98560D01*
X1295952Y99808D01*
Y107892D01*
X1295704Y109140D01*
X1294997Y110197D01*
X1293940Y110904D01*
X1292692Y111152D01*
X1276308D01*
X1275060Y110904D01*
X1274002Y110197D01*
X1273295Y109140D01*
X1273047Y107892D01*
Y99808D01*
X1273295Y98560D01*
X1274002Y97502D01*
X1275060Y96795D01*
X1276308Y96547D01*
X1280615D01*
Y92750D01*
X1280911Y91264D01*
X1281753Y90003D01*
X1282698Y89058D01*
X1282212Y87885D01*
X1273109D01*
X1237247Y123747D01*
X1235987Y124589D01*
X1234500Y124885D01*
X1174609D01*
X1159437Y140057D01*
X1158177Y140899D01*
X1156690Y141195D01*
X1116330D01*
Y178580D01*
D02*
G37*
G36*
X1552722Y83790D02*
X1550079D01*
X1547525Y83106D01*
X1545236Y81784D01*
X1543366Y79915D01*
X1542045Y77626D01*
X1541360Y75072D01*
Y72428D01*
X1542045Y69875D01*
X1543366Y67586D01*
X1545236Y65716D01*
X1547525Y64394D01*
X1550079Y63710D01*
X1552722D01*
X1555276Y64394D01*
X1557565Y65716D01*
X1559434Y67586D01*
X1560756Y69875D01*
X1561440Y72428D01*
Y75072D01*
X1560756Y77626D01*
X1559434Y79915D01*
X1557565Y81784D01*
X1555276Y83106D01*
X1552722Y83790D01*
D02*
G37*
G36*
X1338222Y57540D02*
X1338170D01*
Y48770D01*
X1346940D01*
Y48822D01*
X1346256Y51375D01*
X1344934Y53665D01*
X1343065Y55534D01*
X1340775Y56856D01*
X1338222Y57540D01*
D02*
G37*
G36*
X1335630D02*
X1335578D01*
X1333025Y56856D01*
X1330735Y55534D01*
X1328866Y53665D01*
X1327544Y51375D01*
X1326860Y48822D01*
Y48770D01*
X1335630D01*
Y57540D01*
D02*
G37*
G36*
X1226330Y107580D02*
X1201250D01*
Y88925D01*
X1193040D01*
X1191553Y88629D01*
X1190293Y87787D01*
X1149891Y47385D01*
X1146750D01*
X1145263Y47089D01*
X1144584Y46635D01*
X1107859D01*
X1107675Y46819D01*
Y62500D01*
X1116330D01*
Y107580D01*
X1091250D01*
Y62500D01*
X1099905D01*
Y45210D01*
X1100201Y43724D01*
X1101043Y42463D01*
X1103503Y40003D01*
X1104763Y39161D01*
X1106250Y38865D01*
X1146000D01*
X1147487Y39161D01*
X1148167Y39615D01*
X1151500D01*
X1152987Y39911D01*
X1154247Y40753D01*
X1194649Y81155D01*
X1201250D01*
Y62500D01*
X1209905D01*
Y57710D01*
X1210201Y56224D01*
X1211043Y54963D01*
X1221253Y44753D01*
X1222513Y43911D01*
X1224000Y43615D01*
X1301460D01*
Y37460D01*
X1321540D01*
Y57540D01*
X1301460D01*
Y51385D01*
X1225609D01*
X1217674Y59319D01*
Y62500D01*
X1226330D01*
Y107580D01*
D02*
G37*
G36*
X1552722Y58390D02*
X1550079D01*
X1547525Y57706D01*
X1545236Y56384D01*
X1543366Y54515D01*
X1542045Y52226D01*
X1541360Y49672D01*
Y47028D01*
X1542045Y44475D01*
X1543366Y42186D01*
X1545236Y40316D01*
X1547525Y38995D01*
X1550079Y38310D01*
X1552722D01*
X1555276Y38995D01*
X1557565Y40316D01*
X1559434Y42186D01*
X1560756Y44475D01*
X1561440Y47028D01*
Y49672D01*
X1560756Y52226D01*
X1559434Y54515D01*
X1557565Y56384D01*
X1555276Y57706D01*
X1552722Y58390D01*
D02*
G37*
G36*
X1363622Y57540D02*
X1360978D01*
X1358425Y56856D01*
X1356135Y55534D01*
X1354266Y53665D01*
X1352944Y51375D01*
X1352260Y48822D01*
Y46178D01*
X1352944Y43625D01*
X1354266Y41335D01*
X1356135Y39466D01*
X1358425Y38144D01*
X1360978Y37460D01*
X1363622D01*
X1366175Y38144D01*
X1368465Y39466D01*
X1370334Y41335D01*
X1371656Y43625D01*
X1372340Y46178D01*
Y48822D01*
X1371656Y51375D01*
X1370334Y53665D01*
X1368465Y55534D01*
X1366175Y56856D01*
X1363622Y57540D01*
D02*
G37*
G36*
X1346940Y46230D02*
X1338170D01*
Y37460D01*
X1338222D01*
X1340775Y38144D01*
X1343065Y39466D01*
X1344934Y41335D01*
X1346256Y43625D01*
X1346940Y46178D01*
Y46230D01*
D02*
G37*
G36*
X1335630D02*
X1326860D01*
Y46178D01*
X1327544Y43625D01*
X1328866Y41335D01*
X1330735Y39466D01*
X1333025Y38144D01*
X1335578Y37460D01*
X1335630D01*
Y46230D01*
D02*
G37*
G36*
X1960918Y69790D02*
X1956582D01*
X1952301Y69112D01*
X1948178Y67772D01*
X1944316Y65804D01*
X1940809Y63256D01*
X1937744Y60191D01*
X1935196Y56684D01*
X1933228Y52822D01*
X1931888Y48699D01*
X1931210Y44418D01*
Y40083D01*
X1931888Y35801D01*
X1933228Y31678D01*
X1935196Y27816D01*
X1937744Y24309D01*
X1940809Y21244D01*
X1944316Y18696D01*
X1948178Y16728D01*
X1952301Y15388D01*
X1956582Y14710D01*
X1960918D01*
X1965199Y15388D01*
X1969322Y16728D01*
X1973184Y18696D01*
X1976691Y21244D01*
X1979756Y24309D01*
X1982304Y27816D01*
X1984272Y31678D01*
X1985612Y35801D01*
X1986290Y40083D01*
Y44418D01*
X1985612Y48699D01*
X1984272Y52822D01*
X1982304Y56684D01*
X1979756Y60191D01*
X1976691Y63256D01*
X1973184Y65804D01*
X1969322Y67772D01*
X1965199Y69112D01*
X1960918Y69790D01*
D02*
G37*
%LPD*%
G36*
X118258Y228752D02*
X113141Y223635D01*
X64479D01*
X59458Y228655D01*
X59985Y229925D01*
X117772D01*
X118258Y228752D01*
D02*
G37*
D14*
X9750Y219750D02*
Y667000D01*
X81500Y738750D02*
X366500D01*
X9750Y667000D02*
X81500Y738750D01*
X9750Y219750D02*
X20690Y208810D01*
X1949071Y589648D02*
Y590313D01*
X1947841Y591543D02*
Y591834D01*
X1938040Y591589D02*
X1942011Y595560D01*
X1927409Y591589D02*
X1938040D01*
X1953029Y596221D02*
X1953500Y595750D01*
X1946186Y600560D02*
X1950526Y596221D01*
X1935969Y596589D02*
X1939940Y600560D01*
X1946186D01*
X1927409Y596589D02*
X1935969D01*
X1947841Y591543D02*
X1949071Y590313D01*
X1942011Y595560D02*
X1944115D01*
X1950526Y596221D02*
X1953029D01*
X1944115Y595560D02*
X1947841Y591834D01*
X1950550Y559800D02*
Y567550D01*
X1941000Y550250D02*
X1950550Y559800D01*
X1929250Y550250D02*
X1941000D01*
X1919667Y554740D02*
X1924760D01*
X1929250Y550250D01*
X1919357Y636250D02*
X1919667Y635941D01*
X1894988Y636250D02*
X1919357D01*
X1893500Y630000D02*
Y634762D01*
X1894988Y636250D01*
X1893500Y630000D02*
X1899411Y624089D01*
X1913409D01*
X23250Y391750D02*
X29250Y397750D01*
X30000D01*
X23250Y373250D02*
Y391750D01*
Y373250D02*
X37380Y359120D01*
X48500D02*
X48810Y358810D01*
X37380Y359120D02*
X48500D01*
X1366100Y763950D02*
X1378450D01*
X1390500Y776000D01*
Y783750D01*
X1399000Y792250D01*
X1490500D01*
X1497000Y785750D02*
X1777250D01*
X1490500Y792250D02*
X1497000Y785750D01*
X1777250D02*
X1788000Y775000D01*
X1788500D01*
X1059290Y316040D02*
X1093790D01*
X998500Y255250D02*
X1059290Y316040D01*
X1093790Y213710D02*
Y235040D01*
X1041060Y226310D02*
X1085060D01*
X1093790Y235040D02*
Y245040D01*
X1085060Y226310D02*
X1093790Y235040D01*
X1036750Y222000D02*
X1041060Y226310D01*
X956500Y222000D02*
X1036750D01*
X641750Y292250D02*
X886250D01*
X956500Y222000D01*
X640250Y290750D02*
X641750Y292250D01*
X440750Y290750D02*
X640250D01*
X363000Y278750D02*
X428750D01*
X440750Y290750D01*
X356250Y272000D02*
X363000Y278750D01*
X171490Y253280D02*
X190209Y272000D01*
X356250D01*
X197250Y409000D02*
X197500Y409250D01*
X48810Y408810D02*
X58250Y418250D01*
X281000D02*
X286000Y413250D01*
X58250Y418250D02*
X281000D01*
X197250Y390250D02*
Y409000D01*
X393000Y765250D02*
X477750D01*
X366500Y738750D02*
X393000Y765250D01*
X20690Y208810D02*
X48810D01*
X45000Y205750D02*
X45750D01*
X48810Y208810D01*
X16000Y272500D02*
Y398750D01*
Y272500D02*
X29690Y258810D01*
X16000Y398750D02*
X26250Y409000D01*
X48620D02*
X48810Y408810D01*
X26250Y409000D02*
X48620D01*
X29690Y258810D02*
X48810D01*
X477500Y513000D02*
Y532070D01*
X476290Y533280D02*
X477500Y532070D01*
X472250Y507750D02*
X477500Y513000D01*
X472250Y473250D02*
Y507750D01*
X402250Y394750D02*
X448500D01*
X455750Y402000D01*
X385250Y377750D02*
X402250Y394750D01*
X331250Y377750D02*
X385250D01*
X271500Y318000D02*
X331250Y377750D01*
X340750Y340250D02*
Y366750D01*
X287000Y286500D02*
X340750Y340250D01*
X135250Y318000D02*
X271500D01*
X118500Y301250D02*
X135250Y318000D01*
X48810Y283810D02*
X66250Y301250D01*
X118500D01*
X377802Y323198D02*
Y325302D01*
X378250Y325750D01*
X377802Y323198D02*
X395790Y305210D01*
X968810D01*
X48810Y233810D02*
X62870Y219750D01*
X114750D01*
X174250Y279250D01*
X297000D01*
X358250Y340500D01*
X871750D01*
X895000Y317250D01*
X955450D02*
X968810Y330610D01*
X895000Y317250D02*
X955450D01*
X360240Y356010D02*
X968810D01*
X357500Y358750D02*
X360240Y356010D01*
X726000Y458250D02*
Y520500D01*
Y458250D02*
X778250Y406000D01*
X944220D01*
X968810Y381410D01*
X929750Y470250D02*
X931500Y468500D01*
Y439250D02*
Y468500D01*
X889560Y703810D02*
X963410D01*
X624500Y438750D02*
X889560Y703810D01*
X564250Y438750D02*
X624500D01*
X369750Y416000D02*
X541500D01*
X347000Y393250D02*
X369750Y416000D01*
X541500D02*
X564250Y438750D01*
X332826Y393250D02*
X347000D01*
X322190Y382614D02*
X332826Y393250D01*
X277810Y333810D02*
X322190Y378190D01*
Y382614D01*
X48810Y333810D02*
X277810D01*
X174204Y286942D02*
X176308D01*
X121072Y233810D02*
X174204Y286942D01*
X176308D02*
X176750Y286500D01*
X48810Y233810D02*
X121072D01*
X176750Y286500D02*
X287000D01*
X324250Y472250D02*
X324448Y472448D01*
X324250Y474750D02*
X324448Y474552D01*
Y472448D02*
Y474552D01*
X324250Y474750D02*
Y491750D01*
X323890Y492110D02*
X324250Y491750D01*
X323890Y492110D02*
Y533280D01*
X349645Y475355D02*
Y532925D01*
X349290Y533280D02*
X349645Y532925D01*
Y475355D02*
X350000Y475000D01*
X311060Y383810D02*
X347500Y420250D01*
X48810Y383810D02*
X311060D01*
X298490Y518740D02*
Y533280D01*
X289750Y510000D02*
X298490Y518740D01*
X289750Y474750D02*
Y510000D01*
X450890Y510821D02*
Y533280D01*
Y510821D02*
X450948Y510763D01*
X390560Y433810D02*
X450948Y494198D01*
Y510763D01*
X48810Y433810D02*
X390560D01*
X425490Y508490D02*
Y533280D01*
X375810Y458810D02*
X425490Y508490D01*
X48810Y458810D02*
X375810D01*
X48810Y483810D02*
X223619D01*
X273090Y533280D01*
X221010Y534560D02*
X222290Y533280D01*
X221010Y534560D02*
Y544740D01*
X197000Y568750D02*
X221010Y544740D01*
X167250Y568750D02*
X197000D01*
X164600Y571400D02*
X167250Y568750D01*
X164600Y571400D02*
Y596240D01*
X261399Y596240D02*
Y626613D01*
X258762Y629250D02*
X261399Y626613D01*
X205250Y629250D02*
X258762D01*
X190000Y614000D02*
X205250Y629250D01*
X190000Y596240D02*
Y614000D01*
X490000Y585500D02*
X527090Y548410D01*
Y533280D02*
Y548410D01*
X490000Y585500D02*
Y596240D01*
X466984Y585266D02*
X501690Y550560D01*
Y533280D02*
Y550560D01*
X466984Y585266D02*
Y593856D01*
X464599Y596240D02*
X466984Y593856D01*
X462000Y547570D02*
X476290Y533280D01*
X439199Y596240D02*
X462000Y573440D01*
Y547570D02*
Y573440D01*
X450890Y533280D02*
Y546110D01*
X413800Y583200D02*
X450890Y546110D01*
X413800Y583200D02*
Y596240D01*
X425000Y533770D02*
Y547750D01*
Y533770D02*
X425490Y533280D01*
X388400Y584351D02*
Y596240D01*
Y584351D02*
X425000Y547750D01*
X349290Y533280D02*
Y582530D01*
X362999Y596240D01*
X323890Y533280D02*
Y551640D01*
X337599Y565350D01*
Y596240D01*
X297750Y534020D02*
X298490Y533280D01*
X297750Y534020D02*
Y548750D01*
X312199Y563200D01*
Y596240D01*
X273090Y533280D02*
Y563090D01*
X286800Y576800D02*
Y596240D01*
X273090Y563090D02*
X286800Y576800D01*
X261399Y546990D02*
Y596240D01*
X247690Y533280D02*
X261399Y546990D01*
X222290Y533280D02*
Y582530D01*
X236000Y596240D01*
X270000Y151250D02*
X277000Y144250D01*
X270000Y151250D02*
Y196240D01*
X277000Y144250D02*
X520000D01*
X527090Y151340D02*
Y253280D01*
X520000Y144250D02*
X527090Y151340D01*
X219200Y196240D02*
X220745Y197785D01*
Y251735D01*
X222290Y253280D01*
X246145Y251735D02*
X247690Y253280D01*
X244600Y196240D02*
X246145Y197785D01*
Y251735D01*
X501690Y249827D02*
Y253280D01*
X497000Y196240D02*
Y245138D01*
X501690Y249827D01*
X471600Y245138D02*
X476290Y249827D01*
X471600Y196240D02*
Y245138D01*
X476290Y249827D02*
Y253280D01*
X450890Y249827D02*
Y253280D01*
X446200Y196240D02*
Y245138D01*
X450890Y249827D01*
X425490D02*
Y253280D01*
X420800Y196240D02*
Y245138D01*
X425490Y249827D01*
X400090D02*
Y253280D01*
X395400Y196240D02*
Y245138D01*
X400090Y249827D01*
X370000Y196240D02*
X374690Y200930D01*
Y253280D01*
X1043250Y254750D02*
X1052960Y245040D01*
X1093790D01*
X1043250Y254750D02*
Y259000D01*
X1035250Y267000D02*
X1043250Y259000D01*
X1032750Y367000D02*
X1033500Y366250D01*
X1031500Y367000D02*
X1032750D01*
X1026750Y371750D02*
X1031500Y367000D01*
X1026750Y371750D02*
Y504000D01*
X1030613Y507863D02*
Y509967D01*
X1026750Y504000D02*
X1030613Y507863D01*
X1030092Y510488D02*
X1030613Y509967D01*
X1030092Y512592D02*
X1036750Y519250D01*
X1030092Y510488D02*
Y512592D01*
X1018000Y507250D02*
Y549500D01*
X1013500Y554000D02*
X1018000Y549500D01*
X1036750Y519250D02*
Y543500D01*
X1033250Y547000D02*
X1036750Y543500D01*
X1021500Y559000D02*
Y763500D01*
X1033250Y547000D02*
Y547250D01*
X1021500Y559000D02*
X1033250Y547250D01*
X1081177Y503073D02*
Y505177D01*
X1081500Y505500D01*
X1081177Y503073D02*
X1090698Y493552D01*
X1088000Y488750D02*
X1090698Y491448D01*
Y493552D01*
X1088000Y400500D02*
Y488750D01*
X1098000Y389238D02*
X1099488Y387750D01*
X1098000Y389238D02*
Y390500D01*
X1099488Y387750D02*
X1151750D01*
X1088000Y400500D02*
X1098000Y390500D01*
X1176750Y412750D02*
Y436000D01*
X1151750Y387750D02*
X1176750Y412750D01*
Y436000D02*
X1185250Y444500D01*
X1313750D01*
X1319600Y450350D01*
Y469600D01*
X1186750Y432500D02*
X1191988Y437738D01*
X1153750Y379250D02*
X1186750Y412250D01*
Y432500D01*
X1191988Y437738D02*
X1394312D01*
X1395800Y439226D02*
Y469600D01*
X1394312Y437738D02*
X1395800Y439226D01*
X1082000Y395750D02*
X1098500Y379250D01*
X1153750D01*
X1082000Y395750D02*
Y489000D01*
X1058000Y513000D02*
X1082000Y489000D01*
X1403750Y430500D02*
X1421200Y447950D01*
X1192250Y408500D02*
Y429012D01*
X1193738Y430500D01*
X1403750D01*
X1156500Y372750D02*
X1192250Y408500D01*
X1081000Y372750D02*
X1156500D01*
X1073250Y380500D02*
X1081000Y372750D01*
X1159250Y367250D02*
X1203750Y411750D01*
X1055500Y383500D02*
X1071750Y367250D01*
X1159250D01*
X1073250Y380500D02*
Y479250D01*
X1050000Y502500D02*
X1073250Y479250D01*
X1203750Y411750D02*
Y418500D01*
X1055500Y383500D02*
Y457500D01*
X1499250Y424500D02*
X1507500Y432750D01*
X1163000Y362000D02*
X1225500Y424500D01*
X1499250D01*
X1068000Y362000D02*
X1163000D01*
X1041000Y389000D02*
X1068000Y362000D01*
X1166500Y356250D02*
X1229000Y418750D01*
X968810Y381410D02*
X993970Y356250D01*
X1166500D01*
X1041000Y389000D02*
Y599000D01*
X1229000Y418750D02*
X1502424D01*
X1514500Y430826D01*
X1170000Y350500D02*
X1232750Y413250D01*
X1522500Y414738D02*
Y480500D01*
X1232750Y413250D02*
X1521012D01*
X1522500Y414738D01*
X976648Y350500D02*
X1170000D01*
X971138Y356010D02*
X976648Y350500D01*
X968810Y356010D02*
X971138D01*
X1018500Y345250D02*
X1173250D01*
X978752Y305502D02*
X1018500Y345250D01*
X1173250D02*
X1235500Y407500D01*
X1056250Y562310D02*
Y590000D01*
Y562310D02*
X1058000Y560560D01*
Y513000D02*
Y560560D01*
X1050000Y502500D02*
Y543250D01*
X1041000Y599000D02*
X1058450Y616450D01*
X1071749Y704250D02*
X1083350Y692650D01*
X1058250Y704250D02*
X1071749D01*
X1037750Y724750D02*
X1058250Y704250D01*
X1037750Y724750D02*
Y781750D01*
X1048000Y792000D01*
X1091250D01*
X1111400Y771850D02*
X1129600D01*
X1091250Y792000D02*
X1111400Y771850D01*
X388400Y596240D02*
Y659399D01*
X401750Y672750D02*
Y715750D01*
X388400Y659399D02*
X401750Y672750D01*
X421000Y735000D02*
X581500D01*
X401750Y715750D02*
X421000Y735000D01*
X1055500Y457500D02*
X1064000Y466000D01*
X1166810Y473472D02*
Y474810D01*
X1147000Y416250D02*
X1162000Y431250D01*
Y468662D02*
X1166810Y473472D01*
Y474810D02*
X1250100Y558100D01*
X1162000Y431250D02*
Y468662D01*
X1129600Y416250D02*
X1147000D01*
X476250Y719000D02*
X517250D01*
X413800Y656550D02*
X476250Y719000D01*
X517250D02*
X528250Y708000D01*
X413800Y596240D02*
Y656550D01*
X528250Y708000D02*
X557500D01*
X1421200Y447950D02*
Y469600D01*
X464599Y596240D02*
Y623349D01*
X492250Y651000D02*
Y702000D01*
X464599Y623349D02*
X492250Y651000D01*
X968810Y305210D02*
X969103Y305502D01*
X978752D01*
X1449250Y497000D02*
X1449500D01*
X1490012Y482500D02*
X1491500Y481012D01*
X1464000Y482500D02*
X1490012D01*
X1449500Y497000D02*
X1464000Y482500D01*
X1491500Y472000D02*
Y481012D01*
Y472000D02*
X1514500Y449000D01*
Y430826D02*
Y449000D01*
X1472000Y568500D02*
X1539000Y501500D01*
Y415750D02*
Y501500D01*
X1491750Y511250D02*
X1522500Y480500D01*
X1454850Y518900D02*
X1462500Y511250D01*
X1454850Y518900D02*
Y543100D01*
X1462500Y511250D02*
X1491750D01*
X993460Y703810D02*
X1006440D01*
X1013500Y696750D01*
X929750Y470250D02*
X1013500Y554000D01*
Y696750D01*
X929750Y336000D02*
X935140Y330610D01*
X968810D01*
X1235500Y407500D02*
X1530750D01*
X1539000Y415750D01*
X1454850Y568500D02*
X1472000D01*
X1641310Y486060D02*
X1668440D01*
X1674250Y480250D01*
X1632250Y477000D02*
X1641310Y486060D01*
X1671000Y497750D02*
X1829250D01*
X1493750Y675000D02*
Y719412D01*
Y675000D02*
X1671000Y497750D01*
X1690000Y506500D02*
X1825500D01*
X1520000Y676500D02*
Y690750D01*
Y676500D02*
X1690000Y506500D01*
X1574250Y477000D02*
X1632250D01*
X1560750Y463500D02*
X1574250Y477000D01*
X1466000Y325250D02*
X1560750Y420000D01*
Y463500D01*
X1435900Y325250D02*
X1466000D01*
X1364250Y359000D02*
X1377250Y372000D01*
X1455500D01*
X1803427Y379177D02*
X1829501Y405251D01*
X1847499D01*
X1901250Y566250D02*
X1904091Y569091D01*
X1913409D02*
X1913639Y568861D01*
X1904091Y569091D02*
X1913409D01*
X1901250Y548750D02*
Y566250D01*
Y548750D02*
X1904750Y545250D01*
Y462250D02*
Y545250D01*
X1888750Y446250D02*
X1904750Y462250D01*
X1824250Y446250D02*
X1888750D01*
X1813500Y457000D02*
X1824250Y446250D01*
X1829250Y497750D02*
X1851500Y520000D01*
X1825500Y506500D02*
X1841000Y522000D01*
X1804250Y517000D02*
X1814250D01*
X1822010Y524761D01*
X1922000Y523750D02*
X1928000Y529750D01*
X1860750Y503000D02*
Y552250D01*
X1822010Y524761D02*
Y532602D01*
X1928000Y529750D02*
X1954000D01*
X1924750D02*
X1928000D01*
X1841000Y522000D02*
Y542500D01*
X1919667Y534833D02*
X1924750Y529750D01*
X1954000D02*
X1965169Y540919D01*
X1851500Y520000D02*
Y551250D01*
X1896500Y495751D02*
Y581750D01*
X1782500Y219250D02*
X1893250D01*
X1918250Y244250D01*
Y263350D01*
X1918850Y262750D02*
X1973000D01*
X1918250Y263350D02*
X1918850Y262750D01*
X1973000D02*
X1978000Y267750D01*
Y336000D01*
X1824685Y308150D02*
X1827250D01*
X1819055Y313780D02*
X1824685Y308150D01*
X1819055Y313780D02*
Y321945D01*
X1775750Y365250D02*
X1819055Y321945D01*
X1933230Y380770D02*
X1978000Y336000D01*
X1933230Y380770D02*
Y382270D01*
X1928750Y386750D02*
X1933230Y382270D01*
X1927250Y386750D02*
X1928750D01*
X1955262D01*
X1956750Y388238D01*
X1877500Y404750D02*
X1927250D01*
X1877000Y405251D02*
X1877500Y404750D01*
X1847499Y405251D02*
X1877000D01*
X1799000Y399500D02*
Y413750D01*
X1956750Y388238D02*
Y455000D01*
X1796000Y456750D02*
X1847499Y405251D01*
X1813500Y457000D02*
X1820000Y463500D01*
Y478750D01*
X1922000Y489750D02*
X1956750Y455000D01*
X1743250Y478750D02*
X1820000D01*
X1838000D02*
Y480250D01*
X1877000Y476251D02*
X1896500Y495751D01*
X1838000Y480250D02*
X1860750Y503000D01*
X1922000Y489750D02*
Y523750D01*
X1752052Y545302D02*
X1767010D01*
X1748250Y553750D02*
X1752502Y558002D01*
X1767010D01*
X1708912Y560034D02*
X1725034D01*
X1743500Y563750D02*
X1750452Y570702D01*
X1767010D01*
X1725034Y560034D02*
X1748402Y583402D01*
X1767010D01*
X1708912Y585434D02*
X1728934D01*
X1739602Y596102D01*
X1767010D01*
X1838198Y545302D02*
X1841000Y542500D01*
X1822010Y545302D02*
X1838198D01*
X1844748Y558002D02*
X1851500Y551250D01*
X1822010Y558002D02*
X1844748D01*
X1842750Y570000D02*
X1843000D01*
X1841750Y571000D02*
X1842750Y570000D01*
X1822010Y570702D02*
X1822309Y571000D01*
X1841750D01*
X1822010Y583402D02*
X1825461D01*
X1827290Y585232D01*
Y585724D01*
X1828778Y587212D01*
X1848011D01*
X1850551Y589752D01*
X1828778Y592292D02*
X1845907D01*
X1827290Y593779D02*
X1828778Y592292D01*
X1845907D02*
X1848447Y594832D01*
X1827290Y593779D02*
Y594272D01*
X1825461Y596102D02*
X1827290Y594272D01*
X1822010Y596102D02*
X1825461D01*
X1822562Y608250D02*
X1838000D01*
X1822010Y608802D02*
X1822562Y608250D01*
X1736948Y608802D02*
X1767010D01*
X1734000Y611750D02*
X1736948Y608802D01*
X1708912Y610834D02*
X1709828Y611750D01*
X1734000D01*
X1743998Y621502D02*
X1767010D01*
X1729266Y636234D02*
X1743998Y621502D01*
X1708912Y636234D02*
X1729266D01*
X1838000Y608250D02*
X1849500Y619750D01*
X1822010Y621502D02*
X1833513D01*
X1835750Y623738D01*
Y647750D01*
X1832250Y651250D02*
X1835750Y647750D01*
X1824100Y651250D02*
X1832250D01*
X1788850Y686500D02*
X1824100Y651250D01*
X1837650Y686500D02*
X1849500Y674650D01*
X1837650Y686500D02*
Y704650D01*
X1846250Y713250D01*
X1788850Y686500D02*
Y735150D01*
X1846250Y713250D02*
Y732500D01*
X1845000Y733750D02*
X1846250Y732500D01*
X1788750Y735250D02*
X1788850Y735150D01*
X1788500Y753500D02*
X1788750Y753251D01*
X1845000Y751750D02*
Y775000D01*
X1788500Y753500D02*
Y775000D01*
X1794250Y780750D01*
X1839250D02*
X1845000Y775000D01*
X1794250Y780750D02*
X1839250D01*
X1919667Y534833D02*
Y554740D01*
X1843000Y570000D02*
X1860750Y552250D01*
X1913639Y568861D02*
X1918889D01*
X1865580Y585484D02*
X1871472Y579592D01*
X1877364Y585484D01*
X1896500Y581750D02*
X1898840Y584090D01*
X1913639Y583861D02*
X1919627D01*
X1913409Y584090D02*
X1913639Y583861D01*
X1898840Y584090D02*
X1913409D01*
X1877364Y585484D02*
Y588264D01*
X1865580Y585484D02*
Y588264D01*
X1877364D02*
X1878852Y589752D01*
X1864092D02*
X1865580Y588264D01*
X1850551Y589752D02*
X1864092D01*
X1878852D02*
X1889876D01*
X1894133Y594009D01*
X1913329D01*
X1913409Y594089D01*
X1848447Y594832D02*
X1867741D01*
X1875202D02*
X1887772D01*
X1873714Y596320D02*
X1875202Y594832D01*
X1867741D02*
X1869229Y596320D01*
X1887772Y594832D02*
X1892029Y599089D01*
X1965169Y540919D02*
Y552140D01*
X1927409Y566590D02*
X1930445D01*
X1927249Y566750D02*
X1927409Y566590D01*
X1921000Y566750D02*
X1927249D01*
X1930445Y566590D02*
X1931405Y567550D01*
X1950550D01*
X1918889Y568861D02*
X1921000Y566750D01*
X1950550Y567550D02*
X1970000Y587000D01*
X1927409Y581590D02*
X1955590D01*
X1927248Y581750D02*
X1927409Y581590D01*
X1921738Y581750D02*
X1927248D01*
X1919627Y583861D02*
X1921738Y581750D01*
X1955590Y581590D02*
X1961500Y587500D01*
Y601000D01*
X1970000Y587000D02*
Y602250D01*
X1892029Y599089D02*
X1913409D01*
X1869229Y596320D02*
Y602749D01*
X1873714Y596320D02*
Y602749D01*
X1869229D02*
X1871472Y604992D01*
X1873714Y602749D01*
X1920521Y606820D02*
X1927179D01*
X1918995Y608346D02*
X1920521Y606820D01*
X1918481Y608860D02*
X1918995Y608346D01*
X1913639Y608860D02*
X1918481D01*
X1913409Y609090D02*
X1913639Y608860D01*
X1924159Y621590D02*
X1927409D01*
X1921889Y623859D02*
X1924159Y621590D01*
X1913639Y623859D02*
X1921889D01*
X1913409Y624089D02*
X1913639Y623859D01*
X1919667Y635941D02*
Y656667D01*
X1849500Y619750D02*
Y674650D01*
X1912333Y656667D02*
X1919667D01*
X1924500Y661500D01*
X1904750Y664250D02*
X1912333Y656667D01*
X1904750Y664250D02*
Y746000D01*
X1870000Y780750D02*
X1904750Y746000D01*
X1839250Y780750D02*
X1870000D01*
X1955910Y606590D02*
X1961500Y601000D01*
X1927409Y606590D02*
X1955910D01*
X1927179Y606820D02*
X1927409Y606590D01*
X1950660Y621590D02*
X1970000Y602250D01*
X1927409Y621590D02*
X1950660D01*
X1965169Y638540D02*
Y646581D01*
X1950250Y661500D02*
X1965169Y646581D01*
X1924500Y661500D02*
X1950250D01*
X1719000Y480250D02*
X1720500Y478750D01*
X1674250Y480250D02*
X1719000D01*
X1759000Y516750D02*
X1763750D01*
X1754500Y521250D02*
X1759000Y516750D01*
X1754500Y521250D02*
Y528000D01*
X1757272Y530772D01*
X1765180D01*
X1767010Y532602D01*
X1710795Y532750D02*
X1739500D01*
X1708912Y534634D02*
X1710795Y532750D01*
X1739500D02*
X1752052Y545302D01*
X1571000Y215250D02*
Y236850D01*
X1565750Y210000D02*
X1571000Y215250D01*
Y266900D02*
Y319000D01*
X1657100Y308150D02*
X1674000D01*
X1653500Y311750D02*
X1657100Y308150D01*
X1653500Y311750D02*
Y327750D01*
X1562250Y327750D02*
X1571000Y319000D01*
X1636250Y397249D02*
X1652500D01*
X1592250Y375250D02*
Y386000D01*
X1595750Y389500D01*
X1616000D01*
X1617250Y390750D01*
X1599751Y403749D02*
X1617250D01*
X1620250Y428000D02*
X1640000Y408250D01*
X1596750Y428000D02*
X1620250D01*
X1594250Y430500D02*
X1596750Y428000D01*
X1592251Y454751D02*
X1610100D01*
X1640150D02*
X1650251D01*
X1649000Y470250D02*
Y475584D01*
X1652500Y479084D01*
X1653500Y327750D02*
X1668750Y343000D01*
X1652500Y369250D02*
X1656500Y365250D01*
X1670750Y373250D02*
X1671500Y372500D01*
X1667000Y373250D02*
X1670750D01*
X1666000Y374250D02*
X1667000Y373250D01*
X1652500Y369250D02*
Y397249D01*
X1679270Y393230D02*
Y394230D01*
X1674750Y398750D02*
X1679270Y394230D01*
X1674750Y398750D02*
Y406500D01*
X1652500Y397249D02*
X1663500Y408250D01*
X1640000D02*
X1663500D01*
X1674750Y406500D02*
X1684250Y416000D01*
X1663500Y408250D02*
X1670500Y415250D01*
Y441749D01*
X1649250Y435750D02*
X1655331Y441830D01*
Y444670D01*
X1653500Y446501D02*
X1655331Y444670D01*
X1653500Y446501D02*
Y451501D01*
X1650251Y454751D02*
X1653500Y451501D01*
X1650251Y454751D02*
X1654250Y458750D01*
X1668250Y462000D02*
X1670500Y459750D01*
X1654250Y458750D02*
Y465000D01*
X1649000Y470250D02*
X1654250Y465000D01*
X1668250Y462000D02*
Y474250D01*
X1674250Y480250D01*
X1652500Y479084D02*
Y479750D01*
X1763302Y238448D02*
X1782500Y219250D01*
X1763302Y238448D02*
Y247235D01*
X1765000Y248933D01*
Y263350D01*
X1656500Y365250D02*
X1775750D01*
X1671500Y372500D02*
X1736250D01*
X1738750Y375000D01*
X1759000D01*
X1761250Y377250D01*
X1776750D01*
X1701500Y384500D02*
X1738250D01*
X1776750Y377250D02*
X1799000Y399500D01*
X1681500Y391000D02*
X1682500D01*
X1679270Y393230D02*
X1681500Y391000D01*
X1738250Y384500D02*
X1756100Y402350D01*
X1701500Y397500D02*
X1724000D01*
X1731000Y404500D01*
X1701500Y397500D02*
Y405750D01*
X1756100Y402350D02*
X1760250D01*
X1701500Y405750D02*
X1722750Y427000D01*
X1780350Y432400D02*
X1799000Y413750D01*
X1760250Y432400D02*
X1780350D01*
X1757750Y434900D02*
X1760250Y432400D01*
X1722750Y427000D02*
Y441750D01*
X1699500D02*
X1722750D01*
X1694500Y446750D02*
X1699500Y441750D01*
X1757750Y434900D02*
Y457500D01*
X1722750Y459750D02*
X1724250D01*
X1720500Y462000D02*
X1722750Y459750D01*
X1724250D02*
X1743250Y478750D01*
X1720500Y462000D02*
Y478750D01*
X1093790Y316040D02*
X1213790D01*
X1244960D01*
X1255000Y306000D01*
Y263264D02*
X1261962Y256302D01*
X1263302D02*
X1264250Y257250D01*
X1261962Y256302D02*
X1263302D01*
X1255000Y263264D02*
Y306000D01*
X1264250Y257250D02*
X1298500D01*
X1321500D02*
Y320250D01*
X1278272Y673422D02*
X1284422D01*
X1277600Y672750D02*
X1278272Y673422D01*
X1284422D02*
X1336000Y725000D01*
X1337500Y761500D02*
X1339949Y763950D01*
X1366100D01*
X1337500Y760750D02*
Y761500D01*
X1336000Y759250D02*
X1337500Y760750D01*
X1336000Y725000D02*
Y759250D01*
X1249600Y672750D02*
Y686750D01*
Y672750D02*
X1263600D01*
X1277600D01*
X1249600Y686750D02*
X1263600D01*
X1277600D01*
Y700750D01*
X1263600D02*
X1277600D01*
X1249600D02*
X1263600D01*
X1249600D02*
Y720650D01*
X1206300Y763950D02*
X1249600Y720650D01*
X1191100Y763950D02*
X1206300D01*
X1321500Y320250D02*
Y351500D01*
X1329000Y359000D01*
X1364250D02*
X1398000Y325250D01*
X1329000Y359000D02*
X1364250D01*
X1398000Y325250D02*
X1405850D01*
X1445000Y218750D02*
X1491750D01*
X1430000Y233750D02*
X1445000Y218750D01*
X1430000Y233750D02*
Y275250D01*
X1435900Y281150D01*
Y325250D01*
X1222330Y236500D02*
X1259000D01*
X1213790Y245040D02*
X1222330Y236500D01*
X1093790Y213710D02*
X1115000Y192500D01*
X1156500D01*
X1174230Y174770D01*
X1213790Y156040D02*
Y166040D01*
X1205060Y174770D02*
X1213790Y166040D01*
X1174230Y174770D02*
X1205060D01*
X1285750Y84000D02*
X1289000Y87250D01*
X1271500Y84000D02*
X1285750D01*
X1234500Y121000D02*
X1271500Y84000D01*
X1289000Y87250D02*
X1290000D01*
X1173000Y121000D02*
X1234500D01*
X1112520Y137310D02*
X1156690D01*
X1173000Y121000D01*
X1103790Y146040D02*
Y156040D01*
Y146040D02*
X1112520Y137310D01*
X1103790Y45210D02*
X1106250Y42750D01*
X1103790Y45210D02*
Y85040D01*
X1106250Y42750D02*
X1146000D01*
X1146750Y43500D01*
X1151500D01*
X1193040Y85040D01*
X1213790D01*
Y57710D02*
Y85040D01*
Y57710D02*
X1224000Y47500D01*
X1311500D01*
X1279750Y209500D02*
X1298500Y228250D01*
Y257250D01*
X1273500Y185000D02*
X1277500D01*
X1264000Y175500D02*
X1273500Y185000D01*
X1277500D02*
X1321500Y229000D01*
Y257250D01*
X1403850Y247422D02*
Y251250D01*
X1396529Y240101D02*
X1403850Y247422D01*
X1349500Y230750D02*
X1392262D01*
X1396529Y235017D02*
Y240101D01*
X1392262Y230750D02*
X1396529Y235017D01*
X1344750Y235500D02*
X1349500Y230750D01*
X1344750Y235500D02*
Y257001D01*
X1344501Y257250D02*
X1344750Y257001D01*
X1423000Y137000D02*
X1426250Y133750D01*
Y126250D02*
Y133750D01*
X1361501Y117750D02*
X1379250D01*
X1379500Y117500D01*
X1361250Y118000D02*
X1361501Y117750D01*
X1214580Y155250D02*
X1232250D01*
X1213790Y156040D02*
X1214580Y155250D01*
X1232250D02*
X1252500Y175500D01*
X1264000D01*
X1304250Y164000D02*
X1332500D01*
X1303750Y164500D02*
X1304250Y164000D01*
X1332500D02*
X1345750Y150750D01*
X1346750D01*
X1361250Y136250D01*
Y127500D02*
Y136250D01*
X1317000Y94875D02*
Y100750D01*
Y89000D02*
Y94875D01*
X1322125D01*
X1323250Y93750D01*
X1327500D01*
X1332250Y89000D01*
X1361250Y127500D02*
X1383750D01*
X1391500Y119750D01*
Y105750D02*
Y119750D01*
X1361250Y108500D02*
X1376250D01*
X1379000Y105750D01*
X1391500D01*
X1331750Y74250D02*
X1388000D01*
X1405000Y91250D02*
Y136000D01*
X1388000Y74250D02*
X1405000Y91250D01*
X1317000Y89000D02*
X1331750Y74250D01*
X1317000Y100750D02*
X1324750Y108500D01*
X1309500Y87750D02*
Y137250D01*
X1329250Y68000D02*
X1414350D01*
X1309500Y87750D02*
X1329250Y68000D01*
X1414350D02*
X1425500Y79150D01*
X1356750Y171000D02*
Y191000D01*
Y171000D02*
X1363000Y164750D01*
X1376250D01*
X1405000Y136000D01*
X1324750Y108500D02*
X1335250D01*
X1320000Y128988D02*
X1321488Y127500D01*
X1320000Y128988D02*
Y129500D01*
X1321488Y127500D02*
X1335250D01*
X1319750Y129750D02*
X1320000Y129500D01*
X1319750Y129750D02*
Y137000D01*
X1323750Y141000D01*
X1317250Y150750D02*
X1323750Y144250D01*
Y141000D02*
Y144250D01*
X1290000Y87250D02*
X1298000D01*
X1284500Y92750D02*
X1290000Y87250D01*
X1284500Y92750D02*
Y103850D01*
X1289000Y174500D02*
X1305500Y191000D01*
X1331350D01*
X1289000Y153500D02*
Y174500D01*
X1484500Y82500D02*
Y137000D01*
Y82500D02*
X1492750Y74250D01*
X1500101D01*
X1526000Y48350D01*
X1425500Y49099D02*
X1425500Y49099D01*
Y30488D02*
X1426988Y29000D01*
X1439250D01*
X1425500Y30488D02*
Y49099D01*
X1439250Y29000D02*
X1458600Y48350D01*
X1526000D01*
X1284500Y133900D02*
X1285250Y134650D01*
Y149750D01*
X1289000Y153500D01*
X1294146D02*
X1309948Y137698D01*
X1309500Y137250D02*
X1309948Y137698D01*
X1289000Y153500D02*
X1294146D01*
X1357750Y190000D02*
X1383500D01*
X1356750Y191000D02*
X1357750Y190000D01*
X1401500Y208000D02*
X1409000D01*
X1383500Y190000D02*
X1401500Y208000D01*
X1409000D02*
X1415250Y201750D01*
X1415750D01*
Y144250D02*
X1423000Y137000D01*
X1415750Y144250D02*
Y161749D01*
X1484500Y137000D02*
X1505000D01*
X1480000Y141500D02*
Y161000D01*
Y141500D02*
X1484500Y137000D01*
X1423000D02*
X1484500D01*
X1415750Y201750D02*
X1419500Y205500D01*
X1415750Y179750D02*
Y201750D01*
X1419500Y205500D02*
X1473250D01*
X1480000Y198750D01*
Y179000D02*
Y198750D01*
X1513500Y301250D02*
Y303500D01*
Y266650D02*
Y301250D01*
X1505000Y137000D02*
X1517750Y149750D01*
Y192750D01*
X1491750Y218750D02*
X1517750Y192750D01*
X1491750Y218750D02*
Y275000D01*
X1507500Y290750D01*
Y295250D02*
X1513500Y301250D01*
X1507500Y290750D02*
Y295250D01*
X1520350Y326500D02*
X1521600Y327750D01*
X1506500Y310500D02*
Y325012D01*
X1507988Y326500D02*
X1520350D01*
X1506500Y325012D02*
X1507988Y326500D01*
X1506500Y310500D02*
X1513500Y303500D01*
Y218750D02*
Y236600D01*
Y218750D02*
X1522250Y210000D01*
X1565750D01*
X1551651Y327750D02*
X1562250D01*
X1058450Y616450D02*
X1083350D01*
X1584000Y446500D02*
X1592251Y454751D01*
X1584000Y419500D02*
Y446500D01*
Y419500D02*
X1599751Y403749D01*
X1454850Y720900D02*
X1492262D01*
X1493750Y719412D01*
X1052000Y663750D02*
X1055500Y667250D01*
X1057500D01*
X1052000Y649750D02*
Y663750D01*
Y649750D02*
X1059900Y641850D01*
X1083350D01*
X1052000Y672899D02*
Y689396D01*
X1054250Y670500D02*
X1057500Y667250D01*
X1083350D01*
X1054250Y670500D02*
Y670649D01*
X1052000Y672899D02*
X1054250Y670649D01*
X1052000Y689396D02*
X1055552Y692948D01*
X1055850Y692650D01*
X1083350D01*
X1058750Y738250D02*
X1063950Y743450D01*
X1083350D01*
X1058750Y719538D02*
X1060238Y718050D01*
X1083350D01*
X1058750Y719538D02*
Y738250D01*
X1128100Y744950D02*
X1129600Y746450D01*
X1084850Y744950D02*
X1128100D01*
X1083350Y743450D02*
X1084850Y744950D01*
X1137771Y751250D02*
X1191100D01*
X1132971Y746450D02*
X1137771Y751250D01*
X1129600Y746450D02*
X1132971D01*
X1170050Y763950D02*
X1191100D01*
X1129600Y771850D02*
X1162150D01*
X1170050Y763950D01*
X1170301Y700450D02*
X1191100D01*
X1168750Y702000D02*
X1170301Y700450D01*
X1131984Y718666D02*
X1136584D01*
X1167501Y687750D01*
X1129600Y721050D02*
X1131984Y718666D01*
X1167501Y687750D02*
X1191100D01*
X1115750Y734000D02*
X1146500D01*
X1105250Y723500D02*
X1115750Y734000D01*
X1146500D02*
X1151049Y738550D01*
X1105250Y617938D02*
Y723500D01*
X1166000Y712500D02*
X1166650Y713150D01*
X1191100D01*
X1164250Y724000D02*
X1165500Y725250D01*
X1154000Y724000D02*
X1164250D01*
X1190500Y725250D02*
X1191100Y725850D01*
X1165500Y725250D02*
X1190500D01*
X1103762Y616450D02*
X1105250Y617938D01*
X1083350Y616450D02*
X1103762D01*
X1151049Y738550D02*
X1191100D01*
X1129600Y695650D02*
X1144600D01*
X1165200Y675050D01*
X1191100D01*
X1129600Y670250D02*
X1130600Y669250D01*
X1144250D01*
X1151151Y662350D01*
X1191100D01*
X1129600Y619450D02*
X1151950D01*
X1169450Y636950D01*
X1191100D01*
X1172749Y624250D02*
X1191100D01*
X1154500Y606000D02*
X1172749Y624250D01*
X1141550Y606000D02*
X1154500D01*
X1129600Y594050D02*
X1141550Y606000D01*
X1190701Y649250D02*
X1191100Y649650D01*
X1172250Y649250D02*
X1190701D01*
X1167850Y644850D02*
X1172250Y649250D01*
X1129600Y644850D02*
X1167850D01*
X1188850Y622000D02*
X1191100Y624250D01*
X1129600Y568650D02*
X1142900D01*
X1160000Y585750D01*
Y594500D01*
X1177049Y611550D01*
X1191100D01*
X1173600Y598850D02*
X1191100D01*
X1170250Y595500D02*
X1173600Y598850D01*
X1129600Y543250D02*
X1170250Y583900D01*
Y595500D01*
X1129600Y517850D02*
X1154850D01*
X1208750Y571750D01*
Y586350D01*
X1221450D02*
X1222000Y585800D01*
X1142700Y492450D02*
X1222000Y571750D01*
Y585800D01*
X1129600Y492450D02*
X1142700D01*
X1141050Y467050D02*
X1144750Y470750D01*
X1129600Y467050D02*
X1141050D01*
X1144750Y470750D02*
Y478750D01*
X1234150Y568150D01*
Y586350D01*
X1246750Y586250D02*
X1246850Y586350D01*
X1246750Y575000D02*
Y586250D01*
X1244500Y563238D02*
Y572750D01*
X1246750Y575000D01*
X1237500Y561750D02*
X1243012D01*
X1244500Y563238D01*
X1163000Y487250D02*
X1237500Y561750D01*
X1129600Y441650D02*
X1163000Y475050D01*
Y487250D01*
X1250100Y558100D02*
Y567600D01*
X1259028Y576528D01*
Y585827D02*
X1259550Y586350D01*
X1259028Y576528D02*
Y585827D01*
X1192600Y469600D02*
Y482100D01*
X1194100Y483600D01*
X1199350D01*
X1272250Y556500D01*
Y586350D01*
X1218000Y469600D02*
Y489750D01*
X1284950Y556700D01*
Y586350D01*
X1243400Y469600D02*
Y507150D01*
X1297650Y561400D02*
Y586350D01*
X1243400Y507150D02*
X1297650Y561400D01*
X1268800Y469600D02*
Y522800D01*
X1310350Y564350D01*
Y586350D01*
X1294200Y469600D02*
Y533700D01*
X1323050Y562550D02*
Y586350D01*
X1294200Y533700D02*
X1323050Y562550D01*
X1319600Y469600D02*
X1320850Y470850D01*
Y492100D01*
X1335750Y507000D01*
Y586350D01*
X1344850Y469750D02*
Y487600D01*
Y469750D02*
X1345000Y469600D01*
X1348450Y491200D02*
Y586350D01*
X1344850Y487600D02*
X1348450Y491200D01*
X1370350Y469650D02*
X1370400Y469600D01*
X1370350Y469650D02*
Y499850D01*
X1385350Y514850D01*
X1381599Y598850D02*
X1385350Y595099D01*
Y514850D02*
Y595099D01*
X1366100Y598850D02*
X1381599D01*
X1395800Y469600D02*
Y493550D01*
X1399850Y497600D01*
Y592100D01*
X1366100Y611550D02*
X1380400D01*
X1399850Y592100D01*
X1413100Y533850D02*
X1421200Y525750D01*
Y469600D02*
Y525750D01*
X1413100Y533850D02*
Y595850D01*
X1366100Y624250D02*
X1384700D01*
X1413100Y595850D01*
X1454100Y542350D02*
X1454850Y543100D01*
X1437600Y542350D02*
X1454100D01*
X1421350Y558600D02*
X1437600Y542350D01*
X1421350Y558600D02*
Y605100D01*
X1366100Y636950D02*
X1389500D01*
X1421350Y605100D01*
X1441450Y568500D02*
X1454850D01*
X1427350Y582600D02*
X1441450Y568500D01*
X1427350Y582600D02*
Y607600D01*
X1385300Y649650D02*
X1427350Y607600D01*
X1366100Y649650D02*
X1385300D01*
X1440300Y593900D02*
X1454850D01*
X1438350Y595850D02*
X1440300Y593900D01*
X1438350Y595850D02*
Y608350D01*
X1366100Y662350D02*
X1384350D01*
X1438350Y608350D01*
X1437150Y619300D02*
X1454850D01*
X1381400Y675050D02*
X1437150Y619300D01*
X1366100Y675050D02*
X1381400D01*
X1427750Y644700D02*
X1454850D01*
X1384700Y687750D02*
X1427750Y644700D01*
X1366100Y687750D02*
X1384700D01*
X1419350Y670100D02*
X1454850D01*
X1366100Y700450D02*
X1389000D01*
X1419350Y670100D01*
X1436100Y694100D02*
X1453450D01*
X1454850Y695500D01*
X1366100Y713150D02*
X1417050D01*
X1436100Y694100D01*
X1366100Y725850D02*
X1367350Y724600D01*
X1390850D01*
X1394550Y720900D02*
X1454850D01*
X1390850Y724600D02*
X1394550Y720900D01*
X1434800Y738550D02*
X1442550Y746300D01*
X1454850D01*
X1366100Y738550D02*
X1434800D01*
X1366100Y751250D02*
X1411000D01*
X1431450Y771700D02*
X1454850D01*
X1411000Y751250D02*
X1431450Y771700D01*
D17*
X1927409Y566590D02*
D03*
Y571590D02*
D03*
Y576589D02*
D03*
Y581590D02*
D03*
Y586590D02*
D03*
Y591589D02*
D03*
Y596589D02*
D03*
Y601590D02*
D03*
Y606590D02*
D03*
Y611590D02*
D03*
Y616590D02*
D03*
Y621590D02*
D03*
X1913409Y624089D02*
D03*
Y619090D02*
D03*
Y614089D02*
D03*
Y609090D02*
D03*
Y604089D02*
D03*
Y599089D02*
D03*
Y594089D02*
D03*
Y589090D02*
D03*
Y584090D02*
D03*
Y579091D02*
D03*
Y574090D02*
D03*
Y569091D02*
D03*
D18*
X1822010Y583402D02*
D03*
Y596102D02*
D03*
X1767010Y532602D02*
D03*
Y545302D02*
D03*
X1822010Y621502D02*
D03*
X1767010Y608802D02*
D03*
X1822010D02*
D03*
X1767010Y621502D02*
D03*
Y596102D02*
D03*
Y583402D02*
D03*
Y558002D02*
D03*
X1822010Y570702D02*
D03*
Y558002D02*
D03*
Y532602D02*
D03*
X1767010Y570702D02*
D03*
X1822010Y545302D02*
D03*
D19*
X1918250Y308150D02*
D03*
Y263350D02*
D03*
X1827250Y308150D02*
D03*
Y263350D02*
D03*
X1765000Y308150D02*
D03*
Y263350D02*
D03*
X1674000Y308150D02*
D03*
Y263350D02*
D03*
D20*
X1927250Y404750D02*
D03*
Y386750D02*
D03*
X1845000Y751750D02*
D03*
Y733750D02*
D03*
X1788750Y753251D02*
D03*
Y735250D02*
D03*
X1670500Y459750D02*
D03*
Y441749D02*
D03*
X1722750Y459750D02*
D03*
Y441750D02*
D03*
X1480000Y161000D02*
D03*
Y179000D02*
D03*
X1415750Y161749D02*
D03*
Y179750D02*
D03*
D21*
X1838000Y478750D02*
D03*
X1820000D02*
D03*
D22*
X1571000Y236850D02*
D03*
X1760250Y432400D02*
D03*
X1425500Y49099D02*
D03*
X1284500Y133900D02*
D03*
X1513500Y266650D02*
D03*
D23*
X1571000Y266900D02*
D03*
X1760250Y402350D02*
D03*
X1425500Y79150D02*
D03*
X1284500Y103850D02*
D03*
X1513500Y236600D02*
D03*
D24*
X1636250Y397249D02*
D03*
X1617250Y390750D02*
D03*
Y403749D02*
D03*
X1682500Y391000D02*
D03*
X1701500Y397500D02*
D03*
Y384500D02*
D03*
D25*
X1610100Y454751D02*
D03*
X1521600Y327750D02*
D03*
X1405850Y325250D02*
D03*
X963410Y703810D02*
D03*
D26*
X1640150Y454751D02*
D03*
X1551651Y327750D02*
D03*
X1435900Y325250D02*
D03*
X993460Y703810D02*
D03*
D27*
X1277600Y672750D02*
D03*
X1263600D02*
D03*
X1249600D02*
D03*
Y700750D02*
D03*
X1263600D02*
D03*
X1277600D02*
D03*
X1249600Y686750D02*
D03*
X1277600D02*
D03*
X1263600D02*
D03*
D28*
X1366100Y763950D02*
D03*
Y751250D02*
D03*
Y738550D02*
D03*
Y725850D02*
D03*
Y713150D02*
D03*
Y700450D02*
D03*
Y687750D02*
D03*
Y675050D02*
D03*
Y662350D02*
D03*
Y649650D02*
D03*
Y636950D02*
D03*
Y624250D02*
D03*
Y611550D02*
D03*
Y598850D02*
D03*
X1191100D02*
D03*
Y611550D02*
D03*
Y624250D02*
D03*
Y636950D02*
D03*
Y649650D02*
D03*
Y662350D02*
D03*
Y675050D02*
D03*
Y687750D02*
D03*
Y700450D02*
D03*
Y713150D02*
D03*
Y725850D02*
D03*
Y738550D02*
D03*
Y751250D02*
D03*
Y763950D02*
D03*
D29*
X1348450Y586350D02*
D03*
X1335750D02*
D03*
X1323050D02*
D03*
X1310350D02*
D03*
X1297650D02*
D03*
X1284950D02*
D03*
X1272250D02*
D03*
X1259550D02*
D03*
X1246850D02*
D03*
X1234150D02*
D03*
X1221450D02*
D03*
X1208750D02*
D03*
D30*
X1103790Y156040D02*
D03*
Y85040D02*
D03*
X1213790Y156040D02*
D03*
Y85040D02*
D03*
X1213790Y316040D02*
D03*
Y245040D02*
D03*
X1093790Y316040D02*
D03*
Y245040D02*
D03*
D31*
X1335250Y108500D02*
D03*
Y127500D02*
D03*
X1361250D02*
D03*
Y118000D02*
D03*
Y108500D02*
D03*
D32*
X1321500Y320250D02*
D03*
D33*
X1344501Y257250D02*
D03*
X1321500D02*
D03*
X1298500D02*
D03*
D66*
X1362300Y47500D02*
D03*
X1336900D02*
D03*
X1129600Y416250D02*
D03*
Y441650D02*
D03*
Y467050D02*
D03*
Y492450D02*
D03*
Y517850D02*
D03*
Y543250D02*
D03*
Y568650D02*
D03*
Y594050D02*
D03*
Y619450D02*
D03*
Y644850D02*
D03*
Y670250D02*
D03*
Y695650D02*
D03*
Y721050D02*
D03*
Y746450D02*
D03*
X1877000Y476251D02*
D03*
X1708912Y560034D02*
D03*
Y585434D02*
D03*
Y610834D02*
D03*
Y636234D02*
D03*
X1871472Y604992D02*
D03*
X1551400Y48350D02*
D03*
X1526000D02*
D03*
X1551400Y73750D02*
D03*
X1218000Y469600D02*
D03*
X1268800D02*
D03*
X1294200D02*
D03*
X1319600D02*
D03*
X1345000D02*
D03*
X1370400D02*
D03*
X1395800D02*
D03*
X1421200D02*
D03*
X1243400D02*
D03*
X1454850Y568500D02*
D03*
Y619300D02*
D03*
Y644700D02*
D03*
Y670100D02*
D03*
Y695500D02*
D03*
Y720900D02*
D03*
Y746300D02*
D03*
Y771700D02*
D03*
Y593900D02*
D03*
X1083350Y743450D02*
D03*
Y692650D02*
D03*
Y667250D02*
D03*
Y641850D02*
D03*
Y616450D02*
D03*
Y591050D02*
D03*
Y565650D02*
D03*
Y540250D02*
D03*
Y718050D02*
D03*
X1331350Y191000D02*
D03*
X164600Y596240D02*
D03*
X219200Y196240D02*
D03*
X244600D02*
D03*
X497000Y196240D02*
D03*
X471600D02*
D03*
X446200D02*
D03*
X420800D02*
D03*
X395400D02*
D03*
X464599Y596240D02*
D03*
X439199D02*
D03*
X413800D02*
D03*
X388400D02*
D03*
X362999D02*
D03*
X337599D02*
D03*
X312199D02*
D03*
X286800D02*
D03*
X261399D02*
D03*
X236000D02*
D03*
D67*
X1311500Y47500D02*
D03*
X1192600Y469600D02*
D03*
X1356750Y191000D02*
D03*
X190000Y596240D02*
D03*
X270000Y196240D02*
D03*
X370000Y196240D02*
D03*
X490000Y596240D02*
D03*
D68*
X37750Y38750D02*
D03*
X1958750Y42250D02*
D03*
Y763500D02*
D03*
X37750Y763750D02*
D03*
X968810Y616210D02*
D03*
X58810D02*
D03*
Y121210D02*
D03*
X968810D02*
D03*
D69*
X1129600Y771850D02*
D03*
X1877000Y405251D02*
D03*
X1708912Y534634D02*
D03*
X1871472Y579592D02*
D03*
X1526000Y73750D02*
D03*
X1454850Y543100D02*
D03*
X1083350Y768850D02*
D03*
D70*
X1788850Y686500D02*
D03*
X1837650D02*
D03*
D71*
X1919667Y635941D02*
D03*
Y554740D02*
D03*
D72*
X1965169Y638540D02*
D03*
Y552140D02*
D03*
D73*
X1933168Y629340D02*
D03*
Y561339D02*
D03*
D74*
X1403850Y251250D02*
D03*
D75*
X1454650D02*
D03*
D76*
X48810Y533809D02*
D03*
Y208810D02*
D03*
Y233810D02*
D03*
Y258810D02*
D03*
Y283810D02*
D03*
Y308810D02*
D03*
Y333810D02*
D03*
Y358810D02*
D03*
Y383810D02*
D03*
Y408810D02*
D03*
Y433810D02*
D03*
Y458810D02*
D03*
Y483810D02*
D03*
Y508810D02*
D03*
X968810Y356010D02*
D03*
Y330610D02*
D03*
Y305210D02*
D03*
Y381410D02*
D03*
D77*
X89290Y518280D02*
D03*
X609290D02*
D03*
Y268280D02*
D03*
X89290D02*
D03*
D78*
X527090Y533280D02*
D03*
X501690D02*
D03*
X476290D02*
D03*
X450890D02*
D03*
X425490D02*
D03*
X400090D02*
D03*
X374690D02*
D03*
X349290D02*
D03*
X323890D02*
D03*
X298490D02*
D03*
X273090D02*
D03*
X247690D02*
D03*
X222290D02*
D03*
X196890D02*
D03*
X171490D02*
D03*
Y253280D02*
D03*
X196890D02*
D03*
X222290D02*
D03*
X247690D02*
D03*
X273090D02*
D03*
X298490D02*
D03*
X323890D02*
D03*
X349290D02*
D03*
X374690D02*
D03*
X400090D02*
D03*
X425490D02*
D03*
X450890D02*
D03*
X476290D02*
D03*
X501690D02*
D03*
D79*
X527090D02*
D03*
D80*
X1953500Y595750D02*
D03*
X1949071Y589648D02*
D03*
X30000Y397750D02*
D03*
X998500Y255250D02*
D03*
X197500Y409250D02*
D03*
X197250Y390250D02*
D03*
X477750Y765250D02*
D03*
X472250Y473250D02*
D03*
X455750Y402000D02*
D03*
X340750Y366750D02*
D03*
X378250Y325750D02*
D03*
X357500Y358750D02*
D03*
X726000Y520500D02*
D03*
X931500Y439250D02*
D03*
X929750Y336000D02*
D03*
X324250Y472250D02*
D03*
X350000Y475000D02*
D03*
X347500Y420250D02*
D03*
X289750Y474750D02*
D03*
X286000Y413250D02*
D03*
X1035250Y267000D02*
D03*
X1033500Y366250D02*
D03*
X1018000Y507250D02*
D03*
X1021500Y763500D02*
D03*
X1081500Y505500D02*
D03*
X1203750Y418500D02*
D03*
X1050000Y543250D02*
D03*
X581500Y735000D02*
D03*
X1056250Y590000D02*
D03*
X557500Y708000D02*
D03*
X492250Y702000D02*
D03*
X1064000Y466000D02*
D03*
X1449250Y497000D02*
D03*
X1507500Y432750D02*
D03*
X1455500Y372000D02*
D03*
X1803500Y377000D02*
D03*
X1592250Y375250D02*
D03*
X1668750Y343000D02*
D03*
X1666000Y374250D02*
D03*
X1731000Y404500D02*
D03*
X1684250Y416000D02*
D03*
X1594250Y430500D02*
D03*
X1649250Y435750D02*
D03*
X1694500Y446750D02*
D03*
X1796000Y456750D02*
D03*
X1813500Y457000D02*
D03*
X1757750Y457500D02*
D03*
X1652500Y479750D02*
D03*
X1763750Y516750D02*
D03*
X1804250Y517000D02*
D03*
X1743500Y563750D02*
D03*
X1748250Y553750D02*
D03*
X1259000Y236500D02*
D03*
X1279750Y209500D02*
D03*
X1426250Y126250D02*
D03*
X1379500Y117500D02*
D03*
X1264000Y175500D02*
D03*
X1303750Y164500D02*
D03*
X1332250Y89000D02*
D03*
X1391500Y105750D02*
D03*
X1317250Y150750D02*
D03*
X1298000Y87250D02*
D03*
X1520000Y690750D02*
D03*
X1168750Y702000D02*
D03*
X1166000Y712500D02*
D03*
X1154000Y724000D02*
D03*
M02*
