G04*
G04 #@! TF.GenerationSoftware,Altium Limited,Altium Designer,23.1.1 (15)*
G04*
G04 Layer_Color=32896*
%FSLAX44Y44*%
%MOMM*%
G71*
G04*
G04 #@! TF.SameCoordinates,1587853A-9B19-4160-AC70-F3A7ED46FF3E*
G04*
G04*
G04 #@! TF.FilePolarity,Positive*
G04*
G01*
G75*
%ADD10C,0.1270*%
%ADD11C,0.2000*%
%ADD14C,0.2540*%
D10*
X59290Y238280D02*
Y548280D01*
X639290D01*
Y238280D02*
Y548280D01*
X59290Y238280D02*
X639290D01*
D11*
X528090Y230780D02*
G03*
X528090Y230780I-1000J0D01*
G01*
X151900Y608940D02*
X202700D01*
Y583540D02*
Y608940D01*
X151900Y583540D02*
X202700D01*
X151900D02*
Y608940D01*
X282700Y183540D02*
Y208940D01*
X206500D02*
X282700D01*
X206500Y183540D02*
Y208940D01*
Y183540D02*
X282700D01*
X357300Y208940D02*
X509700D01*
X357300Y183540D02*
X509700D01*
X357300D02*
Y208940D01*
X509700Y183540D02*
Y208940D01*
X223300Y583540D02*
Y608940D01*
Y583540D02*
X502700D01*
Y608940D01*
X483649D02*
X502700D01*
X223300D02*
X483649D01*
D14*
X501272Y617474D02*
Y632709D01*
X493655D01*
X491115Y630170D01*
Y625092D01*
X493655Y622552D01*
X501272D01*
X486037Y620013D02*
X483498Y617474D01*
X478419D01*
X475880Y620013D01*
Y630170D01*
X478419Y632709D01*
X483498D01*
X486037Y630170D01*
Y627631D01*
X483498Y625092D01*
X475880D01*
X142696Y588622D02*
Y603857D01*
X135078D01*
X132539Y601318D01*
Y596240D01*
X135078Y593701D01*
X142696D01*
X127461Y601318D02*
X124921Y603857D01*
X119843D01*
X117304Y601318D01*
Y598779D01*
X119843Y596240D01*
X117304Y593701D01*
Y591162D01*
X119843Y588622D01*
X124921D01*
X127461Y591162D01*
Y593701D01*
X124921Y596240D01*
X127461Y598779D01*
Y601318D01*
X124921Y596240D02*
X119843D01*
X542696Y188622D02*
Y203857D01*
X535078D01*
X532539Y201318D01*
Y196240D01*
X535078Y193701D01*
X542696D01*
X527461Y203857D02*
X517304D01*
Y201318D01*
X527461Y191162D01*
Y188622D01*
X322696Y188622D02*
Y203857D01*
X315078D01*
X312539Y201318D01*
Y196240D01*
X315078Y193701D01*
X322696D01*
X297304Y203857D02*
X302382Y201318D01*
X307461Y196240D01*
Y191162D01*
X304921Y188622D01*
X299843D01*
X297304Y191162D01*
Y193701D01*
X299843Y196240D01*
X307461D01*
X682696Y552617D02*
Y539922D01*
X680157Y537383D01*
X675078D01*
X672539Y539922D01*
Y552617D01*
X659843Y537383D02*
Y552617D01*
X667461Y545000D01*
X657304D01*
M02*
