G04*
G04 #@! TF.GenerationSoftware,Altium Limited,Altium Designer,23.1.1 (15)*
G04*
G04 Layer_Color=8421504*
%FSLAX44Y44*%
%MOMM*%
G71*
G04*
G04 #@! TF.SameCoordinates,1587853A-9B19-4160-AC70-F3A7ED46FF3E*
G04*
G04*
G04 #@! TF.FilePolarity,Positive*
G04*
G01*
G75*
%ADD17R,0.9500X0.3000*%
G04:AMPARAMS|DCode=18|XSize=1.31mm|YSize=0.62mm|CornerRadius=0.0775mm|HoleSize=0mm|Usage=FLASHONLY|Rotation=180.000|XOffset=0mm|YOffset=0mm|HoleType=Round|Shape=RoundedRectangle|*
%AMROUNDEDRECTD18*
21,1,1.3100,0.4650,0,0,180.0*
21,1,1.1550,0.6200,0,0,180.0*
1,1,0.1550,-0.5775,0.2325*
1,1,0.1550,0.5775,0.2325*
1,1,0.1550,0.5775,-0.2325*
1,1,0.1550,-0.5775,-0.2325*
%
%ADD18ROUNDEDRECTD18*%
G04:AMPARAMS|DCode=19|XSize=2.1mm|YSize=1.38mm|CornerRadius=0.1035mm|HoleSize=0mm|Usage=FLASHONLY|Rotation=180.000|XOffset=0mm|YOffset=0mm|HoleType=Round|Shape=RoundedRectangle|*
%AMROUNDEDRECTD19*
21,1,2.1000,1.1730,0,0,180.0*
21,1,1.8930,1.3800,0,0,180.0*
1,1,0.2070,-0.9465,0.5865*
1,1,0.2070,0.9465,0.5865*
1,1,0.2070,0.9465,-0.5865*
1,1,0.2070,-0.9465,-0.5865*
%
%ADD19ROUNDEDRECTD19*%
%ADD20R,1.4500X1.1500*%
%ADD21R,1.1500X1.4500*%
G04:AMPARAMS|DCode=22|XSize=1.09mm|YSize=1.77mm|CornerRadius=0.0763mm|HoleSize=0mm|Usage=FLASHONLY|Rotation=90.000|XOffset=0mm|YOffset=0mm|HoleType=Round|Shape=RoundedRectangle|*
%AMROUNDEDRECTD22*
21,1,1.0900,1.6174,0,0,90.0*
21,1,0.9374,1.7700,0,0,90.0*
1,1,0.1526,0.8087,0.4687*
1,1,0.1526,0.8087,-0.4687*
1,1,0.1526,-0.8087,-0.4687*
1,1,0.1526,-0.8087,0.4687*
%
%ADD22ROUNDEDRECTD22*%
G04:AMPARAMS|DCode=23|XSize=0.94mm|YSize=1.77mm|CornerRadius=0.0658mm|HoleSize=0mm|Usage=FLASHONLY|Rotation=90.000|XOffset=0mm|YOffset=0mm|HoleType=Round|Shape=RoundedRectangle|*
%AMROUNDEDRECTD23*
21,1,0.9400,1.6384,0,0,90.0*
21,1,0.8084,1.7700,0,0,90.0*
1,1,0.1316,0.8192,0.4042*
1,1,0.1316,0.8192,-0.4042*
1,1,0.1316,-0.8192,-0.4042*
1,1,0.1316,-0.8192,0.4042*
%
%ADD23ROUNDEDRECTD23*%
%ADD24R,0.9000X0.7000*%
G04:AMPARAMS|DCode=25|XSize=0.94mm|YSize=1.77mm|CornerRadius=0.0658mm|HoleSize=0mm|Usage=FLASHONLY|Rotation=180.000|XOffset=0mm|YOffset=0mm|HoleType=Round|Shape=RoundedRectangle|*
%AMROUNDEDRECTD25*
21,1,0.9400,1.6384,0,0,180.0*
21,1,0.8084,1.7700,0,0,180.0*
1,1,0.1316,-0.4042,0.8192*
1,1,0.1316,0.4042,0.8192*
1,1,0.1316,0.4042,-0.8192*
1,1,0.1316,-0.4042,-0.8192*
%
%ADD25ROUNDEDRECTD25*%
G04:AMPARAMS|DCode=26|XSize=1.09mm|YSize=1.77mm|CornerRadius=0.0763mm|HoleSize=0mm|Usage=FLASHONLY|Rotation=180.000|XOffset=0mm|YOffset=0mm|HoleType=Round|Shape=RoundedRectangle|*
%AMROUNDEDRECTD26*
21,1,1.0900,1.6174,0,0,180.0*
21,1,0.9374,1.7700,0,0,180.0*
1,1,0.1526,-0.4687,0.8087*
1,1,0.1526,0.4687,0.8087*
1,1,0.1526,0.4687,-0.8087*
1,1,0.1526,-0.4687,-0.8087*
%
%ADD26ROUNDEDRECTD26*%
%ADD27R,0.9000X0.9000*%
%ADD28R,1.5000X0.9000*%
%ADD29R,0.9000X1.5000*%
%ADD30R,2.0000X4.0000*%
%ADD31R,1.1000X0.6000*%
%ADD32R,3.8000X2.0000*%
%ADD33R,1.5000X2.0000*%
G36*
X1971918Y643534D02*
X1972167Y643515D01*
X1972414Y643484D01*
X1972660Y643441D01*
X1972903Y643385D01*
X1973143Y643317D01*
X1973379Y643238D01*
X1973611Y643147D01*
X1973839Y643045D01*
X1974060Y642931D01*
X1974276Y642806D01*
X1974486Y642671D01*
X1974688Y642525D01*
X1974883Y642370D01*
X1975070Y642205D01*
X1975248Y642031D01*
X1975418Y641848D01*
X1975578Y641657D01*
X1975729Y641459D01*
X1975869Y641253D01*
X1975999Y641040D01*
X1976118Y640821D01*
X1976227Y640596D01*
X1976323Y640367D01*
X1976409Y640132D01*
X1976482Y639894D01*
X1976544Y639652D01*
X1976593Y639408D01*
X1976630Y639161D01*
X1976655Y638913D01*
X1976667Y638665D01*
Y638415D01*
X1976655Y638166D01*
X1976630Y637918D01*
X1976593Y637672D01*
X1976544Y637427D01*
X1976482Y637186D01*
X1976409Y636947D01*
X1976323Y636713D01*
X1976227Y636483D01*
X1976118Y636259D01*
X1975999Y636040D01*
X1975869Y635827D01*
X1975729Y635621D01*
X1975578Y635422D01*
X1975418Y635231D01*
X1975248Y635048D01*
X1975070Y634874D01*
X1974883Y634709D01*
X1974688Y634554D01*
X1974486Y634408D01*
X1974276Y634273D01*
X1974060Y634149D01*
X1973839Y634035D01*
X1973611Y633932D01*
X1973379Y633841D01*
X1973143Y633762D01*
X1972903Y633694D01*
X1972660Y633639D01*
X1972414Y633596D01*
X1972167Y633565D01*
X1971918Y633546D01*
X1971669Y633540D01*
X1958669D01*
X1958420Y633546D01*
X1958171Y633565D01*
X1957924Y633596D01*
X1957678Y633639D01*
X1957435Y633694D01*
X1957195Y633762D01*
X1956959Y633841D01*
X1956727Y633932D01*
X1956500Y634035D01*
X1956278Y634149D01*
X1956062Y634273D01*
X1955853Y634408D01*
X1955650Y634554D01*
X1955455Y634709D01*
X1955268Y634874D01*
X1955090Y635048D01*
X1954920Y635231D01*
X1954760Y635422D01*
X1954609Y635621D01*
X1954469Y635827D01*
X1954339Y636040D01*
X1954220Y636259D01*
X1954112Y636483D01*
X1954015Y636713D01*
X1953929Y636947D01*
X1953856Y637186D01*
X1953795Y637427D01*
X1953745Y637672D01*
X1953708Y637918D01*
X1953683Y638166D01*
X1953671Y638415D01*
Y638665D01*
X1953683Y638913D01*
X1953708Y639161D01*
X1953745Y639408D01*
X1953795Y639652D01*
X1953856Y639894D01*
X1953929Y640132D01*
X1954015Y640367D01*
X1954112Y640596D01*
X1954220Y640821D01*
X1954339Y641040D01*
X1954469Y641253D01*
X1954609Y641459D01*
X1954760Y641657D01*
X1954920Y641848D01*
X1955090Y642031D01*
X1955268Y642205D01*
X1955455Y642370D01*
X1955650Y642525D01*
X1955853Y642671D01*
X1956062Y642806D01*
X1956278Y642931D01*
X1956500Y643045D01*
X1956727Y643147D01*
X1956959Y643238D01*
X1957195Y643317D01*
X1957435Y643385D01*
X1957678Y643441D01*
X1957924Y643484D01*
X1958171Y643515D01*
X1958420Y643534D01*
X1958669Y643540D01*
X1971669D01*
X1971918Y643534D01*
D02*
G37*
G36*
X1923567Y643932D02*
X1923965Y643902D01*
X1924361Y643852D01*
X1924754Y643783D01*
X1925143Y643694D01*
X1925527Y643586D01*
X1925905Y643459D01*
X1926276Y643313D01*
X1926640Y643149D01*
X1926994Y642967D01*
X1927340Y642768D01*
X1927675Y642551D01*
X1927999Y642318D01*
X1928311Y642070D01*
X1928610Y641806D01*
X1928896Y641527D01*
X1929167Y641235D01*
X1929423Y640929D01*
X1929664Y640612D01*
X1929889Y640282D01*
X1930097Y639942D01*
X1930287Y639591D01*
X1930461Y639232D01*
X1930616Y638864D01*
X1930752Y638489D01*
X1930869Y638108D01*
X1930968Y637722D01*
X1931047Y637331D01*
X1931107Y636936D01*
X1931146Y636539D01*
X1931166Y636141D01*
Y635742D01*
X1931146Y635344D01*
X1931107Y634947D01*
X1931047Y634552D01*
X1930968Y634161D01*
X1930869Y633775D01*
X1930752Y633394D01*
X1930616Y633019D01*
X1930461Y632651D01*
X1930287Y632292D01*
X1930097Y631942D01*
X1929889Y631601D01*
X1929664Y631272D01*
X1929423Y630954D01*
X1929167Y630648D01*
X1928896Y630356D01*
X1928610Y630077D01*
X1928311Y629813D01*
X1927999Y629565D01*
X1927675Y629332D01*
X1927340Y629115D01*
X1926994Y628916D01*
X1926640Y628734D01*
X1926276Y628570D01*
X1925905Y628424D01*
X1925527Y628297D01*
X1925143Y628189D01*
X1924754Y628100D01*
X1924361Y628031D01*
X1923965Y627981D01*
X1923567Y627952D01*
X1923168Y627942D01*
X1916169D01*
X1915770Y627952D01*
X1915372Y627981D01*
X1914976Y628031D01*
X1914583Y628100D01*
X1914194Y628189D01*
X1913810Y628297D01*
X1913432Y628424D01*
X1913061Y628570D01*
X1912697Y628734D01*
X1912343Y628916D01*
X1911997Y629115D01*
X1911662Y629332D01*
X1911338Y629565D01*
X1911026Y629813D01*
X1910727Y630077D01*
X1910442Y630356D01*
X1910170Y630648D01*
X1909914Y630954D01*
X1909673Y631272D01*
X1909449Y631601D01*
X1909240Y631942D01*
X1909050Y632292D01*
X1908876Y632651D01*
X1908721Y633019D01*
X1908585Y633394D01*
X1908468Y633775D01*
X1908369Y634161D01*
X1908290Y634552D01*
X1908230Y634947D01*
X1908191Y635344D01*
X1908171Y635742D01*
Y636141D01*
X1908191Y636539D01*
X1908230Y636936D01*
X1908290Y637331D01*
X1908369Y637722D01*
X1908468Y638108D01*
X1908585Y638489D01*
X1908721Y638864D01*
X1908876Y639232D01*
X1909050Y639591D01*
X1909240Y639942D01*
X1909449Y640282D01*
X1909673Y640612D01*
X1909914Y640929D01*
X1910170Y641235D01*
X1910442Y641527D01*
X1910727Y641806D01*
X1911026Y642070D01*
X1911338Y642318D01*
X1911662Y642551D01*
X1911997Y642768D01*
X1912343Y642967D01*
X1912697Y643149D01*
X1913061Y643313D01*
X1913432Y643459D01*
X1913810Y643586D01*
X1914194Y643694D01*
X1914583Y643783D01*
X1914976Y643852D01*
X1915372Y643902D01*
X1915770Y643932D01*
X1916169Y643942D01*
X1923168D01*
X1923567Y643932D01*
D02*
G37*
G36*
X1918161Y622590D02*
X1908661D01*
Y625590D01*
X1918161D01*
Y622590D01*
D02*
G37*
G36*
X1932158Y620091D02*
X1922659D01*
Y623091D01*
X1932158D01*
Y620091D01*
D02*
G37*
G36*
X1918161Y617589D02*
X1908661D01*
Y620589D01*
X1918161D01*
Y617589D01*
D02*
G37*
G36*
X1932158Y615090D02*
X1922659D01*
Y618090D01*
X1932158D01*
Y615090D01*
D02*
G37*
G36*
X1918161Y612590D02*
X1908661D01*
Y615590D01*
X1918161D01*
Y612590D01*
D02*
G37*
G36*
X1932158Y610091D02*
X1922659D01*
Y613091D01*
X1932158D01*
Y610091D01*
D02*
G37*
G36*
X1918161Y607589D02*
X1908661D01*
Y610589D01*
X1918161D01*
Y607589D01*
D02*
G37*
G36*
X1932158Y605090D02*
X1922659D01*
Y608090D01*
X1932158D01*
Y605090D01*
D02*
G37*
G36*
X1918161Y602590D02*
X1908661D01*
Y605590D01*
X1918161D01*
Y602590D01*
D02*
G37*
G36*
X1932158Y600091D02*
X1922659D01*
Y603091D01*
X1932158D01*
Y600091D01*
D02*
G37*
G36*
X1918161Y597589D02*
X1908661D01*
Y600589D01*
X1918161D01*
Y597589D01*
D02*
G37*
G36*
X1932158Y595090D02*
X1922659D01*
Y598090D01*
X1932158D01*
Y595090D01*
D02*
G37*
G36*
X1918161Y592590D02*
X1908661D01*
Y595590D01*
X1918161D01*
Y592590D01*
D02*
G37*
G36*
X1932158Y590089D02*
X1922659D01*
Y593088D01*
X1932158D01*
Y590089D01*
D02*
G37*
G36*
X1918161Y587589D02*
X1908661D01*
Y590589D01*
X1918161D01*
Y587589D01*
D02*
G37*
G36*
X1932158Y585090D02*
X1922659D01*
Y588090D01*
X1932158D01*
Y585090D01*
D02*
G37*
G36*
X1918161Y582590D02*
X1908661D01*
Y585590D01*
X1918161D01*
Y582590D01*
D02*
G37*
G36*
X1932158Y580091D02*
X1922659D01*
Y583091D01*
X1932158D01*
Y580091D01*
D02*
G37*
G36*
X1918161Y577592D02*
X1908661D01*
Y580592D01*
X1918161D01*
Y577592D01*
D02*
G37*
G36*
X1932158Y575090D02*
X1922659D01*
Y578090D01*
X1932158D01*
Y575090D01*
D02*
G37*
G36*
X1918161Y572590D02*
X1908661D01*
Y575590D01*
X1918161D01*
Y572590D01*
D02*
G37*
G36*
X1932158Y570091D02*
X1922659D01*
Y573091D01*
X1932158D01*
Y570091D01*
D02*
G37*
G36*
X1918161Y567591D02*
X1908661D01*
Y570592D01*
X1918161D01*
Y567591D01*
D02*
G37*
G36*
X1932158Y565090D02*
X1922659D01*
Y568090D01*
X1932158D01*
Y565090D01*
D02*
G37*
G36*
X1971918Y557134D02*
X1972167Y557115D01*
X1972414Y557084D01*
X1972660Y557041D01*
X1972903Y556985D01*
X1973143Y556918D01*
X1973379Y556839D01*
X1973611Y556747D01*
X1973839Y556645D01*
X1974060Y556531D01*
X1974276Y556407D01*
X1974486Y556271D01*
X1974688Y556126D01*
X1974883Y555970D01*
X1975070Y555805D01*
X1975248Y555631D01*
X1975418Y555448D01*
X1975578Y555257D01*
X1975729Y555059D01*
X1975869Y554853D01*
X1975999Y554640D01*
X1976118Y554421D01*
X1976227Y554197D01*
X1976323Y553967D01*
X1976409Y553732D01*
X1976482Y553494D01*
X1976544Y553253D01*
X1976593Y553008D01*
X1976630Y552762D01*
X1976655Y552514D01*
X1976667Y552265D01*
Y552015D01*
X1976655Y551767D01*
X1976630Y551518D01*
X1976593Y551272D01*
X1976544Y551028D01*
X1976482Y550786D01*
X1976409Y550548D01*
X1976323Y550313D01*
X1976227Y550084D01*
X1976118Y549859D01*
X1975999Y549640D01*
X1975869Y549427D01*
X1975729Y549221D01*
X1975578Y549023D01*
X1975418Y548832D01*
X1975248Y548649D01*
X1975070Y548475D01*
X1974883Y548310D01*
X1974688Y548154D01*
X1974486Y548009D01*
X1974276Y547874D01*
X1974060Y547749D01*
X1973839Y547635D01*
X1973611Y547533D01*
X1973379Y547442D01*
X1973143Y547362D01*
X1972903Y547295D01*
X1972660Y547239D01*
X1972414Y547196D01*
X1972167Y547165D01*
X1971918Y547146D01*
X1971669Y547140D01*
X1958669D01*
X1958420Y547146D01*
X1958171Y547165D01*
X1957924Y547196D01*
X1957678Y547239D01*
X1957435Y547295D01*
X1957195Y547362D01*
X1956959Y547442D01*
X1956727Y547533D01*
X1956500Y547635D01*
X1956278Y547749D01*
X1956062Y547874D01*
X1955853Y548009D01*
X1955650Y548154D01*
X1955455Y548310D01*
X1955268Y548475D01*
X1955090Y548649D01*
X1954920Y548832D01*
X1954760Y549023D01*
X1954609Y549221D01*
X1954469Y549427D01*
X1954339Y549640D01*
X1954220Y549859D01*
X1954112Y550084D01*
X1954015Y550313D01*
X1953929Y550548D01*
X1953856Y550786D01*
X1953795Y551028D01*
X1953745Y551272D01*
X1953708Y551518D01*
X1953683Y551767D01*
X1953671Y552015D01*
Y552265D01*
X1953683Y552514D01*
X1953708Y552762D01*
X1953745Y553008D01*
X1953795Y553253D01*
X1953856Y553494D01*
X1953929Y553732D01*
X1954015Y553967D01*
X1954112Y554197D01*
X1954220Y554421D01*
X1954339Y554640D01*
X1954469Y554853D01*
X1954609Y555059D01*
X1954760Y555257D01*
X1954920Y555448D01*
X1955090Y555631D01*
X1955268Y555805D01*
X1955455Y555970D01*
X1955650Y556126D01*
X1955853Y556271D01*
X1956062Y556407D01*
X1956278Y556531D01*
X1956500Y556645D01*
X1956727Y556747D01*
X1956959Y556839D01*
X1957195Y556918D01*
X1957435Y556985D01*
X1957678Y557041D01*
X1957924Y557084D01*
X1958171Y557115D01*
X1958420Y557134D01*
X1958669Y557140D01*
X1971669D01*
X1971918Y557134D01*
D02*
G37*
G36*
X1923567Y562730D02*
X1923965Y562700D01*
X1924361Y562651D01*
X1924754Y562582D01*
X1925143Y562493D01*
X1925527Y562385D01*
X1925905Y562258D01*
X1926276Y562112D01*
X1926640Y561948D01*
X1926994Y561766D01*
X1927340Y561567D01*
X1927675Y561350D01*
X1927999Y561117D01*
X1928311Y560869D01*
X1928610Y560605D01*
X1928896Y560326D01*
X1929167Y560034D01*
X1929423Y559728D01*
X1929664Y559410D01*
X1929889Y559081D01*
X1930097Y558740D01*
X1930287Y558390D01*
X1930461Y558031D01*
X1930616Y557663D01*
X1930752Y557288D01*
X1930869Y556907D01*
X1930968Y556521D01*
X1931047Y556129D01*
X1931107Y555735D01*
X1931146Y555338D01*
X1931166Y554940D01*
Y554541D01*
X1931146Y554142D01*
X1931107Y553746D01*
X1931047Y553351D01*
X1930968Y552960D01*
X1930869Y552574D01*
X1930752Y552192D01*
X1930616Y551818D01*
X1930461Y551450D01*
X1930287Y551091D01*
X1930097Y550740D01*
X1929889Y550400D01*
X1929664Y550070D01*
X1929423Y549753D01*
X1929167Y549447D01*
X1928896Y549154D01*
X1928610Y548876D01*
X1928311Y548612D01*
X1927999Y548363D01*
X1927675Y548130D01*
X1927340Y547914D01*
X1926994Y547715D01*
X1926640Y547533D01*
X1926276Y547369D01*
X1925905Y547223D01*
X1925527Y547096D01*
X1925143Y546988D01*
X1924754Y546899D01*
X1924361Y546830D01*
X1923965Y546780D01*
X1923567Y546750D01*
X1923168Y546740D01*
X1916169D01*
X1915770Y546750D01*
X1915372Y546780D01*
X1914976Y546830D01*
X1914583Y546899D01*
X1914194Y546988D01*
X1913810Y547096D01*
X1913432Y547223D01*
X1913061Y547369D01*
X1912697Y547533D01*
X1912343Y547715D01*
X1911997Y547914D01*
X1911662Y548130D01*
X1911338Y548363D01*
X1911026Y548612D01*
X1910727Y548876D01*
X1910442Y549154D01*
X1910170Y549447D01*
X1909914Y549753D01*
X1909673Y550070D01*
X1909449Y550400D01*
X1909240Y550740D01*
X1909050Y551091D01*
X1908876Y551450D01*
X1908721Y551818D01*
X1908585Y552192D01*
X1908468Y552574D01*
X1908369Y552960D01*
X1908290Y553351D01*
X1908230Y553746D01*
X1908191Y554142D01*
X1908171Y554541D01*
Y554940D01*
X1908191Y555338D01*
X1908230Y555735D01*
X1908290Y556129D01*
X1908369Y556521D01*
X1908468Y556907D01*
X1908585Y557288D01*
X1908721Y557663D01*
X1908876Y558031D01*
X1909050Y558390D01*
X1909240Y558740D01*
X1909449Y559081D01*
X1909673Y559410D01*
X1909914Y559728D01*
X1910170Y560034D01*
X1910442Y560326D01*
X1910727Y560605D01*
X1911026Y560869D01*
X1911338Y561117D01*
X1911662Y561350D01*
X1911997Y561567D01*
X1912343Y561766D01*
X1912697Y561948D01*
X1913061Y562112D01*
X1913432Y562258D01*
X1913810Y562385D01*
X1914194Y562493D01*
X1914583Y562582D01*
X1914976Y562651D01*
X1915372Y562700D01*
X1915770Y562730D01*
X1916169Y562740D01*
X1923168D01*
X1923567Y562730D01*
D02*
G37*
D17*
X1927409Y566590D02*
D03*
Y571590D02*
D03*
Y576589D02*
D03*
Y581590D02*
D03*
Y586590D02*
D03*
Y591589D02*
D03*
Y596589D02*
D03*
Y601590D02*
D03*
Y606590D02*
D03*
Y611590D02*
D03*
Y616590D02*
D03*
Y621590D02*
D03*
X1913409Y624089D02*
D03*
Y619090D02*
D03*
Y614089D02*
D03*
Y609090D02*
D03*
Y604089D02*
D03*
Y599089D02*
D03*
Y594089D02*
D03*
Y589090D02*
D03*
Y584090D02*
D03*
Y579091D02*
D03*
Y574090D02*
D03*
Y569091D02*
D03*
D18*
X1822010Y583402D02*
D03*
Y596102D02*
D03*
X1767010Y532602D02*
D03*
Y545302D02*
D03*
X1822010Y621502D02*
D03*
X1767010Y608802D02*
D03*
X1822010D02*
D03*
X1767010Y621502D02*
D03*
Y596102D02*
D03*
Y583402D02*
D03*
Y558002D02*
D03*
X1822010Y570702D02*
D03*
Y558002D02*
D03*
Y532602D02*
D03*
X1767010Y570702D02*
D03*
X1822010Y545302D02*
D03*
D19*
X1918250Y308150D02*
D03*
Y263350D02*
D03*
X1827250Y308150D02*
D03*
Y263350D02*
D03*
X1765000Y308150D02*
D03*
Y263350D02*
D03*
X1674000Y308150D02*
D03*
Y263350D02*
D03*
D20*
X1927250Y404750D02*
D03*
Y386750D02*
D03*
X1845000Y751750D02*
D03*
Y733750D02*
D03*
X1788750Y753251D02*
D03*
Y735250D02*
D03*
X1670500Y459750D02*
D03*
Y441749D02*
D03*
X1722750Y459750D02*
D03*
Y441750D02*
D03*
X1480000Y161000D02*
D03*
Y179000D02*
D03*
X1415750Y161749D02*
D03*
Y179750D02*
D03*
D21*
X1838000Y478750D02*
D03*
X1820000D02*
D03*
D22*
X1571000Y236850D02*
D03*
X1760250Y432400D02*
D03*
X1425500Y49099D02*
D03*
X1284500Y133900D02*
D03*
X1513500Y266650D02*
D03*
D23*
X1571000Y266900D02*
D03*
X1760250Y402350D02*
D03*
X1425500Y79150D02*
D03*
X1284500Y103850D02*
D03*
X1513500Y236600D02*
D03*
D24*
X1636250Y397249D02*
D03*
X1617250Y390750D02*
D03*
Y403749D02*
D03*
X1682500Y391000D02*
D03*
X1701500Y397500D02*
D03*
Y384500D02*
D03*
D25*
X1610100Y454751D02*
D03*
X1521600Y327750D02*
D03*
X1405850Y325250D02*
D03*
X963410Y703810D02*
D03*
D26*
X1640150Y454751D02*
D03*
X1551651Y327750D02*
D03*
X1435900Y325250D02*
D03*
X993460Y703810D02*
D03*
D27*
X1277600Y672750D02*
D03*
X1263600D02*
D03*
X1249600D02*
D03*
Y700750D02*
D03*
X1263600D02*
D03*
X1277600D02*
D03*
X1249600Y686750D02*
D03*
X1277600D02*
D03*
X1263600D02*
D03*
D28*
X1366100Y763950D02*
D03*
Y751250D02*
D03*
Y738550D02*
D03*
Y725850D02*
D03*
Y713150D02*
D03*
Y700450D02*
D03*
Y687750D02*
D03*
Y675050D02*
D03*
Y662350D02*
D03*
Y649650D02*
D03*
Y636950D02*
D03*
Y624250D02*
D03*
Y611550D02*
D03*
Y598850D02*
D03*
X1191100D02*
D03*
Y611550D02*
D03*
Y624250D02*
D03*
Y636950D02*
D03*
Y649650D02*
D03*
Y662350D02*
D03*
Y675050D02*
D03*
Y687750D02*
D03*
Y700450D02*
D03*
Y713150D02*
D03*
Y725850D02*
D03*
Y738550D02*
D03*
Y751250D02*
D03*
Y763950D02*
D03*
D29*
X1348450Y586350D02*
D03*
X1335750D02*
D03*
X1323050D02*
D03*
X1310350D02*
D03*
X1297650D02*
D03*
X1284950D02*
D03*
X1272250D02*
D03*
X1259550D02*
D03*
X1246850D02*
D03*
X1234150D02*
D03*
X1221450D02*
D03*
X1208750D02*
D03*
D30*
X1103790Y156040D02*
D03*
Y85040D02*
D03*
X1213790Y156040D02*
D03*
Y85040D02*
D03*
X1213790Y316040D02*
D03*
Y245040D02*
D03*
X1093790Y316040D02*
D03*
Y245040D02*
D03*
D31*
X1335250Y108500D02*
D03*
Y127500D02*
D03*
X1361250D02*
D03*
Y118000D02*
D03*
Y108500D02*
D03*
D32*
X1321500Y320250D02*
D03*
D33*
X1344501Y257250D02*
D03*
X1321500D02*
D03*
X1298500D02*
D03*
M02*
