G04*
G04 #@! TF.GenerationSoftware,Altium Limited,Altium Designer,23.1.1 (15)*
G04*
G04 Layer_Color=65535*
%FSLAX44Y44*%
%MOMM*%
G71*
G04*
G04 #@! TF.SameCoordinates,1587853A-9B19-4160-AC70-F3A7ED46FF3E*
G04*
G04*
G04 #@! TF.FilePolarity,Positive*
G04*
G01*
G75*
%ADD10C,0.1270*%
%ADD11C,0.2000*%
%ADD12C,0.1500*%
%ADD13C,0.2500*%
%ADD14C,0.2540*%
%ADD15C,0.2032*%
%ADD16R,1.9000X0.8000*%
D10*
X1846818Y663198D02*
G03*
X1870002Y684818I782J22402D01*
G01*
X1756497D02*
G03*
X1779682Y663198I22402J782D01*
G01*
X1779807Y709802D02*
G03*
X1756498Y684807I843J-24152D01*
G01*
X1870002D02*
G03*
X1846693Y709802I-24152J843D01*
G01*
X1779750Y663200D02*
X1846750D01*
X1779750Y709800D02*
X1846750D01*
X1776760Y627052D02*
X1812260D01*
X1776760Y527052D02*
X1812260D01*
X1842750Y255750D02*
X1902750D01*
Y315750D01*
X1842750D02*
X1902750D01*
X1842750Y255750D02*
Y315750D01*
X1689500Y255750D02*
X1749500D01*
Y315750D01*
X1689500D02*
X1749500D01*
X1689500Y255750D02*
Y315750D01*
X1560350Y236000D02*
Y267000D01*
X1581650Y236000D02*
Y267000D01*
X1624950Y387249D02*
X1633000D01*
Y390550D01*
Y403950D02*
Y407249D01*
X1624950D02*
X1633000D01*
X1610000Y465401D02*
X1641000D01*
X1610000Y444100D02*
X1641000D01*
X1685750Y401000D02*
X1693800D01*
X1685750Y397700D02*
Y401000D01*
Y381000D02*
Y384300D01*
Y381000D02*
X1693800D01*
X1749600Y402250D02*
Y433250D01*
X1770900Y402250D02*
Y433250D01*
X1188600Y775850D02*
X1368600D01*
X1188600Y583850D02*
Y591150D01*
Y771650D02*
Y775850D01*
X1356150Y583850D02*
X1368600D01*
X1188600D02*
X1201050D01*
X1368600D02*
Y591150D01*
Y771650D02*
Y775850D01*
X1062290Y147040D02*
X1077290Y162040D01*
X1062290Y79040D02*
Y147040D01*
X1145290Y79040D02*
Y147040D01*
X1130290Y162040D02*
X1145290Y147040D01*
X1116990Y162040D02*
X1130290D01*
X1077290D02*
X1090590D01*
X1116990Y79040D02*
X1145290D01*
X1062290D02*
X1090590D01*
X1436150Y48250D02*
Y79250D01*
X1414850Y48250D02*
Y79250D01*
X1172290Y147040D02*
X1187290Y162040D01*
X1172290Y79040D02*
Y147040D01*
X1255290Y79040D02*
Y147040D01*
X1240290Y162040D02*
X1255290Y147040D01*
X1226990Y162040D02*
X1240290D01*
X1187290D02*
X1200590D01*
X1226990Y79040D02*
X1255290D01*
X1172290D02*
X1200590D01*
X1273849Y103750D02*
Y134750D01*
X1295150Y103750D02*
Y134750D01*
X1502850Y236500D02*
Y267500D01*
X1524150Y236500D02*
Y267500D01*
X1521500Y338400D02*
X1552500D01*
X1521500Y317100D02*
X1552500D01*
X1405750Y314599D02*
X1436750D01*
X1405750Y335900D02*
X1436750D01*
X1289001Y271250D02*
Y306250D01*
X1354000D01*
Y271250D02*
Y306250D01*
X1289001Y271250D02*
X1354000D01*
X1226990Y322040D02*
X1255290D01*
X1172290D02*
X1200590D01*
X1226990Y239040D02*
X1240290D01*
X1187290D02*
X1200590D01*
X1172290Y254040D02*
X1187290Y239040D01*
X1172290Y254040D02*
Y322040D01*
X1255290Y254040D02*
Y322040D01*
X1240290Y239040D02*
X1255290Y254040D01*
X1106990Y322040D02*
X1135290D01*
X1052290D02*
X1080590D01*
X1106990Y239040D02*
X1120290D01*
X1067290D02*
X1080590D01*
X1052290Y254040D02*
X1067290Y239040D01*
X1052290Y254040D02*
Y322040D01*
X1135290Y254040D02*
Y322040D01*
X1120290Y239040D02*
X1135290Y254040D01*
X963310Y693160D02*
X994310D01*
X963310Y714460D02*
X994310D01*
D11*
X1823010Y519502D02*
G03*
X1823010Y519502I-1000J0D01*
G01*
X1812240Y308240D02*
G03*
X1812240Y308240I-1000J0D01*
G01*
X1658990D02*
G03*
X1658990Y308240I-1000J0D01*
G01*
X1608090Y404550D02*
G03*
X1608090Y404550I-1000J0D01*
G01*
X1712660Y383700D02*
G03*
X1712660Y383700I-1000J0D01*
G01*
X1174600Y763950D02*
G03*
X1174600Y763950I-1000J0D01*
G01*
X1124790Y168540D02*
G03*
X1124790Y168540I-1000J0D01*
G01*
X1234790D02*
G03*
X1234790Y168540I-1000J0D01*
G01*
X1300000Y241250D02*
G03*
X1300000Y241250I-1000J0D01*
G01*
X1194790Y232540D02*
G03*
X1194790Y232540I-1000J0D01*
G01*
X1074790D02*
G03*
X1074790Y232540I-1000J0D01*
G01*
X1298800Y34800D02*
Y60200D01*
X1375000D01*
Y34800D02*
Y60200D01*
X1298800Y34800D02*
X1375000D01*
X1116900Y403550D02*
Y784550D01*
X1142300Y403550D02*
Y765500D01*
Y784550D01*
X1116900D02*
X1142300D01*
X1116900Y403550D02*
X1142300D01*
X1867500Y421251D02*
Y460251D01*
X1886500Y421251D02*
Y460251D01*
X1867500D02*
X1886500D01*
X1696212Y648934D02*
X1721612D01*
Y521934D02*
Y648934D01*
X1696212Y521934D02*
Y648934D01*
Y521934D02*
X1721612D01*
X1858772Y566892D02*
Y617692D01*
Y566892D02*
X1884172D01*
Y617692D01*
X1858772D02*
X1884172D01*
X1564100Y35650D02*
Y86450D01*
X1513300D02*
X1564100D01*
X1513300Y35650D02*
X1564100D01*
X1513300D02*
Y86450D01*
X1433900Y456900D02*
Y482300D01*
X1179900Y456900D02*
X1433900D01*
X1179900D02*
Y482300D01*
X1198950D01*
X1433900D01*
X1442150Y784400D02*
X1467550D01*
Y530400D02*
Y784400D01*
X1442150Y530400D02*
X1467550D01*
X1442150D02*
Y549450D01*
Y784400D01*
X1070650Y527550D02*
X1096050D01*
X1070650D02*
Y781550D01*
X1096050D01*
Y762500D02*
Y781550D01*
Y527550D02*
Y762500D01*
X1344000Y103500D02*
X1352500D01*
Y132500D01*
X1344000D02*
X1352500D01*
X1344000Y103500D02*
Y132500D01*
X1318650Y178300D02*
X1369450D01*
Y203700D01*
X1318650D02*
X1369450D01*
X1318650Y178300D02*
Y203700D01*
X1472050Y238550D02*
Y263950D01*
X1386450D02*
X1472050D01*
X1386450Y238550D02*
Y263950D01*
Y238550D02*
X1472050D01*
D12*
X1366050Y101270D02*
G03*
X1366050Y101270I-1000J0D01*
G01*
D13*
X1478110Y251260D02*
G03*
X1478110Y251260I-1250J0D01*
G01*
D14*
X1931888Y550640D02*
X1951514D01*
X1978824Y640040D02*
X1992190D01*
Y550640D02*
Y640040D01*
X1978824Y550640D02*
X1992190D01*
X1931889Y640040D02*
X1951514D01*
X23810Y83810D02*
X998810D01*
X23810Y658810D02*
X998810D01*
Y83810D02*
Y658810D01*
X23810Y83810D02*
Y658810D01*
X1257697Y50236D02*
X1255158Y52775D01*
X1250079D01*
X1247540Y50236D01*
Y40079D01*
X1250079Y37540D01*
X1255158D01*
X1257697Y40079D01*
Y45157D01*
X1252618D01*
X1262775Y37540D02*
Y52775D01*
X1272932Y37540D01*
Y52775D01*
X1278010D02*
Y37540D01*
X1285628D01*
X1288167Y40079D01*
Y50236D01*
X1285628Y52775D01*
X1278010D01*
X1298495Y67382D02*
Y82618D01*
X1306113D01*
X1308652Y80078D01*
Y75000D01*
X1306113Y72461D01*
X1298495D01*
X1313730Y67382D02*
X1318809D01*
X1316270D01*
Y82618D01*
X1313730Y80078D01*
X1326426Y67382D02*
X1331505D01*
X1328965D01*
Y82618D01*
X1326426Y80078D01*
X1317540Y25236D02*
X1320079Y27775D01*
X1325157D01*
X1327697Y25236D01*
Y22697D01*
X1325157Y20157D01*
X1322618D01*
X1325157D01*
X1327697Y17618D01*
Y15079D01*
X1325157Y12540D01*
X1320079D01*
X1317540Y15079D01*
X1332775Y27775D02*
Y17618D01*
X1337853Y12540D01*
X1342932Y17618D01*
Y27775D01*
X1348010Y25236D02*
X1350549Y27775D01*
X1355628D01*
X1358167Y25236D01*
Y22697D01*
X1355628Y20157D01*
X1353089D01*
X1355628D01*
X1358167Y17618D01*
Y15079D01*
X1355628Y12540D01*
X1350549D01*
X1348010Y15079D01*
X1357540Y82775D02*
Y72618D01*
X1362618Y67540D01*
X1367697Y72618D01*
Y82775D01*
X1382932Y80236D02*
X1380393Y82775D01*
X1375314D01*
X1372775Y80236D01*
Y70079D01*
X1375314Y67540D01*
X1380393D01*
X1382932Y70079D01*
X1398167Y80236D02*
X1395628Y82775D01*
X1390549D01*
X1388010Y80236D01*
Y70079D01*
X1390549Y67540D01*
X1395628D01*
X1398167Y70079D01*
X1672540Y217540D02*
Y232775D01*
X1680157D01*
X1682697Y230236D01*
Y225158D01*
X1680157Y222618D01*
X1672540D01*
X1677618D02*
X1682697Y217540D01*
X1697932Y232775D02*
X1687775D01*
Y217540D01*
X1697932D01*
X1687775Y225158D02*
X1692853D01*
X1713167Y230236D02*
X1710628Y232775D01*
X1705549D01*
X1703010Y230236D01*
Y227697D01*
X1705549Y225158D01*
X1710628D01*
X1713167Y222618D01*
Y220079D01*
X1710628Y217540D01*
X1705549D01*
X1703010Y220079D01*
X1728402Y232775D02*
X1718245D01*
Y217540D01*
X1728402D01*
X1718245Y225158D02*
X1723324D01*
X1733480Y232775D02*
X1743637D01*
X1738559D01*
Y217540D01*
X1867697Y232775D02*
X1857540D01*
Y217540D01*
X1867697D01*
X1857540Y225158D02*
X1862618D01*
X1872775Y217540D02*
Y232775D01*
X1882932Y217540D01*
Y232775D01*
X1582697Y40236D02*
X1580157Y42775D01*
X1575079D01*
X1572540Y40236D01*
Y30079D01*
X1575079Y27540D01*
X1580157D01*
X1582697Y30079D01*
Y35157D01*
X1577618D01*
X1587775Y27540D02*
Y42775D01*
X1597932Y27540D01*
Y42775D01*
X1603010D02*
Y27540D01*
X1610628D01*
X1613167Y30079D01*
Y40236D01*
X1610628Y42775D01*
X1603010D01*
X1572540Y97775D02*
Y87618D01*
X1577618Y82540D01*
X1582697Y87618D01*
Y97775D01*
X1587775Y90157D02*
X1597932D01*
X1592853Y95236D02*
Y85079D01*
X1181484Y490982D02*
Y506217D01*
X1189101D01*
X1191641Y503678D01*
Y498600D01*
X1189101Y496060D01*
X1181484D01*
X1196719Y490982D02*
X1201797D01*
X1199258D01*
Y506217D01*
X1196719Y503678D01*
X1219572Y506217D02*
X1209415D01*
Y498600D01*
X1214493Y501139D01*
X1217032D01*
X1219572Y498600D01*
Y493521D01*
X1217032Y490982D01*
X1211954D01*
X1209415Y493521D01*
X1146956Y777883D02*
Y793118D01*
X1154574D01*
X1157113Y790578D01*
Y785500D01*
X1154574Y782961D01*
X1146956D01*
X1162191Y777883D02*
X1167270D01*
X1164730D01*
Y793118D01*
X1162191Y790578D01*
X1182505Y777883D02*
Y793118D01*
X1174887Y785500D01*
X1185044D01*
X1418209Y208784D02*
X1415670Y211323D01*
X1410591D01*
X1408052Y208784D01*
Y198627D01*
X1410591Y196088D01*
X1415670D01*
X1418209Y198627D01*
X1433444Y196088D02*
X1423287D01*
X1433444Y206245D01*
Y208784D01*
X1430905Y211323D01*
X1425826D01*
X1423287Y208784D01*
X1448679Y196088D02*
X1438522D01*
X1448679Y206245D01*
Y208784D01*
X1446140Y211323D01*
X1441061D01*
X1438522Y208784D01*
X1482471Y208022D02*
X1479931Y210561D01*
X1474853D01*
X1472314Y208022D01*
Y197865D01*
X1474853Y195326D01*
X1479931D01*
X1482471Y197865D01*
X1497706Y195326D02*
X1487549D01*
X1497706Y205483D01*
Y208022D01*
X1495167Y210561D01*
X1490088D01*
X1487549Y208022D01*
X1502784Y195326D02*
X1507863D01*
X1505323D01*
Y210561D01*
X1502784Y208022D01*
X1016054Y114368D02*
Y101672D01*
X1018593Y99132D01*
X1023672D01*
X1026211Y101672D01*
Y114368D01*
X1041446D02*
X1036367Y111828D01*
X1031289Y106750D01*
Y101672D01*
X1033828Y99132D01*
X1038907D01*
X1041446Y101672D01*
Y104211D01*
X1038907Y106750D01*
X1031289D01*
X1288672Y355849D02*
Y345692D01*
X1293750Y340614D01*
X1298829Y345692D01*
Y355849D01*
X1303907Y340614D02*
Y355849D01*
X1311525D01*
X1314064Y353310D01*
Y348232D01*
X1311525Y345692D01*
X1303907D01*
X1308985D02*
X1314064Y340614D01*
X1319142D02*
X1324220D01*
X1321681D01*
Y355849D01*
X1319142Y353310D01*
X1329566Y158999D02*
Y146303D01*
X1332105Y143764D01*
X1337184D01*
X1339723Y146303D01*
Y158999D01*
X1344801Y156460D02*
X1347340Y158999D01*
X1352419D01*
X1354958Y156460D01*
Y153921D01*
X1352419Y151382D01*
X1354958Y148842D01*
Y146303D01*
X1352419Y143764D01*
X1347340D01*
X1344801Y146303D01*
Y148842D01*
X1347340Y151382D01*
X1344801Y153921D01*
Y156460D01*
X1347340Y151382D02*
X1352419D01*
X1424000Y290828D02*
X1421461Y293368D01*
X1416382D01*
X1413843Y290828D01*
Y288289D01*
X1416382Y285750D01*
X1421461D01*
X1424000Y283211D01*
Y280672D01*
X1421461Y278132D01*
X1416382D01*
X1413843Y280672D01*
X1429078Y278132D02*
X1434157D01*
X1431618D01*
Y293368D01*
X1429078Y290828D01*
X1416434Y94234D02*
Y109469D01*
X1424052D01*
X1426591Y106930D01*
Y101852D01*
X1424052Y99312D01*
X1416434D01*
X1421512D02*
X1426591Y94234D01*
X1431669D02*
X1436747D01*
X1434208D01*
Y109469D01*
X1431669Y106930D01*
X1444365Y109469D02*
X1454522D01*
Y106930D01*
X1444365Y96773D01*
Y94234D01*
X1275464Y149606D02*
Y164841D01*
X1283082D01*
X1285621Y162302D01*
Y157224D01*
X1283082Y154684D01*
X1275464D01*
X1280542D02*
X1285621Y149606D01*
X1290699D02*
X1295777D01*
X1293238D01*
Y164841D01*
X1290699Y162302D01*
X1313552Y164841D02*
X1308473Y162302D01*
X1303395Y157224D01*
Y152145D01*
X1305934Y149606D01*
X1311013D01*
X1313552Y152145D01*
Y154684D01*
X1311013Y157224D01*
X1303395D01*
X1504318Y282448D02*
Y297683D01*
X1511935D01*
X1514475Y295144D01*
Y290065D01*
X1511935Y287526D01*
X1504318D01*
X1509396D02*
X1514475Y282448D01*
X1519553D02*
X1524631D01*
X1522092D01*
Y297683D01*
X1519553Y295144D01*
X1542406Y297683D02*
X1532249D01*
Y290065D01*
X1537327Y292605D01*
X1539866D01*
X1542406Y290065D01*
Y284987D01*
X1539866Y282448D01*
X1534788D01*
X1532249Y284987D01*
X1561976Y281940D02*
Y297175D01*
X1569594D01*
X1572133Y294636D01*
Y289557D01*
X1569594Y287018D01*
X1561976D01*
X1567054D02*
X1572133Y281940D01*
X1577211D02*
X1582289D01*
X1579750D01*
Y297175D01*
X1577211Y294636D01*
X1597525Y281940D02*
Y297175D01*
X1589907Y289557D01*
X1600064D01*
X1516764Y346964D02*
Y362199D01*
X1524382D01*
X1526921Y359660D01*
Y354581D01*
X1524382Y352042D01*
X1516764D01*
X1521842D02*
X1526921Y346964D01*
X1531999D02*
X1537077D01*
X1534538D01*
Y362199D01*
X1531999Y359660D01*
X1544695D02*
X1547234Y362199D01*
X1552312D01*
X1554852Y359660D01*
Y357121D01*
X1552312Y354581D01*
X1549773D01*
X1552312D01*
X1554852Y352042D01*
Y349503D01*
X1552312Y346964D01*
X1547234D01*
X1544695Y349503D01*
X1400940Y344424D02*
Y359659D01*
X1408557D01*
X1411097Y357120D01*
Y352042D01*
X1408557Y349502D01*
X1400940D01*
X1406018D02*
X1411097Y344424D01*
X1416175D02*
X1421253D01*
X1418714D01*
Y359659D01*
X1416175Y357120D01*
X1439028Y344424D02*
X1428871D01*
X1439028Y354581D01*
Y357120D01*
X1436488Y359659D01*
X1431410D01*
X1428871Y357120D01*
X1267706Y183382D02*
Y198617D01*
X1275324D01*
X1277863Y196078D01*
Y191000D01*
X1275324Y188461D01*
X1267706D01*
X1282941Y183382D02*
X1288020D01*
X1285480D01*
Y198617D01*
X1282941Y196078D01*
X1295637D02*
X1298176Y198617D01*
X1303255D01*
X1305794Y196078D01*
Y193539D01*
X1303255Y191000D01*
X1300715D01*
X1303255D01*
X1305794Y188461D01*
Y185922D01*
X1303255Y183382D01*
X1298176D01*
X1295637Y185922D01*
X1040423Y224828D02*
X1037884Y227368D01*
X1032805D01*
X1030266Y224828D01*
Y214672D01*
X1032805Y212132D01*
X1037884D01*
X1040423Y214672D01*
X1055658Y212132D02*
X1045501D01*
X1055658Y222289D01*
Y224828D01*
X1053119Y227368D01*
X1048041D01*
X1045501Y224828D01*
X1060736D02*
X1063276Y227368D01*
X1068354D01*
X1070893Y224828D01*
Y214672D01*
X1068354Y212132D01*
X1063276D01*
X1060736Y214672D01*
Y224828D01*
X1182243Y199132D02*
X1179704Y201671D01*
X1174625D01*
X1172086Y199132D01*
Y188975D01*
X1174625Y186436D01*
X1179704D01*
X1182243Y188975D01*
X1187321Y186436D02*
X1192399D01*
X1189860D01*
Y201671D01*
X1187321Y199132D01*
X1200017Y188975D02*
X1202556Y186436D01*
X1207635D01*
X1210174Y188975D01*
Y199132D01*
X1207635Y201671D01*
X1202556D01*
X1200017Y199132D01*
Y196593D01*
X1202556Y194053D01*
X1210174D01*
X1062355Y359152D02*
X1059816Y361691D01*
X1054737D01*
X1052198Y359152D01*
Y348995D01*
X1054737Y346456D01*
X1059816D01*
X1062355Y348995D01*
X1067433Y346456D02*
X1072511D01*
X1069972D01*
Y361691D01*
X1067433Y359152D01*
X1080129D02*
X1082668Y361691D01*
X1087747D01*
X1090286Y359152D01*
Y356613D01*
X1087747Y354073D01*
X1090286Y351534D01*
Y348995D01*
X1087747Y346456D01*
X1082668D01*
X1080129Y348995D01*
Y351534D01*
X1082668Y354073D01*
X1080129Y356613D01*
Y359152D01*
X1082668Y354073D02*
X1087747D01*
X1182243Y359152D02*
X1179704Y361691D01*
X1174625D01*
X1172086Y359152D01*
Y348995D01*
X1174625Y346456D01*
X1179704D01*
X1182243Y348995D01*
X1187321Y346456D02*
X1192399D01*
X1189860D01*
Y361691D01*
X1187321Y359152D01*
X1200017Y361691D02*
X1210174D01*
Y359152D01*
X1200017Y348995D01*
Y346456D01*
X958472Y723138D02*
Y738373D01*
X966089D01*
X968629Y735834D01*
Y730755D01*
X966089Y728216D01*
X958472D01*
X963550D02*
X968629Y723138D01*
X973707Y735834D02*
X976246Y738373D01*
X981325D01*
X983864Y735834D01*
Y733295D01*
X981325Y730755D01*
X978785D01*
X981325D01*
X983864Y728216D01*
Y725677D01*
X981325Y723138D01*
X976246D01*
X973707Y725677D01*
X1474554Y59882D02*
Y75118D01*
X1482172D01*
X1484711Y72578D01*
Y67500D01*
X1482172Y64961D01*
X1474554D01*
X1499946Y75118D02*
X1489789D01*
Y67500D01*
X1494868Y70039D01*
X1497407D01*
X1499946Y67500D01*
Y62422D01*
X1497407Y59882D01*
X1492328D01*
X1489789Y62422D01*
X1755580Y735495D02*
Y732956D01*
X1760658Y727878D01*
X1765737Y732956D01*
Y735495D01*
X1760658Y727878D02*
Y720260D01*
X1770815D02*
X1775893D01*
X1773354D01*
Y735495D01*
X1770815Y732956D01*
X1860228Y626280D02*
Y641515D01*
X1867845D01*
X1870385Y638976D01*
Y633898D01*
X1867845Y631358D01*
X1860228D01*
X1883081Y626280D02*
Y641515D01*
X1875463Y633898D01*
X1885620D01*
X1791137Y782232D02*
X1788598Y784771D01*
X1783519D01*
X1780980Y782232D01*
Y772075D01*
X1783519Y769536D01*
X1788598D01*
X1791137Y772075D01*
X1806372Y784771D02*
X1801293Y782232D01*
X1796215Y777153D01*
Y772075D01*
X1798754Y769536D01*
X1803833D01*
X1806372Y772075D01*
Y774614D01*
X1803833Y777153D01*
X1796215D01*
X1847525Y780708D02*
X1844986Y783247D01*
X1839907D01*
X1837368Y780708D01*
Y770551D01*
X1839907Y768012D01*
X1844986D01*
X1847525Y770551D01*
X1862760Y783247D02*
X1852603D01*
Y775630D01*
X1857681Y778169D01*
X1860221D01*
X1862760Y775630D01*
Y770551D01*
X1860221Y768012D01*
X1855142D01*
X1852603Y770551D01*
X1760152Y652691D02*
Y639995D01*
X1762691Y637456D01*
X1767769D01*
X1770309Y639995D01*
Y652691D01*
X1775387Y650152D02*
X1777926Y652691D01*
X1783005D01*
X1785544Y650152D01*
Y647613D01*
X1783005Y645073D01*
X1780465D01*
X1783005D01*
X1785544Y642534D01*
Y639995D01*
X1783005Y637456D01*
X1777926D01*
X1775387Y639995D01*
X1909758Y667931D02*
Y655235D01*
X1912297Y652696D01*
X1917375D01*
X1919915Y655235D01*
Y667931D01*
X1935150Y652696D02*
X1924993D01*
X1935150Y662853D01*
Y665392D01*
X1932611Y667931D01*
X1927532D01*
X1924993Y665392D01*
X1668709Y356020D02*
X1666169Y358559D01*
X1661091D01*
X1658552Y356020D01*
Y353481D01*
X1661091Y350942D01*
X1666169D01*
X1668709Y348402D01*
Y345863D01*
X1666169Y343324D01*
X1661091D01*
X1658552Y345863D01*
X1673787Y358559D02*
Y343324D01*
X1678865Y348402D01*
X1683944Y343324D01*
Y358559D01*
X1699179Y343324D02*
X1689022D01*
X1699179Y353481D01*
Y356020D01*
X1696640Y358559D01*
X1691561D01*
X1689022Y356020D01*
X1821871D02*
X1819332Y358559D01*
X1814253D01*
X1811714Y356020D01*
Y353481D01*
X1814253Y350942D01*
X1819332D01*
X1821871Y348402D01*
Y345863D01*
X1819332Y343324D01*
X1814253D01*
X1811714Y345863D01*
X1826949Y358559D02*
Y343324D01*
X1832027Y348402D01*
X1837106Y343324D01*
Y358559D01*
X1842184Y343324D02*
X1847263D01*
X1844723D01*
Y358559D01*
X1842184Y356020D01*
X1751262Y448226D02*
Y463461D01*
X1758880D01*
X1761419Y460922D01*
Y455844D01*
X1758880Y453304D01*
X1751262D01*
X1756340D02*
X1761419Y448226D01*
X1776654D02*
X1766497D01*
X1776654Y458383D01*
Y460922D01*
X1774115Y463461D01*
X1769036D01*
X1766497Y460922D01*
X1605212Y474134D02*
Y489369D01*
X1612829D01*
X1615369Y486830D01*
Y481752D01*
X1612829Y479212D01*
X1605212D01*
X1610290D02*
X1615369Y474134D01*
X1620447D02*
X1625525D01*
X1622986D01*
Y489369D01*
X1620447Y486830D01*
X1688013Y413935D02*
Y424092D01*
X1685473Y426631D01*
X1680395D01*
X1677856Y424092D01*
Y413935D01*
X1680395Y411396D01*
X1685473D01*
X1682934Y416474D02*
X1688013Y411396D01*
X1685473D02*
X1688013Y413935D01*
X1703248Y411396D02*
X1693091D01*
X1703248Y421553D01*
Y424092D01*
X1700709Y426631D01*
X1695630D01*
X1693091Y424092D01*
X1617909Y420285D02*
Y430442D01*
X1615370Y432981D01*
X1610291D01*
X1607752Y430442D01*
Y420285D01*
X1610291Y417746D01*
X1615370D01*
X1612830Y422824D02*
X1617909Y417746D01*
X1615370D02*
X1617909Y420285D01*
X1622987Y417746D02*
X1628065D01*
X1625526D01*
Y432981D01*
X1622987Y430442D01*
X1697668Y657522D02*
Y672757D01*
X1705285D01*
X1707825Y670218D01*
Y665139D01*
X1705285Y662600D01*
X1697668D01*
X1712903Y670218D02*
X1715442Y672757D01*
X1720521D01*
X1723060Y670218D01*
Y667679D01*
X1720521Y665139D01*
X1717981D01*
X1720521D01*
X1723060Y662600D01*
Y660061D01*
X1720521Y657522D01*
X1715442D01*
X1712903Y660061D01*
X1422232Y555796D02*
X1437467D01*
Y548178D01*
X1434928Y545639D01*
X1429850D01*
X1427311Y548178D01*
Y555796D01*
X1422232Y530404D02*
Y540561D01*
X1432389Y530404D01*
X1434928D01*
X1437467Y532943D01*
Y538022D01*
X1434928Y540561D01*
X1090467Y498193D02*
X1075232D01*
Y505811D01*
X1077772Y508350D01*
X1082850D01*
X1085389Y505811D01*
Y498193D01*
X1090467Y513428D02*
Y518507D01*
Y515967D01*
X1075232D01*
X1077772Y513428D01*
X1869118Y507657D02*
Y492422D01*
X1876736D01*
X1879275Y494961D01*
Y505118D01*
X1876736Y507657D01*
X1869118D01*
X1884353Y492422D02*
X1889431D01*
X1886892D01*
Y507657D01*
X1884353Y505118D01*
X1929821Y433744D02*
X1927281Y436283D01*
X1922203D01*
X1919664Y433744D01*
Y423587D01*
X1922203Y421048D01*
X1927281D01*
X1929821Y423587D01*
X1942517Y421048D02*
Y436283D01*
X1934899Y428666D01*
X1945056D01*
X1823922Y440711D02*
X1821382Y438172D01*
Y433093D01*
X1823922Y430554D01*
X1834078D01*
X1836617Y433093D01*
Y438172D01*
X1834078Y440711D01*
X1823922Y445789D02*
X1821382Y448329D01*
Y453407D01*
X1823922Y455946D01*
X1826461D01*
X1829000Y453407D01*
Y450868D01*
Y453407D01*
X1831539Y455946D01*
X1834078D01*
X1836617Y453407D01*
Y448329D01*
X1834078Y445789D01*
X1725097Y488862D02*
X1722558Y491401D01*
X1717479D01*
X1714940Y488862D01*
Y478705D01*
X1717479Y476166D01*
X1722558D01*
X1725097Y478705D01*
X1740332Y476166D02*
X1730175D01*
X1740332Y486323D01*
Y488862D01*
X1737793Y491401D01*
X1732714D01*
X1730175Y488862D01*
X1673027D02*
X1670488Y491401D01*
X1665409D01*
X1662870Y488862D01*
Y478705D01*
X1665409Y476166D01*
X1670488D01*
X1673027Y478705D01*
X1678105Y476166D02*
X1683183D01*
X1680644D01*
Y491401D01*
X1678105Y488862D01*
X1388443Y777467D02*
Y764771D01*
X1390982Y762232D01*
X1396061D01*
X1398600Y764771D01*
Y777467D01*
X1403678Y762232D02*
X1408757D01*
X1406217D01*
Y777467D01*
X1403678Y774928D01*
D15*
X1520920Y94070D02*
Y89838D01*
Y91954D01*
X1533616D01*
X1531500Y94070D01*
X1546320Y90686D02*
Y99150D01*
X1554784Y90686D01*
X1556900D01*
X1559016Y92802D01*
Y97034D01*
X1556900Y99150D01*
X1546320Y26762D02*
X1559016D01*
X1552668Y33110D01*
Y24646D01*
X1531500Y33110D02*
X1533616Y30994D01*
Y26762D01*
X1531500Y24646D01*
X1529384D01*
X1527268Y26762D01*
Y28878D01*
Y26762D01*
X1525152Y24646D01*
X1523036D01*
X1520920Y26762D01*
Y30994D01*
X1523036Y33110D01*
D16*
X1876999Y424251D02*
D03*
M02*
