G04*
G04 #@! TF.GenerationSoftware,Altium Limited,Altium Designer,23.1.1 (15)*
G04*
G04 Layer_Physical_Order=2*
G04 Layer_Color=16711680*
%FSLAX44Y44*%
%MOMM*%
G71*
G04*
G04 #@! TF.SameCoordinates,1587853A-9B19-4160-AC70-F3A7ED46FF3E*
G04*
G04*
G04 #@! TF.FilePolarity,Positive*
G04*
G01*
G75*
%ADD14C,0.2540*%
%ADD66C,1.5000*%
%ADD67R,1.5000X1.5000*%
%ADD68C,5.0000*%
%ADD69R,1.5000X1.5000*%
%ADD70C,1.0300*%
%ADD71O,2.3000X1.6000*%
%ADD72O,2.3000X1.0000*%
%ADD73C,0.5500*%
%ADD74C,1.8500*%
%ADD75R,1.8500X1.8500*%
%ADD76C,1.5240*%
%ADD77C,3.2500*%
%ADD78C,1.5300*%
%ADD79R,1.5300X1.5300*%
%ADD80C,0.5000*%
G36*
X1990000Y10000D02*
X1546157D01*
X1545765Y11198D01*
X1545764Y11270D01*
X1554147Y19654D01*
X1554989Y20914D01*
X1555285Y22400D01*
Y39000D01*
X1557565Y40316D01*
X1559434Y42186D01*
X1560756Y44475D01*
X1561440Y47028D01*
Y47080D01*
X1551400D01*
X1541360D01*
Y47028D01*
X1542045Y44475D01*
X1543366Y42186D01*
X1545236Y40316D01*
X1547516Y39000D01*
Y24009D01*
X1541391Y17885D01*
X1535609D01*
X1529885Y23609D01*
Y39000D01*
X1532165Y40316D01*
X1534034Y42186D01*
X1535356Y44475D01*
X1536040Y47028D01*
Y47080D01*
X1526001D01*
Y48350D01*
D01*
Y47080D01*
X1515960D01*
Y47028D01*
X1516645Y44475D01*
X1517966Y42186D01*
X1519836Y40316D01*
X1522116Y39000D01*
Y22000D01*
X1522411Y20513D01*
X1523254Y19253D01*
X1531236Y11270D01*
X1531235Y11198D01*
X1530843Y10000D01*
X40396D01*
X40296Y11270D01*
X44199Y11888D01*
X48322Y13228D01*
X52184Y15196D01*
X55691Y17744D01*
X58756Y20809D01*
X61304Y24316D01*
X63272Y28178D01*
X64612Y32301D01*
X65290Y36583D01*
Y40918D01*
X64612Y45199D01*
X63272Y49322D01*
X61304Y53184D01*
X58756Y56691D01*
X55691Y59756D01*
X52184Y62304D01*
X48322Y64272D01*
X44199Y65612D01*
X39917Y66290D01*
X35582D01*
X31301Y65612D01*
X27178Y64272D01*
X23316Y62304D01*
X19809Y59756D01*
X16744Y56691D01*
X14196Y53184D01*
X12228Y49322D01*
X11270Y46374D01*
X10000Y46575D01*
Y197460D01*
X11270Y197986D01*
X29753Y179503D01*
X31013Y178661D01*
X32500Y178365D01*
X144000D01*
X145487Y178661D01*
X146747Y179503D01*
X191109Y223865D01*
X285000D01*
X286487Y224161D01*
X287747Y225003D01*
X289109Y226365D01*
X317750D01*
X319237Y226661D01*
X320497Y227503D01*
X327247Y234253D01*
X328089Y235513D01*
X328385Y237000D01*
Y244109D01*
X330146Y245126D01*
X332044Y247023D01*
X333385Y249347D01*
X334080Y251939D01*
Y254622D01*
X333385Y257213D01*
X332044Y259537D01*
X330146Y261434D01*
X327823Y262776D01*
X325231Y263470D01*
X322548D01*
X319956Y262776D01*
X317633Y261434D01*
X315735Y259537D01*
X314394Y257213D01*
X313700Y254622D01*
Y251939D01*
X314394Y249347D01*
X315735Y247023D01*
X317633Y245126D01*
X319956Y243785D01*
X320615Y243608D01*
Y238609D01*
X316141Y234135D01*
X289109D01*
X279416Y243828D01*
Y245196D01*
X281244Y247023D01*
X282585Y249347D01*
X283280Y251939D01*
Y254622D01*
X282585Y257213D01*
X281244Y259537D01*
X279346Y261434D01*
X277023Y262776D01*
X274431Y263470D01*
X271748D01*
X269156Y262776D01*
X266833Y261434D01*
X264935Y259537D01*
X263594Y257213D01*
X262900Y254622D01*
Y251939D01*
X263594Y249347D01*
X264935Y247023D01*
X266833Y245126D01*
X269156Y243785D01*
X271646Y243117D01*
Y242219D01*
X271942Y240732D01*
X272784Y239472D01*
X279448Y232808D01*
X278962Y231635D01*
X189500D01*
X188013Y231339D01*
X186753Y230497D01*
X142391Y186135D01*
X34109D01*
X17385Y202859D01*
Y417493D01*
X17635Y418750D01*
Y497743D01*
X17885Y499000D01*
Y562141D01*
X21247Y565503D01*
X21750Y566257D01*
X31109Y575615D01*
X132391D01*
X148777Y559229D01*
X165163Y542843D01*
Y541365D01*
X163335Y539537D01*
X161994Y537213D01*
X161300Y534622D01*
Y531939D01*
X161994Y529347D01*
X163335Y527023D01*
X165233Y525126D01*
X167556Y523785D01*
X170148Y523090D01*
X172831D01*
X175423Y523785D01*
X177746Y525126D01*
X179644Y527023D01*
X180985Y529347D01*
X181680Y531939D01*
Y534622D01*
X180985Y537213D01*
X179644Y539537D01*
X177746Y541434D01*
X175423Y542776D01*
X172933Y543443D01*
Y544452D01*
X172637Y545939D01*
X171795Y547199D01*
X162076Y556918D01*
X162562Y558091D01*
X391165D01*
X394615Y554641D01*
Y541886D01*
X393833Y541434D01*
X391936Y539537D01*
X390594Y537213D01*
X389900Y534622D01*
Y531939D01*
X390594Y529347D01*
X391936Y527023D01*
X393833Y525126D01*
X396156Y523785D01*
X398748Y523090D01*
X401431D01*
X404023Y523785D01*
X406346Y525126D01*
X408244Y527023D01*
X409585Y529347D01*
X410280Y531939D01*
Y534622D01*
X409585Y537213D01*
X408244Y539537D01*
X406346Y541434D01*
X404023Y542776D01*
X402385Y543215D01*
Y553365D01*
X436500D01*
X437987Y553661D01*
X439247Y554503D01*
X454872Y570128D01*
X455714Y571388D01*
X456010Y572875D01*
Y588835D01*
X457280Y589361D01*
X458435Y588206D01*
X460724Y586884D01*
X463278Y586200D01*
X465921D01*
X468475Y586884D01*
X470764Y588206D01*
X472634Y590075D01*
X473955Y592365D01*
X474640Y594918D01*
Y597562D01*
X473955Y600115D01*
X472634Y602405D01*
X470764Y604274D01*
X468475Y605596D01*
X465921Y606280D01*
X463278D01*
X460724Y605596D01*
X458435Y604274D01*
X457280Y603119D01*
X456010Y603645D01*
Y624266D01*
X462859Y631115D01*
X486250D01*
X487737Y631411D01*
X488722Y632069D01*
X488997Y632253D01*
X489838Y631331D01*
X489621Y631115D01*
X487253Y628746D01*
X486410Y627486D01*
X486115Y625999D01*
Y606280D01*
X479959D01*
Y586200D01*
X500039D01*
Y606280D01*
X493884D01*
Y624390D01*
X494859Y625365D01*
X615641D01*
X720960Y520046D01*
Y519497D01*
X721727Y517645D01*
X723145Y516227D01*
X724997Y515460D01*
X727002D01*
X728855Y516227D01*
X730273Y517645D01*
X731040Y519497D01*
Y521502D01*
X730273Y523355D01*
X728855Y524773D01*
X727002Y525540D01*
X726454D01*
X619997Y631997D01*
X618737Y632839D01*
X617250Y633135D01*
X493250D01*
X491763Y632839D01*
X490778Y632181D01*
X490503Y631997D01*
X489662Y632919D01*
X489879Y633135D01*
X545747Y689003D01*
X546589Y690263D01*
X546885Y691750D01*
Y717391D01*
X577359Y747865D01*
X650141D01*
X713253Y684753D01*
X714513Y683911D01*
X716000Y683615D01*
X936250D01*
X937737Y683911D01*
X938997Y684753D01*
X968409Y714165D01*
X1073999D01*
X1075316Y711885D01*
X1077185Y710016D01*
X1079474Y708694D01*
X1082028Y708010D01*
X1084671D01*
X1087225Y708694D01*
X1089514Y710016D01*
X1091384Y711885D01*
X1092706Y714174D01*
X1093390Y716728D01*
Y719372D01*
X1092706Y721925D01*
X1091384Y724214D01*
X1089514Y726084D01*
X1087225Y727406D01*
X1084671Y728090D01*
X1082028D01*
X1079474Y727406D01*
X1077185Y726084D01*
X1075316Y724214D01*
X1073999Y721935D01*
X966800D01*
X965313Y721639D01*
X964053Y720797D01*
X934641Y691385D01*
X717609D01*
X654497Y754497D01*
X653237Y755339D01*
X651750Y755635D01*
X575750D01*
X574263Y755339D01*
X573003Y754497D01*
X540253Y721747D01*
X539411Y720487D01*
X539115Y719000D01*
Y693359D01*
X484641Y638885D01*
X461250D01*
X459763Y638589D01*
X458503Y637747D01*
X449378Y628622D01*
X448536Y627362D01*
X448240Y625875D01*
Y603040D01*
X446970Y602668D01*
X445364Y604274D01*
X443084Y605591D01*
Y629340D01*
X571859Y758115D01*
X704641D01*
X712253Y750503D01*
X713513Y749661D01*
X715000Y749365D01*
X1038500D01*
X1039987Y749661D01*
X1041247Y750503D01*
X1041911Y751167D01*
X1075209D01*
X1075695Y749994D01*
X1075316Y749614D01*
X1073994Y747325D01*
X1073310Y744772D01*
Y742128D01*
X1073994Y739575D01*
X1075316Y737285D01*
X1077185Y735416D01*
X1079474Y734094D01*
X1082028Y733410D01*
X1084671D01*
X1087225Y734094D01*
X1089514Y735416D01*
X1091384Y737285D01*
X1092706Y739575D01*
X1093390Y742128D01*
Y744772D01*
X1092706Y747325D01*
X1091384Y749614D01*
X1091004Y749994D01*
X1091490Y751167D01*
X1101052D01*
X1102539Y751463D01*
X1103799Y752305D01*
X1106359Y754865D01*
X1122020D01*
X1122546Y753595D01*
X1121566Y752615D01*
X1120244Y750325D01*
X1119560Y747772D01*
Y745128D01*
X1120244Y742575D01*
X1121566Y740285D01*
X1123435Y738416D01*
X1125724Y737094D01*
X1128278Y736410D01*
X1130921D01*
X1133475Y737094D01*
X1135764Y738416D01*
X1137634Y740285D01*
X1138950Y742565D01*
X1157086D01*
X1158572Y742861D01*
X1159833Y743703D01*
X1164495Y748365D01*
X1185391D01*
X1192115Y741641D01*
Y696359D01*
X1176503Y680747D01*
X1175661Y679487D01*
X1175365Y678000D01*
Y530109D01*
X1155253Y509997D01*
X1154411Y508737D01*
X1154115Y507250D01*
Y405500D01*
X1154411Y404013D01*
X1155253Y402753D01*
X1185115Y372891D01*
Y228500D01*
X1185411Y227013D01*
X1186253Y225753D01*
X1196753Y215253D01*
X1198013Y214411D01*
X1199500Y214115D01*
X1275442D01*
X1275968Y212845D01*
X1275477Y212355D01*
X1274821Y210770D01*
X1284679D01*
X1284023Y212355D01*
X1283532Y212845D01*
X1284058Y214115D01*
X1328141D01*
X1346710Y195546D01*
Y180960D01*
X1366790D01*
Y201040D01*
X1352204D01*
X1332497Y220747D01*
X1331237Y221589D01*
X1329750Y221885D01*
X1201109D01*
X1192885Y230109D01*
Y374500D01*
X1192589Y375987D01*
X1191747Y377247D01*
X1161885Y407109D01*
Y505641D01*
X1181997Y525753D01*
X1182839Y527013D01*
X1183135Y528500D01*
Y676391D01*
X1198747Y692003D01*
X1199589Y693263D01*
X1199885Y694750D01*
Y743250D01*
X1199589Y744737D01*
X1198747Y745997D01*
X1191052Y753692D01*
X1191538Y754865D01*
X1241365D01*
Y687250D01*
X1241661Y685763D01*
X1242503Y684503D01*
X1305865Y621141D01*
Y620788D01*
X1306161Y619301D01*
X1307003Y618041D01*
X1308491Y616553D01*
X1309751Y615711D01*
X1311238Y615415D01*
X1445500D01*
X1446816Y613135D01*
X1448685Y611266D01*
X1450975Y609944D01*
X1453528Y609260D01*
X1456172D01*
X1458725Y609944D01*
X1461015Y611266D01*
X1462884Y613135D01*
X1464206Y615424D01*
X1464890Y617978D01*
Y620622D01*
X1464206Y623175D01*
X1462884Y625465D01*
X1461015Y627334D01*
X1458725Y628656D01*
X1456172Y629340D01*
X1453528D01*
X1450975Y628656D01*
X1448685Y627334D01*
X1446816Y625465D01*
X1445500Y623185D01*
X1313548D01*
X1313339Y624237D01*
X1312497Y625497D01*
X1249135Y688859D01*
Y757262D01*
X1248839Y758749D01*
X1247997Y760009D01*
X1246509Y761497D01*
X1245249Y762339D01*
X1243762Y762635D01*
X1139640D01*
Y770580D01*
X1129600D01*
X1119560D01*
Y762635D01*
X1104750D01*
X1103263Y762339D01*
X1102003Y761497D01*
X1099443Y758937D01*
X1093390D01*
Y778890D01*
X1073310D01*
Y772735D01*
X1046350D01*
X1044863Y772439D01*
X1043660Y771635D01*
X1025750D01*
X1024263Y771339D01*
X1023003Y770497D01*
X1021046Y768540D01*
X1020498D01*
X1018645Y767773D01*
X1017227Y766355D01*
X1016460Y764502D01*
Y762497D01*
X1017227Y760645D01*
X1018645Y759227D01*
X1020498Y758460D01*
X1022503D01*
X1024355Y759227D01*
X1025773Y760645D01*
X1026540Y762497D01*
Y763046D01*
X1027359Y763865D01*
X1045250D01*
X1046737Y764161D01*
X1047940Y764965D01*
X1073310D01*
Y758937D01*
X1040302D01*
X1038816Y758641D01*
X1037555Y757799D01*
X1036891Y757135D01*
X716609D01*
X708997Y764747D01*
X707737Y765589D01*
X706250Y765885D01*
X570250D01*
X568763Y765589D01*
X567503Y764747D01*
X436453Y633696D01*
X435611Y632436D01*
X435315Y630950D01*
Y605591D01*
X433035Y604274D01*
X431166Y602405D01*
X429844Y600115D01*
X429160Y597562D01*
Y594918D01*
X429844Y592365D01*
X431166Y590075D01*
X433035Y588206D01*
X435324Y586884D01*
X437878Y586200D01*
X440521D01*
X443075Y586884D01*
X445364Y588206D01*
X446970Y589812D01*
X448240Y589440D01*
Y574484D01*
X434891Y561135D01*
X399109D01*
X395521Y564723D01*
X394261Y565565D01*
X392774Y565861D01*
X153133D01*
X136747Y582247D01*
X135487Y583089D01*
X134000Y583385D01*
X29500D01*
X28013Y583089D01*
X26753Y582247D01*
X15753Y571247D01*
X15250Y570493D01*
X11270Y566514D01*
X11198Y566515D01*
X10000Y566907D01*
Y755925D01*
X11270Y756126D01*
X12228Y753178D01*
X14196Y749316D01*
X16744Y745809D01*
X19809Y742744D01*
X23316Y740196D01*
X27178Y738228D01*
X31301Y736888D01*
X35582Y736210D01*
X39917D01*
X44199Y736888D01*
X48322Y738228D01*
X52184Y740196D01*
X55691Y742744D01*
X58756Y745809D01*
X61304Y749316D01*
X63272Y753178D01*
X64612Y757301D01*
X65290Y761583D01*
Y765918D01*
X64612Y770199D01*
X63272Y774322D01*
X61304Y778184D01*
X58756Y781691D01*
X55691Y784756D01*
X52184Y787304D01*
X48322Y789272D01*
X44199Y790612D01*
X39917Y791290D01*
X35582D01*
X31301Y790612D01*
X27178Y789272D01*
X23316Y787304D01*
X19809Y784756D01*
X16744Y781691D01*
X14196Y778184D01*
X12228Y774322D01*
X11270Y771374D01*
X10000Y771575D01*
Y795000D01*
X1022210D01*
X1022736Y793730D01*
X1008891Y779885D01*
X855000D01*
X853513Y779589D01*
X852253Y778747D01*
X851891Y778385D01*
X499500D01*
X498013Y778089D01*
X496753Y777247D01*
X492141Y772635D01*
X487833D01*
X486346Y772339D01*
X485086Y771497D01*
X482724Y769135D01*
X480993D01*
X480605Y769523D01*
X478753Y770290D01*
X476748D01*
X474895Y769523D01*
X473477Y768105D01*
X472710Y766253D01*
Y764248D01*
X473477Y762395D01*
X474895Y760977D01*
X476748Y760210D01*
X478753D01*
X480605Y760977D01*
X480993Y761365D01*
X484333D01*
X485819Y761661D01*
X487080Y762503D01*
X488595Y764019D01*
X489865Y763493D01*
Y706468D01*
X489395Y706273D01*
X487977Y704855D01*
X487210Y703002D01*
Y700997D01*
X487977Y699145D01*
X489395Y697727D01*
X491247Y696960D01*
X493252D01*
X495105Y697727D01*
X496523Y699145D01*
X497290Y700997D01*
Y701940D01*
X497339Y702013D01*
X497635Y703500D01*
Y767141D01*
X501109Y770615D01*
X853500D01*
X854987Y770911D01*
X856247Y771753D01*
X856609Y772115D01*
X1010500D01*
X1011987Y772411D01*
X1013247Y773253D01*
X1028109Y788115D01*
X1163141D01*
X1177003Y774253D01*
X1178263Y773411D01*
X1179750Y773115D01*
X1263891D01*
X1271615Y765391D01*
Y720750D01*
X1271911Y719263D01*
X1272753Y718003D01*
X1348803Y641953D01*
X1350064Y641111D01*
X1351550Y640815D01*
X1445500D01*
X1446816Y638535D01*
X1448685Y636666D01*
X1450975Y635344D01*
X1453528Y634660D01*
X1456172D01*
X1458725Y635344D01*
X1461015Y636666D01*
X1462884Y638535D01*
X1464206Y640825D01*
X1464890Y643378D01*
Y646022D01*
X1464206Y648575D01*
X1462884Y650864D01*
X1461015Y652734D01*
X1458725Y654056D01*
X1456172Y654740D01*
X1453528D01*
X1450975Y654056D01*
X1448685Y652734D01*
X1446816Y650864D01*
X1445500Y648585D01*
X1353159D01*
X1279385Y722359D01*
Y767000D01*
X1279089Y768487D01*
X1278247Y769747D01*
X1268247Y779747D01*
X1266987Y780589D01*
X1265500Y780885D01*
X1181359D01*
X1168514Y793730D01*
X1169040Y795000D01*
X1990000D01*
Y10000D01*
D02*
G37*
G36*
X12228Y28178D02*
X14196Y24316D01*
X16744Y20809D01*
X19809Y17744D01*
X23316Y15196D01*
X27178Y13228D01*
X31301Y11888D01*
X35204Y11270D01*
X35104Y10000D01*
X10000D01*
Y30925D01*
X11270Y31126D01*
X12228Y28178D01*
D02*
G37*
%LPC*%
G36*
X1139640Y781890D02*
X1130870D01*
Y773120D01*
X1139640D01*
Y781890D01*
D02*
G37*
G36*
X1128330D02*
X1119560D01*
Y773120D01*
X1128330D01*
Y781890D01*
D02*
G37*
G36*
X1456172Y781740D02*
X1453528D01*
X1450975Y781056D01*
X1448685Y779734D01*
X1446816Y777865D01*
X1445494Y775575D01*
X1444810Y773022D01*
Y770378D01*
X1445494Y767824D01*
X1446816Y765535D01*
X1448685Y763666D01*
X1450975Y762344D01*
X1453528Y761660D01*
X1456172D01*
X1458725Y762344D01*
X1461015Y763666D01*
X1462884Y765535D01*
X1464206Y767824D01*
X1464890Y770378D01*
Y773022D01*
X1464206Y775575D01*
X1462884Y777865D01*
X1461015Y779734D01*
X1458725Y781056D01*
X1456172Y781740D01*
D02*
G37*
G36*
Y756340D02*
X1453528D01*
X1450975Y755656D01*
X1448685Y754334D01*
X1446816Y752465D01*
X1445494Y750175D01*
X1444810Y747622D01*
Y744978D01*
X1445494Y742424D01*
X1446816Y740135D01*
X1448685Y738266D01*
X1450975Y736944D01*
X1453528Y736260D01*
X1456172D01*
X1458725Y736944D01*
X1461015Y738266D01*
X1462884Y740135D01*
X1464206Y742424D01*
X1464890Y744978D01*
Y747622D01*
X1464206Y750175D01*
X1462884Y752465D01*
X1461015Y754334D01*
X1458725Y755656D01*
X1456172Y756340D01*
D02*
G37*
G36*
X1960918Y791040D02*
X1956582D01*
X1952301Y790362D01*
X1948178Y789022D01*
X1944316Y787054D01*
X1940809Y784506D01*
X1937744Y781441D01*
X1935196Y777934D01*
X1933228Y774072D01*
X1931888Y769949D01*
X1931210Y765667D01*
Y761332D01*
X1931888Y757051D01*
X1933228Y752928D01*
X1935196Y749066D01*
X1937744Y745559D01*
X1940809Y742494D01*
X1944316Y739946D01*
X1948178Y737978D01*
X1952301Y736638D01*
X1956582Y735960D01*
X1960918D01*
X1965199Y736638D01*
X1969322Y737978D01*
X1973184Y739946D01*
X1976691Y742494D01*
X1979756Y745559D01*
X1982304Y749066D01*
X1984272Y752928D01*
X1985612Y757051D01*
X1986290Y761332D01*
Y765667D01*
X1985612Y769949D01*
X1984272Y774072D01*
X1982304Y777934D01*
X1979756Y781441D01*
X1976691Y784506D01*
X1973184Y787054D01*
X1969322Y789022D01*
X1965199Y790362D01*
X1960918Y791040D01*
D02*
G37*
G36*
X1456172Y730940D02*
X1453528D01*
X1450975Y730256D01*
X1448685Y728934D01*
X1446816Y727065D01*
X1445494Y724775D01*
X1444810Y722222D01*
Y719578D01*
X1445494Y717025D01*
X1446816Y714735D01*
X1448685Y712866D01*
X1450975Y711544D01*
X1453528Y710860D01*
X1456172D01*
X1458725Y711544D01*
X1461015Y712866D01*
X1462884Y714735D01*
X1464206Y717025D01*
X1464890Y719578D01*
Y722222D01*
X1464206Y724775D01*
X1462884Y727065D01*
X1461015Y728934D01*
X1458725Y730256D01*
X1456172Y730940D01*
D02*
G37*
G36*
X1084671Y702690D02*
X1084620D01*
Y693920D01*
X1093390D01*
Y693972D01*
X1092706Y696525D01*
X1091384Y698814D01*
X1089514Y700684D01*
X1087225Y702006D01*
X1084671Y702690D01*
D02*
G37*
G36*
X1082080D02*
X1082028D01*
X1079474Y702006D01*
X1077185Y700684D01*
X1075316Y698814D01*
X1073994Y696525D01*
X1073310Y693972D01*
Y693920D01*
X1082080D01*
Y702690D01*
D02*
G37*
G36*
X1456172Y705540D02*
X1453528D01*
X1450975Y704856D01*
X1448685Y703534D01*
X1446816Y701665D01*
X1445494Y699375D01*
X1444810Y696822D01*
Y694178D01*
X1445494Y691625D01*
X1446816Y689335D01*
X1448685Y687466D01*
X1450975Y686144D01*
X1453528Y685460D01*
X1456172D01*
X1458725Y686144D01*
X1461015Y687466D01*
X1462884Y689335D01*
X1464200Y691615D01*
X1513641D01*
X1514960Y690296D01*
Y689747D01*
X1515727Y687895D01*
X1517145Y686477D01*
X1518997Y685710D01*
X1521003D01*
X1522855Y686477D01*
X1524273Y687895D01*
X1525040Y689747D01*
Y691752D01*
X1524273Y693605D01*
X1522855Y695023D01*
X1521003Y695790D01*
X1520454D01*
X1517997Y698247D01*
X1516737Y699089D01*
X1515250Y699385D01*
X1464200D01*
X1462884Y701665D01*
X1461015Y703534D01*
X1458725Y704856D01*
X1456172Y705540D01*
D02*
G37*
G36*
X1130921Y731090D02*
X1128278D01*
X1125724Y730406D01*
X1123435Y729084D01*
X1121566Y727215D01*
X1120244Y724925D01*
X1119560Y722372D01*
Y719728D01*
X1120244Y717175D01*
X1121566Y714885D01*
X1122546Y713905D01*
X1122020Y712635D01*
X1114750D01*
X1113263Y712339D01*
X1112003Y711497D01*
X1100503Y699997D01*
X1099661Y698737D01*
X1099365Y697250D01*
Y594935D01*
X1092700D01*
X1091384Y597215D01*
X1089514Y599084D01*
X1087225Y600406D01*
X1084671Y601090D01*
X1082028D01*
X1079474Y600406D01*
X1077185Y599084D01*
X1075316Y597215D01*
X1073994Y594925D01*
X1073310Y592372D01*
Y589728D01*
X1073994Y587174D01*
X1075316Y584885D01*
X1077185Y583016D01*
X1079474Y581694D01*
X1082028Y581010D01*
X1084671D01*
X1087225Y581694D01*
X1089514Y583016D01*
X1091384Y584885D01*
X1092700Y587165D01*
X1101050D01*
X1102536Y587461D01*
X1103797Y588303D01*
X1105997Y590503D01*
X1106839Y591763D01*
X1107135Y593250D01*
Y695641D01*
X1116359Y704865D01*
X1123119D01*
X1123280Y704261D01*
X1123346Y703595D01*
X1121566Y701815D01*
X1120244Y699525D01*
X1119560Y696972D01*
Y694328D01*
X1120244Y691775D01*
X1121566Y689485D01*
X1123435Y687616D01*
X1125724Y686294D01*
X1128278Y685610D01*
X1130921D01*
X1133475Y686294D01*
X1135764Y687616D01*
X1137634Y689485D01*
X1138956Y691775D01*
X1139640Y694328D01*
Y696972D01*
X1138956Y699525D01*
X1137634Y701815D01*
X1135853Y703595D01*
X1135919Y704261D01*
X1136081Y704865D01*
X1138750D01*
X1140237Y705161D01*
X1141497Y706003D01*
X1154454Y718960D01*
X1155003D01*
X1156855Y719727D01*
X1158273Y721145D01*
X1159040Y722998D01*
Y725003D01*
X1158273Y726855D01*
X1156855Y728273D01*
X1155003Y729040D01*
X1152998D01*
X1151145Y728273D01*
X1149727Y726855D01*
X1148960Y725003D01*
Y724454D01*
X1138559Y714052D01*
X1137634Y714885D01*
X1138956Y717175D01*
X1139640Y719728D01*
Y722372D01*
X1138956Y724925D01*
X1137634Y727215D01*
X1135764Y729084D01*
X1133475Y730406D01*
X1130921Y731090D01*
D02*
G37*
G36*
X1093390Y691380D02*
X1084620D01*
Y682610D01*
X1084671D01*
X1087225Y683294D01*
X1089514Y684616D01*
X1091384Y686485D01*
X1092706Y688774D01*
X1093390Y691328D01*
Y691380D01*
D02*
G37*
G36*
X1082080D02*
X1073310D01*
Y691328D01*
X1073994Y688774D01*
X1075316Y686485D01*
X1077185Y684616D01*
X1079474Y683294D01*
X1082028Y682610D01*
X1082080D01*
Y691380D01*
D02*
G37*
G36*
X1838662Y694190D02*
X1836637D01*
X1834682Y693666D01*
X1832928Y692654D01*
X1831496Y691222D01*
X1830484Y689469D01*
X1829960Y687513D01*
Y685488D01*
X1830484Y683532D01*
X1831496Y681779D01*
X1832928Y680347D01*
X1834682Y679334D01*
X1836637Y678810D01*
X1838662D01*
X1840618Y679334D01*
X1842372Y680347D01*
X1843803Y681779D01*
X1844816Y683532D01*
X1845340Y685488D01*
Y687513D01*
X1844816Y689469D01*
X1843803Y691222D01*
X1842372Y692654D01*
X1840618Y693666D01*
X1838662Y694190D01*
D02*
G37*
G36*
X1789862D02*
X1787837D01*
X1785882Y693666D01*
X1784128Y692654D01*
X1782696Y691222D01*
X1781684Y689469D01*
X1781160Y687513D01*
Y685488D01*
X1781684Y683532D01*
X1782696Y681779D01*
X1784128Y680347D01*
X1785882Y679334D01*
X1787837Y678810D01*
X1789862D01*
X1791818Y679334D01*
X1793571Y680347D01*
X1795003Y681779D01*
X1796016Y683532D01*
X1796540Y685488D01*
Y687513D01*
X1796016Y689469D01*
X1795003Y691222D01*
X1793571Y692654D01*
X1791818Y693666D01*
X1789862Y694190D01*
D02*
G37*
G36*
X1084671Y677290D02*
X1084620D01*
Y668520D01*
X1093390D01*
Y668572D01*
X1092706Y671125D01*
X1091384Y673415D01*
X1089514Y675284D01*
X1087225Y676606D01*
X1084671Y677290D01*
D02*
G37*
G36*
X1082080D02*
X1082028D01*
X1079474Y676606D01*
X1077185Y675284D01*
X1075316Y673415D01*
X1073994Y671125D01*
X1073310Y668572D01*
Y668520D01*
X1082080D01*
Y677290D01*
D02*
G37*
G36*
X1130921Y680290D02*
X1128278D01*
X1125724Y679606D01*
X1123435Y678284D01*
X1121566Y676415D01*
X1120244Y674125D01*
X1119560Y671572D01*
Y668928D01*
X1120244Y666375D01*
X1121566Y664085D01*
X1123435Y662216D01*
X1125724Y660894D01*
X1128278Y660210D01*
X1130921D01*
X1133475Y660894D01*
X1135764Y662216D01*
X1137634Y664085D01*
X1138956Y666375D01*
X1139640Y668928D01*
Y671572D01*
X1138956Y674125D01*
X1137634Y676415D01*
X1135764Y678284D01*
X1133475Y679606D01*
X1130921Y680290D01*
D02*
G37*
G36*
X1093390Y665980D02*
X1084620D01*
Y657210D01*
X1084671D01*
X1087225Y657894D01*
X1089514Y659216D01*
X1091384Y661085D01*
X1092706Y663374D01*
X1093390Y665928D01*
Y665980D01*
D02*
G37*
G36*
X1082080D02*
X1073310D01*
Y665928D01*
X1073994Y663374D01*
X1075316Y661085D01*
X1077185Y659216D01*
X1079474Y657894D01*
X1082028Y657210D01*
X1082080D01*
Y665980D01*
D02*
G37*
G36*
X1084671Y651890D02*
X1084620D01*
Y643120D01*
X1093390D01*
Y643172D01*
X1092706Y645725D01*
X1091384Y648015D01*
X1089514Y649884D01*
X1087225Y651206D01*
X1084671Y651890D01*
D02*
G37*
G36*
X1082080D02*
X1082028D01*
X1079474Y651206D01*
X1077185Y649884D01*
X1075316Y648015D01*
X1073994Y645725D01*
X1073310Y643172D01*
Y643120D01*
X1082080D01*
Y651890D01*
D02*
G37*
G36*
X1083350Y641850D02*
D01*
D01*
D01*
D02*
G37*
G36*
X1971669Y646145D02*
X1966439D01*
Y639810D01*
X1979107D01*
X1979015Y640508D01*
X1978255Y642343D01*
X1977047Y643917D01*
X1975471Y645126D01*
X1973637Y645886D01*
X1971669Y646145D01*
D02*
G37*
G36*
X1963899D02*
X1958669D01*
X1956701Y645886D01*
X1954866Y645126D01*
X1953291Y643917D01*
X1952083Y642343D01*
X1951323Y640508D01*
X1951231Y639810D01*
X1963899D01*
Y646145D01*
D02*
G37*
G36*
X1923167Y646572D02*
X1920937D01*
Y637211D01*
X1933631D01*
X1933436Y638692D01*
X1932374Y641256D01*
X1930684Y643458D01*
X1928482Y645147D01*
X1925918Y646209D01*
X1923167Y646572D01*
D02*
G37*
G36*
X1918397D02*
X1916167D01*
X1913415Y646209D01*
X1910851Y645147D01*
X1908650Y643458D01*
X1906960Y641256D01*
X1905898Y638692D01*
X1905703Y637211D01*
X1918397D01*
Y646572D01*
D02*
G37*
G36*
X1130921Y654890D02*
X1128278D01*
X1125724Y654206D01*
X1123435Y652884D01*
X1121566Y651015D01*
X1120244Y648725D01*
X1119560Y646172D01*
Y643528D01*
X1120244Y640975D01*
X1121566Y638685D01*
X1123435Y636816D01*
X1125724Y635494D01*
X1128278Y634810D01*
X1130921D01*
X1133475Y635494D01*
X1135764Y636816D01*
X1137634Y638685D01*
X1138956Y640975D01*
X1139640Y643528D01*
Y646172D01*
X1138956Y648725D01*
X1137634Y651015D01*
X1135764Y652884D01*
X1133475Y654206D01*
X1130921Y654890D01*
D02*
G37*
G36*
X1093390Y640580D02*
X1084620D01*
Y631810D01*
X1084671D01*
X1087225Y632494D01*
X1089514Y633816D01*
X1091384Y635685D01*
X1092706Y637975D01*
X1093390Y640528D01*
Y640580D01*
D02*
G37*
G36*
X1082080D02*
X1073310D01*
Y640528D01*
X1073994Y637975D01*
X1075316Y635685D01*
X1077185Y633816D01*
X1079474Y632494D01*
X1082028Y631810D01*
X1082080D01*
Y640580D01*
D02*
G37*
G36*
X1979107Y637270D02*
X1966439D01*
Y630935D01*
X1971669D01*
X1973637Y631194D01*
X1975471Y631954D01*
X1977047Y633162D01*
X1978255Y634737D01*
X1979015Y636572D01*
X1979107Y637270D01*
D02*
G37*
G36*
X1963899D02*
X1951231D01*
X1951323Y636572D01*
X1952083Y634737D01*
X1953291Y633162D01*
X1954866Y631954D01*
X1956701Y631194D01*
X1958669Y630935D01*
X1963899D01*
Y637270D01*
D02*
G37*
G36*
X1710234Y646274D02*
X1707590D01*
X1705037Y645589D01*
X1702747Y644268D01*
X1700878Y642398D01*
X1699556Y640109D01*
X1698872Y637555D01*
Y634912D01*
X1699556Y632358D01*
X1700878Y630069D01*
X1702747Y628200D01*
X1705037Y626878D01*
X1707590Y626194D01*
X1710234D01*
X1712787Y626878D01*
X1715077Y628200D01*
X1716946Y630069D01*
X1718268Y632358D01*
X1718952Y634912D01*
Y637555D01*
X1718268Y640109D01*
X1716946Y642398D01*
X1715077Y644268D01*
X1712787Y645589D01*
X1710234Y646274D01*
D02*
G37*
G36*
X1918397Y634670D02*
X1905703D01*
X1905898Y633189D01*
X1906960Y630625D01*
X1908650Y628423D01*
X1910851Y626734D01*
X1913415Y625672D01*
X1916167Y625310D01*
X1918397D01*
Y634670D01*
D02*
G37*
G36*
X1934185D02*
X1920937D01*
Y625310D01*
X1923167D01*
X1925918Y625672D01*
X1927343Y626262D01*
X1928684Y626343D01*
X1930172Y624855D01*
X1932116Y624050D01*
X1934221D01*
X1936165Y624855D01*
X1937653Y626343D01*
X1938459Y628288D01*
Y630392D01*
X1937653Y632337D01*
X1936165Y633825D01*
X1934221Y634630D01*
X1934185Y634670D01*
D02*
G37*
G36*
X1130921Y629490D02*
X1128278D01*
X1125724Y628806D01*
X1123435Y627484D01*
X1121566Y625615D01*
X1120244Y623325D01*
X1119560Y620772D01*
Y618128D01*
X1120244Y615575D01*
X1121566Y613285D01*
X1123435Y611416D01*
X1125724Y610094D01*
X1128278Y609410D01*
X1130921D01*
X1133475Y610094D01*
X1135764Y611416D01*
X1137634Y613285D01*
X1138956Y615575D01*
X1139640Y618128D01*
Y620772D01*
X1138956Y623325D01*
X1137634Y625615D01*
X1135764Y627484D01*
X1133475Y628806D01*
X1130921Y629490D01*
D02*
G37*
G36*
X1084671Y626490D02*
X1082028D01*
X1079474Y625806D01*
X1077185Y624484D01*
X1075316Y622615D01*
X1073994Y620325D01*
X1073310Y617772D01*
Y615128D01*
X1073994Y612575D01*
X1075316Y610285D01*
X1077185Y608416D01*
X1079474Y607094D01*
X1082028Y606410D01*
X1084671D01*
X1087225Y607094D01*
X1089514Y608416D01*
X1091384Y610285D01*
X1092706Y612575D01*
X1093390Y615128D01*
Y617772D01*
X1092706Y620325D01*
X1091384Y622615D01*
X1089514Y624484D01*
X1087225Y625806D01*
X1084671Y626490D01*
D02*
G37*
G36*
X1710234Y620874D02*
X1707590D01*
X1705037Y620189D01*
X1702747Y618868D01*
X1700878Y616998D01*
X1699556Y614709D01*
X1698872Y612155D01*
Y609512D01*
X1699556Y606958D01*
X1700878Y604669D01*
X1702747Y602800D01*
X1705037Y601478D01*
X1707590Y600794D01*
X1710234D01*
X1712787Y601478D01*
X1715077Y602800D01*
X1716946Y604669D01*
X1718268Y606958D01*
X1718952Y609512D01*
Y612155D01*
X1718268Y614709D01*
X1716946Y616998D01*
X1715077Y618868D01*
X1712787Y620189D01*
X1710234Y620874D01*
D02*
G37*
G36*
X970978Y643750D02*
X966643D01*
X962361Y643072D01*
X958239Y641732D01*
X954376Y639764D01*
X950869Y637216D01*
X947804Y634151D01*
X945256Y630644D01*
X943288Y626781D01*
X941948Y622659D01*
X941270Y618377D01*
Y614042D01*
X941948Y609761D01*
X943288Y605638D01*
X945256Y601776D01*
X947804Y598269D01*
X950869Y595203D01*
X954376Y592655D01*
X958239Y590687D01*
X962361Y589348D01*
X966643Y588670D01*
X970978D01*
X975259Y589348D01*
X979382Y590687D01*
X983244Y592655D01*
X986751Y595203D01*
X989817Y598269D01*
X992365Y601776D01*
X994333Y605638D01*
X995672Y609761D01*
X996350Y614042D01*
Y618377D01*
X995672Y622659D01*
X994333Y626781D01*
X992365Y630644D01*
X989817Y634151D01*
X986751Y637216D01*
X983244Y639764D01*
X979382Y641732D01*
X975259Y643072D01*
X970978Y643750D01*
D02*
G37*
G36*
X60978D02*
X56643D01*
X52361Y643072D01*
X48238Y641732D01*
X44376Y639764D01*
X40869Y637216D01*
X37804Y634151D01*
X35256Y630644D01*
X33288Y626781D01*
X31948Y622659D01*
X31270Y618377D01*
Y614042D01*
X31948Y609761D01*
X33288Y605638D01*
X35256Y601776D01*
X37804Y598269D01*
X40869Y595203D01*
X44376Y592655D01*
X48238Y590687D01*
X52361Y589348D01*
X56643Y588670D01*
X60978D01*
X65259Y589348D01*
X69382Y590687D01*
X73244Y592655D01*
X76751Y595203D01*
X79816Y598269D01*
X82364Y601776D01*
X84332Y605638D01*
X85672Y609761D01*
X86350Y614042D01*
Y618377D01*
X85672Y622659D01*
X84332Y626781D01*
X82364Y630644D01*
X79816Y634151D01*
X76751Y637216D01*
X73244Y639764D01*
X69382Y641732D01*
X65259Y643072D01*
X60978Y643750D01*
D02*
G37*
G36*
X1167002Y717540D02*
X1164997D01*
X1163145Y716773D01*
X1161727Y715355D01*
X1160960Y713503D01*
Y712954D01*
X1144503Y696497D01*
X1143661Y695237D01*
X1143365Y693750D01*
Y586635D01*
X1138042D01*
X1137556Y587808D01*
X1137634Y587885D01*
X1138956Y590175D01*
X1139640Y592728D01*
Y595372D01*
X1138956Y597925D01*
X1137634Y600215D01*
X1135764Y602084D01*
X1133475Y603406D01*
X1130921Y604090D01*
X1128278D01*
X1125724Y603406D01*
X1123435Y602084D01*
X1121566Y600215D01*
X1120244Y597925D01*
X1119560Y595372D01*
Y592728D01*
X1120244Y590175D01*
X1121566Y587885D01*
X1121643Y587808D01*
X1121157Y586635D01*
X1116000D01*
X1114513Y586339D01*
X1113253Y585497D01*
X1097291Y569534D01*
X1092700D01*
X1091384Y571814D01*
X1089514Y573684D01*
X1087225Y575006D01*
X1084671Y575690D01*
X1082028D01*
X1079474Y575006D01*
X1077185Y573684D01*
X1075316Y571814D01*
X1073994Y569525D01*
X1073310Y566972D01*
Y564328D01*
X1073994Y561774D01*
X1075316Y559485D01*
X1077185Y557616D01*
X1079474Y556294D01*
X1082028Y555610D01*
X1084671D01*
X1087225Y556294D01*
X1089514Y557616D01*
X1091384Y559485D01*
X1092700Y561765D01*
X1098900D01*
X1100386Y562061D01*
X1101647Y562903D01*
X1117609Y578865D01*
X1124673D01*
X1125013Y577595D01*
X1123435Y576684D01*
X1121566Y574815D01*
X1120244Y572525D01*
X1119560Y569972D01*
Y567328D01*
X1120244Y564775D01*
X1121566Y562485D01*
X1123397Y560655D01*
X1123385Y560396D01*
X1123114Y559385D01*
X1112750D01*
X1111263Y559089D01*
X1110003Y558247D01*
X1095891Y544134D01*
X1092700D01*
X1091384Y546414D01*
X1089514Y548284D01*
X1087225Y549606D01*
X1084671Y550290D01*
X1082028D01*
X1079474Y549606D01*
X1077185Y548284D01*
X1075316Y546414D01*
X1073994Y544125D01*
X1073310Y541572D01*
Y538928D01*
X1073994Y536375D01*
X1075316Y534085D01*
X1077185Y532216D01*
X1079474Y530894D01*
X1082028Y530210D01*
X1084671D01*
X1087225Y530894D01*
X1089514Y532216D01*
X1091384Y534085D01*
X1092700Y536365D01*
X1097500D01*
X1098986Y536661D01*
X1100247Y537503D01*
X1114359Y551615D01*
X1121970D01*
X1122496Y550345D01*
X1121566Y549415D01*
X1120244Y547125D01*
X1119560Y544572D01*
Y541928D01*
X1120244Y539375D01*
X1121566Y537085D01*
X1123435Y535216D01*
X1125724Y533894D01*
X1128278Y533210D01*
X1130921D01*
X1133475Y533894D01*
X1135764Y535216D01*
X1137634Y537085D01*
X1138956Y539375D01*
X1139640Y541928D01*
Y544572D01*
X1138956Y547125D01*
X1137634Y549415D01*
X1136703Y550345D01*
X1137229Y551615D01*
X1149500D01*
X1150987Y551911D01*
X1152247Y552753D01*
X1157247Y557753D01*
X1158089Y559013D01*
X1158385Y560500D01*
Y686141D01*
X1169204Y696960D01*
X1169753D01*
X1171605Y697727D01*
X1173023Y699145D01*
X1173790Y700997D01*
Y703002D01*
X1173023Y704855D01*
X1171605Y706273D01*
X1169753Y707040D01*
X1169307D01*
X1168974Y707915D01*
X1168938Y708310D01*
X1170273Y709645D01*
X1171040Y711497D01*
Y713503D01*
X1170273Y715355D01*
X1168855Y716773D01*
X1167002Y717540D01*
D02*
G37*
G36*
X415121Y606280D02*
X412478D01*
X409924Y605596D01*
X407635Y604274D01*
X405765Y602405D01*
X404444Y600115D01*
X403759Y597562D01*
Y594918D01*
X404444Y592365D01*
X405765Y590075D01*
X407635Y588206D01*
X409924Y586884D01*
X412478Y586200D01*
X415121D01*
X417675Y586884D01*
X419964Y588206D01*
X421833Y590075D01*
X423155Y592365D01*
X423839Y594918D01*
Y597562D01*
X423155Y600115D01*
X421833Y602405D01*
X419964Y604274D01*
X417675Y605596D01*
X415121Y606280D01*
D02*
G37*
G36*
X389721D02*
X387078D01*
X384524Y605596D01*
X382235Y604274D01*
X380365Y602405D01*
X379044Y600115D01*
X378359Y597562D01*
Y594918D01*
X379044Y592365D01*
X380365Y590075D01*
X382235Y588206D01*
X384524Y586884D01*
X387078Y586200D01*
X389721D01*
X392275Y586884D01*
X394564Y588206D01*
X396433Y590075D01*
X397755Y592365D01*
X398439Y594918D01*
Y597562D01*
X397755Y600115D01*
X396433Y602405D01*
X394564Y604274D01*
X392275Y605596D01*
X389721Y606280D01*
D02*
G37*
G36*
X364321D02*
X361678D01*
X359124Y605596D01*
X356835Y604274D01*
X354966Y602405D01*
X353644Y600115D01*
X352960Y597562D01*
Y594918D01*
X353644Y592365D01*
X354966Y590075D01*
X356835Y588206D01*
X359124Y586884D01*
X361678Y586200D01*
X364321D01*
X366875Y586884D01*
X369164Y588206D01*
X371034Y590075D01*
X372355Y592365D01*
X373040Y594918D01*
Y597562D01*
X372355Y600115D01*
X371034Y602405D01*
X369164Y604274D01*
X366875Y605596D01*
X364321Y606280D01*
D02*
G37*
G36*
X338921D02*
X336278D01*
X333724Y605596D01*
X331435Y604274D01*
X329566Y602405D01*
X328244Y600115D01*
X327560Y597562D01*
Y594918D01*
X328244Y592365D01*
X329566Y590075D01*
X331435Y588206D01*
X333724Y586884D01*
X336278Y586200D01*
X338921D01*
X341475Y586884D01*
X343764Y588206D01*
X345634Y590075D01*
X346955Y592365D01*
X347640Y594918D01*
Y597562D01*
X346955Y600115D01*
X345634Y602405D01*
X343764Y604274D01*
X341475Y605596D01*
X338921Y606280D01*
D02*
G37*
G36*
X313521D02*
X310878D01*
X308324Y605596D01*
X306035Y604274D01*
X304165Y602405D01*
X302844Y600115D01*
X302160Y597562D01*
Y594918D01*
X302844Y592365D01*
X304165Y590075D01*
X306035Y588206D01*
X308324Y586884D01*
X310878Y586200D01*
X313521D01*
X316075Y586884D01*
X318364Y588206D01*
X320233Y590075D01*
X321555Y592365D01*
X322239Y594918D01*
Y597562D01*
X321555Y600115D01*
X320233Y602405D01*
X318364Y604274D01*
X316075Y605596D01*
X313521Y606280D01*
D02*
G37*
G36*
X288121D02*
X285478D01*
X282924Y605596D01*
X280635Y604274D01*
X278766Y602405D01*
X277444Y600115D01*
X276759Y597562D01*
Y594918D01*
X277444Y592365D01*
X278766Y590075D01*
X280635Y588206D01*
X282924Y586884D01*
X285478Y586200D01*
X288121D01*
X290675Y586884D01*
X292964Y588206D01*
X294834Y590075D01*
X296155Y592365D01*
X296840Y594918D01*
Y597562D01*
X296155Y600115D01*
X294834Y602405D01*
X292964Y604274D01*
X290675Y605596D01*
X288121Y606280D01*
D02*
G37*
G36*
X262721D02*
X260078D01*
X257524Y605596D01*
X255235Y604274D01*
X253365Y602405D01*
X252044Y600115D01*
X251360Y597562D01*
Y594918D01*
X252044Y592365D01*
X253365Y590075D01*
X255235Y588206D01*
X257524Y586884D01*
X260078Y586200D01*
X262721D01*
X265275Y586884D01*
X267564Y588206D01*
X269433Y590075D01*
X270755Y592365D01*
X271439Y594918D01*
Y597562D01*
X270755Y600115D01*
X269433Y602405D01*
X267564Y604274D01*
X265275Y605596D01*
X262721Y606280D01*
D02*
G37*
G36*
X237321D02*
X234678D01*
X232124Y605596D01*
X229835Y604274D01*
X227966Y602405D01*
X226644Y600115D01*
X225959Y597562D01*
Y594918D01*
X226644Y592365D01*
X227966Y590075D01*
X229835Y588206D01*
X232124Y586884D01*
X234678Y586200D01*
X237321D01*
X239875Y586884D01*
X242164Y588206D01*
X244034Y590075D01*
X245355Y592365D01*
X246040Y594918D01*
Y597562D01*
X245355Y600115D01*
X244034Y602405D01*
X242164Y604274D01*
X239875Y605596D01*
X237321Y606280D01*
D02*
G37*
G36*
X200040Y606280D02*
X179960D01*
Y586200D01*
X200040D01*
Y606280D01*
D02*
G37*
G36*
X165921D02*
X163278D01*
X160724Y605595D01*
X158435Y604274D01*
X156566Y602404D01*
X155244Y600115D01*
X154560Y597561D01*
Y594918D01*
X155244Y592364D01*
X156566Y590075D01*
X158435Y588206D01*
X160724Y586884D01*
X163278Y586200D01*
X165921D01*
X168475Y586884D01*
X170764Y588206D01*
X172634Y590075D01*
X173955Y592364D01*
X174640Y594918D01*
Y597561D01*
X173955Y600115D01*
X172634Y602404D01*
X170764Y604274D01*
X168475Y605595D01*
X165921Y606280D01*
D02*
G37*
G36*
X582503Y740040D02*
X580498D01*
X578645Y739273D01*
X577227Y737855D01*
X576460Y736003D01*
Y733997D01*
X577227Y732145D01*
X578645Y730727D01*
X580498Y729960D01*
X582503D01*
X584355Y730727D01*
X584743Y731115D01*
X634641D01*
X790753Y575003D01*
X792013Y574161D01*
X793500Y573865D01*
X998750D01*
X1000237Y574161D01*
X1001497Y575003D01*
X1012609Y586115D01*
X1053007D01*
X1053395Y585727D01*
X1055247Y584960D01*
X1057253D01*
X1059105Y585727D01*
X1060523Y587145D01*
X1061290Y588997D01*
Y591003D01*
X1060523Y592855D01*
X1059105Y594273D01*
X1057253Y595040D01*
X1055247D01*
X1053395Y594273D01*
X1053007Y593885D01*
X1011000D01*
X1009513Y593589D01*
X1008253Y592747D01*
X997141Y581635D01*
X795109D01*
X638997Y737747D01*
X637737Y738589D01*
X636250Y738885D01*
X584743D01*
X584355Y739273D01*
X582503Y740040D01*
D02*
G37*
G36*
X1872794Y615032D02*
X1870150D01*
X1867597Y614347D01*
X1865307Y613026D01*
X1863438Y611156D01*
X1862116Y608867D01*
X1861432Y606313D01*
Y603670D01*
X1861654Y602840D01*
X1852335Y593521D01*
X1851493Y592261D01*
X1851197Y590774D01*
Y568409D01*
X1851493Y566923D01*
X1852335Y565662D01*
X1857543Y560455D01*
X1858803Y559613D01*
X1860289Y559317D01*
X1887948D01*
X1889435Y559613D01*
X1890695Y560455D01*
X1923205Y592965D01*
X1941197D01*
X1944031Y590131D01*
Y588645D01*
X1944799Y586793D01*
X1946216Y585375D01*
X1948069Y584608D01*
X1950074D01*
X1951926Y585375D01*
X1953344Y586793D01*
X1954111Y588645D01*
Y589516D01*
X1954503Y590710D01*
X1955285Y591034D01*
X1956355Y591477D01*
X1957773Y592895D01*
X1958540Y594748D01*
Y596753D01*
X1957773Y598605D01*
X1956355Y600023D01*
X1954503Y600790D01*
X1953954D01*
X1950067Y604677D01*
X1948807Y605519D01*
X1947320Y605815D01*
X1919492D01*
X1918006Y605519D01*
X1916745Y604677D01*
X1884235Y572166D01*
X1881512D01*
Y589632D01*
X1866926D01*
X1865141Y591417D01*
X1863880Y592259D01*
X1863860Y592263D01*
X1863442Y593641D01*
X1866228Y596426D01*
X1867597Y595636D01*
X1870150Y594952D01*
X1872794D01*
X1875347Y595636D01*
X1877637Y596958D01*
X1879506Y598827D01*
X1880828Y601116D01*
X1881512Y603670D01*
Y606313D01*
X1880828Y608867D01*
X1879506Y611156D01*
X1877637Y613026D01*
X1875347Y614347D01*
X1872794Y615032D01*
D02*
G37*
G36*
X1456172Y603940D02*
X1453528D01*
X1450975Y603256D01*
X1448685Y601934D01*
X1446816Y600065D01*
X1445500Y597785D01*
X1323900D01*
X1322413Y597489D01*
X1321153Y596647D01*
X1238391Y513885D01*
X1194500D01*
X1193013Y513589D01*
X1191753Y512747D01*
X1167003Y487997D01*
X1166161Y486737D01*
X1165865Y485250D01*
Y438250D01*
X1166161Y436763D01*
X1167003Y435503D01*
X1179951Y422555D01*
X1181211Y421713D01*
X1182698Y421417D01*
X1195339D01*
X1198710Y418046D01*
Y417497D01*
X1199477Y415645D01*
X1200895Y414227D01*
X1202747Y413460D01*
X1204753D01*
X1206605Y414227D01*
X1208023Y415645D01*
X1208790Y417497D01*
Y419502D01*
X1208023Y421355D01*
X1206605Y422773D01*
X1204753Y423540D01*
X1204204D01*
X1199695Y428049D01*
X1198435Y428891D01*
X1196948Y429187D01*
X1184307D01*
X1173635Y439859D01*
Y483641D01*
X1196109Y506115D01*
X1240000D01*
X1241487Y506411D01*
X1242747Y507253D01*
X1325509Y590015D01*
X1445500D01*
X1446816Y587735D01*
X1448685Y585866D01*
X1450975Y584544D01*
X1453528Y583860D01*
X1456172D01*
X1458725Y584544D01*
X1461015Y585866D01*
X1462884Y587735D01*
X1464206Y590024D01*
X1464890Y592578D01*
Y595222D01*
X1464206Y597775D01*
X1462884Y600065D01*
X1461015Y601934D01*
X1458725Y603256D01*
X1456172Y603940D01*
D02*
G37*
G36*
X1710234Y595474D02*
X1707590D01*
X1705037Y594789D01*
X1702747Y593468D01*
X1700878Y591598D01*
X1699556Y589309D01*
X1698872Y586755D01*
Y584112D01*
X1699556Y581558D01*
X1700878Y579269D01*
X1702747Y577400D01*
X1705037Y576078D01*
X1707590Y575394D01*
X1710234D01*
X1712787Y576078D01*
X1715077Y577400D01*
X1716946Y579269D01*
X1718268Y581558D01*
X1718952Y584112D01*
Y586755D01*
X1718268Y589309D01*
X1716946Y591598D01*
X1715077Y593468D01*
X1712787Y594789D01*
X1710234Y595474D01*
D02*
G37*
G36*
X1934221Y566629D02*
X1932116D01*
X1930172Y565824D01*
X1928684Y564336D01*
X1927343Y564419D01*
X1925918Y565009D01*
X1923167Y565371D01*
X1920937D01*
Y556010D01*
X1934187D01*
X1934221Y556049D01*
X1936165Y556855D01*
X1937653Y558343D01*
X1938459Y560287D01*
Y562391D01*
X1937653Y564336D01*
X1936165Y565824D01*
X1934221Y566629D01*
D02*
G37*
G36*
X1456172Y578540D02*
X1453528D01*
X1450975Y577856D01*
X1448685Y576534D01*
X1446816Y574664D01*
X1445494Y572375D01*
X1444810Y569822D01*
Y567178D01*
X1445494Y564624D01*
X1446816Y562335D01*
X1448685Y560466D01*
X1450975Y559144D01*
X1453528Y558460D01*
X1456172D01*
X1458725Y559144D01*
X1461015Y560466D01*
X1462884Y562335D01*
X1464206Y564624D01*
X1464890Y567178D01*
Y569822D01*
X1464206Y572375D01*
X1462884Y574664D01*
X1461015Y576534D01*
X1458725Y577856D01*
X1456172Y578540D01*
D02*
G37*
G36*
X1918397Y565371D02*
X1916167D01*
X1913415Y565009D01*
X1910851Y563947D01*
X1908650Y562257D01*
X1906960Y560056D01*
X1905898Y557492D01*
X1905703Y556010D01*
X1918397D01*
Y565371D01*
D02*
G37*
G36*
X1971669Y559745D02*
X1966439D01*
Y553410D01*
X1979107D01*
X1979015Y554109D01*
X1978255Y555943D01*
X1977047Y557518D01*
X1975471Y558727D01*
X1973637Y559486D01*
X1971669Y559745D01*
D02*
G37*
G36*
X1963899D02*
X1958669D01*
X1956701Y559486D01*
X1954866Y558727D01*
X1953291Y557518D01*
X1952083Y555943D01*
X1951323Y554109D01*
X1951231Y553410D01*
X1963899D01*
Y559745D01*
D02*
G37*
G36*
X1710234Y570074D02*
X1707590D01*
X1705037Y569389D01*
X1702747Y568068D01*
X1700878Y566198D01*
X1699556Y563909D01*
X1698872Y561355D01*
Y558712D01*
X1699556Y556158D01*
X1700878Y553869D01*
X1702747Y552000D01*
X1705037Y550678D01*
X1707590Y549994D01*
X1710234D01*
X1712787Y550678D01*
X1715077Y552000D01*
X1716946Y553869D01*
X1718268Y556158D01*
X1718952Y558712D01*
Y561355D01*
X1718268Y563909D01*
X1716946Y566198D01*
X1715077Y568068D01*
X1712787Y569389D01*
X1710234Y570074D01*
D02*
G37*
G36*
X1979107Y550870D02*
X1966439D01*
Y544535D01*
X1971669D01*
X1973637Y544794D01*
X1975471Y545554D01*
X1977047Y546763D01*
X1978255Y548338D01*
X1979015Y550172D01*
X1979107Y550870D01*
D02*
G37*
G36*
X1963899D02*
X1951231D01*
X1951323Y550172D01*
X1952083Y548338D01*
X1953291Y546763D01*
X1954866Y545554D01*
X1956701Y544794D01*
X1958669Y544535D01*
X1963899D01*
Y550870D01*
D02*
G37*
G36*
X1933631Y553470D02*
X1920937D01*
Y544109D01*
X1923167D01*
X1925918Y544472D01*
X1928482Y545534D01*
X1930684Y547223D01*
X1932374Y549425D01*
X1933436Y551989D01*
X1933631Y553470D01*
D02*
G37*
G36*
X1918397D02*
X1905703D01*
X1905898Y551989D01*
X1906960Y549425D01*
X1908650Y547223D01*
X1910851Y545534D01*
X1913415Y544472D01*
X1916167Y544109D01*
X1918397D01*
Y553470D01*
D02*
G37*
G36*
X620262Y713135D02*
X558750D01*
X558274Y713040D01*
X556497D01*
X554645Y712273D01*
X553227Y710855D01*
X552460Y709003D01*
Y706998D01*
X553227Y705145D01*
X554645Y703727D01*
X556497Y702960D01*
X558503D01*
X560355Y703727D01*
X561773Y705145D01*
X561864Y705365D01*
X617865D01*
Y674500D01*
X618161Y673013D01*
X619003Y671753D01*
X733503Y557253D01*
X734763Y556411D01*
X736250Y556115D01*
X1034891D01*
X1039130Y551876D01*
Y550235D01*
X1039426Y548749D01*
X1040268Y547489D01*
X1044960Y542796D01*
Y542248D01*
X1045727Y540395D01*
X1047145Y538977D01*
X1048997Y538210D01*
X1051003D01*
X1052855Y538977D01*
X1054273Y540395D01*
X1055040Y542248D01*
Y544253D01*
X1054273Y546105D01*
X1052855Y547523D01*
X1051003Y548290D01*
X1050454D01*
X1046899Y551844D01*
Y553485D01*
X1046604Y554972D01*
X1045761Y556232D01*
X1039247Y562747D01*
X1037987Y563589D01*
X1036500Y563885D01*
X737859D01*
X625635Y676109D01*
Y707762D01*
X625339Y709249D01*
X624497Y710509D01*
X623009Y711997D01*
X621749Y712839D01*
X620262Y713135D01*
D02*
G37*
G36*
X376031Y543470D02*
X375960D01*
Y534550D01*
X384880D01*
Y534622D01*
X384185Y537213D01*
X382844Y539537D01*
X380946Y541434D01*
X378623Y542776D01*
X376031Y543470D01*
D02*
G37*
G36*
X356970Y554885D02*
X202250D01*
X200763Y554589D01*
X199503Y553747D01*
X194753Y548997D01*
X193911Y547737D01*
X193615Y546250D01*
Y542952D01*
X192956Y542776D01*
X190633Y541434D01*
X188736Y539537D01*
X187394Y537213D01*
X186700Y534622D01*
Y534550D01*
X196890D01*
X207080D01*
Y534622D01*
X206385Y537213D01*
X205044Y539537D01*
X203146Y541434D01*
X201385Y542451D01*
Y544641D01*
X203859Y547115D01*
X355361D01*
X365219Y537257D01*
X365194Y537213D01*
X364500Y534622D01*
Y534550D01*
X373420D01*
Y543470D01*
X373348D01*
X370756Y542776D01*
X370713Y542751D01*
X359717Y553747D01*
X358456Y554589D01*
X356970Y554885D01*
D02*
G37*
G36*
X1464890Y553140D02*
X1444810D01*
Y533060D01*
X1464890D01*
Y553140D01*
D02*
G37*
G36*
X50148Y543969D02*
X47473D01*
X44889Y543277D01*
X42572Y541940D01*
X40680Y540048D01*
X39343Y537731D01*
X39190Y537161D01*
X37380D01*
X35893Y536865D01*
X34633Y536023D01*
X26805Y528195D01*
X25963Y526935D01*
X25667Y525448D01*
X25963Y523961D01*
X26115Y523733D01*
Y400993D01*
X25727Y400605D01*
X24960Y398753D01*
Y396748D01*
X25727Y394895D01*
X27145Y393477D01*
X28997Y392710D01*
X31003D01*
X32855Y393477D01*
X34273Y394895D01*
X35040Y396748D01*
Y398753D01*
X34273Y400605D01*
X33885Y400993D01*
Y524287D01*
X38509Y528911D01*
X39996Y528756D01*
X40680Y527571D01*
X42572Y525679D01*
X44889Y524342D01*
X47473Y523649D01*
X50148D01*
X52732Y524342D01*
X55048Y525679D01*
X56940Y527571D01*
X58278Y529888D01*
X58970Y532472D01*
Y535147D01*
X58278Y537731D01*
X56940Y540048D01*
X55048Y541940D01*
X52732Y543277D01*
X50148Y543969D01*
D02*
G37*
G36*
X528431Y543470D02*
X525748D01*
X523156Y542776D01*
X520833Y541434D01*
X518936Y539537D01*
X517594Y537213D01*
X516900Y534622D01*
Y531939D01*
X517594Y529347D01*
X518936Y527023D01*
X520833Y525126D01*
X523156Y523785D01*
X525748Y523090D01*
X528431D01*
X531023Y523785D01*
X533346Y525126D01*
X535244Y527023D01*
X536585Y529347D01*
X537280Y531939D01*
Y534622D01*
X536585Y537213D01*
X535244Y539537D01*
X533346Y541434D01*
X531023Y542776D01*
X528431Y543470D01*
D02*
G37*
G36*
X503031D02*
X500348D01*
X497756Y542776D01*
X495433Y541434D01*
X493535Y539537D01*
X492194Y537213D01*
X491500Y534622D01*
Y531939D01*
X492194Y529347D01*
X493535Y527023D01*
X495433Y525126D01*
X497756Y523785D01*
X500348Y523090D01*
X503031D01*
X505623Y523785D01*
X507946Y525126D01*
X509844Y527023D01*
X511185Y529347D01*
X511880Y531939D01*
Y534622D01*
X511185Y537213D01*
X509844Y539537D01*
X507946Y541434D01*
X505623Y542776D01*
X503031Y543470D01*
D02*
G37*
G36*
X477631D02*
X474948D01*
X472356Y542776D01*
X470033Y541434D01*
X468135Y539537D01*
X466794Y537213D01*
X466100Y534622D01*
Y531939D01*
X466794Y529347D01*
X468135Y527023D01*
X470033Y525126D01*
X472356Y523785D01*
X474948Y523090D01*
X477631D01*
X480223Y523785D01*
X482546Y525126D01*
X484444Y527023D01*
X485785Y529347D01*
X486480Y531939D01*
Y534622D01*
X485785Y537213D01*
X484444Y539537D01*
X482546Y541434D01*
X480223Y542776D01*
X477631Y543470D01*
D02*
G37*
G36*
X452231D02*
X449548D01*
X446956Y542776D01*
X444633Y541434D01*
X442735Y539537D01*
X441394Y537213D01*
X440700Y534622D01*
Y531939D01*
X441394Y529347D01*
X442735Y527023D01*
X444633Y525126D01*
X446956Y523785D01*
X449548Y523090D01*
X452231D01*
X454823Y523785D01*
X457146Y525126D01*
X459044Y527023D01*
X460385Y529347D01*
X461080Y531939D01*
Y534622D01*
X460385Y537213D01*
X459044Y539537D01*
X457146Y541434D01*
X454823Y542776D01*
X452231Y543470D01*
D02*
G37*
G36*
X426831D02*
X424148D01*
X421556Y542776D01*
X419233Y541434D01*
X417336Y539537D01*
X415994Y537213D01*
X415300Y534622D01*
Y531939D01*
X415994Y529347D01*
X417336Y527023D01*
X419233Y525126D01*
X421556Y523785D01*
X424148Y523090D01*
X426831D01*
X429423Y523785D01*
X431746Y525126D01*
X433644Y527023D01*
X434985Y529347D01*
X435680Y531939D01*
Y534622D01*
X434985Y537213D01*
X433644Y539537D01*
X431746Y541434D01*
X429423Y542776D01*
X426831Y543470D01*
D02*
G37*
G36*
X384880Y532010D02*
X375960D01*
Y523090D01*
X376031D01*
X378623Y523785D01*
X380946Y525126D01*
X382844Y527023D01*
X384185Y529347D01*
X384880Y531939D01*
Y532010D01*
D02*
G37*
G36*
X373420D02*
X364500D01*
Y531939D01*
X365194Y529347D01*
X366535Y527023D01*
X368433Y525126D01*
X370756Y523785D01*
X373348Y523090D01*
X373420D01*
Y532010D01*
D02*
G37*
G36*
X350631Y543470D02*
X347948D01*
X345356Y542776D01*
X343033Y541434D01*
X341135Y539537D01*
X339794Y537213D01*
X339100Y534622D01*
Y531939D01*
X339794Y529347D01*
X341135Y527023D01*
X343033Y525126D01*
X345356Y523785D01*
X347948Y523090D01*
X350631D01*
X353223Y523785D01*
X355546Y525126D01*
X357444Y527023D01*
X358785Y529347D01*
X359480Y531939D01*
Y534622D01*
X358785Y537213D01*
X357444Y539537D01*
X355546Y541434D01*
X353223Y542776D01*
X350631Y543470D01*
D02*
G37*
G36*
X325231D02*
X322548D01*
X319956Y542776D01*
X317633Y541434D01*
X315735Y539537D01*
X314394Y537213D01*
X313700Y534622D01*
Y531939D01*
X314394Y529347D01*
X315735Y527023D01*
X317633Y525126D01*
X319956Y523785D01*
X322548Y523090D01*
X325231D01*
X327823Y523785D01*
X330146Y525126D01*
X332044Y527023D01*
X333385Y529347D01*
X334080Y531939D01*
Y534622D01*
X333385Y537213D01*
X332044Y539537D01*
X330146Y541434D01*
X327823Y542776D01*
X325231Y543470D01*
D02*
G37*
G36*
X299831D02*
X297148D01*
X294556Y542776D01*
X292233Y541434D01*
X290336Y539537D01*
X288994Y537213D01*
X288300Y534622D01*
Y531939D01*
X288994Y529347D01*
X290336Y527023D01*
X292233Y525126D01*
X294556Y523785D01*
X297148Y523090D01*
X299831D01*
X302423Y523785D01*
X304746Y525126D01*
X306644Y527023D01*
X307985Y529347D01*
X308680Y531939D01*
Y534622D01*
X307985Y537213D01*
X306644Y539537D01*
X304746Y541434D01*
X302423Y542776D01*
X299831Y543470D01*
D02*
G37*
G36*
X249031D02*
X246348D01*
X243756Y542776D01*
X241433Y541434D01*
X239536Y539537D01*
X238194Y537213D01*
X237500Y534622D01*
Y531939D01*
X238194Y529347D01*
X239536Y527023D01*
X241433Y525126D01*
X243756Y523785D01*
X246348Y523090D01*
X249031D01*
X251623Y523785D01*
X253946Y525126D01*
X255844Y527023D01*
X257185Y529347D01*
X257880Y531939D01*
Y534622D01*
X257185Y537213D01*
X255844Y539537D01*
X253946Y541434D01*
X251623Y542776D01*
X249031Y543470D01*
D02*
G37*
G36*
X223631D02*
X220948D01*
X218356Y542776D01*
X216033Y541434D01*
X214135Y539537D01*
X212794Y537213D01*
X212100Y534622D01*
Y531939D01*
X212794Y529347D01*
X214135Y527023D01*
X216033Y525126D01*
X218356Y523785D01*
X220948Y523090D01*
X223631D01*
X226223Y523785D01*
X228546Y525126D01*
X230444Y527023D01*
X231785Y529347D01*
X232480Y531939D01*
Y534622D01*
X231785Y537213D01*
X230444Y539537D01*
X228546Y541434D01*
X226223Y542776D01*
X223631Y543470D01*
D02*
G37*
G36*
X1805520Y521929D02*
Y518270D01*
X1809179D01*
X1808523Y519855D01*
X1807105Y521273D01*
X1805520Y521929D01*
D02*
G37*
G36*
X1802980D02*
X1801395Y521273D01*
X1799977Y519855D01*
X1799321Y518270D01*
X1802980D01*
Y521929D01*
D02*
G37*
G36*
X50148Y518970D02*
X50080D01*
Y510080D01*
X58970D01*
Y510147D01*
X58278Y512731D01*
X56940Y515048D01*
X55048Y516940D01*
X52732Y518277D01*
X50148Y518970D01*
D02*
G37*
G36*
X47540D02*
X47473D01*
X44889Y518277D01*
X42572Y516940D01*
X40680Y515048D01*
X39343Y512731D01*
X38650Y510147D01*
Y510080D01*
X47540D01*
Y518970D01*
D02*
G37*
G36*
X1130921Y527890D02*
X1128278D01*
X1125724Y527206D01*
X1123435Y525884D01*
X1121566Y524015D01*
X1120244Y521725D01*
X1119560Y519172D01*
Y516528D01*
X1120244Y513975D01*
X1121566Y511685D01*
X1123435Y509816D01*
X1125724Y508494D01*
X1128278Y507810D01*
X1130921D01*
X1133475Y508494D01*
X1135764Y509816D01*
X1137634Y511685D01*
X1138956Y513975D01*
X1139640Y516528D01*
Y519172D01*
X1138956Y521725D01*
X1137634Y524015D01*
X1135764Y525884D01*
X1133475Y527206D01*
X1130921Y527890D01*
D02*
G37*
G36*
X274431Y543470D02*
X271748D01*
X269156Y542776D01*
X266833Y541434D01*
X264935Y539537D01*
X263594Y537213D01*
X262900Y534622D01*
Y531939D01*
X263594Y529347D01*
X264935Y527023D01*
X266833Y525126D01*
X269156Y523785D01*
X269615Y523662D01*
Y501500D01*
X269911Y500013D01*
X270753Y498753D01*
X288535Y480972D01*
X288539Y480948D01*
X288162Y479548D01*
X286895Y479023D01*
X285477Y477605D01*
X284710Y475752D01*
Y473954D01*
X283253Y472497D01*
X282411Y471237D01*
X282115Y469750D01*
Y416493D01*
X281727Y416105D01*
X280960Y414253D01*
Y412248D01*
X281727Y410395D01*
X283145Y408977D01*
X284998Y408210D01*
X287003D01*
X288855Y408977D01*
X290273Y410395D01*
X291040Y412248D01*
Y414253D01*
X290273Y416105D01*
X289885Y416493D01*
Y468141D01*
X291950Y470206D01*
X292605Y470477D01*
X294023Y471895D01*
X294790Y473747D01*
Y475752D01*
X294023Y477605D01*
X293782Y477845D01*
X294308Y479115D01*
X345328D01*
X345814Y477942D01*
X345727Y477855D01*
X344960Y476003D01*
Y473997D01*
X345727Y472145D01*
X345865Y472007D01*
Y465549D01*
X344753Y464437D01*
X343911Y463177D01*
X343615Y461690D01*
Y445000D01*
Y423493D01*
X343227Y423105D01*
X342460Y421253D01*
Y419248D01*
X343227Y417395D01*
X344645Y415977D01*
X346497Y415210D01*
X348503D01*
X350355Y415977D01*
X351773Y417395D01*
X352540Y419248D01*
Y421253D01*
X351773Y423105D01*
X351385Y423493D01*
Y441115D01*
X363141D01*
X374365Y429891D01*
Y328993D01*
X373977Y328605D01*
X373210Y326753D01*
Y324748D01*
X373977Y322895D01*
X375395Y321477D01*
X377248Y320710D01*
X379253D01*
X381105Y321477D01*
X382523Y322895D01*
X383290Y324748D01*
Y326753D01*
X382523Y328605D01*
X382135Y328993D01*
Y431500D01*
X381839Y432987D01*
X380997Y434247D01*
X367497Y447747D01*
X366237Y448589D01*
X364750Y448885D01*
X351385D01*
Y460081D01*
X352497Y461193D01*
X353339Y462453D01*
X353635Y463940D01*
Y471507D01*
X354273Y472145D01*
X355040Y473997D01*
Y476003D01*
X354273Y477855D01*
X354186Y477942D01*
X354672Y479115D01*
X469921D01*
X470174Y477845D01*
X469395Y477523D01*
X467977Y476105D01*
X467210Y474253D01*
Y473704D01*
X453003Y459497D01*
X452161Y458237D01*
X451865Y456750D01*
Y405243D01*
X451477Y404855D01*
X450710Y403003D01*
Y400998D01*
X451477Y399145D01*
X452895Y397727D01*
X454748Y396960D01*
X456753D01*
X458605Y397727D01*
X460023Y399145D01*
X460790Y400998D01*
Y403003D01*
X460023Y404855D01*
X459635Y405243D01*
Y455141D01*
X472704Y468210D01*
X473252D01*
X475105Y468977D01*
X476523Y470395D01*
X477290Y472248D01*
Y474253D01*
X476523Y476105D01*
X475105Y477523D01*
X474326Y477845D01*
X474579Y479115D01*
X712000D01*
X713487Y479411D01*
X714747Y480253D01*
X752859Y518365D01*
X1031641D01*
X1040503Y509503D01*
X1041763Y508661D01*
X1043250Y508365D01*
X1073141D01*
X1076460Y505046D01*
Y504497D01*
X1077227Y502645D01*
X1078645Y501227D01*
X1080498Y500460D01*
X1082503D01*
X1084355Y501227D01*
X1085773Y502645D01*
X1086540Y504497D01*
Y506502D01*
X1085773Y508355D01*
X1084355Y509773D01*
X1082503Y510540D01*
X1081954D01*
X1077497Y514997D01*
X1076237Y515839D01*
X1074750Y516135D01*
X1044859D01*
X1035997Y524997D01*
X1034737Y525839D01*
X1033250Y526135D01*
X751250D01*
X749763Y525839D01*
X748503Y524997D01*
X710391Y486885D01*
X293609D01*
X277385Y503109D01*
Y523993D01*
X279346Y525126D01*
X281244Y527023D01*
X282585Y529347D01*
X283280Y531939D01*
Y534622D01*
X282585Y537213D01*
X281244Y539537D01*
X279346Y541434D01*
X277023Y542776D01*
X274431Y543470D01*
D02*
G37*
G36*
X611140Y537070D02*
X607439D01*
X603809Y536348D01*
X600389Y534931D01*
X597312Y532875D01*
X594694Y530258D01*
X592638Y527180D01*
X591222Y523761D01*
X590500Y520131D01*
Y516429D01*
X591222Y512799D01*
X592638Y509380D01*
X594694Y506302D01*
X597312Y503685D01*
X600389Y501628D01*
X603809Y500212D01*
X607439Y499490D01*
X611140D01*
X614770Y500212D01*
X618190Y501628D01*
X621268Y503685D01*
X623885Y506302D01*
X625941Y509380D01*
X627357Y512799D01*
X628080Y516429D01*
Y520131D01*
X627357Y523761D01*
X625941Y527180D01*
X623885Y530258D01*
X621268Y532875D01*
X618190Y534931D01*
X614770Y536348D01*
X611140Y537070D01*
D02*
G37*
G36*
X91140D02*
X87439D01*
X83809Y536348D01*
X80389Y534931D01*
X77312Y532875D01*
X74694Y530258D01*
X72638Y527180D01*
X71222Y523761D01*
X70500Y520131D01*
Y516429D01*
X71222Y512799D01*
X72638Y509380D01*
X74694Y506302D01*
X77312Y503685D01*
X80389Y501628D01*
X83809Y500212D01*
X87439Y499490D01*
X91140D01*
X94770Y500212D01*
X98190Y501628D01*
X101267Y503685D01*
X103885Y506302D01*
X105941Y509380D01*
X107358Y512799D01*
X108080Y516429D01*
Y520131D01*
X107358Y523761D01*
X105941Y527180D01*
X103885Y530258D01*
X101267Y532875D01*
X98190Y534931D01*
X94770Y536348D01*
X91140Y537070D01*
D02*
G37*
G36*
X47540Y507540D02*
X38650D01*
Y507472D01*
X39343Y504888D01*
X40680Y502571D01*
X42572Y500680D01*
X44889Y499342D01*
X47473Y498650D01*
X47540D01*
Y507540D01*
D02*
G37*
G36*
X1456172Y680140D02*
X1453528D01*
X1450975Y679456D01*
X1448685Y678134D01*
X1446816Y676264D01*
X1445494Y673975D01*
X1444810Y671422D01*
Y668778D01*
X1445494Y666225D01*
X1446816Y663935D01*
X1448685Y662066D01*
X1450975Y660744D01*
X1453528Y660060D01*
X1456172D01*
X1458715Y660741D01*
X1475615Y643841D01*
Y528859D01*
X1448796Y502040D01*
X1448248D01*
X1446395Y501273D01*
X1444977Y499855D01*
X1444210Y498003D01*
Y495998D01*
X1444977Y494145D01*
X1446395Y492727D01*
X1448248Y491960D01*
X1450253D01*
X1452105Y492727D01*
X1453523Y494145D01*
X1454290Y495998D01*
Y496546D01*
X1482247Y524503D01*
X1483089Y525763D01*
X1483385Y527250D01*
Y645450D01*
X1483089Y646936D01*
X1482247Y648197D01*
X1464209Y666235D01*
X1464890Y668778D01*
Y671422D01*
X1464206Y673975D01*
X1462884Y676264D01*
X1461015Y678134D01*
X1458725Y679456D01*
X1456172Y680140D01*
D02*
G37*
G36*
X1130921Y502490D02*
X1128278D01*
X1125724Y501806D01*
X1123435Y500484D01*
X1121566Y498615D01*
X1120244Y496325D01*
X1119560Y493772D01*
Y491128D01*
X1120244Y488575D01*
X1121566Y486285D01*
X1123435Y484416D01*
X1125724Y483094D01*
X1128278Y482410D01*
X1130921D01*
X1133475Y483094D01*
X1135764Y484416D01*
X1137634Y486285D01*
X1138956Y488575D01*
X1139640Y491128D01*
Y493772D01*
X1138956Y496325D01*
X1137634Y498615D01*
X1135764Y500484D01*
X1133475Y501806D01*
X1130921Y502490D01*
D02*
G37*
G36*
X50148Y493969D02*
X47473D01*
X44889Y493277D01*
X42572Y491940D01*
X40680Y490048D01*
X39343Y487731D01*
X38650Y485147D01*
Y482472D01*
X39343Y479888D01*
X40680Y477571D01*
X42572Y475680D01*
X44889Y474342D01*
X47473Y473649D01*
X50148D01*
X52732Y474342D01*
X55048Y475680D01*
X56940Y477571D01*
X58278Y479888D01*
X58970Y482472D01*
Y485147D01*
X58278Y487731D01*
X56940Y490048D01*
X55048Y491940D01*
X52732Y493277D01*
X50148Y493969D01*
D02*
G37*
G36*
X1878322Y486291D02*
X1875678D01*
X1873125Y485607D01*
X1870835Y484285D01*
X1868966Y482416D01*
X1867644Y480126D01*
X1866960Y477573D01*
Y474929D01*
X1867644Y472376D01*
X1868966Y470086D01*
X1870835Y468217D01*
X1873125Y466895D01*
X1875678Y466211D01*
X1878322D01*
X1880875Y466895D01*
X1883165Y468217D01*
X1885034Y470086D01*
X1886356Y472376D01*
X1887040Y474929D01*
Y477573D01*
X1886356Y480126D01*
X1885034Y482416D01*
X1883165Y484285D01*
X1880875Y485607D01*
X1878322Y486291D01*
D02*
G37*
G36*
X1019003Y512290D02*
X1016998D01*
X1015145Y511523D01*
X1013727Y510105D01*
X1012960Y508252D01*
Y506247D01*
X1013727Y504395D01*
X1015145Y502977D01*
X1016998Y502210D01*
X1019003D01*
X1020655Y502895D01*
X1021612D01*
X1058960Y465546D01*
Y464997D01*
X1059727Y463145D01*
X1061145Y461727D01*
X1062998Y460960D01*
X1065003D01*
X1066855Y461727D01*
X1068273Y463145D01*
X1069040Y464997D01*
Y467002D01*
X1068273Y468855D01*
X1066855Y470273D01*
X1065003Y471040D01*
X1064454D01*
X1025968Y509526D01*
X1024707Y510368D01*
X1023221Y510664D01*
X1021714D01*
X1020855Y511523D01*
X1019003Y512290D01*
D02*
G37*
G36*
X1422522Y479640D02*
X1419878D01*
X1417325Y478956D01*
X1415035Y477634D01*
X1413166Y475765D01*
X1411844Y473475D01*
X1411160Y470922D01*
Y468278D01*
X1411844Y465725D01*
X1413166Y463435D01*
X1415035Y461566D01*
X1417325Y460244D01*
X1419878Y459560D01*
X1422522D01*
X1425075Y460244D01*
X1427365Y461566D01*
X1429234Y463435D01*
X1430556Y465725D01*
X1431240Y468278D01*
Y470922D01*
X1430556Y473475D01*
X1429234Y475765D01*
X1427365Y477634D01*
X1425075Y478956D01*
X1422522Y479640D01*
D02*
G37*
G36*
X1397122D02*
X1394478D01*
X1391925Y478956D01*
X1389635Y477634D01*
X1387766Y475765D01*
X1386444Y473475D01*
X1385760Y470922D01*
Y468278D01*
X1386444Y465725D01*
X1387766Y463435D01*
X1389635Y461566D01*
X1391925Y460244D01*
X1394478Y459560D01*
X1397122D01*
X1399675Y460244D01*
X1401965Y461566D01*
X1403834Y463435D01*
X1405156Y465725D01*
X1405840Y468278D01*
Y470922D01*
X1405156Y473475D01*
X1403834Y475765D01*
X1401965Y477634D01*
X1399675Y478956D01*
X1397122Y479640D01*
D02*
G37*
G36*
X1346322D02*
X1343678D01*
X1341125Y478956D01*
X1338835Y477634D01*
X1336966Y475765D01*
X1335644Y473475D01*
X1334960Y470922D01*
Y468278D01*
X1335644Y465725D01*
X1336966Y463435D01*
X1338835Y461566D01*
X1341125Y460244D01*
X1343678Y459560D01*
X1346322D01*
X1348875Y460244D01*
X1351165Y461566D01*
X1353034Y463435D01*
X1354356Y465725D01*
X1355040Y468278D01*
Y470922D01*
X1354356Y473475D01*
X1353034Y475765D01*
X1351165Y477634D01*
X1348875Y478956D01*
X1346322Y479640D01*
D02*
G37*
G36*
X1320922D02*
X1318278D01*
X1315725Y478956D01*
X1313435Y477634D01*
X1311566Y475765D01*
X1310244Y473475D01*
X1309560Y470922D01*
Y468278D01*
X1310244Y465725D01*
X1311566Y463435D01*
X1313435Y461566D01*
X1315725Y460244D01*
X1318278Y459560D01*
X1320922D01*
X1323475Y460244D01*
X1325765Y461566D01*
X1327634Y463435D01*
X1328956Y465725D01*
X1329640Y468278D01*
Y470922D01*
X1328956Y473475D01*
X1327634Y475765D01*
X1325765Y477634D01*
X1323475Y478956D01*
X1320922Y479640D01*
D02*
G37*
G36*
X1295522D02*
X1292878D01*
X1290325Y478956D01*
X1288035Y477634D01*
X1286166Y475765D01*
X1284844Y473475D01*
X1284160Y470922D01*
Y468278D01*
X1284844Y465725D01*
X1286166Y463435D01*
X1288035Y461566D01*
X1290325Y460244D01*
X1292878Y459560D01*
X1295522D01*
X1298075Y460244D01*
X1300365Y461566D01*
X1302234Y463435D01*
X1303556Y465725D01*
X1304240Y468278D01*
Y470922D01*
X1303556Y473475D01*
X1302234Y475765D01*
X1300365Y477634D01*
X1298075Y478956D01*
X1295522Y479640D01*
D02*
G37*
G36*
X1270122D02*
X1267478D01*
X1264925Y478956D01*
X1262635Y477634D01*
X1260766Y475765D01*
X1259444Y473475D01*
X1258760Y470922D01*
Y468278D01*
X1259444Y465725D01*
X1260766Y463435D01*
X1262635Y461566D01*
X1264925Y460244D01*
X1267478Y459560D01*
X1270122D01*
X1272675Y460244D01*
X1274965Y461566D01*
X1276834Y463435D01*
X1278156Y465725D01*
X1278840Y468278D01*
Y470922D01*
X1278156Y473475D01*
X1276834Y475765D01*
X1274965Y477634D01*
X1272675Y478956D01*
X1270122Y479640D01*
D02*
G37*
G36*
X1244722D02*
X1242078D01*
X1239525Y478956D01*
X1237235Y477634D01*
X1235366Y475765D01*
X1234044Y473475D01*
X1233360Y470922D01*
Y468278D01*
X1234044Y465725D01*
X1235366Y463435D01*
X1237235Y461566D01*
X1239525Y460244D01*
X1242078Y459560D01*
X1244722D01*
X1247275Y460244D01*
X1249565Y461566D01*
X1251434Y463435D01*
X1252756Y465725D01*
X1253440Y468278D01*
Y470922D01*
X1252756Y473475D01*
X1251434Y475765D01*
X1249565Y477634D01*
X1247275Y478956D01*
X1244722Y479640D01*
D02*
G37*
G36*
X1219322D02*
X1216678D01*
X1214125Y478956D01*
X1211835Y477634D01*
X1209966Y475765D01*
X1208644Y473475D01*
X1207960Y470922D01*
Y468278D01*
X1208644Y465725D01*
X1209966Y463435D01*
X1211835Y461566D01*
X1214125Y460244D01*
X1216678Y459560D01*
X1219322D01*
X1221875Y460244D01*
X1224165Y461566D01*
X1226034Y463435D01*
X1227356Y465725D01*
X1228040Y468278D01*
Y470922D01*
X1227356Y473475D01*
X1226034Y475765D01*
X1224165Y477634D01*
X1221875Y478956D01*
X1219322Y479640D01*
D02*
G37*
G36*
X1202640D02*
X1182560D01*
Y459560D01*
X1202640D01*
Y479640D01*
D02*
G37*
G36*
X1130921Y477090D02*
X1128278D01*
X1125724Y476406D01*
X1123435Y475084D01*
X1121566Y473215D01*
X1120244Y470925D01*
X1119560Y468372D01*
Y465728D01*
X1120244Y463175D01*
X1121566Y460885D01*
X1123435Y459016D01*
X1125724Y457694D01*
X1128278Y457010D01*
X1130921D01*
X1133475Y457694D01*
X1135764Y459016D01*
X1137634Y460885D01*
X1138956Y463175D01*
X1139640Y465728D01*
Y468372D01*
X1138956Y470925D01*
X1137634Y473215D01*
X1135764Y475084D01*
X1133475Y476406D01*
X1130921Y477090D01*
D02*
G37*
G36*
X1744503Y568790D02*
X1742498D01*
X1740645Y568023D01*
X1739227Y566605D01*
X1738460Y564753D01*
Y564204D01*
X1733753Y559497D01*
X1732911Y558237D01*
X1732615Y556750D01*
Y544206D01*
X1720125Y531716D01*
X1718952Y532202D01*
Y544674D01*
X1698872D01*
Y524594D01*
X1711343D01*
X1711829Y523420D01*
X1672044Y483635D01*
X1655743D01*
X1655355Y484023D01*
X1653503Y484790D01*
X1651497D01*
X1649645Y484023D01*
X1648227Y482605D01*
X1647460Y480752D01*
Y478747D01*
X1648227Y476895D01*
X1649645Y475477D01*
X1651497Y474710D01*
X1653503D01*
X1655355Y475477D01*
X1655743Y475865D01*
X1673653D01*
X1675139Y476161D01*
X1676400Y477003D01*
X1739247Y539850D01*
X1740089Y541111D01*
X1740385Y542597D01*
Y555141D01*
X1743244Y558001D01*
X1743605Y558029D01*
X1744091Y556971D01*
X1744085Y556712D01*
X1743977Y556605D01*
X1743210Y554753D01*
Y552747D01*
X1743977Y550895D01*
X1744365Y550507D01*
Y467000D01*
X1744661Y465513D01*
X1745503Y464253D01*
X1752710Y457046D01*
Y456497D01*
X1753477Y454645D01*
X1754895Y453227D01*
X1756747Y452460D01*
X1758752D01*
X1760605Y453227D01*
X1762023Y454645D01*
X1762790Y456497D01*
Y458503D01*
X1762023Y460355D01*
X1760605Y461773D01*
X1758752Y462540D01*
X1758204D01*
X1752135Y468609D01*
Y550507D01*
X1752523Y550895D01*
X1753290Y552747D01*
Y554753D01*
X1752523Y556605D01*
X1751105Y558023D01*
X1749252Y558790D01*
X1747464D01*
X1747041Y559386D01*
X1746841Y559963D01*
X1747773Y560895D01*
X1748540Y562747D01*
Y564753D01*
X1747773Y566605D01*
X1746355Y568023D01*
X1744503Y568790D01*
D02*
G37*
G36*
X1818429Y455730D02*
X1814770D01*
Y452071D01*
X1816355Y452727D01*
X1817773Y454145D01*
X1818429Y455730D01*
D02*
G37*
G36*
X1809179Y515730D02*
X1799321D01*
X1799977Y514145D01*
X1800365Y513757D01*
Y466250D01*
X1800661Y464763D01*
X1801503Y463503D01*
X1808460Y456546D01*
Y455998D01*
X1809227Y454145D01*
X1810645Y452727D01*
X1812230Y452071D01*
Y457000D01*
X1813500D01*
Y458270D01*
X1818429D01*
X1817773Y459855D01*
X1816355Y461273D01*
X1814503Y462040D01*
X1813954D01*
X1808135Y467859D01*
Y513757D01*
X1808523Y514145D01*
X1809179Y515730D01*
D02*
G37*
G36*
X1764753Y521790D02*
X1762747D01*
X1760895Y521023D01*
X1759477Y519605D01*
X1758710Y517752D01*
Y515747D01*
X1759477Y513895D01*
X1760895Y512477D01*
X1762747Y511710D01*
X1763296D01*
X1785615Y489391D01*
Y463250D01*
X1785911Y461763D01*
X1786753Y460503D01*
X1790960Y456296D01*
Y455747D01*
X1791727Y453895D01*
X1793145Y452477D01*
X1794998Y451710D01*
X1797003D01*
X1798855Y452477D01*
X1800273Y453895D01*
X1801040Y455747D01*
Y457752D01*
X1800273Y459605D01*
X1798855Y461023D01*
X1797003Y461790D01*
X1796454D01*
X1793385Y464859D01*
Y491000D01*
X1793089Y492487D01*
X1792247Y493747D01*
X1768790Y517204D01*
Y517752D01*
X1768023Y519605D01*
X1766605Y521023D01*
X1764753Y521790D01*
D02*
G37*
G36*
X50148Y468970D02*
X47473D01*
X44889Y468278D01*
X42572Y466940D01*
X40680Y465048D01*
X39343Y462732D01*
X38650Y460147D01*
Y457472D01*
X39343Y454888D01*
X40680Y452571D01*
X42572Y450680D01*
X44889Y449342D01*
X47473Y448650D01*
X50148D01*
X52732Y449342D01*
X55048Y450680D01*
X56940Y452571D01*
X58278Y454888D01*
X58970Y457472D01*
Y460147D01*
X58278Y462732D01*
X56940Y465048D01*
X55048Y466940D01*
X52732Y468278D01*
X50148Y468970D01*
D02*
G37*
G36*
X1371722Y479640D02*
X1369078D01*
X1366525Y478956D01*
X1364235Y477634D01*
X1362366Y475765D01*
X1361044Y473475D01*
X1360360Y470922D01*
Y468278D01*
X1361044Y465725D01*
X1362366Y463435D01*
X1364235Y461566D01*
X1366515Y460250D01*
Y455009D01*
X1365253Y453747D01*
X1364411Y452487D01*
X1364115Y451000D01*
Y446500D01*
X1364411Y445013D01*
X1365253Y443753D01*
X1388753Y420253D01*
X1390013Y419411D01*
X1391500Y419115D01*
X1475000D01*
X1476487Y419411D01*
X1477747Y420253D01*
X1500359Y442865D01*
X1691257D01*
X1691645Y442477D01*
X1693497Y441710D01*
X1695502D01*
X1697355Y442477D01*
X1698773Y443895D01*
X1699540Y445747D01*
Y447752D01*
X1698773Y449605D01*
X1697355Y451023D01*
X1695502Y451790D01*
X1693497D01*
X1691645Y451023D01*
X1691257Y450635D01*
X1498750D01*
X1497263Y450339D01*
X1496003Y449497D01*
X1473391Y426885D01*
X1393109D01*
X1371885Y448109D01*
Y449391D01*
X1373147Y450653D01*
X1373989Y451913D01*
X1374285Y453400D01*
Y460250D01*
X1376565Y461566D01*
X1378434Y463435D01*
X1379756Y465725D01*
X1380440Y468278D01*
Y470922D01*
X1379756Y473475D01*
X1378434Y475765D01*
X1376565Y477634D01*
X1374275Y478956D01*
X1371722Y479640D01*
D02*
G37*
G36*
X1130921Y451690D02*
X1128278D01*
X1125724Y451006D01*
X1123435Y449684D01*
X1121566Y447815D01*
X1120244Y445525D01*
X1119560Y442972D01*
Y440328D01*
X1120244Y437775D01*
X1121566Y435485D01*
X1123435Y433616D01*
X1125724Y432294D01*
X1128278Y431610D01*
X1130921D01*
X1133475Y432294D01*
X1135764Y433616D01*
X1137634Y435485D01*
X1138956Y437775D01*
X1139640Y440328D01*
Y442972D01*
X1138956Y445525D01*
X1137634Y447815D01*
X1135764Y449684D01*
X1133475Y451006D01*
X1130921Y451690D01*
D02*
G37*
G36*
X1508503Y437790D02*
X1506497D01*
X1504645Y437023D01*
X1503227Y435605D01*
X1502460Y433753D01*
Y431748D01*
X1503227Y429895D01*
X1504645Y428477D01*
X1506497Y427710D01*
X1507046D01*
X1510765Y423991D01*
X1512025Y423149D01*
X1513512Y422853D01*
X1524483D01*
X1524833Y422503D01*
X1526093Y421661D01*
X1527580Y421365D01*
X1546000D01*
X1547487Y421661D01*
X1548747Y422503D01*
X1552859Y426615D01*
X1591007D01*
X1591395Y426227D01*
X1593248Y425460D01*
X1595253D01*
X1597105Y426227D01*
X1598523Y427645D01*
X1599290Y429497D01*
Y431502D01*
X1598523Y433355D01*
X1597105Y434773D01*
X1595253Y435540D01*
X1593248D01*
X1591395Y434773D01*
X1591007Y434385D01*
X1551250D01*
X1549763Y434089D01*
X1548503Y433247D01*
X1544391Y429135D01*
X1529189D01*
X1528839Y429485D01*
X1527579Y430327D01*
X1526092Y430623D01*
X1515121D01*
X1512540Y433204D01*
Y433753D01*
X1511773Y435605D01*
X1510355Y437023D01*
X1508503Y437790D01*
D02*
G37*
G36*
X50148Y443970D02*
X47473D01*
X44889Y443277D01*
X42572Y441940D01*
X40680Y440048D01*
X39343Y437731D01*
X38650Y435147D01*
Y432472D01*
X39343Y429888D01*
X40680Y427571D01*
X42572Y425680D01*
X44889Y424342D01*
X47473Y423650D01*
X50148D01*
X52732Y424342D01*
X55048Y425680D01*
X56940Y427571D01*
X58278Y429888D01*
X58970Y432472D01*
Y435147D01*
X58278Y437731D01*
X56940Y440048D01*
X55048Y441940D01*
X52732Y443277D01*
X50148Y443970D01*
D02*
G37*
G36*
X1650253Y440790D02*
X1648248D01*
X1646395Y440023D01*
X1644977Y438605D01*
X1644210Y436753D01*
Y434748D01*
X1644977Y432895D01*
X1646395Y431477D01*
X1646422Y431466D01*
X1646661Y430263D01*
X1647503Y429003D01*
X1663253Y413253D01*
X1664513Y412411D01*
X1666000Y412115D01*
X1681007D01*
X1681395Y411727D01*
X1683248Y410960D01*
X1685253D01*
X1687105Y411727D01*
X1688523Y413145D01*
X1689290Y414997D01*
Y417002D01*
X1688523Y418855D01*
X1687105Y420273D01*
X1685253Y421040D01*
X1683248D01*
X1681395Y420273D01*
X1681007Y419885D01*
X1667609D01*
X1654135Y433359D01*
Y434372D01*
X1654290Y434748D01*
Y436753D01*
X1653523Y438605D01*
X1652105Y440023D01*
X1650253Y440790D01*
D02*
G37*
G36*
X207080Y532010D02*
X196890D01*
X186700D01*
Y531939D01*
X187394Y529347D01*
X187419Y529303D01*
X175003Y516887D01*
X174161Y515627D01*
X173865Y514141D01*
Y510359D01*
X160641Y497135D01*
X65979D01*
X58259Y504855D01*
X58278Y504888D01*
X58970Y507472D01*
Y507540D01*
X50080D01*
Y498650D01*
X50148D01*
X52732Y499342D01*
X52765Y499361D01*
X61623Y490503D01*
X62883Y489661D01*
X64370Y489365D01*
X162250D01*
X163737Y489661D01*
X164997Y490503D01*
X180497Y506003D01*
X181339Y507263D01*
X181635Y508750D01*
Y512532D01*
X192040Y522937D01*
X193310Y522411D01*
Y412188D01*
X193227Y412105D01*
X192571Y410520D01*
X202429D01*
X201773Y412105D01*
X201080Y412798D01*
Y523933D01*
X203146Y525126D01*
X205044Y527023D01*
X206385Y529347D01*
X207080Y531939D01*
Y532010D01*
D02*
G37*
G36*
X1130921Y426290D02*
X1128278D01*
X1125724Y425606D01*
X1123435Y424284D01*
X1121566Y422415D01*
X1120244Y420125D01*
X1119560Y417572D01*
Y414928D01*
X1120244Y412375D01*
X1121566Y410085D01*
X1123435Y408216D01*
X1125724Y406894D01*
X1128278Y406210D01*
X1130921D01*
X1133475Y406894D01*
X1135764Y408216D01*
X1137634Y410085D01*
X1138956Y412375D01*
X1139640Y414928D01*
Y417572D01*
X1138956Y420125D01*
X1137634Y422415D01*
X1135764Y424284D01*
X1133475Y425606D01*
X1130921Y426290D01*
D02*
G37*
G36*
X202429Y407980D02*
X198770D01*
Y404321D01*
X200355Y404977D01*
X201773Y406395D01*
X202429Y407980D01*
D02*
G37*
G36*
X196230D02*
X192571D01*
X193227Y406395D01*
X194645Y404977D01*
X196230Y404321D01*
Y407980D01*
D02*
G37*
G36*
X1887040Y415291D02*
X1866960D01*
Y395211D01*
X1887040D01*
Y415291D01*
D02*
G37*
G36*
X50148Y393970D02*
X47473D01*
X44889Y393277D01*
X42572Y391940D01*
X40680Y390048D01*
X39575Y388135D01*
X25988D01*
X24501Y387839D01*
X23241Y386997D01*
X21753Y385509D01*
X20911Y384249D01*
X20615Y382762D01*
Y312500D01*
X20911Y311013D01*
X21753Y309753D01*
X25443Y306063D01*
X26704Y305221D01*
X28190Y304925D01*
X39333D01*
X39343Y304888D01*
X40680Y302571D01*
X42572Y300680D01*
X44889Y299342D01*
X47473Y298650D01*
X50148D01*
X52732Y299342D01*
X55048Y300680D01*
X56940Y302571D01*
X58278Y304888D01*
X58970Y307472D01*
Y310147D01*
X58278Y312731D01*
X56940Y315048D01*
X55048Y316940D01*
X52732Y318277D01*
X50148Y318970D01*
X47473D01*
X44889Y318277D01*
X42572Y316940D01*
X40680Y315048D01*
X39343Y312731D01*
X39333Y312694D01*
X29799D01*
X28385Y314109D01*
Y380365D01*
X39215D01*
X39343Y379888D01*
X40680Y377571D01*
X42572Y375680D01*
X44889Y374342D01*
X47473Y373650D01*
X50148D01*
X52732Y374342D01*
X55048Y375680D01*
X56940Y377571D01*
X58278Y379888D01*
X58970Y382472D01*
Y385147D01*
X58278Y387731D01*
X56940Y390048D01*
X55048Y391940D01*
X52732Y393277D01*
X50148Y393970D01*
D02*
G37*
G36*
X970148Y391570D02*
X967473D01*
X964889Y390878D01*
X962572Y389540D01*
X960680Y387648D01*
X959343Y385332D01*
X958650Y382747D01*
Y380072D01*
X959343Y377488D01*
X960680Y375172D01*
X962572Y373280D01*
X964889Y371942D01*
X967473Y371250D01*
X970148D01*
X972732Y371942D01*
X975049Y373280D01*
X976940Y375172D01*
X978278Y377488D01*
X978970Y380072D01*
Y382747D01*
X978278Y385332D01*
X976940Y387648D01*
X975049Y389540D01*
X972732Y390878D01*
X970148Y391570D01*
D02*
G37*
G36*
X1804503Y382040D02*
X1802498D01*
X1800645Y381273D01*
X1799227Y379855D01*
X1798460Y378003D01*
Y377454D01*
X1764891Y343885D01*
X1685000D01*
X1683513Y343589D01*
X1682253Y342747D01*
X1674891Y335385D01*
X1617609D01*
X1595094Y357900D01*
X1595719Y359070D01*
X1596750Y358865D01*
X1636000D01*
X1637487Y359161D01*
X1638747Y360003D01*
X1649109Y370365D01*
X1662757D01*
X1663145Y369977D01*
X1664998Y369210D01*
X1667003D01*
X1668855Y369977D01*
X1670273Y371395D01*
X1671040Y373247D01*
Y375252D01*
X1670273Y377105D01*
X1668855Y378523D01*
X1667003Y379290D01*
X1664998D01*
X1663145Y378523D01*
X1662757Y378135D01*
X1647500D01*
X1646013Y377839D01*
X1644753Y376997D01*
X1634391Y366635D01*
X1598359D01*
X1596135Y368859D01*
Y372007D01*
X1596523Y372395D01*
X1597290Y374248D01*
Y376253D01*
X1596523Y378105D01*
X1595105Y379523D01*
X1593253Y380290D01*
X1591248D01*
X1589395Y379523D01*
X1587977Y378105D01*
X1587210Y376253D01*
Y374248D01*
X1587977Y372395D01*
X1588365Y372007D01*
Y367250D01*
X1588661Y365763D01*
X1589503Y364503D01*
X1593656Y360350D01*
X1593031Y359180D01*
X1592000Y359385D01*
X1473609D01*
X1460540Y372454D01*
Y373003D01*
X1459773Y374855D01*
X1458355Y376273D01*
X1456503Y377040D01*
X1454498D01*
X1452645Y376273D01*
X1451227Y374855D01*
X1450460Y373003D01*
Y370998D01*
X1451227Y369145D01*
X1452645Y367727D01*
X1454498Y366960D01*
X1455046D01*
X1469253Y352753D01*
X1470513Y351911D01*
X1472000Y351615D01*
X1590391D01*
X1613253Y328753D01*
X1614513Y327911D01*
X1616000Y327615D01*
X1676500D01*
X1677987Y327911D01*
X1679247Y328753D01*
X1686609Y336115D01*
X1766500D01*
X1767987Y336411D01*
X1769247Y337253D01*
X1803954Y371960D01*
X1804503D01*
X1806355Y372727D01*
X1807773Y374145D01*
X1808540Y375998D01*
Y378003D01*
X1807773Y379855D01*
X1806355Y381273D01*
X1804503Y382040D01*
D02*
G37*
G36*
X325252Y477290D02*
X323247D01*
X321395Y476523D01*
X319977Y475105D01*
X319210Y473252D01*
Y471247D01*
X319977Y469395D01*
X320365Y469007D01*
Y383250D01*
X320661Y381763D01*
X321503Y380503D01*
X335710Y366296D01*
Y365747D01*
X336477Y363895D01*
X336564Y363808D01*
X336078Y362635D01*
X309859D01*
X272247Y400247D01*
X270987Y401089D01*
X269500Y401385D01*
X61729D01*
X58259Y404855D01*
X58278Y404888D01*
X58970Y407472D01*
Y410148D01*
X58278Y412732D01*
X56940Y415048D01*
X55048Y416940D01*
X52732Y418278D01*
X50148Y418970D01*
X47473D01*
X44889Y418278D01*
X42572Y416940D01*
X40680Y415048D01*
X39343Y412732D01*
X38650Y410148D01*
Y407472D01*
X39343Y404888D01*
X40680Y402572D01*
X42572Y400680D01*
X44889Y399342D01*
X47473Y398650D01*
X50148D01*
X52732Y399342D01*
X52765Y399361D01*
X57373Y394753D01*
X58633Y393911D01*
X60120Y393615D01*
X191828D01*
X192663Y392345D01*
X192321Y391520D01*
X202179D01*
X201837Y392345D01*
X202672Y393615D01*
X267891D01*
X305503Y356003D01*
X306763Y355161D01*
X308250Y354865D01*
X354257D01*
X354645Y354477D01*
X356497Y353710D01*
X358503D01*
X360355Y354477D01*
X361773Y355895D01*
X362540Y357747D01*
Y359753D01*
X361773Y361605D01*
X360355Y363023D01*
X358503Y363790D01*
X356497D01*
X354645Y363023D01*
X354257Y362635D01*
X345422D01*
X344936Y363808D01*
X345023Y363895D01*
X345790Y365747D01*
Y367752D01*
X345023Y369605D01*
X343605Y371023D01*
X341753Y371790D01*
X341204D01*
X328135Y384859D01*
Y469007D01*
X328523Y469395D01*
X329290Y471247D01*
Y473252D01*
X328523Y475105D01*
X327105Y476523D01*
X325252Y477290D01*
D02*
G37*
G36*
X970148Y366170D02*
X967473D01*
X964889Y365478D01*
X962572Y364140D01*
X960680Y362248D01*
X959343Y359932D01*
X958650Y357347D01*
Y354672D01*
X959343Y352088D01*
X960680Y349772D01*
X962572Y347880D01*
X964889Y346542D01*
X967473Y345850D01*
X970148D01*
X972732Y346542D01*
X975049Y347880D01*
X976940Y349772D01*
X978278Y352088D01*
X978970Y354672D01*
Y357347D01*
X978278Y359932D01*
X976940Y362248D01*
X975049Y364140D01*
X972732Y365478D01*
X970148Y366170D01*
D02*
G37*
G36*
X1732003Y409540D02*
X1729998D01*
X1728145Y408773D01*
X1726727Y407355D01*
X1725960Y405503D01*
Y403498D01*
X1726727Y401645D01*
X1727115Y401257D01*
Y369359D01*
X1711141Y353385D01*
X1674250D01*
X1672763Y353089D01*
X1671503Y352247D01*
X1666977Y347721D01*
X1665895Y347273D01*
X1664477Y345855D01*
X1663710Y344002D01*
Y341997D01*
X1664477Y340145D01*
X1665895Y338727D01*
X1667747Y337960D01*
X1669753D01*
X1671605Y338727D01*
X1673023Y340145D01*
X1673790Y341997D01*
Y343546D01*
X1675859Y345615D01*
X1712750D01*
X1714237Y345911D01*
X1715497Y346753D01*
X1733747Y365003D01*
X1734589Y366263D01*
X1734885Y367750D01*
Y401257D01*
X1735273Y401645D01*
X1736040Y403498D01*
Y405503D01*
X1735273Y407355D01*
X1733855Y408773D01*
X1732003Y409540D01*
D02*
G37*
G36*
X932503Y444290D02*
X930498D01*
X928645Y443523D01*
X927227Y442105D01*
X926460Y440252D01*
Y439434D01*
X926161Y438987D01*
X925865Y437500D01*
Y339243D01*
X925477Y338855D01*
X924710Y337002D01*
Y334997D01*
X925477Y333145D01*
X926895Y331727D01*
X928747Y330960D01*
X930752D01*
X932605Y331727D01*
X934023Y333145D01*
X934790Y334997D01*
Y337002D01*
X934023Y338855D01*
X933635Y339243D01*
Y434679D01*
X934355Y434977D01*
X935773Y436395D01*
X936540Y438247D01*
Y440252D01*
X935773Y442105D01*
X934355Y443523D01*
X932503Y444290D01*
D02*
G37*
G36*
X50148Y343970D02*
X47473D01*
X44889Y343278D01*
X42572Y341940D01*
X40680Y340048D01*
X39343Y337732D01*
X38650Y335147D01*
Y332472D01*
X39343Y329888D01*
X40680Y327571D01*
X42572Y325680D01*
X44889Y324342D01*
X47473Y323650D01*
X50148D01*
X52732Y324342D01*
X55048Y325680D01*
X56940Y327571D01*
X58278Y329888D01*
X58970Y332472D01*
Y335147D01*
X58278Y337732D01*
X56940Y340048D01*
X55048Y341940D01*
X52732Y343278D01*
X50148Y343970D01*
D02*
G37*
G36*
X970148Y340770D02*
X967473D01*
X964889Y340078D01*
X962572Y338740D01*
X960680Y336848D01*
X959343Y334532D01*
X958650Y331948D01*
Y329272D01*
X959343Y326688D01*
X960680Y324372D01*
X962572Y322480D01*
X964889Y321142D01*
X967473Y320450D01*
X970148D01*
X972732Y321142D01*
X975049Y322480D01*
X976940Y324372D01*
X978278Y326688D01*
X978970Y329272D01*
Y331948D01*
X978278Y334532D01*
X976940Y336848D01*
X975049Y338740D01*
X972732Y340078D01*
X970148Y340770D01*
D02*
G37*
G36*
Y315370D02*
X967473D01*
X964889Y314678D01*
X962572Y313340D01*
X960680Y311448D01*
X959343Y309132D01*
X958650Y306548D01*
Y303872D01*
X959343Y301288D01*
X960680Y298972D01*
X962572Y297080D01*
X964889Y295742D01*
X967473Y295050D01*
X970148D01*
X972732Y295742D01*
X975049Y297080D01*
X976940Y298972D01*
X978278Y301288D01*
X978970Y303872D01*
Y306548D01*
X978278Y309132D01*
X976940Y311448D01*
X975049Y313340D01*
X972732Y314678D01*
X970148Y315370D01*
D02*
G37*
G36*
X50148Y293970D02*
X47473D01*
X44889Y293278D01*
X42572Y291940D01*
X40680Y290048D01*
X39343Y287732D01*
X38650Y285147D01*
Y282472D01*
X39343Y279888D01*
X40680Y277572D01*
X42572Y275680D01*
X44889Y274342D01*
X47473Y273650D01*
X50148D01*
X52732Y274342D01*
X55048Y275680D01*
X56940Y277572D01*
X58278Y279888D01*
X58970Y282472D01*
Y285147D01*
X58278Y287732D01*
X56940Y290048D01*
X55048Y291940D01*
X52732Y293278D01*
X50148Y293970D01*
D02*
G37*
G36*
X1034502Y371290D02*
X1032497D01*
X1030645Y370523D01*
X1029227Y369105D01*
X1028460Y367253D01*
Y365247D01*
X1029227Y363395D01*
X1029615Y363007D01*
Y269250D01*
X1029911Y267763D01*
X1030210Y267316D01*
Y265998D01*
X1030977Y264145D01*
X1032395Y262727D01*
X1034248Y261960D01*
X1036253D01*
X1038105Y262727D01*
X1039523Y264145D01*
X1040290Y265998D01*
Y268002D01*
X1039523Y269855D01*
X1038105Y271273D01*
X1037385Y271571D01*
Y363007D01*
X1037773Y363395D01*
X1038540Y365247D01*
Y367253D01*
X1037773Y369105D01*
X1036355Y370523D01*
X1034502Y371290D01*
D02*
G37*
G36*
X202179Y388980D02*
X192321D01*
X192977Y387395D01*
X193005Y387367D01*
Y272250D01*
Y262789D01*
X192956Y262776D01*
X190633Y261434D01*
X188736Y259537D01*
X187394Y257213D01*
X186700Y254622D01*
Y254550D01*
X196890D01*
X207080D01*
Y254622D01*
X206385Y257213D01*
X205044Y259537D01*
X203146Y261434D01*
X200823Y262776D01*
X200774Y262789D01*
Y268365D01*
X289620D01*
X294088Y263897D01*
X293906Y262400D01*
X292233Y261434D01*
X290336Y259537D01*
X288994Y257213D01*
X288300Y254622D01*
Y254550D01*
X298490D01*
X308680D01*
Y254622D01*
X307985Y257213D01*
X306644Y259537D01*
X304746Y261434D01*
X303073Y262400D01*
X302891Y263897D01*
X304609Y265615D01*
X344141D01*
X345405Y264351D01*
Y262789D01*
X345356Y262776D01*
X343033Y261434D01*
X341135Y259537D01*
X339794Y257213D01*
X339100Y254622D01*
Y254550D01*
X349290D01*
X359480D01*
Y254622D01*
X358785Y257213D01*
X358760Y257257D01*
X370497Y268994D01*
X371339Y270254D01*
X371635Y271741D01*
Y273641D01*
X381909Y283915D01*
X596757D01*
X597082Y282645D01*
X594694Y280258D01*
X592638Y277180D01*
X591222Y273761D01*
X590500Y270131D01*
Y266429D01*
X591222Y262799D01*
X592638Y259380D01*
X594694Y256302D01*
X597312Y253685D01*
X600389Y251628D01*
X603809Y250212D01*
X607439Y249490D01*
X611140D01*
X614770Y250212D01*
X618190Y251628D01*
X621268Y253685D01*
X623885Y256302D01*
X625941Y259380D01*
X627357Y262799D01*
X628080Y266429D01*
Y270131D01*
X627357Y273761D01*
X625941Y277180D01*
X623885Y280258D01*
X621497Y282645D01*
X621822Y283915D01*
X965841D01*
X993236Y256520D01*
X1003429D01*
X1002773Y258105D01*
X1001355Y259523D01*
X1001126Y259617D01*
X970197Y290547D01*
X968937Y291389D01*
X967450Y291684D01*
X380300D01*
X378813Y291389D01*
X377553Y290547D01*
X365003Y277997D01*
X364161Y276737D01*
X363865Y275250D01*
Y273350D01*
X354444Y263929D01*
X353174Y264455D01*
Y265960D01*
X352878Y267447D01*
X352036Y268707D01*
X348497Y272247D01*
X347237Y273089D01*
X345750Y273385D01*
X303000D01*
X301513Y273089D01*
X300253Y272247D01*
X298490Y270483D01*
X293976Y274997D01*
X292716Y275839D01*
X291229Y276135D01*
X200774D01*
Y386647D01*
X201523Y387395D01*
X202179Y388980D01*
D02*
G37*
G36*
X1003429Y253980D02*
X999770D01*
Y250321D01*
X1001355Y250977D01*
X1002773Y252395D01*
X1003429Y253980D01*
D02*
G37*
G36*
X997230D02*
X993571D01*
X994227Y252395D01*
X995645Y250977D01*
X997230Y250321D01*
Y253980D01*
D02*
G37*
G36*
X91140Y287070D02*
X87439D01*
X83809Y286348D01*
X80389Y284931D01*
X77312Y282875D01*
X74694Y280258D01*
X72638Y277180D01*
X71222Y273761D01*
X70500Y270131D01*
Y266429D01*
X71222Y262799D01*
X72638Y259380D01*
X74694Y256302D01*
X77312Y253685D01*
X80389Y251628D01*
X83809Y250212D01*
X87439Y249490D01*
X91140D01*
X94770Y250212D01*
X98190Y251628D01*
X101267Y253685D01*
X103885Y256302D01*
X105941Y259380D01*
X107358Y262799D01*
X108080Y266429D01*
Y270131D01*
X107358Y273761D01*
X105941Y277180D01*
X103885Y280258D01*
X101267Y282875D01*
X98190Y284931D01*
X94770Y286348D01*
X91140Y287070D01*
D02*
G37*
G36*
X50148Y268970D02*
X47473D01*
X44889Y268277D01*
X42572Y266940D01*
X40680Y265048D01*
X39343Y262731D01*
X38650Y260147D01*
Y257472D01*
X39343Y254888D01*
X40680Y252571D01*
X42572Y250680D01*
X44889Y249342D01*
X47473Y248650D01*
X50148D01*
X52732Y249342D01*
X55048Y250680D01*
X56940Y252571D01*
X58278Y254888D01*
X58970Y257472D01*
Y260147D01*
X58278Y262731D01*
X56940Y265048D01*
X55048Y266940D01*
X52732Y268277D01*
X50148Y268970D01*
D02*
G37*
G36*
X537280Y263470D02*
X516900D01*
Y243090D01*
X537280D01*
Y263470D01*
D02*
G37*
G36*
X503031D02*
X500348D01*
X497756Y262776D01*
X495433Y261434D01*
X493535Y259537D01*
X492194Y257213D01*
X491500Y254622D01*
Y251939D01*
X492194Y249347D01*
X493535Y247023D01*
X495433Y245126D01*
X497756Y243785D01*
X500348Y243090D01*
X503031D01*
X505623Y243785D01*
X507946Y245126D01*
X509844Y247023D01*
X511185Y249347D01*
X511880Y251939D01*
Y254622D01*
X511185Y257213D01*
X509844Y259537D01*
X507946Y261434D01*
X505623Y262776D01*
X503031Y263470D01*
D02*
G37*
G36*
X477631D02*
X474948D01*
X472356Y262776D01*
X470033Y261434D01*
X468135Y259537D01*
X466794Y257213D01*
X466100Y254622D01*
Y251939D01*
X466794Y249347D01*
X468135Y247023D01*
X470033Y245126D01*
X472356Y243785D01*
X474948Y243090D01*
X477631D01*
X480223Y243785D01*
X482546Y245126D01*
X484444Y247023D01*
X485785Y249347D01*
X486480Y251939D01*
Y254622D01*
X485785Y257213D01*
X484444Y259537D01*
X482546Y261434D01*
X480223Y262776D01*
X477631Y263470D01*
D02*
G37*
G36*
X452231D02*
X449548D01*
X446956Y262776D01*
X444633Y261434D01*
X442735Y259537D01*
X441394Y257213D01*
X440700Y254622D01*
Y251939D01*
X441394Y249347D01*
X442735Y247023D01*
X444633Y245126D01*
X446956Y243785D01*
X449548Y243090D01*
X452231D01*
X454823Y243785D01*
X457146Y245126D01*
X459044Y247023D01*
X460385Y249347D01*
X461080Y251939D01*
Y254622D01*
X460385Y257213D01*
X459044Y259537D01*
X457146Y261434D01*
X454823Y262776D01*
X452231Y263470D01*
D02*
G37*
G36*
X426831D02*
X424148D01*
X421556Y262776D01*
X419233Y261434D01*
X417336Y259537D01*
X415994Y257213D01*
X415300Y254622D01*
Y251939D01*
X415994Y249347D01*
X417336Y247023D01*
X419233Y245126D01*
X421556Y243785D01*
X424148Y243090D01*
X426831D01*
X429423Y243785D01*
X431746Y245126D01*
X433644Y247023D01*
X434985Y249347D01*
X435680Y251939D01*
Y254622D01*
X434985Y257213D01*
X433644Y259537D01*
X431746Y261434D01*
X429423Y262776D01*
X426831Y263470D01*
D02*
G37*
G36*
X401431D02*
X398748D01*
X396156Y262776D01*
X393833Y261434D01*
X391936Y259537D01*
X390594Y257213D01*
X389900Y254622D01*
Y251939D01*
X390594Y249347D01*
X391936Y247023D01*
X393833Y245126D01*
X396156Y243785D01*
X398748Y243090D01*
X401431D01*
X404023Y243785D01*
X406346Y245126D01*
X408244Y247023D01*
X409585Y249347D01*
X410280Y251939D01*
Y254622D01*
X409585Y257213D01*
X408244Y259537D01*
X406346Y261434D01*
X404023Y262776D01*
X401431Y263470D01*
D02*
G37*
G36*
X376031D02*
X373348D01*
X370756Y262776D01*
X368433Y261434D01*
X366535Y259537D01*
X365194Y257213D01*
X364500Y254622D01*
Y251939D01*
X365194Y249347D01*
X366535Y247023D01*
X368433Y245126D01*
X370756Y243785D01*
X373348Y243090D01*
X376031D01*
X378623Y243785D01*
X380946Y245126D01*
X382844Y247023D01*
X384185Y249347D01*
X384880Y251939D01*
Y254622D01*
X384185Y257213D01*
X382844Y259537D01*
X380946Y261434D01*
X378623Y262776D01*
X376031Y263470D01*
D02*
G37*
G36*
X359480Y252010D02*
X350560D01*
Y243090D01*
X350631D01*
X353223Y243785D01*
X355546Y245126D01*
X357444Y247023D01*
X358785Y249347D01*
X359480Y251939D01*
Y252010D01*
D02*
G37*
G36*
X348020D02*
X339100D01*
Y251939D01*
X339794Y249347D01*
X341135Y247023D01*
X343033Y245126D01*
X345356Y243785D01*
X347948Y243090D01*
X348020D01*
Y252010D01*
D02*
G37*
G36*
X308680D02*
X299760D01*
Y243090D01*
X299831D01*
X302423Y243785D01*
X304746Y245126D01*
X306644Y247023D01*
X307985Y249347D01*
X308680Y251939D01*
Y252010D01*
D02*
G37*
G36*
X297220D02*
X288300D01*
Y251939D01*
X288994Y249347D01*
X290336Y247023D01*
X292233Y245126D01*
X294556Y243785D01*
X297148Y243090D01*
X297220D01*
Y252010D01*
D02*
G37*
G36*
X249031Y263470D02*
X246348D01*
X243756Y262776D01*
X241433Y261434D01*
X239536Y259537D01*
X238194Y257213D01*
X237500Y254622D01*
Y251939D01*
X238194Y249347D01*
X239536Y247023D01*
X241433Y245126D01*
X243756Y243785D01*
X246348Y243090D01*
X249031D01*
X251623Y243785D01*
X253946Y245126D01*
X255844Y247023D01*
X257185Y249347D01*
X257880Y251939D01*
Y254622D01*
X257185Y257213D01*
X255844Y259537D01*
X253946Y261434D01*
X251623Y262776D01*
X249031Y263470D01*
D02*
G37*
G36*
X223631D02*
X220948D01*
X218356Y262776D01*
X216033Y261434D01*
X214135Y259537D01*
X212794Y257213D01*
X212100Y254622D01*
Y251939D01*
X212794Y249347D01*
X214135Y247023D01*
X216033Y245126D01*
X218356Y243785D01*
X220948Y243090D01*
X223631D01*
X226223Y243785D01*
X228546Y245126D01*
X230444Y247023D01*
X231785Y249347D01*
X232480Y251939D01*
Y254622D01*
X231785Y257213D01*
X230444Y259537D01*
X228546Y261434D01*
X226223Y262776D01*
X223631Y263470D01*
D02*
G37*
G36*
X207080Y252010D02*
X198160D01*
Y243090D01*
X198231D01*
X200823Y243785D01*
X203146Y245126D01*
X205044Y247023D01*
X206385Y249347D01*
X207080Y251939D01*
Y252010D01*
D02*
G37*
G36*
X195620D02*
X186700D01*
Y251939D01*
X187394Y249347D01*
X188736Y247023D01*
X190633Y245126D01*
X192956Y243785D01*
X195548Y243090D01*
X195620D01*
Y252010D01*
D02*
G37*
G36*
X50148Y368969D02*
X47473D01*
X44889Y368277D01*
X42572Y366940D01*
X40680Y365048D01*
X39343Y362731D01*
X38650Y360147D01*
Y357472D01*
X39343Y354888D01*
X40680Y352571D01*
X42572Y350680D01*
X44889Y349342D01*
X47473Y348649D01*
X50148D01*
X52732Y349342D01*
X55048Y350680D01*
X56940Y352571D01*
X58278Y354888D01*
X58288Y354925D01*
X64351D01*
X162019Y257257D01*
X161994Y257213D01*
X161300Y254622D01*
Y251939D01*
X161994Y249347D01*
X163335Y247023D01*
X165233Y245126D01*
X167556Y243785D01*
X170148Y243090D01*
X172831D01*
X175423Y243785D01*
X177746Y245126D01*
X179644Y247023D01*
X180985Y249347D01*
X181680Y251939D01*
Y254622D01*
X180985Y257213D01*
X179644Y259537D01*
X177746Y261434D01*
X175423Y262776D01*
X172831Y263470D01*
X170148D01*
X167556Y262776D01*
X167513Y262751D01*
X68707Y361556D01*
X67447Y362398D01*
X65960Y362694D01*
X58288D01*
X58278Y362731D01*
X56940Y365048D01*
X55048Y366940D01*
X52732Y368277D01*
X50148Y368969D01*
D02*
G37*
G36*
X1405402Y263040D02*
X1402298D01*
X1399299Y262236D01*
X1396611Y260684D01*
X1394416Y258489D01*
X1392863Y255800D01*
X1392060Y252802D01*
Y249697D01*
X1392863Y246699D01*
X1393208Y246102D01*
X1387491Y240385D01*
X1262243D01*
X1261855Y240773D01*
X1260003Y241540D01*
X1257998D01*
X1256145Y240773D01*
X1254727Y239355D01*
X1253960Y237502D01*
Y235497D01*
X1254727Y233645D01*
X1256145Y232227D01*
X1257998Y231460D01*
X1260003D01*
X1261855Y232227D01*
X1262243Y232615D01*
X1389100D01*
X1390587Y232911D01*
X1391847Y233753D01*
X1398702Y240608D01*
X1399299Y240263D01*
X1402298Y239460D01*
X1405402D01*
X1408401Y240263D01*
X1411089Y241815D01*
X1413284Y244011D01*
X1414836Y246699D01*
X1415640Y249697D01*
Y252802D01*
X1414836Y255800D01*
X1413284Y258489D01*
X1411089Y260684D01*
X1408401Y262236D01*
X1405402Y263040D01*
D02*
G37*
G36*
X50148Y243969D02*
X47473D01*
X44889Y243277D01*
X42572Y241940D01*
X40680Y240048D01*
X39343Y237731D01*
X38650Y235147D01*
Y232472D01*
X39343Y229888D01*
X40680Y227571D01*
X42572Y225679D01*
X44889Y224342D01*
X47473Y223650D01*
X50148D01*
X52732Y224342D01*
X55048Y225679D01*
X56940Y227571D01*
X58278Y229888D01*
X58970Y232472D01*
Y235147D01*
X58278Y237731D01*
X56940Y240048D01*
X55048Y241940D01*
X52732Y243277D01*
X50148Y243969D01*
D02*
G37*
G36*
Y218970D02*
X47473D01*
X44889Y218277D01*
X42572Y216940D01*
X40680Y215048D01*
X39343Y212731D01*
X38650Y210147D01*
Y207472D01*
X39343Y204888D01*
X40680Y202572D01*
X42572Y200680D01*
X44889Y199342D01*
X47473Y198650D01*
X50148D01*
X52732Y199342D01*
X55048Y200680D01*
X56940Y202572D01*
X58278Y204888D01*
X58970Y207472D01*
Y210147D01*
X58278Y212731D01*
X56940Y215048D01*
X55048Y216940D01*
X52732Y218277D01*
X50148Y218970D01*
D02*
G37*
G36*
X498321Y206280D02*
X495678D01*
X493124Y205596D01*
X490835Y204274D01*
X488966Y202405D01*
X487644Y200116D01*
X486960Y197562D01*
Y194919D01*
X487644Y192365D01*
X488966Y190076D01*
X490835Y188206D01*
X493124Y186885D01*
X495678Y186200D01*
X498321D01*
X500875Y186885D01*
X503164Y188206D01*
X505034Y190076D01*
X506356Y192365D01*
X507040Y194919D01*
Y197562D01*
X506356Y200116D01*
X505034Y202405D01*
X503164Y204274D01*
X500875Y205596D01*
X498321Y206280D01*
D02*
G37*
G36*
X472921D02*
X470278D01*
X467724Y205596D01*
X465435Y204274D01*
X463566Y202405D01*
X462244Y200116D01*
X461560Y197562D01*
Y194919D01*
X462244Y192365D01*
X463566Y190076D01*
X465435Y188206D01*
X467724Y186885D01*
X470278Y186200D01*
X472921D01*
X475475Y186885D01*
X477764Y188206D01*
X479634Y190076D01*
X480956Y192365D01*
X481640Y194919D01*
Y197562D01*
X480956Y200116D01*
X479634Y202405D01*
X477764Y204274D01*
X475475Y205596D01*
X472921Y206280D01*
D02*
G37*
G36*
X447522D02*
X444878D01*
X442324Y205596D01*
X440035Y204274D01*
X438166Y202405D01*
X436844Y200116D01*
X436160Y197562D01*
Y194919D01*
X436844Y192365D01*
X438166Y190076D01*
X440035Y188206D01*
X442324Y186885D01*
X444878Y186200D01*
X447522D01*
X450075Y186885D01*
X452364Y188206D01*
X454234Y190076D01*
X455555Y192365D01*
X456240Y194919D01*
Y197562D01*
X455555Y200116D01*
X454234Y202405D01*
X452364Y204274D01*
X450075Y205596D01*
X447522Y206280D01*
D02*
G37*
G36*
X422122D02*
X419478D01*
X416924Y205596D01*
X414635Y204274D01*
X412766Y202405D01*
X411444Y200116D01*
X410760Y197562D01*
Y194919D01*
X411444Y192365D01*
X412766Y190076D01*
X414635Y188206D01*
X416924Y186885D01*
X419478Y186200D01*
X422122D01*
X424675Y186885D01*
X426964Y188206D01*
X428834Y190076D01*
X430155Y192365D01*
X430840Y194919D01*
Y197562D01*
X430155Y200116D01*
X428834Y202405D01*
X426964Y204274D01*
X424675Y205596D01*
X422122Y206280D01*
D02*
G37*
G36*
X396721D02*
X394078D01*
X391524Y205596D01*
X389235Y204274D01*
X387366Y202405D01*
X386044Y200116D01*
X385360Y197562D01*
Y194919D01*
X386044Y192365D01*
X387366Y190076D01*
X389235Y188206D01*
X391524Y186885D01*
X394078Y186200D01*
X396721D01*
X399275Y186885D01*
X401564Y188206D01*
X403434Y190076D01*
X404756Y192365D01*
X405440Y194919D01*
Y197562D01*
X404756Y200116D01*
X403434Y202405D01*
X401564Y204274D01*
X399275Y205596D01*
X396721Y206280D01*
D02*
G37*
G36*
X380040D02*
X359960D01*
Y186200D01*
X380040D01*
Y206280D01*
D02*
G37*
G36*
X280040Y206280D02*
X259960D01*
Y186200D01*
X280040D01*
Y206280D01*
D02*
G37*
G36*
X245922D02*
X243278D01*
X240725Y205596D01*
X238435Y204274D01*
X236566Y202405D01*
X235244Y200115D01*
X234560Y197562D01*
Y194918D01*
X235244Y192365D01*
X236566Y190075D01*
X238435Y188206D01*
X240725Y186884D01*
X243278Y186200D01*
X245922D01*
X248475Y186884D01*
X250765Y188206D01*
X252634Y190075D01*
X253956Y192365D01*
X254640Y194918D01*
Y197562D01*
X253956Y200115D01*
X252634Y202405D01*
X250765Y204274D01*
X248475Y205596D01*
X245922Y206280D01*
D02*
G37*
G36*
X220522D02*
X217878D01*
X215325Y205596D01*
X213035Y204274D01*
X211166Y202405D01*
X209844Y200115D01*
X209160Y197562D01*
Y194918D01*
X209844Y192365D01*
X211166Y190075D01*
X213035Y188206D01*
X215325Y186884D01*
X217878Y186200D01*
X220522D01*
X223075Y186884D01*
X225365Y188206D01*
X227234Y190075D01*
X228556Y192365D01*
X229240Y194918D01*
Y197562D01*
X228556Y200115D01*
X227234Y202405D01*
X225365Y204274D01*
X223075Y205596D01*
X220522Y206280D01*
D02*
G37*
G36*
X1332672Y201040D02*
X1330028D01*
X1327475Y200356D01*
X1325185Y199034D01*
X1323316Y197165D01*
X1321994Y194875D01*
X1321310Y192322D01*
Y189678D01*
X1321994Y187125D01*
X1323316Y184835D01*
X1325185Y182966D01*
X1327475Y181644D01*
X1330028Y180960D01*
X1332672D01*
X1335225Y181644D01*
X1337515Y182966D01*
X1339384Y184835D01*
X1340706Y187125D01*
X1341390Y189678D01*
Y192322D01*
X1340706Y194875D01*
X1339384Y197165D01*
X1337515Y199034D01*
X1335225Y200356D01*
X1332672Y201040D01*
D02*
G37*
G36*
X1265003Y180540D02*
X1262998D01*
X1261145Y179773D01*
X1259727Y178355D01*
X1258960Y176502D01*
Y174498D01*
X1259727Y172645D01*
X1261145Y171227D01*
X1262998Y170460D01*
X1263546D01*
X1272253Y161753D01*
X1273513Y160911D01*
X1275000Y160615D01*
X1300507D01*
X1300895Y160227D01*
X1302747Y159460D01*
X1304753D01*
X1306605Y160227D01*
X1308023Y161645D01*
X1308790Y163498D01*
Y165502D01*
X1308023Y167355D01*
X1306605Y168773D01*
X1304753Y169540D01*
X1302747D01*
X1300895Y168773D01*
X1300507Y168385D01*
X1276609D01*
X1269040Y175954D01*
Y176502D01*
X1268273Y178355D01*
X1266855Y179773D01*
X1265003Y180540D01*
D02*
G37*
G36*
X1427520Y131179D02*
Y127520D01*
X1431179D01*
X1430523Y129105D01*
X1429105Y130523D01*
X1427520Y131179D01*
D02*
G37*
G36*
X1378230Y116230D02*
X1374571D01*
X1375227Y114645D01*
X1376645Y113227D01*
X1378230Y112571D01*
Y116230D01*
D02*
G37*
G36*
X970978Y148750D02*
X966643D01*
X962361Y148072D01*
X958239Y146732D01*
X954376Y144764D01*
X950869Y142216D01*
X947804Y139151D01*
X945256Y135644D01*
X943288Y131782D01*
X941948Y127659D01*
X941270Y123377D01*
Y119042D01*
X941948Y114761D01*
X943288Y110638D01*
X945256Y106776D01*
X947804Y103269D01*
X950869Y100204D01*
X954376Y97655D01*
X958239Y95688D01*
X962361Y94348D01*
X966643Y93670D01*
X970978D01*
X975259Y94348D01*
X979382Y95688D01*
X983244Y97655D01*
X986751Y100204D01*
X989817Y103269D01*
X992365Y106776D01*
X994333Y110638D01*
X995672Y114761D01*
X996350Y119042D01*
Y123377D01*
X995672Y127659D01*
X994333Y131782D01*
X992365Y135644D01*
X989817Y139151D01*
X986751Y142216D01*
X983244Y144764D01*
X979382Y146732D01*
X975259Y148072D01*
X970978Y148750D01*
D02*
G37*
G36*
X60978D02*
X56643D01*
X52361Y148072D01*
X48238Y146732D01*
X44376Y144764D01*
X40869Y142216D01*
X37804Y139151D01*
X35256Y135644D01*
X33288Y131782D01*
X31948Y127659D01*
X31270Y123377D01*
Y119042D01*
X31948Y114761D01*
X33288Y110638D01*
X35256Y106776D01*
X37804Y103269D01*
X40869Y100204D01*
X44376Y97655D01*
X48238Y95688D01*
X52361Y94348D01*
X56643Y93670D01*
X60978D01*
X65259Y94348D01*
X69382Y95688D01*
X73244Y97655D01*
X76751Y100204D01*
X79816Y103269D01*
X82364Y106776D01*
X84332Y110638D01*
X85672Y114761D01*
X86350Y119042D01*
Y123377D01*
X85672Y127659D01*
X84332Y131782D01*
X82364Y135644D01*
X79816Y139151D01*
X76751Y142216D01*
X73244Y144764D01*
X69382Y146732D01*
X65259Y148072D01*
X60978Y148750D01*
D02*
G37*
G36*
X1318253Y155790D02*
X1316248D01*
X1314395Y155023D01*
X1312977Y153605D01*
X1312352Y152096D01*
X1307503Y147247D01*
X1306661Y145987D01*
X1306365Y144500D01*
Y101109D01*
X1297546Y92290D01*
X1296998D01*
X1295145Y91523D01*
X1293727Y90105D01*
X1292960Y88252D01*
Y86248D01*
X1293727Y84395D01*
X1295145Y82977D01*
X1296998Y82210D01*
X1299003D01*
X1300855Y82977D01*
X1302273Y84395D01*
X1303040Y86248D01*
Y86796D01*
X1312997Y96753D01*
X1313839Y98013D01*
X1314135Y99500D01*
Y142891D01*
X1316954Y145710D01*
X1318253D01*
X1320105Y146477D01*
X1321523Y147895D01*
X1322290Y149747D01*
Y151753D01*
X1321523Y153605D01*
X1320105Y155023D01*
X1318253Y155790D01*
D02*
G37*
G36*
X1466440Y263040D02*
X1442860D01*
Y239460D01*
X1449865D01*
Y230238D01*
X1450161Y228751D01*
X1451003Y227491D01*
X1452491Y226003D01*
X1453751Y225161D01*
X1455238Y224865D01*
X1460141D01*
X1502865Y182141D01*
Y93001D01*
X1503161Y91514D01*
X1504003Y90254D01*
X1515960Y78297D01*
Y63710D01*
X1536040D01*
Y83790D01*
X1530135D01*
Y112115D01*
X1547516D01*
Y83101D01*
X1545236Y81784D01*
X1543366Y79915D01*
X1542045Y77626D01*
X1541360Y75072D01*
Y72428D01*
X1542045Y69875D01*
X1543366Y67586D01*
X1545236Y65716D01*
X1547525Y64394D01*
X1550079Y63710D01*
X1552722D01*
X1555276Y64394D01*
X1557565Y65716D01*
X1559434Y67586D01*
X1560756Y69875D01*
X1561440Y72428D01*
Y75072D01*
X1560756Y77626D01*
X1559434Y79915D01*
X1557565Y81784D01*
X1555285Y83101D01*
Y113900D01*
X1554989Y115387D01*
X1554147Y116647D01*
X1552048Y118747D01*
X1550787Y119589D01*
X1549301Y119885D01*
X1528500D01*
X1527013Y119589D01*
X1525753Y118747D01*
X1523503Y116497D01*
X1522661Y115237D01*
X1522365Y113750D01*
Y84656D01*
X1521095Y84149D01*
X1510635Y94610D01*
Y183750D01*
X1510339Y185237D01*
X1509497Y186497D01*
X1464497Y231497D01*
X1463237Y232339D01*
X1461750Y232635D01*
X1457635D01*
Y239460D01*
X1466440D01*
Y263040D01*
D02*
G37*
G36*
X1552722Y58390D02*
X1552670D01*
Y49620D01*
X1561440D01*
Y49672D01*
X1560756Y52226D01*
X1559434Y54515D01*
X1557565Y56384D01*
X1555276Y57706D01*
X1552722Y58390D01*
D02*
G37*
G36*
X1527322D02*
X1527271D01*
Y49620D01*
X1536040D01*
Y49672D01*
X1535356Y52226D01*
X1534034Y54515D01*
X1532165Y56384D01*
X1529876Y57706D01*
X1527322Y58390D01*
D02*
G37*
G36*
X1550130D02*
X1550079D01*
X1547525Y57706D01*
X1545236Y56384D01*
X1543366Y54515D01*
X1542045Y52226D01*
X1541360Y49672D01*
Y49620D01*
X1550130D01*
Y58390D01*
D02*
G37*
G36*
X1524731D02*
X1524679D01*
X1522125Y57706D01*
X1519836Y56384D01*
X1517966Y54515D01*
X1516645Y52226D01*
X1515960Y49672D01*
Y49620D01*
X1524731D01*
Y58390D01*
D02*
G37*
G36*
X1321540Y57540D02*
X1312770D01*
Y48770D01*
X1321540D01*
Y57540D01*
D02*
G37*
G36*
X1310230D02*
X1301460D01*
Y48770D01*
X1310230D01*
Y57540D01*
D02*
G37*
G36*
X1392502Y110790D02*
X1390497D01*
X1388645Y110023D01*
X1387227Y108605D01*
X1386460Y106753D01*
Y104747D01*
X1387227Y102895D01*
X1388645Y101477D01*
X1389365Y101179D01*
Y97109D01*
X1359553Y67297D01*
X1358711Y66037D01*
X1358415Y64550D01*
Y56850D01*
X1356135Y55534D01*
X1354266Y53665D01*
X1352944Y51375D01*
X1352260Y48822D01*
Y46178D01*
X1352944Y43625D01*
X1354266Y41335D01*
X1356135Y39466D01*
X1358425Y38144D01*
X1360978Y37460D01*
X1363622D01*
X1366175Y38144D01*
X1368465Y39466D01*
X1370334Y41335D01*
X1371656Y43625D01*
X1372340Y46178D01*
Y48822D01*
X1371656Y51375D01*
X1370334Y53665D01*
X1368465Y55534D01*
X1366185Y56850D01*
Y62941D01*
X1395997Y92753D01*
X1396839Y94013D01*
X1397135Y95500D01*
Y104000D01*
X1396839Y105487D01*
X1396540Y105934D01*
Y106753D01*
X1395773Y108605D01*
X1394355Y110023D01*
X1392502Y110790D01*
D02*
G37*
G36*
X1333253Y94040D02*
X1331248D01*
X1329395Y93273D01*
X1327977Y91855D01*
X1327210Y90002D01*
Y87998D01*
X1327977Y86145D01*
X1329395Y84727D01*
X1331248Y83960D01*
X1332225D01*
X1333031Y82978D01*
X1333015Y82900D01*
Y56850D01*
X1330735Y55534D01*
X1328866Y53665D01*
X1327544Y51375D01*
X1326860Y48822D01*
Y46178D01*
X1327544Y43625D01*
X1328866Y41335D01*
X1330735Y39466D01*
X1333025Y38144D01*
X1335578Y37460D01*
X1338222D01*
X1340775Y38144D01*
X1343065Y39466D01*
X1344934Y41335D01*
X1346256Y43625D01*
X1346940Y46178D01*
Y48822D01*
X1346256Y51375D01*
X1344934Y53665D01*
X1343065Y55534D01*
X1340785Y56850D01*
Y81291D01*
X1342155Y82661D01*
X1342997Y83921D01*
X1343293Y85408D01*
Y87512D01*
X1342997Y88999D01*
X1342155Y90259D01*
X1340667Y91747D01*
X1339407Y92589D01*
X1337920Y92885D01*
X1335493D01*
X1335105Y93273D01*
X1333253Y94040D01*
D02*
G37*
G36*
X1284679Y208230D02*
X1274821D01*
X1275477Y206645D01*
X1275865Y206257D01*
Y192000D01*
X1276161Y190513D01*
X1277003Y189253D01*
X1293878Y172378D01*
X1295138Y171536D01*
X1296625Y171240D01*
X1310766D01*
X1315253Y166753D01*
X1316513Y165911D01*
X1318000Y165615D01*
X1336391D01*
X1375615Y126391D01*
Y120743D01*
X1375227Y120355D01*
X1374571Y118770D01*
X1379500D01*
Y117500D01*
X1380770D01*
Y112571D01*
X1382355Y113227D01*
X1382743Y113615D01*
X1396153D01*
X1401615Y108153D01*
Y52859D01*
X1372391Y23635D01*
X1318635D01*
Y23750D01*
X1318339Y25237D01*
X1317497Y26497D01*
X1315635Y28359D01*
Y30000D01*
X1315385Y31257D01*
Y37460D01*
X1321540D01*
Y46230D01*
X1301460D01*
Y37460D01*
X1307615D01*
Y30250D01*
X1307865Y28993D01*
Y26750D01*
X1308161Y25263D01*
X1309003Y24003D01*
X1310865Y22141D01*
Y21500D01*
X1311161Y20013D01*
X1312003Y18753D01*
X1313753Y17003D01*
X1315013Y16161D01*
X1316500Y15865D01*
X1374000D01*
X1375487Y16161D01*
X1376747Y17003D01*
X1408247Y48503D01*
X1409089Y49763D01*
X1409385Y51250D01*
Y105877D01*
X1410012D01*
X1411499Y106173D01*
X1412759Y107015D01*
X1426954Y121210D01*
X1427253D01*
X1429105Y121977D01*
X1430523Y123395D01*
X1431179Y124980D01*
X1426250D01*
Y126250D01*
X1424980D01*
Y131179D01*
X1423395Y130523D01*
X1421977Y129105D01*
X1421210Y127253D01*
Y126454D01*
X1408403Y113647D01*
X1407109D01*
X1400509Y120247D01*
X1399249Y121089D01*
X1397762Y121385D01*
X1383385D01*
Y128000D01*
X1383089Y129487D01*
X1382247Y130747D01*
X1340747Y172247D01*
X1339487Y173089D01*
X1338000Y173385D01*
X1319609D01*
X1315122Y177872D01*
X1313862Y178714D01*
X1312375Y179010D01*
X1298234D01*
X1283635Y193609D01*
Y206257D01*
X1284023Y206645D01*
X1284679Y208230D01*
D02*
G37*
G36*
X1960918Y69790D02*
X1956582D01*
X1952301Y69112D01*
X1948178Y67772D01*
X1944316Y65804D01*
X1940809Y63256D01*
X1937744Y60191D01*
X1935196Y56684D01*
X1933228Y52822D01*
X1931888Y48699D01*
X1931210Y44418D01*
Y40083D01*
X1931888Y35801D01*
X1933228Y31678D01*
X1935196Y27816D01*
X1937744Y24309D01*
X1940809Y21244D01*
X1944316Y18696D01*
X1948178Y16728D01*
X1952301Y15388D01*
X1956582Y14710D01*
X1960918D01*
X1965199Y15388D01*
X1969322Y16728D01*
X1973184Y18696D01*
X1976691Y21244D01*
X1979756Y24309D01*
X1982304Y27816D01*
X1984272Y31678D01*
X1985612Y35801D01*
X1986290Y40083D01*
Y44418D01*
X1985612Y48699D01*
X1984272Y52822D01*
X1982304Y56684D01*
X1979756Y60191D01*
X1976691Y63256D01*
X1973184Y65804D01*
X1969322Y67772D01*
X1965199Y69112D01*
X1960918Y69790D01*
D02*
G37*
%LPD*%
G36*
X1150615Y580313D02*
Y562109D01*
X1147891Y559385D01*
X1136085D01*
X1135814Y560396D01*
X1135803Y560655D01*
X1137634Y562485D01*
X1138956Y564775D01*
X1139640Y567328D01*
Y569972D01*
X1138956Y572525D01*
X1137634Y574815D01*
X1135764Y576684D01*
X1134186Y577595D01*
X1134526Y578865D01*
X1145762D01*
X1147249Y579161D01*
X1148509Y580003D01*
X1149345Y580840D01*
X1150615Y580313D01*
D02*
G37*
D14*
X1948601Y590118D02*
Y591055D01*
X1947320Y601930D02*
X1953500Y595750D01*
X1948601Y590118D02*
X1949071Y589648D01*
X1942806Y596850D02*
X1948601Y591055D01*
X1919492Y601930D02*
X1947320D01*
X1921596Y596850D02*
X1942806D01*
X1885844Y568282D02*
X1919492Y601930D01*
X1887948Y563202D02*
X1921596Y596850D01*
X1855082Y590774D02*
X1869299Y604992D01*
X1860289Y563202D02*
X1887948D01*
X1869299Y604992D02*
X1871472D01*
X1860162Y588670D02*
X1862394D01*
X1871472Y579592D01*
X196890Y533280D02*
X197500Y533891D01*
Y546250D01*
X202250Y551000D01*
X356970D02*
X374690Y533280D01*
X202250Y551000D02*
X356970D01*
X37380Y533276D02*
X48277D01*
X29552Y525448D02*
X30000Y525000D01*
X48277Y533276D02*
X48810Y533809D01*
X29552Y525448D02*
X37380Y533276D01*
X30000Y397750D02*
Y525000D01*
X998500Y255250D02*
Y256750D01*
X967450Y287800D02*
X998500Y256750D01*
X380300Y287800D02*
X967450D01*
X367750Y275250D02*
X380300Y287800D01*
X367750Y271741D02*
Y275250D01*
X349290Y253280D02*
X367750Y271741D01*
X392774Y561976D02*
X398000Y556750D01*
X398500Y534870D02*
Y557250D01*
Y534870D02*
X400090Y533280D01*
X398000Y556750D02*
X398500Y557250D01*
X436500D01*
X452125Y625875D02*
X461250Y635000D01*
X452125Y572875D02*
Y625875D01*
X436500Y557250D02*
X452125Y572875D01*
X461250Y635000D02*
X486250D01*
X543000Y691750D02*
Y719000D01*
X486250Y635000D02*
X543000Y691750D01*
Y719000D02*
X575750Y751750D01*
X651750D01*
X716000Y687500D02*
X936250D01*
X651750Y751750D02*
X716000Y687500D01*
X936250D02*
X966800Y718050D01*
X1083350D01*
X196890Y272250D02*
Y389890D01*
Y253280D02*
Y272250D01*
X291229D01*
X298490Y264990D01*
Y253280D02*
Y264990D01*
X303000Y269500D01*
X345750D01*
X349290Y253280D02*
Y265960D01*
X345750Y269500D02*
X349290Y265960D01*
X48810Y358810D02*
X65960D01*
X171490Y253280D01*
X177750Y508750D02*
Y514141D01*
X196890Y533280D01*
X64370Y493250D02*
X162250D01*
X177750Y508750D01*
X48810Y508810D02*
X64370Y493250D01*
X197195Y409555D02*
Y532975D01*
Y409555D02*
X197500Y409250D01*
X196890Y533280D02*
X197195Y532975D01*
X196890Y389890D02*
X197250Y390250D01*
X151524Y561976D02*
X169048Y544452D01*
X134000Y579500D02*
X151524Y561976D01*
X392774D01*
X32500Y182250D02*
X144000D01*
X169048Y535722D02*
Y544452D01*
Y535722D02*
X171490Y533280D01*
X18500Y568500D02*
X29500Y579500D01*
X134000D01*
X18500Y568250D02*
Y568500D01*
X14000Y563750D02*
X18500Y568250D01*
X14000Y499000D02*
Y563750D01*
X13750Y498750D02*
X14000Y499000D01*
X13750Y418750D02*
Y498750D01*
X13500Y201250D02*
Y418500D01*
X13750Y418750D01*
X13500Y201250D02*
X32500Y182250D01*
X144000D02*
X189500Y227750D01*
X285000D02*
X287500Y230250D01*
X189500Y227750D02*
X285000D01*
X273500Y501500D02*
X292000Y483000D01*
X712000D02*
X751250Y522250D01*
X273500Y501500D02*
Y532870D01*
X292000Y483000D02*
X712000D01*
X275531Y242219D02*
Y250839D01*
Y242219D02*
X287500Y230250D01*
X273090Y253280D02*
X275531Y250839D01*
X317750Y230250D02*
X324500Y237000D01*
X287500Y230250D02*
X317750D01*
X323000Y249500D02*
X324500Y248000D01*
Y237000D02*
Y248000D01*
X323000Y249500D02*
X323890Y250390D01*
Y253280D01*
X487833Y768750D02*
X493750D01*
X477750Y765250D02*
X484333D01*
X487833Y768750D01*
X24500Y312500D02*
Y382762D01*
X25988Y384250D01*
X24500Y312500D02*
X28190Y308810D01*
X25988Y384250D02*
X48370D01*
X28190Y308810D02*
X48810D01*
X455750Y456750D02*
X472250Y473250D01*
X455750Y402000D02*
Y456750D01*
X324250Y383250D02*
X340750Y366750D01*
X324250Y383250D02*
Y472250D01*
X48370Y384250D02*
X48810Y383810D01*
X347500Y445000D02*
Y461690D01*
Y420250D02*
Y445000D01*
X364750D01*
X378250Y431500D01*
Y325750D02*
Y431500D01*
X48810Y408810D02*
X60120Y397500D01*
X269500D01*
X308250Y358750D01*
X357500D01*
X490000Y596240D02*
Y625999D01*
X493250Y629250D01*
X617250D01*
X726000Y520500D01*
X929750Y336000D02*
Y437500D01*
X931500Y439250D01*
X349750Y463940D02*
Y474750D01*
X350000Y475000D01*
X347500Y461690D02*
X349750Y463940D01*
X289750Y473500D02*
Y474750D01*
X286000Y469750D02*
X289750Y473500D01*
X286000Y413250D02*
Y469750D01*
X1033500Y269250D02*
X1035250Y267500D01*
Y267000D02*
Y267500D01*
X1033500Y269250D02*
Y366250D01*
X1023221Y506779D02*
X1064000Y466000D01*
X1018471Y506779D02*
X1023221D01*
X1018000Y507250D02*
X1018471Y506779D01*
X1021500Y763500D02*
X1025750Y767750D01*
X1045250D01*
X1046350Y768850D01*
X1083350D01*
X273090Y533280D02*
X273500Y532870D01*
X751250Y522250D02*
X1033250D01*
X1043250Y512250D01*
X1074750D02*
X1081500Y505500D01*
X1043250Y512250D02*
X1074750D01*
X1196948Y425302D02*
X1203750Y418500D01*
X1182698Y425302D02*
X1196948D01*
X1169750Y438250D02*
X1182698Y425302D01*
X1043015Y550235D02*
Y553485D01*
Y550235D02*
X1050000Y543250D01*
X1036500Y560000D02*
X1043015Y553485D01*
X581500Y735000D02*
X636250D01*
X793500Y577750D01*
X998750D01*
X1011000Y590000D02*
X1056250D01*
X998750Y577750D02*
X1011000Y590000D01*
X620262Y709250D02*
X621750Y707762D01*
X558750Y709250D02*
X620262D01*
X621750Y674500D02*
Y707762D01*
X557500Y708000D02*
X558750Y709250D01*
X621750Y674500D02*
X736250Y560000D01*
X1036500D01*
X1026500Y792000D02*
X1164750D01*
X1010500Y776000D02*
X1026500Y792000D01*
X1164750D02*
X1179750Y777000D01*
X493750Y703500D02*
Y768750D01*
X492250Y702000D02*
X493750Y703500D01*
Y768750D02*
X499500Y774500D01*
X853500D01*
X855000Y776000D01*
X1010500D01*
X1179750Y777000D02*
X1265500D01*
X1275500Y767000D01*
Y720750D02*
Y767000D01*
X1351550Y644700D02*
X1454850D01*
X1275500Y720750D02*
X1351550Y644700D01*
X1169750Y485250D02*
X1194500Y510000D01*
X1169750Y438250D02*
Y485250D01*
X1158000Y405500D02*
X1189000Y374500D01*
X1158000Y405500D02*
Y507250D01*
X1179250Y528500D01*
X1240000Y510000D02*
X1323900Y593900D01*
X1194500Y510000D02*
X1240000D01*
X1323900Y593900D02*
X1454850D01*
X1101052Y755052D02*
X1104750Y758750D01*
X1243762D01*
X1245250Y757262D01*
Y687250D02*
Y757262D01*
X1040302Y755052D02*
X1101052D01*
X715000Y753250D02*
X1038500D01*
X1040302Y755052D01*
X706250Y762000D02*
X715000Y753250D01*
X1245250Y687250D02*
X1309750Y622750D01*
X439199Y596240D02*
Y630950D01*
X570250Y762000D01*
X706250D01*
X1309750Y620788D02*
X1311238Y619300D01*
X1454850D01*
X1309750Y620788D02*
Y622750D01*
X1449250Y497000D02*
X1479500Y527250D01*
X1454850Y670100D02*
X1479500Y645450D01*
Y527250D02*
Y645450D01*
X1507500Y432750D02*
X1513512Y426738D01*
X1526092D01*
X1527580Y425250D01*
X1455500Y372000D02*
X1472000Y355500D01*
X1592000D01*
X1616000Y331500D01*
X1676500D01*
X1685000Y340000D01*
X1766500D02*
X1803500Y377000D01*
X1685000Y340000D02*
X1766500D01*
X1475000Y423000D02*
X1498750Y446750D01*
X1694500D01*
X1527580Y425250D02*
X1546000D01*
X1551250Y430500D02*
X1594250D01*
X1546000Y425250D02*
X1551250Y430500D01*
X1649250Y435750D02*
X1650250Y434750D01*
X1652500Y479750D02*
X1673653D01*
X1712750Y349500D02*
X1731000Y367750D01*
Y404500D01*
X1789500Y463250D02*
X1796000Y456750D01*
X1804250Y466250D02*
X1813500Y457000D01*
X1748250Y467000D02*
X1757750Y457500D01*
X1789500Y463250D02*
Y491000D01*
X1804250Y466250D02*
Y517000D01*
X1763750Y516750D02*
X1789500Y491000D01*
X1748250Y467000D02*
Y553750D01*
X1673653Y479750D02*
X1736500Y542597D01*
Y556750D01*
X1743500Y563750D01*
X1855082Y568409D02*
X1860289Y563202D01*
X1860162Y570513D02*
X1862394Y568282D01*
X1855082Y568409D02*
Y590774D01*
X1860162Y570513D02*
Y588670D01*
X1862394Y568282D02*
X1885844D01*
X1674250Y349500D02*
X1712750D01*
X1596750Y362750D02*
X1636000D01*
X1592250Y367250D02*
X1596750Y362750D01*
X1636000D02*
X1647500Y374250D01*
X1592250Y367250D02*
Y375250D01*
X1647500Y374250D02*
X1666000D01*
X1666000Y416000D02*
X1684250D01*
X1650250Y431750D02*
X1666000Y416000D01*
X1650250Y431750D02*
Y434750D01*
X1668750Y343000D02*
Y344000D01*
X1674250Y349500D01*
X1157086Y746450D02*
X1162886Y752250D01*
X1187000D01*
X1129600Y746450D02*
X1157086D01*
X1187000Y752250D02*
X1196000Y743250D01*
Y694750D02*
Y743250D01*
X1179250Y678000D02*
X1196000Y694750D01*
X1179250Y528500D02*
Y678000D01*
X1189000Y228500D02*
X1199500Y218000D01*
X1189000Y228500D02*
Y374500D01*
X1329750Y218000D02*
X1356750Y191000D01*
X1199500Y218000D02*
X1329750D01*
X1389100Y236500D02*
X1403850Y251250D01*
X1259000Y236500D02*
X1389100D01*
X1379500Y117500D02*
Y128000D01*
X1338000Y169500D02*
X1379500Y128000D01*
X1318000Y169500D02*
X1338000D01*
X1296625Y175125D02*
X1312375D01*
X1318000Y169500D01*
X1279750Y192000D02*
Y209500D01*
Y192000D02*
X1296625Y175125D01*
X1426250Y126000D02*
Y126250D01*
X1410012Y109762D02*
X1426250Y126000D01*
X1405500Y109762D02*
X1410012D01*
X1379500Y117500D02*
X1397762D01*
X1405500Y51250D02*
Y109762D01*
X1397762Y117500D02*
X1405500Y109762D01*
X1374000Y19750D02*
X1405500Y51250D01*
X1316500Y19750D02*
X1374000D01*
X1314750Y21500D02*
X1316500Y19750D01*
X1314750Y21500D02*
Y23750D01*
X1311750Y26750D02*
X1314750Y23750D01*
X1311750Y26750D02*
Y30000D01*
X1311500Y30250D02*
X1311750Y30000D01*
X1311500Y30250D02*
Y47500D01*
X1275000Y164500D02*
X1303750D01*
X1264000Y175500D02*
X1275000Y164500D01*
X1339408Y85408D02*
Y87512D01*
X1337920Y89000D02*
X1339408Y87512D01*
X1336900Y82900D02*
X1339408Y85408D01*
X1332250Y89000D02*
X1337920D01*
X1336900Y47500D02*
Y82900D01*
X1391500Y105750D02*
X1393250Y104000D01*
Y95500D02*
Y104000D01*
X1362300Y64550D02*
X1393250Y95500D01*
X1362300Y47500D02*
Y64550D01*
X1315750Y150000D02*
X1316500D01*
X1317250Y150750D01*
X1310250Y144500D02*
X1315750Y150000D01*
X1310250Y99500D02*
Y144500D01*
X1298000Y87250D02*
X1310250Y99500D01*
X1526000Y22000D02*
Y48350D01*
Y22000D02*
X1534000Y14000D01*
X1543000D01*
X1551400Y22400D02*
Y48350D01*
X1543000Y14000D02*
X1551400Y22400D01*
X1526250Y113750D02*
X1528500Y116000D01*
X1526000Y73750D02*
X1526250Y74000D01*
Y113750D01*
X1528500Y116000D02*
X1549301D01*
X1551400Y113900D01*
Y73750D02*
Y113900D01*
X1453750Y250350D02*
X1454650Y251250D01*
X1455238Y228750D02*
X1461750D01*
X1453750Y230238D02*
Y250350D01*
Y230238D02*
X1455238Y228750D01*
X1461750D02*
X1506750Y183750D01*
Y93001D02*
X1526000Y73750D01*
X1506750Y93001D02*
Y183750D01*
X1368000Y451000D02*
X1370400Y453400D01*
Y469600D01*
X1368000Y446500D02*
X1391500Y423000D01*
X1368000Y446500D02*
Y451000D01*
X1391500Y423000D02*
X1475000D01*
X1454850Y695500D02*
X1515250D01*
X1520000Y690750D01*
X1083350Y540250D02*
X1097500D01*
X1112750Y555500D01*
X1149500D02*
X1154500Y560500D01*
X1112750Y555500D02*
X1149500D01*
X1154500Y560500D02*
Y687750D01*
X1168750Y702000D01*
X1114750Y708750D02*
X1138750D01*
X1103250Y697250D02*
X1114750Y708750D01*
X1138750D02*
X1154000Y724000D01*
X1083350Y565650D02*
X1098900D01*
X1145762Y582750D02*
X1147250Y584238D01*
Y693750D01*
X1116000Y582750D02*
X1145762D01*
X1098900Y565650D02*
X1116000Y582750D01*
X1147250Y693750D02*
X1166000Y712500D01*
X1101050Y591050D02*
X1103250Y593250D01*
X1083350Y591050D02*
X1101050D01*
X1103250Y593250D02*
Y697250D01*
D66*
X1362300Y47500D02*
D03*
X1336900D02*
D03*
X1129600Y416250D02*
D03*
Y441650D02*
D03*
Y467050D02*
D03*
Y492450D02*
D03*
Y517850D02*
D03*
Y543250D02*
D03*
Y568650D02*
D03*
Y594050D02*
D03*
Y619450D02*
D03*
Y644850D02*
D03*
Y670250D02*
D03*
Y695650D02*
D03*
Y721050D02*
D03*
Y746450D02*
D03*
X1877000Y476251D02*
D03*
X1708912Y560034D02*
D03*
Y585434D02*
D03*
Y610834D02*
D03*
Y636234D02*
D03*
X1871472Y604992D02*
D03*
X1551400Y48350D02*
D03*
X1526000D02*
D03*
X1551400Y73750D02*
D03*
X1218000Y469600D02*
D03*
X1268800D02*
D03*
X1294200D02*
D03*
X1319600D02*
D03*
X1345000D02*
D03*
X1370400D02*
D03*
X1395800D02*
D03*
X1421200D02*
D03*
X1243400D02*
D03*
X1454850Y568500D02*
D03*
Y619300D02*
D03*
Y644700D02*
D03*
Y670100D02*
D03*
Y695500D02*
D03*
Y720900D02*
D03*
Y746300D02*
D03*
Y771700D02*
D03*
Y593900D02*
D03*
X1083350Y743450D02*
D03*
Y692650D02*
D03*
Y667250D02*
D03*
Y641850D02*
D03*
Y616450D02*
D03*
Y591050D02*
D03*
Y565650D02*
D03*
Y540250D02*
D03*
Y718050D02*
D03*
X1331350Y191000D02*
D03*
X164600Y596240D02*
D03*
X219200Y196240D02*
D03*
X244600D02*
D03*
X497000Y196240D02*
D03*
X471600D02*
D03*
X446200D02*
D03*
X420800D02*
D03*
X395400D02*
D03*
X464599Y596240D02*
D03*
X439199D02*
D03*
X413800D02*
D03*
X388400D02*
D03*
X362999D02*
D03*
X337599D02*
D03*
X312199D02*
D03*
X286800D02*
D03*
X261399D02*
D03*
X236000D02*
D03*
D67*
X1311500Y47500D02*
D03*
X1192600Y469600D02*
D03*
X1356750Y191000D02*
D03*
X190000Y596240D02*
D03*
X270000Y196240D02*
D03*
X370000Y196240D02*
D03*
X490000Y596240D02*
D03*
D68*
X37750Y38750D02*
D03*
X1958750Y42250D02*
D03*
Y763500D02*
D03*
X37750Y763750D02*
D03*
X968810Y616210D02*
D03*
X58810D02*
D03*
Y121210D02*
D03*
X968810D02*
D03*
D69*
X1129600Y771850D02*
D03*
X1877000Y405251D02*
D03*
X1708912Y534634D02*
D03*
X1871472Y579592D02*
D03*
X1526000Y73750D02*
D03*
X1454850Y543100D02*
D03*
X1083350Y768850D02*
D03*
D70*
X1788850Y686500D02*
D03*
X1837650D02*
D03*
D71*
X1919667Y635941D02*
D03*
Y554740D02*
D03*
D72*
X1965169Y638540D02*
D03*
Y552140D02*
D03*
D73*
X1933168Y629340D02*
D03*
Y561339D02*
D03*
D74*
X1403850Y251250D02*
D03*
D75*
X1454650D02*
D03*
D76*
X48810Y533809D02*
D03*
Y208810D02*
D03*
Y233810D02*
D03*
Y258810D02*
D03*
Y283810D02*
D03*
Y308810D02*
D03*
Y333810D02*
D03*
Y358810D02*
D03*
Y383810D02*
D03*
Y408810D02*
D03*
Y433810D02*
D03*
Y458810D02*
D03*
Y483810D02*
D03*
Y508810D02*
D03*
X968810Y356010D02*
D03*
Y330610D02*
D03*
Y305210D02*
D03*
Y381410D02*
D03*
D77*
X89290Y518280D02*
D03*
X609290D02*
D03*
Y268280D02*
D03*
X89290D02*
D03*
D78*
X527090Y533280D02*
D03*
X501690D02*
D03*
X476290D02*
D03*
X450890D02*
D03*
X425490D02*
D03*
X400090D02*
D03*
X374690D02*
D03*
X349290D02*
D03*
X323890D02*
D03*
X298490D02*
D03*
X273090D02*
D03*
X247690D02*
D03*
X222290D02*
D03*
X196890D02*
D03*
X171490D02*
D03*
Y253280D02*
D03*
X196890D02*
D03*
X222290D02*
D03*
X247690D02*
D03*
X273090D02*
D03*
X298490D02*
D03*
X323890D02*
D03*
X349290D02*
D03*
X374690D02*
D03*
X400090D02*
D03*
X425490D02*
D03*
X450890D02*
D03*
X476290D02*
D03*
X501690D02*
D03*
D79*
X527090D02*
D03*
D80*
X1953500Y595750D02*
D03*
X1949071Y589648D02*
D03*
X30000Y397750D02*
D03*
X998500Y255250D02*
D03*
X197500Y409250D02*
D03*
X197250Y390250D02*
D03*
X477750Y765250D02*
D03*
X472250Y473250D02*
D03*
X455750Y402000D02*
D03*
X340750Y366750D02*
D03*
X378250Y325750D02*
D03*
X357500Y358750D02*
D03*
X726000Y520500D02*
D03*
X931500Y439250D02*
D03*
X929750Y336000D02*
D03*
X324250Y472250D02*
D03*
X350000Y475000D02*
D03*
X347500Y420250D02*
D03*
X289750Y474750D02*
D03*
X286000Y413250D02*
D03*
X1035250Y267000D02*
D03*
X1033500Y366250D02*
D03*
X1018000Y507250D02*
D03*
X1021500Y763500D02*
D03*
X1081500Y505500D02*
D03*
X1203750Y418500D02*
D03*
X1050000Y543250D02*
D03*
X581500Y735000D02*
D03*
X1056250Y590000D02*
D03*
X557500Y708000D02*
D03*
X492250Y702000D02*
D03*
X1064000Y466000D02*
D03*
X1449250Y497000D02*
D03*
X1507500Y432750D02*
D03*
X1455500Y372000D02*
D03*
X1803500Y377000D02*
D03*
X1592250Y375250D02*
D03*
X1668750Y343000D02*
D03*
X1666000Y374250D02*
D03*
X1731000Y404500D02*
D03*
X1684250Y416000D02*
D03*
X1594250Y430500D02*
D03*
X1649250Y435750D02*
D03*
X1694500Y446750D02*
D03*
X1796000Y456750D02*
D03*
X1813500Y457000D02*
D03*
X1757750Y457500D02*
D03*
X1652500Y479750D02*
D03*
X1763750Y516750D02*
D03*
X1804250Y517000D02*
D03*
X1743500Y563750D02*
D03*
X1748250Y553750D02*
D03*
X1259000Y236500D02*
D03*
X1279750Y209500D02*
D03*
X1426250Y126250D02*
D03*
X1379500Y117500D02*
D03*
X1264000Y175500D02*
D03*
X1303750Y164500D02*
D03*
X1332250Y89000D02*
D03*
X1391500Y105750D02*
D03*
X1317250Y150750D02*
D03*
X1298000Y87250D02*
D03*
X1520000Y690750D02*
D03*
X1168750Y702000D02*
D03*
X1166000Y712500D02*
D03*
X1154000Y724000D02*
D03*
M02*
