G04*
G04 #@! TF.GenerationSoftware,Altium Limited,Altium Designer,23.1.1 (15)*
G04*
G04 Layer_Color=8388736*
%FSLAX44Y44*%
%MOMM*%
G71*
G04*
G04 #@! TF.SameCoordinates,1587853A-9B19-4160-AC70-F3A7ED46FF3E*
G04*
G04*
G04 #@! TF.FilePolarity,Negative*
G04*
G01*
G75*
%ADD34R,1.1532X0.5032*%
G04:AMPARAMS|DCode=35|XSize=1.5132mm|YSize=0.8232mm|CornerRadius=0.1791mm|HoleSize=0mm|Usage=FLASHONLY|Rotation=180.000|XOffset=0mm|YOffset=0mm|HoleType=Round|Shape=RoundedRectangle|*
%AMROUNDEDRECTD35*
21,1,1.5132,0.4650,0,0,180.0*
21,1,1.1550,0.8232,0,0,180.0*
1,1,0.3582,-0.5775,0.2325*
1,1,0.3582,0.5775,0.2325*
1,1,0.3582,0.5775,-0.2325*
1,1,0.3582,-0.5775,-0.2325*
%
%ADD35ROUNDEDRECTD35*%
G04:AMPARAMS|DCode=36|XSize=2.3032mm|YSize=1.5832mm|CornerRadius=0.2051mm|HoleSize=0mm|Usage=FLASHONLY|Rotation=180.000|XOffset=0mm|YOffset=0mm|HoleType=Round|Shape=RoundedRectangle|*
%AMROUNDEDRECTD36*
21,1,2.3032,1.1730,0,0,180.0*
21,1,1.8930,1.5832,0,0,180.0*
1,1,0.4102,-0.9465,0.5865*
1,1,0.4102,0.9465,0.5865*
1,1,0.4102,0.9465,-0.5865*
1,1,0.4102,-0.9465,-0.5865*
%
%ADD36ROUNDEDRECTD36*%
%ADD37R,1.6532X1.3532*%
%ADD38R,1.3532X1.6532*%
G04:AMPARAMS|DCode=39|XSize=1.2932mm|YSize=1.9732mm|CornerRadius=0.1779mm|HoleSize=0mm|Usage=FLASHONLY|Rotation=90.000|XOffset=0mm|YOffset=0mm|HoleType=Round|Shape=RoundedRectangle|*
%AMROUNDEDRECTD39*
21,1,1.2932,1.6174,0,0,90.0*
21,1,0.9374,1.9732,0,0,90.0*
1,1,0.3558,0.8087,0.4687*
1,1,0.3558,0.8087,-0.4687*
1,1,0.3558,-0.8087,-0.4687*
1,1,0.3558,-0.8087,0.4687*
%
%ADD39ROUNDEDRECTD39*%
G04:AMPARAMS|DCode=40|XSize=1.1432mm|YSize=1.9732mm|CornerRadius=0.1674mm|HoleSize=0mm|Usage=FLASHONLY|Rotation=90.000|XOffset=0mm|YOffset=0mm|HoleType=Round|Shape=RoundedRectangle|*
%AMROUNDEDRECTD40*
21,1,1.1432,1.6384,0,0,90.0*
21,1,0.8084,1.9732,0,0,90.0*
1,1,0.3348,0.8192,0.4042*
1,1,0.3348,0.8192,-0.4042*
1,1,0.3348,-0.8192,-0.4042*
1,1,0.3348,-0.8192,0.4042*
%
%ADD40ROUNDEDRECTD40*%
%ADD41R,1.1032X0.9032*%
G04:AMPARAMS|DCode=42|XSize=1.1432mm|YSize=1.9732mm|CornerRadius=0.1674mm|HoleSize=0mm|Usage=FLASHONLY|Rotation=180.000|XOffset=0mm|YOffset=0mm|HoleType=Round|Shape=RoundedRectangle|*
%AMROUNDEDRECTD42*
21,1,1.1432,1.6384,0,0,180.0*
21,1,0.8084,1.9732,0,0,180.0*
1,1,0.3348,-0.4042,0.8192*
1,1,0.3348,0.4042,0.8192*
1,1,0.3348,0.4042,-0.8192*
1,1,0.3348,-0.4042,-0.8192*
%
%ADD42ROUNDEDRECTD42*%
G04:AMPARAMS|DCode=43|XSize=1.2932mm|YSize=1.9732mm|CornerRadius=0.1779mm|HoleSize=0mm|Usage=FLASHONLY|Rotation=180.000|XOffset=0mm|YOffset=0mm|HoleType=Round|Shape=RoundedRectangle|*
%AMROUNDEDRECTD43*
21,1,1.2932,1.6174,0,0,180.0*
21,1,0.9374,1.9732,0,0,180.0*
1,1,0.3558,-0.4687,0.8087*
1,1,0.3558,0.4687,0.8087*
1,1,0.3558,0.4687,-0.8087*
1,1,0.3558,-0.4687,-0.8087*
%
%ADD43ROUNDEDRECTD43*%
%ADD44R,1.1032X1.1032*%
%ADD45R,1.7032X1.1032*%
%ADD46R,1.1032X1.7032*%
%ADD47R,2.2032X4.2032*%
%ADD48R,1.3032X0.8032*%
%ADD49R,4.0032X2.2032*%
%ADD50R,1.7032X2.2032*%
%ADD51C,1.7032*%
%ADD52R,1.7032X1.7032*%
%ADD53C,5.2032*%
%ADD54R,1.7032X1.7032*%
%ADD55C,1.2332*%
%ADD56O,2.5032X1.8032*%
%ADD57O,2.5032X1.2032*%
%ADD58C,0.7532*%
%ADD59C,2.0532*%
%ADD60R,2.0532X2.0532*%
%ADD61C,1.7272*%
%ADD62C,3.4532*%
%ADD63C,1.7332*%
%ADD64R,1.7332X1.7332*%
%ADD65C,0.7032*%
D34*
X1927409Y566590D02*
D03*
Y571590D02*
D03*
Y576589D02*
D03*
Y581590D02*
D03*
Y586590D02*
D03*
Y591589D02*
D03*
Y596589D02*
D03*
Y601590D02*
D03*
Y606590D02*
D03*
Y611590D02*
D03*
Y616590D02*
D03*
Y621590D02*
D03*
X1913409Y624089D02*
D03*
Y619090D02*
D03*
Y614089D02*
D03*
Y609090D02*
D03*
Y604089D02*
D03*
Y599089D02*
D03*
Y594089D02*
D03*
Y589090D02*
D03*
Y584090D02*
D03*
Y579091D02*
D03*
Y574090D02*
D03*
Y569091D02*
D03*
D35*
X1822010Y583402D02*
D03*
Y596102D02*
D03*
X1767010Y532602D02*
D03*
Y545302D02*
D03*
X1822010Y621502D02*
D03*
X1767010Y608802D02*
D03*
X1822010D02*
D03*
X1767010Y621502D02*
D03*
Y596102D02*
D03*
Y583402D02*
D03*
Y558002D02*
D03*
X1822010Y570702D02*
D03*
Y558002D02*
D03*
Y532602D02*
D03*
X1767010Y570702D02*
D03*
X1822010Y545302D02*
D03*
D36*
X1918250Y308150D02*
D03*
Y263350D02*
D03*
X1827250Y308150D02*
D03*
Y263350D02*
D03*
X1765000Y308150D02*
D03*
Y263350D02*
D03*
X1674000Y308150D02*
D03*
Y263350D02*
D03*
D37*
X1927250Y404750D02*
D03*
Y386750D02*
D03*
X1845000Y751750D02*
D03*
Y733750D02*
D03*
X1788750Y753251D02*
D03*
Y735250D02*
D03*
X1670500Y459750D02*
D03*
Y441749D02*
D03*
X1722750Y459750D02*
D03*
Y441750D02*
D03*
X1480000Y161000D02*
D03*
Y179000D02*
D03*
X1415750Y161749D02*
D03*
Y179750D02*
D03*
D38*
X1838000Y478750D02*
D03*
X1820000D02*
D03*
D39*
X1571000Y236850D02*
D03*
X1760250Y432400D02*
D03*
X1425500Y49099D02*
D03*
X1284500Y133900D02*
D03*
X1513500Y266650D02*
D03*
D40*
X1571000Y266900D02*
D03*
X1760250Y402350D02*
D03*
X1425500Y79150D02*
D03*
X1284500Y103850D02*
D03*
X1513500Y236600D02*
D03*
D41*
X1636250Y397249D02*
D03*
X1617250Y390750D02*
D03*
Y403749D02*
D03*
X1682500Y391000D02*
D03*
X1701500Y397500D02*
D03*
Y384500D02*
D03*
D42*
X1610100Y454751D02*
D03*
X1521600Y327750D02*
D03*
X1405850Y325250D02*
D03*
X963410Y703810D02*
D03*
D43*
X1640150Y454751D02*
D03*
X1551651Y327750D02*
D03*
X1435900Y325250D02*
D03*
X993460Y703810D02*
D03*
D44*
X1277600Y672750D02*
D03*
X1263600D02*
D03*
X1249600D02*
D03*
Y700750D02*
D03*
X1263600D02*
D03*
X1277600D02*
D03*
X1249600Y686750D02*
D03*
X1277600D02*
D03*
X1263600D02*
D03*
D45*
X1366100Y763950D02*
D03*
Y751250D02*
D03*
Y738550D02*
D03*
Y725850D02*
D03*
Y713150D02*
D03*
Y700450D02*
D03*
Y687750D02*
D03*
Y675050D02*
D03*
Y662350D02*
D03*
Y649650D02*
D03*
Y636950D02*
D03*
Y624250D02*
D03*
Y611550D02*
D03*
Y598850D02*
D03*
X1191100D02*
D03*
Y611550D02*
D03*
Y624250D02*
D03*
Y636950D02*
D03*
Y649650D02*
D03*
Y662350D02*
D03*
Y675050D02*
D03*
Y687750D02*
D03*
Y700450D02*
D03*
Y713150D02*
D03*
Y725850D02*
D03*
Y738550D02*
D03*
Y751250D02*
D03*
Y763950D02*
D03*
D46*
X1348450Y586350D02*
D03*
X1335750D02*
D03*
X1323050D02*
D03*
X1310350D02*
D03*
X1297650D02*
D03*
X1284950D02*
D03*
X1272250D02*
D03*
X1259550D02*
D03*
X1246850D02*
D03*
X1234150D02*
D03*
X1221450D02*
D03*
X1208750D02*
D03*
D47*
X1103790Y156040D02*
D03*
Y85040D02*
D03*
X1213790Y156040D02*
D03*
Y85040D02*
D03*
X1213790Y316040D02*
D03*
Y245040D02*
D03*
X1093790Y316040D02*
D03*
Y245040D02*
D03*
D48*
X1335250Y108500D02*
D03*
Y127500D02*
D03*
X1361250D02*
D03*
Y118000D02*
D03*
Y108500D02*
D03*
D49*
X1321500Y320250D02*
D03*
D50*
X1344501Y257250D02*
D03*
X1321500D02*
D03*
X1298500D02*
D03*
D51*
X1362300Y47500D02*
D03*
X1336900D02*
D03*
X1129600Y416250D02*
D03*
Y441650D02*
D03*
Y467050D02*
D03*
Y492450D02*
D03*
Y517850D02*
D03*
Y543250D02*
D03*
Y568650D02*
D03*
Y594050D02*
D03*
Y619450D02*
D03*
Y644850D02*
D03*
Y670250D02*
D03*
Y695650D02*
D03*
Y721050D02*
D03*
Y746450D02*
D03*
X1877000Y476251D02*
D03*
X1708912Y560034D02*
D03*
Y585434D02*
D03*
Y610834D02*
D03*
Y636234D02*
D03*
X1871472Y604992D02*
D03*
X1551400Y48350D02*
D03*
X1526000D02*
D03*
X1551400Y73750D02*
D03*
X1218000Y469600D02*
D03*
X1268800D02*
D03*
X1294200D02*
D03*
X1319600D02*
D03*
X1345000D02*
D03*
X1370400D02*
D03*
X1395800D02*
D03*
X1421200D02*
D03*
X1243400D02*
D03*
X1454850Y568500D02*
D03*
Y619300D02*
D03*
Y644700D02*
D03*
Y670100D02*
D03*
Y695500D02*
D03*
Y720900D02*
D03*
Y746300D02*
D03*
Y771700D02*
D03*
Y593900D02*
D03*
X1083350Y743450D02*
D03*
Y692650D02*
D03*
Y667250D02*
D03*
Y641850D02*
D03*
Y616450D02*
D03*
Y591050D02*
D03*
Y565650D02*
D03*
Y540250D02*
D03*
Y718050D02*
D03*
X1331350Y191000D02*
D03*
X164600Y596240D02*
D03*
X219200Y196240D02*
D03*
X244600D02*
D03*
X497000Y196240D02*
D03*
X471600D02*
D03*
X446200D02*
D03*
X420800D02*
D03*
X395400D02*
D03*
X464599Y596240D02*
D03*
X439199D02*
D03*
X413800D02*
D03*
X388400D02*
D03*
X362999D02*
D03*
X337599D02*
D03*
X312199D02*
D03*
X286800D02*
D03*
X261399D02*
D03*
X236000D02*
D03*
D52*
X1311500Y47500D02*
D03*
X1192600Y469600D02*
D03*
X1356750Y191000D02*
D03*
X190000Y596240D02*
D03*
X270000Y196240D02*
D03*
X370000Y196240D02*
D03*
X490000Y596240D02*
D03*
D53*
X37750Y38750D02*
D03*
X1958750Y42250D02*
D03*
Y763500D02*
D03*
X37750Y763750D02*
D03*
X968810Y616210D02*
D03*
X58810D02*
D03*
Y121210D02*
D03*
X968810D02*
D03*
D54*
X1129600Y771850D02*
D03*
X1877000Y405251D02*
D03*
X1708912Y534634D02*
D03*
X1871472Y579592D02*
D03*
X1526000Y73750D02*
D03*
X1454850Y543100D02*
D03*
X1083350Y768850D02*
D03*
D55*
X1788850Y686500D02*
D03*
X1837650D02*
D03*
D56*
X1919667Y635941D02*
D03*
Y554740D02*
D03*
D57*
X1965169Y638540D02*
D03*
Y552140D02*
D03*
D58*
X1933168Y629340D02*
D03*
Y561339D02*
D03*
D59*
X1403850Y251250D02*
D03*
D60*
X1454650D02*
D03*
D61*
X48810Y533809D02*
D03*
Y208810D02*
D03*
Y233810D02*
D03*
Y258810D02*
D03*
Y283810D02*
D03*
Y308810D02*
D03*
Y333810D02*
D03*
Y358810D02*
D03*
Y383810D02*
D03*
Y408810D02*
D03*
Y433810D02*
D03*
Y458810D02*
D03*
Y483810D02*
D03*
Y508810D02*
D03*
X968810Y356010D02*
D03*
Y330610D02*
D03*
Y305210D02*
D03*
Y381410D02*
D03*
D62*
X89290Y518280D02*
D03*
X609290D02*
D03*
Y268280D02*
D03*
X89290D02*
D03*
D63*
X527090Y533280D02*
D03*
X501690D02*
D03*
X476290D02*
D03*
X450890D02*
D03*
X425490D02*
D03*
X400090D02*
D03*
X374690D02*
D03*
X349290D02*
D03*
X323890D02*
D03*
X298490D02*
D03*
X273090D02*
D03*
X247690D02*
D03*
X222290D02*
D03*
X196890D02*
D03*
X171490D02*
D03*
Y253280D02*
D03*
X196890D02*
D03*
X222290D02*
D03*
X247690D02*
D03*
X273090D02*
D03*
X298490D02*
D03*
X323890D02*
D03*
X349290D02*
D03*
X374690D02*
D03*
X400090D02*
D03*
X425490D02*
D03*
X450890D02*
D03*
X476290D02*
D03*
X501690D02*
D03*
D64*
X527090D02*
D03*
D65*
X1953500Y595750D02*
D03*
X1949071Y589648D02*
D03*
X30000Y397750D02*
D03*
X998500Y255250D02*
D03*
X197500Y409250D02*
D03*
X197250Y390250D02*
D03*
X477750Y765250D02*
D03*
X472250Y473250D02*
D03*
X455750Y402000D02*
D03*
X340750Y366750D02*
D03*
X378250Y325750D02*
D03*
X357500Y358750D02*
D03*
X726000Y520500D02*
D03*
X931500Y439250D02*
D03*
X929750Y336000D02*
D03*
X324250Y472250D02*
D03*
X350000Y475000D02*
D03*
X347500Y420250D02*
D03*
X289750Y474750D02*
D03*
X286000Y413250D02*
D03*
X1035250Y267000D02*
D03*
X1033500Y366250D02*
D03*
X1018000Y507250D02*
D03*
X1021500Y763500D02*
D03*
X1081500Y505500D02*
D03*
X1203750Y418500D02*
D03*
X1050000Y543250D02*
D03*
X581500Y735000D02*
D03*
X1056250Y590000D02*
D03*
X557500Y708000D02*
D03*
X492250Y702000D02*
D03*
X1064000Y466000D02*
D03*
X1449250Y497000D02*
D03*
X1507500Y432750D02*
D03*
X1455500Y372000D02*
D03*
X1803500Y377000D02*
D03*
X1592250Y375250D02*
D03*
X1668750Y343000D02*
D03*
X1666000Y374250D02*
D03*
X1731000Y404500D02*
D03*
X1684250Y416000D02*
D03*
X1594250Y430500D02*
D03*
X1649250Y435750D02*
D03*
X1694500Y446750D02*
D03*
X1796000Y456750D02*
D03*
X1813500Y457000D02*
D03*
X1757750Y457500D02*
D03*
X1652500Y479750D02*
D03*
X1763750Y516750D02*
D03*
X1804250Y517000D02*
D03*
X1743500Y563750D02*
D03*
X1748250Y553750D02*
D03*
X1259000Y236500D02*
D03*
X1279750Y209500D02*
D03*
X1426250Y126250D02*
D03*
X1379500Y117500D02*
D03*
X1264000Y175500D02*
D03*
X1303750Y164500D02*
D03*
X1332250Y89000D02*
D03*
X1391500Y105750D02*
D03*
X1317250Y150750D02*
D03*
X1298000Y87250D02*
D03*
X1520000Y690750D02*
D03*
X1168750Y702000D02*
D03*
X1166000Y712500D02*
D03*
X1154000Y724000D02*
D03*
M02*
