G04*
G04 #@! TF.GenerationSoftware,Altium Limited,Altium Designer,23.1.1 (15)*
G04*
G04 Layer_Physical_Order=1*
G04 Layer_Color=255*
%FSLAX44Y44*%
%MOMM*%
G71*
G04*
G04 #@! TF.SameCoordinates,BB96B4BC-2DDC-42E6-90C6-D32D3C2E4667*
G04*
G04*
G04 #@! TF.FilePolarity,Positive*
G04*
G01*
G75*
%ADD12C,0.2540*%
%ADD14R,1.5000X0.9000*%
%ADD15R,0.9000X1.5000*%
%ADD16R,0.9000X0.9000*%
%ADD17R,0.3000X0.9500*%
%ADD18R,1.1500X1.4500*%
G04:AMPARAMS|DCode=19|XSize=1.31mm|YSize=0.62mm|CornerRadius=0.0775mm|HoleSize=0mm|Usage=FLASHONLY|Rotation=180.000|XOffset=0mm|YOffset=0mm|HoleType=Round|Shape=RoundedRectangle|*
%AMROUNDEDRECTD19*
21,1,1.3100,0.4650,0,0,180.0*
21,1,1.1550,0.6200,0,0,180.0*
1,1,0.1550,-0.5775,0.2325*
1,1,0.1550,0.5775,0.2325*
1,1,0.1550,0.5775,-0.2325*
1,1,0.1550,-0.5775,-0.2325*
%
%ADD19ROUNDEDRECTD19*%
G04:AMPARAMS|DCode=20|XSize=2.1mm|YSize=1.38mm|CornerRadius=0.1035mm|HoleSize=0mm|Usage=FLASHONLY|Rotation=180.000|XOffset=0mm|YOffset=0mm|HoleType=Round|Shape=RoundedRectangle|*
%AMROUNDEDRECTD20*
21,1,2.1000,1.1730,0,0,180.0*
21,1,1.8930,1.3800,0,0,180.0*
1,1,0.2070,-0.9465,0.5865*
1,1,0.2070,0.9465,0.5865*
1,1,0.2070,0.9465,-0.5865*
1,1,0.2070,-0.9465,-0.5865*
%
%ADD20ROUNDEDRECTD20*%
G04:AMPARAMS|DCode=21|XSize=0.94mm|YSize=1.77mm|CornerRadius=0.0658mm|HoleSize=0mm|Usage=FLASHONLY|Rotation=90.000|XOffset=0mm|YOffset=0mm|HoleType=Round|Shape=RoundedRectangle|*
%AMROUNDEDRECTD21*
21,1,0.9400,1.6384,0,0,90.0*
21,1,0.8084,1.7700,0,0,90.0*
1,1,0.1316,0.8192,0.4042*
1,1,0.1316,0.8192,-0.4042*
1,1,0.1316,-0.8192,-0.4042*
1,1,0.1316,-0.8192,0.4042*
%
%ADD21ROUNDEDRECTD21*%
G04:AMPARAMS|DCode=22|XSize=1.09mm|YSize=1.77mm|CornerRadius=0.0763mm|HoleSize=0mm|Usage=FLASHONLY|Rotation=90.000|XOffset=0mm|YOffset=0mm|HoleType=Round|Shape=RoundedRectangle|*
%AMROUNDEDRECTD22*
21,1,1.0900,1.6174,0,0,90.0*
21,1,0.9374,1.7700,0,0,90.0*
1,1,0.1526,0.8087,0.4687*
1,1,0.1526,0.8087,-0.4687*
1,1,0.1526,-0.8087,-0.4687*
1,1,0.1526,-0.8087,0.4687*
%
%ADD22ROUNDEDRECTD22*%
%ADD23R,0.7000X0.9000*%
G04:AMPARAMS|DCode=24|XSize=1.09mm|YSize=1.77mm|CornerRadius=0.0763mm|HoleSize=0mm|Usage=FLASHONLY|Rotation=180.000|XOffset=0mm|YOffset=0mm|HoleType=Round|Shape=RoundedRectangle|*
%AMROUNDEDRECTD24*
21,1,1.0900,1.6174,0,0,180.0*
21,1,0.9374,1.7700,0,0,180.0*
1,1,0.1526,-0.4687,0.8087*
1,1,0.1526,0.4687,0.8087*
1,1,0.1526,0.4687,-0.8087*
1,1,0.1526,-0.4687,-0.8087*
%
%ADD24ROUNDEDRECTD24*%
G04:AMPARAMS|DCode=25|XSize=0.94mm|YSize=1.77mm|CornerRadius=0.0658mm|HoleSize=0mm|Usage=FLASHONLY|Rotation=180.000|XOffset=0mm|YOffset=0mm|HoleType=Round|Shape=RoundedRectangle|*
%AMROUNDEDRECTD25*
21,1,0.9400,1.6384,0,0,180.0*
21,1,0.8084,1.7700,0,0,180.0*
1,1,0.1316,-0.4042,0.8192*
1,1,0.1316,0.4042,0.8192*
1,1,0.1316,0.4042,-0.8192*
1,1,0.1316,-0.4042,-0.8192*
%
%ADD25ROUNDEDRECTD25*%
%ADD41C,0.3000*%
%ADD55C,1.5000*%
%ADD56R,1.5000X1.5000*%
%ADD57C,3.0000*%
%ADD58C,1.5240*%
%ADD59C,5.0000*%
%ADD60C,1.0300*%
%ADD61R,1.5000X1.5000*%
%ADD62C,0.5500*%
%ADD63O,1.0000X2.3000*%
%ADD64O,1.6000X2.3000*%
%ADD65R,1.5300X1.5300*%
%ADD66C,1.5300*%
%ADD67C,3.2500*%
%ADD68C,1.8500*%
%ADD69R,1.8500X1.8500*%
%ADD70C,0.5000*%
D12*
X714471Y356322D02*
X787075Y283718D01*
X805942D01*
Y281218D02*
X809284D01*
X837790Y309723D02*
Y496530D01*
X809284Y281218D02*
X837790Y309723D01*
X805942Y281218D02*
Y283718D01*
X811744Y277408D02*
X823722Y265430D01*
X776060Y277408D02*
X811744D01*
X703456Y350012D02*
X776060Y277408D01*
X761810Y244412D02*
X781357Y263959D01*
X761810Y221930D02*
Y244412D01*
X781357Y263959D02*
X800060D01*
X724030Y184150D02*
X761810Y221930D01*
X804926Y272288D02*
X809120Y268094D01*
X715690Y253958D02*
X734020Y272288D01*
X804926D01*
X809120Y198284D02*
Y268094D01*
X830202Y158750D02*
X851250D01*
X900000Y256200D02*
X908214Y264414D01*
X894464Y296164D02*
X908964D01*
X900000Y230800D02*
X912868Y217932D01*
X851250Y158750D02*
X900000Y110000D01*
X889130Y203200D02*
X891330Y205400D01*
X900000D01*
X889130Y169164D02*
Y203200D01*
Y301498D02*
X894464Y296164D01*
X809120Y198284D02*
X817452Y189952D01*
X797650Y186142D02*
X811152D01*
X793626Y153626D02*
Y170434D01*
X804294Y177292D02*
X806834Y179832D01*
X804294Y140208D02*
Y177292D01*
X800000Y135914D02*
X804294Y140208D01*
X800000Y110000D02*
Y135914D01*
X817452Y182131D02*
X819750Y179832D01*
X817452Y182131D02*
Y189952D01*
X816994Y173228D02*
X832742D01*
X813438Y176784D02*
X816994Y173228D01*
X813438Y176784D02*
Y183856D01*
X811152Y186142D02*
X813438Y183856D01*
X813250Y146750D02*
X850000Y110000D01*
X734232Y91694D02*
X772544D01*
X781688Y100838D01*
X709290Y184150D02*
X724030D01*
X685640Y350266D02*
X693042Y342864D01*
X702064Y342480D02*
X702385D01*
X697146Y352626D02*
X700842Y356322D01*
X697146Y347398D02*
X702064Y342480D01*
X697146Y347398D02*
Y352626D01*
X700662Y213360D02*
Y335280D01*
X700842Y356322D02*
X714471D01*
X702385Y342480D02*
X707774Y337092D01*
Y210312D02*
Y337092D01*
X781688Y100838D02*
Y130810D01*
X797690Y146812D01*
X750000Y110000D02*
X793626Y153626D01*
X693042Y181864D02*
X697106Y177800D01*
X789308D01*
X797650Y186142D01*
X685640Y141260D02*
Y260096D01*
X693042Y181864D02*
Y342864D01*
X830960Y571726D02*
X837410D01*
X820042Y582644D02*
X830960Y571726D01*
X826614Y591445D02*
X867410Y550649D01*
Y539710D02*
Y550649D01*
X452120Y515874D02*
Y532050D01*
X450890Y533280D02*
X452120Y532050D01*
X453644Y514350D02*
X486156D01*
X452120Y515874D02*
X453644Y514350D01*
X511556Y511302D02*
X540512Y482346D01*
Y434594D02*
Y482346D01*
Y434594D02*
X570230Y404876D01*
Y163576D02*
Y404876D01*
Y163576D02*
X672084Y61722D01*
X1000506D01*
X1043178Y104394D01*
Y144526D01*
X1360170Y566420D02*
X1506604D01*
X1011682Y217932D02*
X1360170Y566420D01*
X912868Y217932D02*
X1011682D01*
X1559052Y227838D02*
X1564132D01*
Y256540D01*
X1558798Y228092D02*
X1559052Y227838D01*
X1564132Y256540D02*
X1613662Y306070D01*
Y331470D01*
X1630680Y348488D01*
X1925906Y201598D02*
Y309294D01*
X1907500Y634399D02*
X1908169Y633730D01*
X1938782D02*
X1945640Y626872D01*
X1908169Y633730D02*
X1938782D01*
X1930146Y586740D02*
X1945640Y602234D01*
Y626872D01*
X1927860Y561086D02*
Y565912D01*
X1928368Y566420D01*
X1917192Y550418D02*
X1927860Y561086D01*
X1917192Y347218D02*
Y550418D01*
X1722557Y319929D02*
X1722740Y319746D01*
X1722557Y319929D02*
Y332797D01*
X1722740Y332980D01*
X1722845Y317283D02*
Y319275D01*
X1723791Y241111D02*
Y316337D01*
X1722374Y319746D02*
X1722845Y319275D01*
Y317283D02*
X1723791Y316337D01*
X1721274Y238594D02*
X1723791Y241111D01*
X1666240Y421980D02*
Y431038D01*
X1654465Y442813D02*
X1666240Y431038D01*
X1652361Y442813D02*
X1654465D01*
X1642872Y433324D02*
X1652361Y442813D01*
X1605026Y361696D02*
X1611160Y367830D01*
X1626240D01*
X1905508Y329692D02*
X1925906Y309294D01*
Y201598D02*
X1946304Y181200D01*
X1970000D01*
X1324620Y89345D02*
X1324859D01*
X1317359Y57419D02*
Y74581D01*
Y33005D02*
Y57419D01*
X1756470Y514880D02*
X1770740D01*
X1698217D02*
X1756470D01*
X1621412Y211074D02*
Y275590D01*
Y186944D02*
Y211074D01*
X1509860Y82550D02*
Y82763D01*
Y82550D02*
X1521711D01*
X1440511Y65024D02*
Y82323D01*
Y60766D02*
Y65024D01*
X1361711Y82550D02*
Y107916D01*
X1349860Y82550D02*
Y82763D01*
Y82550D02*
X1361711D01*
X1280511Y66835D02*
Y82323D01*
Y60766D02*
Y66835D01*
X1679832Y514858D02*
Y770000D01*
X1672740Y402844D02*
X1675768D01*
X1672740Y373848D02*
Y384810D01*
Y402844D02*
Y402980D01*
Y384810D02*
Y402844D01*
X1333737Y108311D02*
X1344552Y119126D01*
X1332240Y106814D02*
X1333737Y108311D01*
X1290590Y425844D02*
Y436258D01*
Y310790D02*
Y425844D01*
X1876682Y621699D02*
X1897256D01*
X887112Y565150D02*
X896790D01*
X1468504Y640080D02*
X1494666Y613918D01*
X1425600Y701548D02*
Y770000D01*
Y678626D02*
Y701548D01*
X1516256Y619252D02*
X1532258D01*
X837790Y496530D02*
Y534456D01*
X1510708Y117816D02*
X1514717D01*
X1499860Y91948D02*
X1500820D01*
X323890Y457080D02*
X400090Y533280D01*
X323890Y253280D02*
Y457080D01*
X434768Y498602D02*
X485016D01*
X400090Y533280D02*
X434768Y498602D01*
X1750190Y673608D02*
Y761492D01*
Y673608D02*
X1762636Y661162D01*
Y631698D02*
Y661162D01*
X1742570Y611632D02*
X1762636Y631698D01*
X1742570Y565404D02*
Y611632D01*
X1734950Y557784D02*
X1742570Y565404D01*
X1070232Y405130D02*
Y769768D01*
X1070000Y770000D02*
X1070232Y769768D01*
X1853809Y622300D02*
X1865546Y610563D01*
X1874155D01*
X1877150Y607568D01*
Y596500D02*
Y607568D01*
X286800Y546990D02*
Y596240D01*
X273090Y533280D02*
X286800Y546990D01*
X1866776Y57024D02*
X1893800Y30000D01*
X1866776Y57024D02*
Y194310D01*
X1853568Y207518D02*
X1866776Y194310D01*
X1741195Y207518D02*
X1853568D01*
X1728894Y219820D02*
X1741195Y207518D01*
X1728894Y219820D02*
Y232440D01*
X1735283Y238830D01*
X1753740D01*
X1322359Y61562D02*
Y74581D01*
Y61562D02*
X1330074Y53848D01*
X1900558Y48642D02*
X1919200Y30000D01*
X1900558Y48642D02*
Y251460D01*
X1743402Y254000D02*
Y283464D01*
Y254000D02*
X1753740Y251530D01*
X1302388Y18034D02*
X1317359Y33005D01*
X1196565Y18034D02*
X1302388D01*
X1184600Y30000D02*
X1196565Y18034D01*
X1317359Y57419D02*
X1320676Y54102D01*
X1320795Y103632D02*
X1324620Y99808D01*
Y89345D02*
Y99808D01*
Y89345D02*
X1324859Y88581D01*
X1698740Y226130D02*
X1708026D01*
Y298450D01*
X1703454Y303022D02*
X1708026Y298450D01*
X1703454Y303022D02*
Y395102D01*
X1706182Y397830D01*
X1716240D01*
X1690246Y413766D02*
X1706182Y397830D01*
X1685241Y501904D02*
X1698217Y514880D01*
X1685241Y492480D02*
Y501904D01*
X1095400Y661394D02*
X1196789Y560005D01*
X1095400Y661394D02*
Y770000D01*
X1753740Y188030D02*
X1787966D01*
X1832740Y143256D01*
Y82042D02*
Y143256D01*
Y82042D02*
X1879222Y35560D01*
Y21844D02*
Y35560D01*
Y21844D02*
X1886080Y14986D01*
X1894208D01*
X1904622Y25400D01*
Y38690D01*
X1875240Y68072D02*
X1904622Y38690D01*
X1875240Y68072D02*
Y82480D01*
X1861740Y340080D02*
X1874904Y353244D01*
Y456917D01*
X1861740Y470080D02*
X1874904Y456917D01*
X1334900Y394920D02*
Y433801D01*
Y394920D02*
X1359030Y370790D01*
X1366790Y112995D02*
Y310790D01*
X1361711Y107916D02*
X1366790Y112995D01*
X1770740Y384880D02*
X1789910D01*
X1829210Y424180D01*
X1835210D01*
X1907500Y608999D02*
X1933163D01*
X1672740Y373848D02*
X1675240Y342480D01*
X1887789Y761400D02*
X1907500D01*
X1885157Y764032D02*
X1887789Y761400D01*
X1603400Y770000D02*
X1653924Y719476D01*
Y624332D02*
Y719476D01*
X1750150Y607234D02*
X1752476Y609560D01*
X1750150Y596500D02*
Y607234D01*
X1732500Y659799D02*
X1743840D01*
X1247800Y707622D02*
X1278258Y677164D01*
X1247800Y707622D02*
Y770000D01*
X1851750Y583184D02*
Y596500D01*
X1846670Y578104D02*
X1851750Y583184D01*
X1833502Y578104D02*
X1846670D01*
X1503810Y573278D02*
X1506350D01*
X1511136Y578064D01*
Y585216D01*
X1495642Y600710D02*
X1511136Y585216D01*
X1216536Y600710D02*
X1495642D01*
X1146200Y671046D02*
X1216536Y600710D01*
X1146200Y671046D02*
Y770000D01*
X1120800D02*
X1141352Y749448D01*
Y623158D02*
Y749448D01*
Y623158D02*
X1183104Y581406D01*
X1504826D01*
X1864450Y585216D02*
Y596500D01*
X1762850Y576874D02*
Y596500D01*
Y576874D02*
X1780924Y558800D01*
X1840106D01*
X1844170Y554736D01*
Y384400D02*
Y554736D01*
X1897128Y647100D02*
X1907500D01*
X1893065Y643036D02*
X1897128Y647100D01*
X908964Y296164D02*
X968810Y356010D01*
X889130Y301498D02*
Y461010D01*
X892940Y464820D01*
Y514096D01*
X877446Y529590D02*
X892940Y514096D01*
X847147Y529590D02*
X877446D01*
X844353Y532384D02*
X847147Y529590D01*
X844353Y532384D02*
Y537972D01*
X839019Y543306D02*
X844353Y537972D01*
X831479Y543306D02*
X839019D01*
X803031Y514858D02*
X831479Y543306D01*
X773560Y514858D02*
X803031D01*
X678310Y610108D02*
X773560Y514858D01*
X326067Y610108D02*
X678310D01*
X312199Y596240D02*
X326067Y610108D01*
X312199Y546990D02*
Y596240D01*
X298490Y533280D02*
X312199Y546990D01*
X33912Y393912D02*
X48810Y408810D01*
X33912Y273708D02*
Y393912D01*
Y273708D02*
X48810Y258810D01*
X1344552Y119126D02*
X1352680D01*
X1332240Y99681D02*
X1332710Y99211D01*
Y96495D02*
Y99211D01*
Y96495D02*
X1334860Y94345D01*
Y88581D02*
Y94345D01*
X1307360Y47141D02*
Y74581D01*
X1282063Y21844D02*
X1307360Y47141D01*
X1273686Y21844D02*
X1282063D01*
X1269114Y26416D02*
X1273686Y21844D01*
X1269114Y26416D02*
Y117558D01*
X1279640Y128084D01*
X1313964D01*
X1333737Y108311D01*
X1332240Y99681D02*
Y106814D01*
X1644490Y200730D02*
X1698740D01*
X1636240Y192480D02*
X1644490Y200730D01*
X1907500Y659799D02*
X1927062D01*
X362999Y546990D02*
Y596240D01*
X349290Y533280D02*
X362999Y546990D01*
X219107Y403098D02*
X349290Y533280D01*
X1907500Y685200D02*
X1918846D01*
X1895224Y357576D02*
Y458724D01*
Y357576D02*
X1970000Y282800D01*
X1290590Y436258D02*
X1322962Y468630D01*
X1450724Y322497D02*
X1640740Y132480D01*
X1450724Y322497D02*
Y446024D01*
X1425188Y471560D02*
X1450724Y446024D01*
X1336306Y471560D02*
X1425188D01*
X1290590Y425844D02*
X1336306Y471560D01*
X1290590Y310790D02*
X1322962Y343162D01*
X1340488Y361290D01*
X1742062Y221488D02*
X1743840Y219710D01*
X1761366D01*
X1767208Y225552D01*
Y258064D01*
X1761042Y264230D02*
X1767208Y258064D01*
X1753740Y264230D02*
X1761042D01*
X1821840Y182480D02*
X1857240D01*
X1806240Y198080D02*
X1821840Y182480D01*
X1753740Y276930D02*
X1776190D01*
X1810641Y242480D02*
X1857240D01*
X1806240Y246880D02*
X1810641Y242480D01*
X1294006Y44704D02*
X1299607Y50305D01*
Y56388D01*
X1302359Y59141D01*
Y74581D01*
X981400Y30000D02*
X997176Y14224D01*
X1322708D01*
X1336384Y27900D01*
Y58032D01*
X1327360Y67056D02*
X1336384Y58032D01*
X1327360Y67056D02*
Y74581D01*
X1284100Y121666D02*
X1285584Y123150D01*
X1312881D01*
X1328430Y107602D01*
Y96228D02*
Y107602D01*
Y96228D02*
X1329859Y88581D01*
X1298578Y98298D02*
X1299861Y97015D01*
Y88581D02*
Y97015D01*
X1897256Y621699D02*
X1907500D01*
X1897256Y583184D02*
Y621699D01*
Y583184D02*
X1903660Y576780D01*
X1979552D01*
X1984580Y571752D01*
Y170380D02*
Y571752D01*
X1970000Y155800D02*
X1984580Y170380D01*
X1871856Y616874D02*
X1876682Y621699D01*
X968810Y330610D02*
X1000891Y362690D01*
Y687252D01*
X993460Y694682D02*
X1000891Y687252D01*
X993460Y694682D02*
Y703810D01*
X48810Y233810D02*
X203713D01*
X209426Y239522D01*
Y418816D01*
X323890Y533280D01*
X337599Y546990D02*
Y596240D01*
X323890Y533280D02*
X337599Y546990D01*
X48810Y208810D02*
X72200Y185420D01*
X252352D01*
X257432Y190500D01*
Y220472D01*
X278768Y241808D01*
X330076D01*
X338204Y249936D01*
Y263488D01*
X501690Y426974D01*
Y533280D01*
X1866014Y697899D02*
X1907500D01*
X1554610Y560832D02*
X1586360Y592582D01*
X1554610Y363982D02*
Y560832D01*
Y363982D02*
X1601346Y317246D01*
X464599Y570370D02*
Y596240D01*
Y570370D02*
X501690Y533280D01*
X1885318Y723299D02*
X1907500D01*
X1837820Y464625D02*
Y550926D01*
X1753740Y213430D02*
X1765684D01*
X1795656Y243402D01*
Y376936D01*
X1834010Y415290D01*
X1918177Y736000D02*
X1929006Y725170D01*
X1907500Y736000D02*
X1918177D01*
X261399Y546990D02*
Y596240D01*
X247690Y533280D02*
X261399Y546990D01*
X236000D02*
Y596240D01*
X222290Y533280D02*
X236000Y546990D01*
X515956Y264414D02*
X527090Y253280D01*
X366144Y264414D02*
X515956D01*
X360302Y258572D02*
X366144Y264414D01*
X360302Y233680D02*
Y258572D01*
X322862Y196240D02*
X360302Y233680D01*
X270000Y196240D02*
X322862D01*
X1743748Y710600D02*
X1743840Y710692D01*
X1732500Y710600D02*
X1743748D01*
X1516430Y759230D02*
X1527200Y770000D01*
X1495936Y759230D02*
X1516430D01*
X1487300Y767866D02*
X1495936Y759230D01*
X1487300Y767866D02*
Y778256D01*
X1480976Y784580D02*
X1487300Y778256D01*
X1399136Y784580D02*
X1480976D01*
X1385700Y771144D02*
X1399136Y784580D01*
X1385700Y646176D02*
Y771144D01*
X1376810Y637286D02*
X1385700Y646176D01*
X1717263Y697899D02*
X1732500D01*
X1695326Y705358D02*
Y780262D01*
X1691008Y784580D02*
X1695326Y780262D01*
X1516380Y784580D02*
X1691008D01*
X1501800Y770000D02*
X1516380Y784580D01*
X1482622Y789178D02*
X1501800Y770000D01*
X1377572Y789178D02*
X1482622D01*
X1360300Y771906D02*
X1377572Y789178D01*
X1360300Y701787D02*
Y771906D01*
X1280051Y621538D02*
X1360300Y701787D01*
X1271654Y621538D02*
X1280051D01*
X1826350Y611846D02*
X1857124Y642620D01*
X1826350Y596500D02*
Y611846D01*
X908214Y264414D02*
X957456D01*
X1084630Y391588D01*
Y775864D01*
X1089536Y780770D01*
X1179856D01*
X1182371Y778256D01*
Y732158D02*
Y778256D01*
Y732158D02*
X1243968Y670560D01*
X1289942D01*
X1302388Y683006D01*
X1333082D01*
X1349400Y699324D01*
Y770000D01*
X1288820Y791464D02*
X1291894Y788390D01*
X974728Y791464D02*
X1288820D01*
X937898Y754634D02*
X974728Y791464D01*
X937898Y602299D02*
Y754634D01*
X896790Y561190D02*
X937898Y602299D01*
X1839050Y585216D02*
Y596500D01*
X1312911Y781090D02*
X1324000Y770000D01*
X1286574Y781090D02*
X1312911D01*
X1282550Y785114D02*
X1286574Y781090D01*
X1060072Y785114D02*
X1282550D01*
X1014098Y739140D02*
X1060072Y785114D01*
X1014098Y327406D02*
Y739140D01*
X968292Y281600D02*
X1014098Y327406D01*
X900000Y281600D02*
X968292D01*
X833114Y599466D02*
X896790Y535790D01*
X1298600Y770000D02*
X1311426Y757174D01*
X1330074D01*
X1334900Y762000D01*
Y786384D01*
X1325502Y795782D02*
X1334900Y786384D01*
X919102Y795782D02*
X1325502D01*
X885828Y762508D02*
X919102Y795782D01*
X885828Y652018D02*
Y762508D01*
Y652018D02*
X899798D01*
X907672Y644144D01*
Y629920D02*
Y644144D01*
X902592Y624840D02*
X907672Y629920D01*
X790578Y624840D02*
X902592D01*
X781434Y615696D02*
X790578Y624840D01*
X781434Y526288D02*
Y615696D01*
Y526288D02*
X786514Y521208D01*
X800588D01*
X827063Y547683D01*
X843747D01*
X849252Y542178D01*
Y537972D02*
Y542178D01*
Y537972D02*
X853824Y533400D01*
X881256D01*
X900000Y514656D01*
Y307000D02*
Y514656D01*
X826614Y591445D02*
Y607568D01*
X820114Y706114D02*
X866789Y752790D01*
X1565400Y390000D02*
Y440000D01*
Y390000D02*
X1575400Y380000D01*
X1412190Y285390D02*
Y460790D01*
X1425600Y678626D02*
X1468504Y635722D01*
X1783932Y620014D02*
X1788250Y615696D01*
Y596500D02*
Y615696D01*
X900000Y180000D02*
X981500D01*
X1353402Y551902D01*
X1504064D01*
X1518756Y566595D01*
Y610148D01*
X1514986Y613918D02*
X1518756Y610148D01*
X1494666Y613918D02*
X1514986D01*
X1468504Y640080D02*
Y658644D01*
X1425600Y701548D02*
X1468504Y658644D01*
X886226Y647954D02*
X896790Y637390D01*
X761440Y647954D02*
X886226D01*
X1800950Y596500D02*
Y605536D01*
X1805054Y607822D01*
X1532258Y619252D02*
X1559182Y592328D01*
X1436500Y732536D02*
X1477140Y691896D01*
X1430912Y780770D02*
X1436500Y775182D01*
X1400200Y770000D02*
X1410970Y780770D01*
X1283789Y435513D02*
Y439914D01*
X1319245Y475370D01*
X1429230D01*
X1524600Y380000D01*
X1540000Y395401D02*
Y440000D01*
X1524600Y380000D02*
X1540000Y395401D01*
X1808132Y118872D02*
X1821740Y132480D01*
X1672720Y118872D02*
X1808132D01*
X1628980Y75132D02*
X1672720Y118872D01*
X1628980Y17728D02*
Y75132D01*
X1621666Y10414D02*
X1628980Y17728D01*
X1560960Y10414D02*
X1621666D01*
X1552832Y18542D02*
X1560960Y10414D01*
X1552832Y18542D02*
Y79702D01*
X1514717Y117816D02*
X1552832Y79702D01*
X1494860Y88581D02*
X1497010Y100504D01*
X1690600Y30000D02*
X1748920Y88320D01*
Y108712D01*
X1489859Y102889D02*
X1490602Y103632D01*
X1489859Y88581D02*
Y102889D01*
X1497360Y69048D02*
Y74581D01*
Y69048D02*
X1497735Y68674D01*
Y38883D02*
Y68674D01*
X1487300Y28448D02*
X1497735Y38883D01*
X1466472Y28448D02*
X1489332Y5588D01*
X1640788D01*
X1665200Y30000D01*
X1459861Y88581D02*
Y97114D01*
X1456860Y100116D02*
X1459861Y97114D01*
X1456860Y100116D02*
Y119888D01*
X1466250Y129279D01*
X1530435D01*
X1625170Y34544D01*
Y22300D02*
Y34544D01*
X1621920Y19050D02*
X1625170Y22300D01*
X1599950Y19050D02*
X1621920D01*
X1589000Y30000D02*
X1599950Y19050D01*
X1499860Y88581D02*
Y91948D01*
X1500820D02*
Y108516D01*
X1503810Y111506D01*
X1467360Y66040D02*
Y74581D01*
X1464981Y63661D02*
X1467360Y66040D01*
X1464981Y42560D02*
Y63661D01*
Y42560D02*
X1472782Y34758D01*
Y30480D02*
Y34758D01*
Y30480D02*
X1482180Y21082D01*
X1528448D01*
X1533020Y25654D01*
Y95504D01*
X1510708Y117816D02*
X1533020Y95504D01*
X1500000Y117816D02*
X1510708D01*
X1497010Y114826D02*
X1500000Y117816D01*
X1497010Y100504D02*
Y114826D01*
X1494860Y98354D02*
X1497010Y100504D01*
X1494860Y88581D02*
Y98354D01*
X1561722Y24892D02*
Y76200D01*
X1516296Y121626D02*
X1561722Y76200D01*
X1485662Y121626D02*
X1516296D01*
X1479860Y115824D02*
X1485662Y121626D01*
X1479860Y88581D02*
Y115824D01*
X1484860Y88581D02*
Y96902D01*
X1484292Y97470D02*
X1484860Y96902D01*
X1484292Y97470D02*
Y108799D01*
X1488924Y113431D01*
X1518964Y125436D02*
X1614400Y30000D01*
X1473453Y125436D02*
X1518964D01*
X1460670Y112653D02*
X1473453Y125436D01*
X1460670Y108372D02*
Y112653D01*
Y108372D02*
X1464862Y104180D01*
Y88581D02*
Y104180D01*
X1454861Y88581D02*
Y94494D01*
X1453050Y96306D02*
X1454861Y94494D01*
X1453050Y96306D02*
Y133644D01*
X1459360Y139954D01*
X1598044D01*
X1616332Y121666D01*
X1651638D01*
Y156718D01*
X1621412Y186944D02*
X1651638Y156718D01*
X1621412Y275590D02*
X1625984Y280162D01*
X1646826D02*
X1657240Y290576D01*
X1504860Y88581D02*
Y99094D01*
X1507366Y101600D01*
X1756540Y83058D02*
X1781178Y58420D01*
Y22352D02*
Y58420D01*
Y22352D02*
X1784480Y19050D01*
X1832050D01*
X1843000Y30000D01*
X1472822Y48514D02*
X1490856D01*
X1471044Y50292D02*
X1472822Y48514D01*
X1471044Y50292D02*
Y62692D01*
X1472360Y64008D01*
Y74581D01*
X1324859Y88581D02*
Y89345D01*
X1477359Y59690D02*
Y74581D01*
X1487360Y66802D02*
Y74581D01*
Y66802D02*
X1491424Y62738D01*
X1457361Y56674D02*
Y74581D01*
X1453264Y52578D02*
X1457361Y56674D01*
X796928Y480060D02*
X831472Y445516D01*
X580310Y480060D02*
X796928D01*
X527090Y533280D02*
X580310Y480060D01*
X1698740Y213430D02*
X1706064D01*
X1721274Y228640D01*
Y238594D01*
X1857240Y123952D02*
Y132480D01*
X1854700Y121412D02*
X1857240Y123952D01*
X1851536Y121412D02*
X1854700D01*
X1735204Y226130D02*
X1735840D01*
X1737591Y227881D01*
X1746710D01*
X1748461Y226130D01*
X1753740D01*
X1736982Y393700D02*
X1752044Y408762D01*
X1736982Y248149D02*
Y393700D01*
X1725084Y236250D02*
X1736982Y248149D01*
X1725084Y211149D02*
Y236250D01*
Y211149D02*
X1735502Y200730D01*
X1753740D01*
X889130Y169164D02*
X997080D01*
X1307096Y479180D01*
X1465592D01*
X1522606Y536194D01*
Y612902D01*
X1516256Y619252D02*
X1522606Y612902D01*
X1498984Y619252D02*
X1516256D01*
X1477140Y641096D02*
X1498984Y619252D01*
X1477140Y641096D02*
Y691896D01*
X1436500Y732536D02*
Y775182D01*
X1410970Y780770D02*
X1430912D01*
X48810Y258810D02*
X185804Y395804D01*
Y538734D01*
X191392Y544322D01*
X203584D01*
X207902Y540004D01*
Y526288D02*
Y540004D01*
Y526288D02*
X211966Y522224D01*
X287433D01*
X298490Y533280D01*
X849111Y485209D02*
X886557D01*
X837790Y496530D02*
X849111Y485209D01*
X1756610Y384880D02*
X1770740D01*
X1698740Y188030D02*
X1723520D01*
X1750740Y160810D01*
Y132480D02*
Y160810D01*
X1703200Y774100D02*
X1732500D01*
X1701676Y772576D02*
X1703200Y774100D01*
X1701676Y701040D02*
Y772576D01*
X1699644Y699008D02*
X1701676Y701040D01*
X1691008Y699008D02*
X1699644D01*
X1688976Y701040D02*
X1691008Y699008D01*
X1688976Y701040D02*
Y759206D01*
X1690370Y760601D01*
Y778256D01*
X1687856Y780770D02*
X1690370Y778256D01*
X1674752Y780770D02*
X1687856D01*
X1667240Y773258D02*
X1674752Y780770D01*
X1667240Y492480D02*
Y773258D01*
X1315990Y310790D02*
X1346838Y341638D01*
Y367792D01*
X1328550Y386080D02*
X1346838Y367792D01*
X1328550Y386080D02*
Y439166D01*
X1350174Y460790D01*
X1386790D01*
X1552600Y714734D02*
Y770000D01*
Y714734D02*
X1622936Y644398D01*
X1306732Y114554D02*
X1314485Y106801D01*
Y97697D02*
Y106801D01*
Y97697D02*
X1314860Y97322D01*
Y88581D02*
Y97322D01*
X1339860Y88581D02*
Y100825D01*
X1338710Y101974D02*
X1339860Y100825D01*
X1321624Y131894D02*
X1333630Y119888D01*
X1210293Y131894D02*
X1321624D01*
X1108400Y30000D02*
X1210293Y131894D01*
X1657240Y290576D02*
Y342480D01*
X1625984Y280162D02*
X1646826D01*
X1621412Y211074D02*
X1625476Y207010D01*
X1711144D01*
X1730124Y188030D01*
X1753740D01*
X1506604Y566420D02*
X1514946Y574762D01*
Y600496D01*
X1508382Y607060D02*
X1514946Y600496D01*
X1394336Y607060D02*
X1508382D01*
X1370460Y630936D02*
X1394336Y607060D01*
X1370460Y630936D02*
Y754126D01*
X1374800Y758466D01*
Y770000D01*
X1775550Y596500D02*
Y607742D01*
X1775590Y607782D01*
X1503556Y625602D02*
Y717444D01*
X1451000Y770000D02*
X1503556Y717444D01*
X1171600Y665712D02*
Y770000D01*
Y665712D02*
X1223902Y613410D01*
X1721234Y608838D02*
X1721396Y608999D01*
X1732500D01*
X1201296Y390144D02*
X1297816Y486664D01*
X1732500Y621699D02*
X1740284D01*
X1748412Y629827D01*
X1197000Y727942D02*
X1229236Y695706D01*
X1197000Y727942D02*
Y770000D01*
X1732500Y634399D02*
X1743748D01*
X1743840Y634492D01*
Y638556D01*
X1476400Y770000D02*
X1611908Y634492D01*
X896790Y535790D02*
X936732D01*
X997081Y596138D01*
Y634745D01*
X983872Y647954D02*
X997081Y634745D01*
X983872Y647954D02*
Y766318D01*
X1578000Y699516D02*
Y770000D01*
X896790Y662790D02*
X914276Y645304D01*
X787790Y532384D02*
X807114Y551708D01*
Y612648D01*
X864128Y619252D02*
X896790Y586590D01*
X817248Y619252D02*
X864128D01*
X813692Y615696D02*
X817248Y619252D01*
X813692Y602742D02*
Y615696D01*
X1907500Y710600D02*
X1918846D01*
X1732500Y647100D02*
X1750190D01*
X1222400Y718798D02*
X1257684Y683514D01*
X1222400Y718798D02*
Y770000D01*
X1732500Y685200D02*
X1743840D01*
X1721234Y723392D02*
Y727456D01*
Y723392D02*
X1721326Y723299D01*
X1732500D01*
X1757302Y674370D02*
Y755142D01*
Y674370D02*
X1813650Y618022D01*
Y596500D02*
Y618022D01*
X1710856Y560495D02*
X1756470Y514880D01*
X1710856Y560495D02*
Y736035D01*
X1723520Y748699D01*
X1732500D01*
X1896240D02*
X1907500D01*
X1770740Y514880D02*
X1825431D01*
X1877150Y561380D02*
Y596500D01*
Y561380D02*
X1881508Y557022D01*
Y302260D02*
Y557022D01*
Y302260D02*
X1909956Y273812D01*
Y190444D02*
Y273812D01*
Y190444D02*
X1970000Y130400D01*
X1502360Y60124D02*
Y74581D01*
Y60124D02*
X1510668Y51816D01*
X1457074Y34384D02*
X1461171Y38481D01*
Y68326D01*
X1462360Y69515D01*
Y74581D01*
X1344860Y88581D02*
Y100330D01*
X1358990Y114460D01*
Y125730D01*
X1349017Y135704D02*
X1358990Y125730D01*
X1188703Y135704D02*
X1349017D01*
X1083000Y30000D02*
X1188703Y135704D01*
X1291825Y116840D02*
X1304888Y103777D01*
Y92015D02*
Y103777D01*
X1304861Y91988D02*
X1304888Y92015D01*
X1304861Y88581D02*
Y91988D01*
X1319860Y82764D02*
Y88581D01*
Y82764D02*
X1322359Y80264D01*
Y74581D02*
Y80264D01*
X1474860Y88581D02*
Y106420D01*
X1471044Y110236D02*
X1474860Y106420D01*
X1420752Y22352D02*
Y110236D01*
Y22352D02*
X1441453Y1651D01*
X1738451D01*
X1766800Y30000D01*
X1479860Y82764D02*
Y88581D01*
Y82764D02*
X1482360Y80264D01*
Y74581D02*
Y80264D01*
X963410Y703810D02*
Y717042D01*
X1291264Y54610D02*
X1297360Y60706D01*
Y74581D01*
X1306706Y37084D02*
X1312360Y42738D01*
Y74581D01*
X905200Y30000D02*
X927913Y7286D01*
X1325248D01*
X1340194Y22233D01*
Y63968D01*
X1337360Y66803D02*
X1340194Y63968D01*
X1337360Y66803D02*
Y74581D01*
X1342360Y69423D02*
Y74581D01*
Y69423D02*
X1344258Y67524D01*
Y13168D02*
Y67524D01*
X1333376Y2286D02*
X1344258Y13168D01*
X907514Y2286D02*
X1333376D01*
X879800Y30000D02*
X907514Y2286D01*
X1636240Y217880D02*
Y226218D01*
X1625222Y237236D02*
X1636240Y226218D01*
X1625222Y237236D02*
Y249936D01*
X1629540Y254254D01*
X1692602D01*
X1695326Y251530D01*
X1698740D01*
X1857240Y71490D02*
Y82480D01*
X1857124Y71374D02*
X1857240Y71490D01*
X1330574Y299974D02*
X1341390Y310790D01*
X1284608Y299974D02*
X1330574D01*
X1279782Y304800D02*
X1284608Y299974D01*
X1279782Y304800D02*
Y425704D01*
X1283789Y429711D01*
X993460Y703810D02*
Y763990D01*
X1839182Y672499D02*
X1907500D01*
X1719710D02*
X1732500D01*
X1273200Y742928D02*
X1326772Y689356D01*
X1273200Y742928D02*
Y770000D01*
X715690Y110236D02*
X734232Y91694D01*
X754323Y752790D02*
X813692Y693420D01*
X726789Y752790D02*
X754323D01*
X1657240Y342480D02*
Y371856D01*
X1646064Y383032D02*
X1657240Y371856D01*
X1616586Y383032D02*
X1646064D01*
X1593472Y406146D02*
X1616586Y383032D01*
X1593472Y406146D02*
Y437328D01*
X1565400Y465400D02*
X1593472Y437328D01*
X1667240Y465400D02*
Y492480D01*
X1743748Y736000D02*
X1743840Y736092D01*
X1732500Y736000D02*
X1743748D01*
X896790Y561190D02*
Y565150D01*
X839614Y612648D02*
X887112Y565150D01*
X820042Y582644D02*
Y612648D01*
X1732500Y774100D02*
X1780416D01*
X1791000Y763516D01*
Y710900D02*
Y763516D01*
X1819000Y710900D02*
X1882199Y774100D01*
X1907500D01*
X1440511Y65024D02*
X1442797Y62738D01*
X1451232D01*
X1453264Y64770D01*
Y73677D01*
X1452360Y74581D02*
X1453264Y73677D01*
X1280511Y66835D02*
X1284608Y62738D01*
X1290958D01*
X1293244Y65024D01*
Y73697D01*
X1292360Y74581D02*
X1293244Y73697D01*
X388400Y596240D02*
X425490Y559150D01*
Y533280D02*
Y559150D01*
X413800Y588270D02*
Y596240D01*
Y588270D02*
X450890Y551180D01*
Y533280D02*
Y551180D01*
X439199Y570370D02*
X476290Y533280D01*
X439199Y570370D02*
Y596240D01*
X490000Y570370D02*
X527090Y533280D01*
X490000Y570370D02*
Y596240D01*
X1521711Y82323D02*
Y82550D01*
X1361711Y82323D02*
Y82550D01*
X1743748Y761400D02*
X1743840Y761492D01*
X1732500Y761400D02*
X1743748D01*
X1889850Y581192D02*
Y596500D01*
Y581192D02*
X1898072Y572970D01*
X1975488D01*
X1980770Y567688D01*
Y369770D02*
Y567688D01*
X1970000Y359000D02*
X1980770Y369770D01*
X1359030Y318549D02*
Y370790D01*
Y318549D02*
X1366790Y310790D01*
X1688468Y276930D02*
X1698740D01*
X1716240Y346925D02*
Y351980D01*
Y346925D02*
X1719456Y343710D01*
X1723520D01*
X1731648Y351838D01*
Y447802D01*
X1723520Y455930D02*
X1731648Y447802D01*
X1698703Y455930D02*
X1723520D01*
X1685241Y469392D02*
X1698703Y455930D01*
X1685241Y469392D02*
Y492480D01*
X1716240Y427880D02*
X1725552D01*
X1727838Y425594D01*
Y381825D02*
Y425594D01*
X1709740Y363728D02*
X1727838Y381825D01*
X1709740Y332980D02*
Y363728D01*
X1679600Y770000D02*
X1679832D01*
X1676276Y511302D02*
X1679832Y514858D01*
X1676276Y403352D02*
Y511302D01*
X1675768Y402844D02*
X1676276Y403352D01*
X732158Y580136D02*
Y659377D01*
X48810Y533809D02*
X59820Y522800D01*
Y369819D02*
Y522800D01*
X48810Y358810D02*
X59820Y369819D01*
X37722Y319898D02*
X48810Y308810D01*
X37722Y319898D02*
Y372722D01*
X48810Y383810D01*
X1970000Y587600D02*
Y613000D01*
Y638400D01*
Y663800D01*
X196890Y253280D02*
Y533280D01*
X1819000Y682900D02*
Y696900D01*
X1805000D02*
X1819000D01*
X1805000Y682900D02*
Y696900D01*
X1791000D02*
X1805000D01*
X1791000Y682900D02*
Y696900D01*
X1819000D02*
Y710900D01*
X1805000D02*
X1819000D01*
X1791000D02*
X1805000D01*
X1861740Y297980D02*
Y340080D01*
Y297980D02*
X1875240Y284480D01*
Y242480D02*
Y284480D01*
Y182480D02*
Y242480D01*
Y82480D02*
Y132480D01*
Y182480D01*
X1970000Y486000D02*
Y511400D01*
Y536800D01*
Y562200D01*
X1361711Y60765D02*
Y82323D01*
Y60765D02*
X1364310Y58166D01*
Y36821D02*
Y58166D01*
X1349860Y82763D02*
Y88581D01*
X1347360Y80264D02*
X1349860Y82763D01*
X1347360Y74581D02*
Y80264D01*
X1277911Y58166D02*
X1280511Y60766D01*
X1277911Y36821D02*
Y58166D01*
X1294861Y82765D02*
Y88581D01*
X1292360Y80264D02*
X1294861Y82765D01*
X1292360Y74581D02*
Y80264D01*
X1521711Y60765D02*
Y82323D01*
Y60765D02*
X1524310Y58166D01*
Y36821D02*
Y58166D01*
X1509860Y82763D02*
Y88581D01*
X1507360Y80264D02*
X1509860Y82763D01*
X1507360Y74581D02*
Y80264D01*
X1437911Y58166D02*
X1440511Y60766D01*
X1437911Y36821D02*
Y58166D01*
X1454861Y82765D02*
Y88581D01*
X1452360Y80264D02*
X1454861Y82765D01*
X1452360Y74581D02*
Y80264D01*
X1334860Y82764D02*
Y88581D01*
X1332360Y80264D02*
X1334860Y82764D01*
X1332360Y74581D02*
Y80264D01*
X1309861Y82765D02*
Y88581D01*
X1307360Y80264D02*
X1309861Y82765D01*
X1307360Y74581D02*
Y80264D01*
X1669550Y238830D02*
X1698740D01*
X1665100Y243280D02*
X1669550Y238830D01*
X1636240Y243280D02*
X1665100D01*
X1669550Y264230D02*
X1698740D01*
X1665100Y268680D02*
X1669550Y264230D01*
X1636240Y268680D02*
X1665100D01*
X1645308Y402980D02*
X1659740D01*
X1640208Y397880D02*
X1645308Y402980D01*
X1626240Y397880D02*
X1640208D01*
X1970000Y714600D02*
Y740000D01*
Y689200D02*
Y714600D01*
X247690Y226102D02*
Y253280D01*
X244600Y223012D02*
X247690Y226102D01*
X244600Y196240D02*
Y223012D01*
X222290Y226102D02*
Y253280D01*
X219200Y223012D02*
X222290Y226102D01*
X219200Y196240D02*
Y223012D01*
X374690Y226940D02*
Y253280D01*
X370000Y222250D02*
X374690Y226940D01*
X370000Y196240D02*
Y222250D01*
X400090Y226940D02*
Y253280D01*
X395400Y222250D02*
X400090Y226940D01*
X395400Y196240D02*
Y222250D01*
X425490Y226940D02*
Y253280D01*
X420800Y222250D02*
X425490Y226940D01*
X420800Y196240D02*
Y222250D01*
X450890Y226940D02*
Y253280D01*
X446200Y222250D02*
X450890Y226940D01*
X446200Y196240D02*
Y222250D01*
X476290Y226940D02*
Y253280D01*
X471600Y222250D02*
X476290Y226940D01*
X471600Y196240D02*
Y222250D01*
X501690Y226940D02*
Y253280D01*
X497000Y222250D02*
X501690Y226940D01*
X497000Y196240D02*
Y222250D01*
X1494860Y82764D02*
Y88581D01*
X1492360Y80264D02*
X1494860Y82764D01*
X1492360Y74581D02*
Y80264D01*
X1469861Y82765D02*
Y88581D01*
X1467360Y80264D02*
X1469861Y82765D01*
X1467360Y74581D02*
Y80264D01*
D14*
X1732500Y774100D02*
D03*
Y761400D02*
D03*
Y748699D02*
D03*
Y736000D02*
D03*
Y723299D02*
D03*
Y710600D02*
D03*
Y697899D02*
D03*
Y685200D02*
D03*
Y672499D02*
D03*
Y659799D02*
D03*
Y647100D02*
D03*
Y634399D02*
D03*
Y621699D02*
D03*
Y608999D02*
D03*
X1907500D02*
D03*
Y621699D02*
D03*
Y634399D02*
D03*
Y647100D02*
D03*
Y659799D02*
D03*
Y672499D02*
D03*
Y685200D02*
D03*
Y697899D02*
D03*
Y710600D02*
D03*
Y723299D02*
D03*
Y736000D02*
D03*
Y748699D02*
D03*
Y761400D02*
D03*
Y774100D02*
D03*
D15*
X1750150Y596500D02*
D03*
X1762850D02*
D03*
X1775550D02*
D03*
X1788250D02*
D03*
X1800950D02*
D03*
X1813650D02*
D03*
X1826350D02*
D03*
X1839050D02*
D03*
X1851750D02*
D03*
X1864450D02*
D03*
X1877150D02*
D03*
X1889850D02*
D03*
D16*
X1805000Y696900D02*
D03*
X1819000D02*
D03*
X1791000D02*
D03*
X1819000Y710900D02*
D03*
X1805000D02*
D03*
X1791000D02*
D03*
Y682900D02*
D03*
X1805000D02*
D03*
X1819000D02*
D03*
D17*
X1454861Y88581D02*
D03*
X1459861D02*
D03*
X1464862D02*
D03*
X1469861D02*
D03*
X1474860D02*
D03*
X1479860D02*
D03*
X1484860D02*
D03*
X1489859D02*
D03*
X1494860D02*
D03*
X1499860D02*
D03*
X1504860D02*
D03*
X1509860D02*
D03*
X1507360Y74581D02*
D03*
X1502360D02*
D03*
X1497360D02*
D03*
X1492360D02*
D03*
X1487360D02*
D03*
X1482360D02*
D03*
X1477359D02*
D03*
X1472360D02*
D03*
X1467360D02*
D03*
X1462360D02*
D03*
X1457361D02*
D03*
X1452360D02*
D03*
X1292360D02*
D03*
X1297360D02*
D03*
X1302359D02*
D03*
X1307360D02*
D03*
X1312360D02*
D03*
X1317359D02*
D03*
X1322359D02*
D03*
X1327360D02*
D03*
X1332360D02*
D03*
X1337360D02*
D03*
X1342360D02*
D03*
X1347360D02*
D03*
X1349860Y88581D02*
D03*
X1344860D02*
D03*
X1339860D02*
D03*
X1334860D02*
D03*
X1329859D02*
D03*
X1324859D02*
D03*
X1319860D02*
D03*
X1314860D02*
D03*
X1309861D02*
D03*
X1304861D02*
D03*
X1299861D02*
D03*
X1294861D02*
D03*
D18*
X1875240Y242480D02*
D03*
X1857240D02*
D03*
X1875240Y182480D02*
D03*
X1857240D02*
D03*
Y82480D02*
D03*
X1875240D02*
D03*
X1857240Y132480D02*
D03*
X1875240D02*
D03*
X1657240Y342480D02*
D03*
X1675240D02*
D03*
X1667240Y492480D02*
D03*
X1685241D02*
D03*
D19*
X1698740Y188030D02*
D03*
Y200730D02*
D03*
X1753740Y276930D02*
D03*
X1698740Y264230D02*
D03*
X1753740D02*
D03*
Y238830D02*
D03*
X1698740Y276930D02*
D03*
X1753740Y251530D02*
D03*
X1698740D02*
D03*
Y238830D02*
D03*
Y213430D02*
D03*
X1753740Y226130D02*
D03*
Y213430D02*
D03*
Y188030D02*
D03*
X1698740Y226130D02*
D03*
X1753740Y200730D02*
D03*
D20*
X1861740Y384880D02*
D03*
Y340080D02*
D03*
X1770740Y384880D02*
D03*
Y340080D02*
D03*
X1861740Y514880D02*
D03*
Y470080D02*
D03*
X1770740Y514880D02*
D03*
Y470080D02*
D03*
D21*
X1626240Y397880D02*
D03*
X1716240Y427880D02*
D03*
D22*
X1626240Y367830D02*
D03*
X1716240Y397830D02*
D03*
D23*
X1666240Y421980D02*
D03*
X1672740Y402980D02*
D03*
X1659740D02*
D03*
X1716240Y351980D02*
D03*
X1722740Y332980D02*
D03*
X1709740D02*
D03*
D24*
X993460Y703810D02*
D03*
D25*
X963410D02*
D03*
D41*
X828000Y210000D02*
D03*
Y220000D02*
D03*
Y230000D02*
D03*
X816000Y210000D02*
D03*
Y220000D02*
D03*
Y230000D02*
D03*
X804000Y210000D02*
D03*
Y220000D02*
D03*
Y230000D02*
D03*
X792000Y210000D02*
D03*
Y220000D02*
D03*
Y230000D02*
D03*
X834864Y643034D02*
D03*
Y653034D02*
D03*
Y663035D02*
D03*
X822864Y643034D02*
D03*
Y653034D02*
D03*
Y663035D02*
D03*
X810864Y643034D02*
D03*
Y653034D02*
D03*
Y663035D02*
D03*
X798864Y643034D02*
D03*
Y653034D02*
D03*
Y663035D02*
D03*
D55*
X900000Y307000D02*
D03*
Y281600D02*
D03*
Y256200D02*
D03*
Y230800D02*
D03*
Y205400D02*
D03*
X896790Y535790D02*
D03*
Y561190D02*
D03*
Y586590D02*
D03*
Y611990D02*
D03*
Y637390D02*
D03*
X164600Y596240D02*
D03*
X219200Y196240D02*
D03*
X244600D02*
D03*
X497000Y196240D02*
D03*
X471600D02*
D03*
X446200D02*
D03*
X420800D02*
D03*
X395400D02*
D03*
X1095400Y770000D02*
D03*
X1120800D02*
D03*
X1146200D02*
D03*
X1171600D02*
D03*
X1197000D02*
D03*
X1222400D02*
D03*
X1247800D02*
D03*
X1273200D02*
D03*
X1298600D02*
D03*
X1324000D02*
D03*
X1349400D02*
D03*
X1374800D02*
D03*
X1400200D02*
D03*
X1425600D02*
D03*
X1451000D02*
D03*
X1476400D02*
D03*
X1501800D02*
D03*
X1527200D02*
D03*
X1552600D02*
D03*
X1578000D02*
D03*
X1603400D02*
D03*
X1628800D02*
D03*
X1654200D02*
D03*
X1679600D02*
D03*
X1970000Y714600D02*
D03*
Y689200D02*
D03*
Y663800D02*
D03*
Y638400D02*
D03*
Y613000D02*
D03*
Y587600D02*
D03*
Y562200D02*
D03*
Y536800D02*
D03*
Y511400D02*
D03*
Y486000D02*
D03*
Y460600D02*
D03*
Y435200D02*
D03*
Y409800D02*
D03*
Y384400D02*
D03*
Y359000D02*
D03*
Y333600D02*
D03*
Y308200D02*
D03*
Y282800D02*
D03*
Y257400D02*
D03*
Y232000D02*
D03*
Y206600D02*
D03*
Y181200D02*
D03*
Y155800D02*
D03*
Y130400D02*
D03*
X1290590Y310790D02*
D03*
X1315990D02*
D03*
X1341390D02*
D03*
X1944600Y30000D02*
D03*
X1919200D02*
D03*
X1893800D02*
D03*
X1868400D02*
D03*
X1843000D02*
D03*
X1817600D02*
D03*
X1792200D02*
D03*
X1766800D02*
D03*
X1741400D02*
D03*
X1716000D02*
D03*
X1690600D02*
D03*
X1665200D02*
D03*
X1639800D02*
D03*
X1614400D02*
D03*
X1589000D02*
D03*
X1821740Y132480D02*
D03*
X829000Y30000D02*
D03*
X854400D02*
D03*
X879800D02*
D03*
X905200D02*
D03*
X930600D02*
D03*
X956000D02*
D03*
X981400D02*
D03*
X1006800D02*
D03*
X1032200D02*
D03*
X1057600D02*
D03*
X1083000D02*
D03*
X1108400D02*
D03*
X1133800D02*
D03*
X1159200D02*
D03*
X1184600D02*
D03*
X1636240Y217880D02*
D03*
Y243280D02*
D03*
Y268680D02*
D03*
Y294080D02*
D03*
X1711741Y132480D02*
D03*
X464599Y596240D02*
D03*
X439199D02*
D03*
X413800D02*
D03*
X388400D02*
D03*
X362999D02*
D03*
X337599D02*
D03*
X312199D02*
D03*
X286800D02*
D03*
X261399D02*
D03*
X236000D02*
D03*
X1412190Y460790D02*
D03*
X1565400Y440000D02*
D03*
X1540000Y465400D02*
D03*
X1565400D02*
D03*
D56*
X900000Y180000D02*
D03*
X896790Y662790D02*
D03*
X1970000Y740000D02*
D03*
X1636240Y192480D02*
D03*
X1540000Y440000D02*
D03*
D57*
X800000Y110000D02*
D03*
X750000D02*
D03*
X850000D02*
D03*
X900000D02*
D03*
X726789Y752790D02*
D03*
X866789D02*
D03*
X916790Y752790D02*
D03*
X676790D02*
D03*
D58*
X968810Y381410D02*
D03*
Y305210D02*
D03*
Y330610D02*
D03*
Y356010D02*
D03*
X48810Y508810D02*
D03*
Y483810D02*
D03*
Y458810D02*
D03*
Y433810D02*
D03*
Y408810D02*
D03*
Y383810D02*
D03*
Y358810D02*
D03*
Y333810D02*
D03*
Y308810D02*
D03*
Y283810D02*
D03*
Y258810D02*
D03*
Y233810D02*
D03*
Y208810D02*
D03*
Y533809D02*
D03*
D59*
X968810Y121210D02*
D03*
X58810D02*
D03*
Y616210D02*
D03*
X968810D02*
D03*
D60*
X1806240Y246880D02*
D03*
Y198080D02*
D03*
D61*
X190000Y596240D02*
D03*
X270000Y196240D02*
D03*
X370000Y196240D02*
D03*
X1070000Y770000D02*
D03*
X1366790Y310790D02*
D03*
X1970000Y30000D02*
D03*
X1750740Y132480D02*
D03*
X1210000Y30000D02*
D03*
X1640740Y132480D02*
D03*
X490000Y596240D02*
D03*
X1386790Y460790D02*
D03*
D62*
X1447110Y68821D02*
D03*
X1515110D02*
D03*
X1355110D02*
D03*
X1287109D02*
D03*
D63*
X1437911Y36821D02*
D03*
X1524310D02*
D03*
X1364310D02*
D03*
X1277911D02*
D03*
D64*
X1440511Y82323D02*
D03*
X1521711D02*
D03*
X1361711D02*
D03*
X1280511D02*
D03*
D65*
X527090Y253280D02*
D03*
D66*
X501690D02*
D03*
X476290D02*
D03*
X450890D02*
D03*
X425490D02*
D03*
X400090D02*
D03*
X374690D02*
D03*
X349290D02*
D03*
X323890D02*
D03*
X298490D02*
D03*
X273090D02*
D03*
X247690D02*
D03*
X222290D02*
D03*
X196890D02*
D03*
X171490D02*
D03*
Y533280D02*
D03*
X196890D02*
D03*
X222290D02*
D03*
X247690D02*
D03*
X273090D02*
D03*
X298490D02*
D03*
X323890D02*
D03*
X349290D02*
D03*
X374690D02*
D03*
X400090D02*
D03*
X425490D02*
D03*
X450890D02*
D03*
X476290D02*
D03*
X501690D02*
D03*
X527090D02*
D03*
D67*
X89290Y268280D02*
D03*
X609290D02*
D03*
Y518280D02*
D03*
X89290D02*
D03*
D68*
X1524600Y380000D02*
D03*
D69*
X1575400D02*
D03*
D70*
X805942Y283718D02*
D03*
X800060Y263959D02*
D03*
X823722Y265430D02*
D03*
X806834Y179832D02*
D03*
X830202Y158750D02*
D03*
X832742Y173228D02*
D03*
X793626Y170434D02*
D03*
X797690Y146812D02*
D03*
X819750Y179832D02*
D03*
X813250Y146750D02*
D03*
X700662Y213360D02*
D03*
X709290Y184150D02*
D03*
X700662Y335280D02*
D03*
X703456Y350012D02*
D03*
X685640Y350266D02*
D03*
X707774Y210312D02*
D03*
X715690Y110236D02*
D03*
Y253958D02*
D03*
X685640Y260096D02*
D03*
Y141260D02*
D03*
X837410Y571726D02*
D03*
X867410Y539710D02*
D03*
X486156Y514350D02*
D03*
X511556Y511302D02*
D03*
X1043178Y144526D02*
D03*
X1558798Y228092D02*
D03*
X1630680Y348488D02*
D03*
X1930146Y586740D02*
D03*
X1928368Y566420D02*
D03*
X1917192Y347218D02*
D03*
X1722374Y319746D02*
D03*
X1642872Y433324D02*
D03*
X1605026Y361696D02*
D03*
X1905508Y329692D02*
D03*
X485016Y498602D02*
D03*
X1750190Y761492D02*
D03*
X1734950Y557784D02*
D03*
X1070232Y405130D02*
D03*
X1853809Y622300D02*
D03*
X1330074Y53848D02*
D03*
X1900558Y251460D02*
D03*
X1743402Y283464D02*
D03*
X1320676Y54102D02*
D03*
X1320795Y103632D02*
D03*
X1690246Y413766D02*
D03*
X1196789Y560005D02*
D03*
X1334900Y433801D02*
D03*
X1835210Y424180D02*
D03*
X1933163Y608999D02*
D03*
X1885157Y764032D02*
D03*
X1653924Y624332D02*
D03*
X1752476Y609560D02*
D03*
X1743840Y659799D02*
D03*
X1278258Y677164D02*
D03*
X1833502Y578104D02*
D03*
X1503810Y573278D02*
D03*
X1504826Y581406D02*
D03*
X1864450Y585216D02*
D03*
X1844170Y384400D02*
D03*
X1893065Y643036D02*
D03*
X1352680Y119126D02*
D03*
X1927062Y659799D02*
D03*
X219107Y403098D02*
D03*
X1918846Y685200D02*
D03*
X1895224Y458724D02*
D03*
X1322962Y468630D02*
D03*
X1340488Y361290D02*
D03*
X1742062Y221488D02*
D03*
X1776190Y276930D02*
D03*
X1294006Y44704D02*
D03*
X1284100Y121666D02*
D03*
X1298578Y98298D02*
D03*
X1871856Y616874D02*
D03*
X1586360Y592582D02*
D03*
X1601346Y317246D02*
D03*
X1866014Y697899D02*
D03*
X1885318Y723299D02*
D03*
X1837820Y550926D02*
D03*
Y464625D02*
D03*
X1834010Y415290D02*
D03*
X1929006Y725170D02*
D03*
X1743840Y710692D02*
D03*
X1376810Y637286D02*
D03*
X1717263Y697899D02*
D03*
X1695326Y705358D02*
D03*
X1271654Y621538D02*
D03*
X1857124Y642620D02*
D03*
X1291894Y788390D02*
D03*
X1839050Y585216D02*
D03*
X833114Y599466D02*
D03*
X826614Y607568D02*
D03*
X820114Y706114D02*
D03*
X1412190Y285390D02*
D03*
X1468504Y635722D02*
D03*
X1783932Y620014D02*
D03*
X761440Y647954D02*
D03*
X1805054Y607822D02*
D03*
X1559182Y592328D02*
D03*
X1283789Y435513D02*
D03*
X1748920Y108712D02*
D03*
X1490602Y103632D02*
D03*
X1487300Y28448D02*
D03*
X1466472D02*
D03*
X1503810Y111506D02*
D03*
X1561722Y24892D02*
D03*
X1488924Y113431D02*
D03*
X1507366Y101600D02*
D03*
X1756540Y83058D02*
D03*
X1490856Y48514D02*
D03*
X1477359Y59690D02*
D03*
X1491424Y62738D02*
D03*
X1453264Y52578D02*
D03*
X831472Y445516D02*
D03*
X1851536Y121412D02*
D03*
X1735204Y226130D02*
D03*
X1752044Y408762D02*
D03*
X886557Y485209D02*
D03*
X837790Y534456D02*
D03*
X1756610Y384880D02*
D03*
X1672740Y384810D02*
D03*
X1622936Y644398D02*
D03*
X1306732Y114554D02*
D03*
X1338710Y101974D02*
D03*
X1333630Y119888D02*
D03*
X1775590Y607782D02*
D03*
X1503556Y625602D02*
D03*
X1223902Y613410D02*
D03*
X1721234Y608838D02*
D03*
X1297816Y486664D02*
D03*
X1201296Y390144D02*
D03*
X1748412Y629827D02*
D03*
X1229236Y695706D02*
D03*
X1743840Y638556D02*
D03*
X1611908Y634492D02*
D03*
X983872Y766318D02*
D03*
X1578000Y699516D02*
D03*
X914276Y645304D02*
D03*
X787790Y532384D02*
D03*
X807114Y612648D02*
D03*
X813692Y602742D02*
D03*
X1918846Y710600D02*
D03*
X1750190Y647100D02*
D03*
X1257684Y683514D02*
D03*
X1743840Y685200D02*
D03*
X1721234Y727456D02*
D03*
X1757302Y755142D02*
D03*
X1896240Y748699D02*
D03*
X1825431Y514880D02*
D03*
X1510668Y51816D02*
D03*
X1457074Y34384D02*
D03*
X1291825Y116840D02*
D03*
X1471044Y110236D02*
D03*
X1420752D02*
D03*
X963410Y717042D02*
D03*
X1291264Y54610D02*
D03*
X1306706Y37084D02*
D03*
X1857124Y71374D02*
D03*
X1283789Y429711D02*
D03*
X993460Y763990D02*
D03*
X1839182Y672499D02*
D03*
X1719710D02*
D03*
X1326772Y689356D02*
D03*
X813692Y693420D02*
D03*
X1667240Y465400D02*
D03*
X1743840Y736092D02*
D03*
X839614Y612648D02*
D03*
X820042D02*
D03*
X1743840Y761492D02*
D03*
X1359030Y370790D02*
D03*
X1688468Y276930D02*
D03*
X732158Y580136D02*
D03*
Y659377D02*
D03*
M02*
