M48
;Layer_Color=9474304
;FILE_FORMAT=4:4
METRIC,LZ
;TYPE=PLATED
T1F00S00C0.2000
T3F00S00C0.6300
T4F00S00C0.9000
T5F00S00C1.0200
T6F00S00C1.1000
T8F00S00C2.0000
T9F00S00C4.0000
;TYPE=NON_PLATED
T10F00S00C0.5500
T11F00S00C3.2500
%
T01
X0071569Y00110236
X0068564Y0014126
X012841Y00121666
X01291825Y0011684
X01306732Y00114554
X01298578Y00098298
X01320795Y00103632
X0133871Y00101974
X0133363Y00119888
X0135268Y00119126
X01420752Y00110236
X01471044
X01488924Y00113431
X01490602Y00103632
X01507366Y001016
X0150381Y00111506
X01491424Y00062738
X01490856Y00048514
X01510668Y00051816
X01477359Y0005969
X01453264Y00052578
X01457074Y00034384
X01466472Y00028448
X014873
X01561722Y00024892
X01330074Y00053848
X01320676Y00054102
X01291264Y0005461
X01294006Y00044704
X01306706Y00037084
X0175654Y00083058
X0174892Y00108712
X01851536Y00121412
X01857124Y00071374
X01900558Y0025146
X01905508Y00329692
X01917192Y00347218
X0184417Y003844
X0183401Y0041529
X0183521Y0042418
X0183782Y00464625
X01825431Y0051488
X01895224Y00458724
X01752044Y00408762
X0175661Y0038488
X0167274Y0038481
X01690246Y00413766
X01642872Y00433324
X0166724Y004654
X0163068Y00348488
X01605026Y00361696
X01601346Y00317246
X01722374Y00319746
X01743402Y00283464
X0177619Y0027693
X01688468
X01735204Y0022613
X01742062Y00221488
X01558798Y00228092
X0141219Y0028539
X0135903Y0037079
X01340488Y0036129
X013349Y00433801
X01322962Y0046863
X01297816Y00486664
X01283789Y00435513
Y00429711
X01201296Y00390144
X01070232Y0040513
X00886557Y00485209
X0086741Y0053971
X0083779Y00534456
X0078779Y00532384
X00831472Y00445516
X00805942Y00283718
X0080006Y00263959
X00823722Y0026543
X00828Y0023
Y0022
Y0021
X00816
Y0022
Y0023
X00804
Y0022
Y0021
X00792
Y0022
Y0023
X00793626Y00170434
X00806834Y00179832
X0081975
X00832742Y00173228
X00830202Y0015875
X0081325Y0014675
X0079769Y00146812
X01043178Y00144526
X0070929Y0018415
X00707774Y00210312
X00700662Y0021336
X0071569Y00253958
X0068564Y00260096
Y00350266
X00703456Y00350012
X00700662Y0033528
X00511556Y00511302
X00486156Y0051435
X00485016Y00498602
X00219107Y00403098
X00732158Y00580136
Y00659377
X0076144Y00647954
X00798864Y00643034
Y00653034
Y00663035
X00810864
Y00653034
Y00643034
X00822864
Y00653034
Y00663035
X00834864
Y00653034
Y00643034
X00839614Y00612648
X00826614Y00607568
X00820042Y00612648
X00807114
X00813692Y00602742
X00833114Y00599466
X0083741Y00571726
X00813692Y0069342
X00820114Y00706114
X0096341Y00717042
X00983872Y00766318
X0099346Y0076399
X00914276Y00645304
X01223902Y0061341
X01271654Y00621538
X01278258Y00677164
X01257684Y00683514
X01229236Y00695706
X01326772Y00689356
X0137681Y00637286
X01468504Y00635722
X01503556Y00625602
X01504826Y00581406
X0150381Y00573278
X01559182Y00592328
X01196789Y00560005
X01291894Y0078839
X01578Y00699516
X01611908Y00634492
X01622936Y00644398
X01653924Y00624332
X01721234Y00608838
X01752476Y0060956
X01748412Y00629827
X0174384Y00638556
X0175019Y006471
X0174384Y00659799
Y006852
Y00710692
Y00736092
Y00761492
X0175019
X01757302Y00755142
X01721234Y00727456
X01717263Y00697899
X0171971Y00672499
X01695326Y00705358
X01783932Y00620014
X0177559Y00607782
X01805054Y00607822
X0183905Y00585216
X01833502Y00578104
X0183782Y00550926
X0186445Y00585216
X01871856Y00616874
X01853809Y006223
X01857124Y0064262
X01893065Y00643036
X01927062Y00659799
X01918846Y006852
Y007106
X01929006Y0072517
X01885318Y00723299
X0189624Y00748699
X01885157Y00764032
X01866014Y00697899
X01839182Y00672499
X01933163Y00608999
X01930146Y0058674
X01928368Y0056642
X0173495Y00557784
X0158636Y00592582
T03
X0180624Y0019808
Y0024688
T04
X00829Y0003
X008544
X008798
X009052
X009306
X00956
X009814
X010068
X010322
X010576
X01083
X011084
X011338
X011592
X011846
X0121
X01589
X016144
X016398
X016652
X016906
X01716
X017414
X017668
X017922
X018176
X01843
X018684
X018938
X019192
X019446
X0182174Y0013248
X0175074
X01711741
X0164074
X0197Y001304
Y0003
Y001558
Y001812
Y002066
Y00232
Y002574
Y002828
Y003082
Y003336
Y00359
Y003844
Y004098
Y004352
Y004606
Y00486
Y005114
Y005368
X015654Y004654
Y0044
X0163624Y0029408
Y0026868
Y0024328
Y0021788
Y0019248
X0154Y0044
Y004654
X0141219Y0046079
X0138679
X0136679Y0031079
X0134139
X0131599
X0129059
X0096881Y0030521
Y0033061
Y0035601
Y0038141
X009Y00307
Y002816
Y002562
Y002308
Y002054
Y0018
X0089679Y0053579
X00497Y0019624
X004716
X004462
X004208
X003954
X0037
X0027Y0019624
X002446
X002192
X0004881Y0020881
Y0023381
Y0025881
Y0028381
Y0030881
Y0033381
Y0035881
Y0038381
Y0040881
Y0043381
Y0045881
Y0048381
Y0050881
Y00533809
X001646Y0059624
X0019
X00236Y0059624
X00261399
X002868
X00312199
X00337599
X00362999
X003884
X004138
X00439199
X00464599
X0049
X0089679Y0058659
Y0056119
Y0061199
Y0063739
Y0066279
X0107Y0077
X010954
X011208
X011462
X011716
X01197
X012224
X012478
X012732
X012986
X01324
X013494
X013748
X014002
X014256
X01451
X014764
X015018
X015272
X015526
X01578
X016034
X016288
X016542
X016796
X0197Y0074
Y007146
Y006892
Y006638
Y006384
Y00613
Y005876
Y005622
T05
X0037469Y0025328
X0040009
X0042549
X0045089
X0047629
X0050169
X0052709
Y0053328
X0050169
X0047629
X0045089
X0042549
X0040009
X0037469
X0034929
X0032389
X0029849
X0027309
X0024769
X0022229
X0019689
X0017149
Y0025328
X0019689
X0022229
X0024769
X0027309
X0029849
X0032389
X0034929
T06
X015754Y0038
X015246
T08
X0075Y0011
X008
X0085
X009
X00726789Y0075279
X0067679Y0075279
X00866789Y0075279
X0091679Y0075279
T09
X0005881Y0012121
X0096881
X0005881Y0061621
X0096881
T10
X01287109Y00068821
X0135511
X0144711
X0151511
T11
X0060929Y0026828
Y0051828
X0008929
Y0026828
M30
